<svg xmlns="http://www.w3.org/2000/svg" id="Layer_1" viewBox="0 0 512 512">
  <g>
    <path fill="#53c8ea" d="m41.78,189.13c9.17-10.46,20.42-19.08,33.15-24.32,2.65-1.09,5.36-2.03,8.13-2.82,11.96-3.39,24.36-3.72,36.85-3.55,10.5.13,21.07.62,31.5-.06,1.35-.09,2.71-.2,4.05-.33,1.91-.18,3.82-.42,5.73-.71,1.39-.21,2.78-.45,4.17-.73,3.68-.74,7.28-1.69,10.79-2.84,3.84-1.25,7.59-2.73,11.27-4.38,1.33-.6,2.65-1.21,3.97-1.86,2.29-1.11,4.54-2.29,6.78-3.52.74-.4,1.47-.81,2.2-1.23l.32-2.19,1.18.94.29.22c.85-.48,1.69-.98,2.53-1.49,1.08-.64,2.15-1.29,3.22-1.96,2.31-1.42,4.6-2.88,6.88-4.37,3.78-2.46,7.54-4.99,11.31-7.53,3.14-2.11,6.29-4.24,9.46-6.33l-.4-.3h.85c2.25-1.49,4.52-2.96,6.8-4.4,9.54-6.04,19.32-11.54,29.76-15.57,36.17-13.96,78.79-6.78,110.21,15.57,1.98,1.4,3.92,2.87,5.8,4.4,3.23,2.61,6.32,5.4,9.24,8.35,1.99,2.01,3.9,4.09,5.73,6.25,3.47,4.09,6.63,8.44,9.44,13.05,8.66,14.18,14.22,30.11,23.37,43.97.05.09.11.17.17.25,8.46,12.74,19.72,23.27,30.19,34.46,3.68,3.93,7.26,7.93,10.59,12.15,2.35,2.97,4.57,6.05,6.64,9.21,6.63,10.12,11.85,21.15,15.55,32.67v20.52H6.28c.12-2.9.28-5.79.49-8.68.54-7.55,1.36-15.07,2.46-22.55.69-4.68,1.5-9.35,2.45-14,.54-2.66,1.13-5.31,1.77-7.95,2.06-8.5,4.67-16.84,7.99-24.88.13-.33.27-.66.41-.99,2.42-5.75,5.21-11.34,8.43-16.7.11-.19.23-.38.35-.58,1.16-1.91,2.38-3.78,3.66-5.62,1.8-2.58,3.7-5.1,5.73-7.52"/>
    <g>
      <g>
        <path fill="#25addb" d="m33.96,214.21c0,2.77-.7,5.28-1.86,7.17-1.29,2.11-3.14,3.43-5.2,3.43-1.77,0-3.39-.98-4.62-2.59-.15-.19-.29-.4-.43-.61,2.42-5.75,5.21-11.34,8.43-16.7,2.19,1.8,3.68,5.29,3.68,9.31Z"/>
        <path fill="#25addb" d="m45.66,276.15c-2.19,2.46-5.81,2.9-9.1,3.19-7.7.68-15.4,1.35-23.1,2.02-.57-8.64-1.35-17.29-1.78-25.94.54-2.66,1.13-5.31,1.77-7.95,2.06-8.5,4.67-16.84,7.99-24.88.28-.13.56-.26.84-.38,3.14-1.31,6.65-1.67,9.82-.84.75.2,1.48.46,2.18.8.66.31,1.29.68,1.89,1.12,1.59,1.16,2.84,2.61,3.84,4.25,2.44,4.03,3.32,9.22,4,14.02.27,1.97.55,3.94.82,5.91.83,5.93,1.65,11.87,2.47,17.8.52,3.76.89,8.05-1.64,10.87Z"/>
      </g>
      <g>
        <ellipse cx="62.12" cy="207.69" fill="#25addb" rx="7.06" ry="10.6"/>
        <path fill="#25addb" d="m51.16,220.33c4.8-5.82,14.13-7.98,20.24-3.55,5.52,4.01,6.89,11.52,7.83,18.27,1.1,7.9,2.2,15.8,3.29,23.71.52,3.75.89,8.05-1.63,10.87-2.2,2.46-5.81,2.9-9.1,3.19-7.7.67-15.4,1.35-23.11,2.02-.69-10.51-1.69-21.06-2.02-31.59-.25-7.88-.81-16.45,4.5-22.93Z"/>
      </g>
      <g opacity=".58">
        <path fill="#25addb" d="m467.66,263.13c-2.92,3.27-7.74,3.87-12.11,4.25-10.25.89-20.51,1.79-30.76,2.69-.49-7.52-1.1-15.06-1.64-22.6,0-.1-.01-.19-.02-.29-.34-4.79-.63-9.59-.85-14.39h0c-.07-1.6-.13-3.2-.18-4.78-.13-4.18-.33-8.5-.07-12.74h0c.38-6.4,1.81-12.6,6.06-17.79.31-.38.65-.76,1-1.11,2.03-2.13,4.54-3.81,7.27-4.97.05.09.11.17.17.25,8.46,12.74,19.72,23.27,30.19,34.46.99,7.12,1.98,14.24,2.97,21.36.05.39.11.79.17,1.18.69,5,1.18,10.71-2.18,14.47Z"/>
      </g>
      <g opacity=".47">
        <g>
          <ellipse cx="152.35" cy="196.55" fill="#25addb" rx="6.65" ry="9.99"/>
          <path fill="#25addb" d="m142.01,208.46c4.53-5.49,13.33-7.53,19.09-3.35,5.2,3.78,6.5,10.86,7.38,17.23,1.04,7.45,2.07,14.9,3.11,22.35.49,3.54.84,7.59-1.54,10.25-2.07,2.32-5.48,2.74-8.58,3.01-7.26.64-14.53,1.27-21.79,1.91-.65-9.91-1.59-19.86-1.91-29.79-.23-7.43-.76-15.51,4.24-21.62Z"/>
        </g>
        <g>
          <ellipse cx="123.07" cy="209.25" fill="#25addb" rx="6.65" ry="9.99"/>
          <path fill="#25addb" d="m112.73,221.16c4.53-5.49,13.33-7.53,19.09-3.35,5.2,3.78,6.5,10.86,7.38,17.23,1.04,7.45,2.07,14.9,3.11,22.35.49,3.54.84,7.59-1.54,10.25-2.07,2.32-5.48,2.74-8.58,3.01-7.26.64-14.53,1.27-21.79,1.91-.65-9.91-1.59-19.86-1.91-29.79-.23-7.43-.76-15.51,4.24-21.62Z"/>
        </g>
        <g>
          <ellipse cx="175.63" cy="204.72" fill="#25addb" rx="6.65" ry="9.99"/>
          <path fill="#25addb" d="m165.29,216.63c4.53-5.49,13.33-7.53,19.09-3.35,5.2,3.78,6.5,10.86,7.38,17.23,1.04,7.45,2.07,14.9,3.11,22.35.49,3.54.84,7.59-1.54,10.25-2.07,2.32-5.48,2.74-8.58,3.01-7.26.64-14.53,1.27-21.79,1.91-.65-9.91-1.59-19.86-1.91-29.79-.23-7.43-.76-15.51,4.24-21.62Z"/>
        </g>
      </g>
      <g opacity=".58">
        <g>
          <ellipse cx="388.78" cy="194.12" fill="#25addb" rx="6.65" ry="9.99"/>
          <path fill="#25addb" d="m378.44,206.04c4.53-5.49,13.33-7.53,19.09-3.35,5.2,3.78,6.5,10.86,7.38,17.23,1.04,7.45,2.07,14.9,3.11,22.35.49,3.54.84,7.59-1.54,10.25-2.07,2.32-5.48,2.74-8.58,3.01-7.26.64-14.53,1.27-21.79,1.91-.65-9.91-1.59-19.86-1.91-29.79-.23-7.43-.76-15.51,4.24-21.62Z"/>
        </g>
        <g>
          <ellipse cx="368.59" cy="201.14" fill="#25addb" rx="6.65" ry="9.99"/>
          <path fill="#25addb" d="m358.25,213.05c4.53-5.49,13.33-7.53,19.09-3.35,5.2,3.78,6.5,10.86,7.38,17.23,1.04,7.45,2.07,14.9,3.11,22.35.49,3.54.84,7.59-1.54,10.25-2.07,2.32-5.48,2.74-8.58,3.01-7.26.64-14.53,1.27-21.79,1.91-.65-9.91-1.59-19.86-1.91-29.79-.23-7.43-.76-15.51,4.24-21.62Z"/>
        </g>
        <g>
          <ellipse cx="403.99" cy="191.43" fill="#25addb" rx="6.65" ry="9.99"/>
          <path fill="#25addb" d="m393.65,203.34c4.53-5.49,13.33-7.53,19.09-3.35,5.2,3.78,6.5,10.86,7.38,17.23,1.04,7.45,2.07,14.9,3.11,22.35.49,3.54.84,7.59-1.54,10.25-2.07,2.32-5.48,2.74-8.58,3.01-7.26.64-14.53,1.27-21.79,1.91-.65-9.91-1.59-19.86-1.91-29.79-.23-7.43-.76-15.51,4.24-21.62Z"/>
        </g>
      </g>
      <g>
        <g>
          <ellipse cx="236.61" cy="198.83" fill="#25addb" rx="6.65" ry="9.99"/>
          <path fill="#25addb" d="m226.27,210.74c4.53-5.49,13.33-7.53,19.09-3.35,5.2,3.78,6.5,10.86,7.38,17.23,1.04,7.45,2.07,14.9,3.11,22.35.49,3.54.84,7.59-1.54,10.25-2.07,2.32-5.48,2.74-8.58,3.01-7.26.64-14.53,1.27-21.79,1.91-.65-9.91-1.59-19.86-1.91-29.79-.23-7.43-.76-15.51,4.24-21.62Z"/>
        </g>
        <g>
          <ellipse cx="216.43" cy="205.85" fill="#25addb" rx="6.65" ry="9.99"/>
          <path fill="#25addb" d="m206.08,217.76c4.53-5.49,13.33-7.53,19.09-3.35,5.2,3.78,6.5,10.86,7.38,17.23,1.04,7.45,2.07,14.9,3.11,22.35.49,3.54.84,7.59-1.54,10.25-2.07,2.32-5.48,2.74-8.58,3.01-7.26.64-14.53,1.27-21.79,1.91-.65-9.91-1.59-19.86-1.91-29.79-.23-7.43-.76-15.51,4.24-21.62Z"/>
        </g>
        <g>
          <ellipse cx="251.83" cy="196.14" fill="#25addb" rx="6.65" ry="9.99"/>
          <path fill="#25addb" d="m241.49,208.05c4.53-5.49,13.33-7.53,19.09-3.35,5.2,3.78,6.5,10.86,7.38,17.23,1.04,7.45,2.07,14.9,3.11,22.35.49,3.54.84,7.59-1.54,10.25-2.07,2.32-5.48,2.74-8.58,3.01-7.26.64-14.53,1.27-21.79,1.91-.65-9.91-1.59-19.86-1.91-29.79-.23-7.43-.76-15.51,4.24-21.62Z"/>
        </g>
        <g opacity=".58">
          <ellipse cx="291.31" cy="195.87" fill="#25addb" rx="6.65" ry="9.99"/>
          <path fill="#25addb" d="m280.96,207.78c4.53-5.49,13.33-7.53,19.09-3.35,5.2,3.78,6.5,10.86,7.38,17.23,1.04,7.45,2.07,14.9,3.11,22.35.49,3.54.84,7.59-1.54,10.25-2.07,2.32-5.48,2.74-8.58,3.01-7.26.64-14.53,1.27-21.79,1.91-.65-9.91-1.59-19.86-1.91-29.79-.23-7.43-.76-15.51,4.24-21.62Z"/>
        </g>
      </g>
    </g>
    <g opacity=".08">
      <path fill="#fff" d="m420.28,258.47l-2.93,9.27-2.58,8.18-2.97,9.41-.66,2.09-1.44,4.57-2.74,8.68-.75,2.36-2.98-2.36-10.99-8.68-3.41-2.7-2.33-1.84-11.18-8.83-13.75-10.87-4.3-3.4-1.44-1.14-14.43-11.41-4.4-3.48-1.07-.84-12.18-9.63-.09-.07-3.04-2.41-12.67-10.01-18.06-14.28-3.05-2.41-3.76-2.97h0l-.71-.56-5.72-4.52-51.8-40.94-2.72-2.15-3.96-3.13-2.05-1.61-1.05-.84-1.56-1.23-.77-.61-4.14-3.27-3.3-2.61-3.13-2.48c.85-.48,1.69-.98,2.53-1.49,1.08-.64,2.15-1.29,3.22-1.96,2.31-1.42,4.6-2.88,6.88-4.37,3.78-2.46,7.54-4.99,11.31-7.53,3.14-2.11,6.29-4.24,9.46-6.33l8.44,6.33,9.28,6.95,2.63,1.97,1.26.94,3.23,2.42,1.5,1.12,3.14,2.35,2.16,1.62,3.01,2.25h0s1.49,1.12,1.49,1.12l2.62,1.96,2.08,1.56.25.18,2.49,1.86,3.23,2.42,4.47,3.35,1.57,1.18,1.48,1.11.77.58,29.96,22.44,3.04,2.29,13.34,9.99,4.4,3.3,17.41,13.04,15.28,11.45,11.39,8.53,4.48,3.36,2.81,2.1,5.06,3.79,5.73,4.29,2.02,1.52.04.03,2.33,1.75.14.11,4.73,3.54,7.48,5.6Z"/>
      <polygon fill="#fff" points="278.27 115.38 281.43 117.58 282.37 118.23 284.6 119.79 286.84 121.34 289.88 123.45 350.65 165.68 355.05 168.74 397.82 198.45 403.54 202.43 405.57 203.84 407.94 205.48 442.01 229.16 442.01 204.94 407.94 182.36 405.57 180.79 403.54 179.45 397.82 175.66 355.05 147.32 350.65 144.4 313.51 119.79 312.97 119.43 306.86 115.38 278.27 115.38"/>
    </g>
    <g opacity=".08">
      <path fill="#fff" d="m199.96,258.47l-2.93,9.27-2.58,8.18-2.97,9.41-.66,2.09-1.44,4.57-2.74,8.68-.75,2.36-2.99-2.36-10.98-8.68-3.42-2.7-2.33-1.84-11.18-8.83-13.75-10.87-.34-.27-19.83-15.68-4.41-3.48-1.07-.84-7.15-5.65-5.03-3.97-.09-.07-3.05-2.41-30.73-24.29-.65-.51-2.4-1.9-4.47-3.54-5.35-4.22-.38-.3-14.54-11.49c9.17-10.46,20.42-19.08,33.15-24.32l25.36,19,3.05,2.29,13.33,9.99,4.41,3.3.28.21,7.87,5.9,10.09,7.56,16.14,12.09,5.53,4.14.2.14,9.23,6.92,2.01,1.51,5.06,3.79,5.72,4.29,2.02,1.52.04.03,2.33,1.75,7.49,5.6,4.86,3.64Z"/>
      <path fill="#fff" d="m294.54,256.5l-3.14,1.57-9.03,4.52-5.72,2.87-2.84,1.42-13.07-9.31-4.85-3.45-9.32-6.64-8.72-6.21-4.39-3.13-11.5-8.19-16.31-11.62-18.03-12.84-2.37-1.64-2.02-1.41-1.28-.89-4.44-3.09-4.34-3.02-11.96-8.32-5.73-3.98-20.73-14.41-4.4-3.06-10.42-7.24c10.5.13,21.07.62,31.5-.06l4.05,2.68,5.73,3.8,16.31,10.8,5.72,3.79,2.02,1.34,2.37,1.57,23.98,16.63,11.45,7.94,4.11,2.85,10.46,7.25,15.58,10.8,17.25,11.96,6.21,4.3.94.65,3.95,2.74.83.58,12.18,8.44Z"/>
    </g>
    <g>
      <path fill="#1790cb" d="m388.58,119.78h-152.57c2.25-1.49,4.52-2.96,6.8-4.4h139.96c1.98,1.4,3.92,2.87,5.8,4.4Z"/>
      <path fill="#1790cb" d="m403.54,134.39v143.55h-5.73v-149.8c1.99,2.01,3.9,4.09,5.73,6.25Z"/>
      <rect width="5.73" height="160.36" x="276.64" y="117.58" fill="#1790cb" transform="rotate(-180 279.505 197.76)"/>
      <path fill="#1790cb" d="m161.19,157.33v120.6h-5.73v-119.9c1.91-.18,3.82-.42,5.73-.71Z"/>
      <path fill="#1790cb" d="m40.01,191.19v86.75h-5.73v-79.23c1.8-2.58,3.7-5.1,5.73-7.52Z"/>
    </g>
    <path fill="#1790cb" d="m505.6,311.22H6.01c.03-3.52.11-7.03.27-10.55.12-2.9.28-5.79.49-8.68.54-7.55,1.36-15.07,2.46-22.55.69-4.68,1.5-9.35,2.45-14,.54-2.66,1.13-5.31,1.77-7.95h470.49c6.63,10.12,11.85,21.15,15.55,32.67,1.25,3.89,2.32,7.85,3.22,11.84,1.42,6.33,2.39,12.76,2.89,19.23Z"/>
    <path fill="#35b68e" d="m504.96,337.96c-.07.58-.15,1.16-.23,1.74-.07.48-.14.97-.22,1.46-1.13,7.39-2.92,14.68-5.3,21.76-.36,1.07-.73,2.14-1.12,3.2-8.52,23.41-23.57,44.45-43.15,59.85H27.4c-.53-1.2-1.02-2.39-1.44-3.51-6.95-18.22-12.11-37.12-15.44-56.34-.19-1.07-.37-2.13-.53-3.2-1.18-7.22-2.09-14.48-2.75-21.76-.1-1.07-.19-2.13-.27-3.2-.71-8.9-1.03-17.82-.96-26.74.03-3.52.11-7.03.27-10.55.12-2.9.28-5.79.49-8.68h495.95c1.42,6.33,2.39,12.76,2.89,19.23.69,8.91.5,17.88-.64,26.74Z"/>
    <path fill="#fff" d="m504.96,337.96c-.07.58-.15,1.16-.23,1.74-.07.48-.14.97-.22,1.46H7.24c-.1-1.07-.19-2.13-.27-3.2h497.99Z"/>
    <path fill="#fff" d="m499.21,362.91c-.36,1.07-.73,2.14-1.12,3.2H10.52c-.19-1.07-.37-2.13-.53-3.2h489.22Z"/>
    <polygon fill="#fff" points="240.84 364.58 240.21 366.11 215.5 425.96 209.18 425.96 236.05 366.11 237.4 363.1 240.84 364.58"/>
    <g>
      <path fill="#1790cb" d="m366.96,126.41v33.27h-190.81v-5.91c3.84-1.25,7.59-2.73,11.27-4.38,1.33-.6,2.65-1.21,3.97-1.86,2.29-1.11,4.54-2.29,6.78-3.52.74-.4,1.47-.81,2.2-1.23l.32-2.19,1.18.94.29.22c.85-.48,1.69-.98,2.53-1.49,1.08-.64,2.15-1.29,3.22-1.96,2.31-1.42,4.6-2.88,6.88-4.37,3.78-2.46,7.54-4.99,11.31-7.53h140.85Z"/>
      <g opacity=".34">
        <path fill="#f0f6f7" d="m191.39,147.55v-.02c-1.32.64-2.64,1.26-3.97,1.86v3.34h5.11v-5.18h-1.15Z"/>
        <path fill="#f0f6f7" d="m205.8,147.55l-.51-3.32-.6-3.96c-.84.51-1.68,1-2.53,1.49l-.29-.22.05.36.15,1.05h-1.73l.02-.15c-.73.42-1.46.83-2.2,1.23l-.52,3.54h-.97v5.18h4.27v-5.18h-1.19l.34-2.63h2.29l.32,2.63h-1.1v5.18h5.11v-5.18h-.91Z"/>
        <path fill="#f0f6f7" d="m215.65,134.64c-.2-.28-.49-.51-.85-.7-2.29,1.49-4.58,2.95-6.88,4.37h.69v9.24h-1.03v5.18h3.98c1.6,0,2.78-.26,3.52-.78.26-.18.46-.39.62-.64.59-.94.89-3.14.89-6.57v-4.46c0-2.91-.31-4.79-.93-5.65Zm-4.1,3.68h.4c.68,0,1.1.16,1.26.47.17.31.25,1.12.25,2.44v3.92c0,1.08-.08,1.75-.24,2.01-.16.26-.57.39-1.23.39h-.45s0-9.23,0-9.23Z"/>
        <path fill="#f0f6f7" d="m223.94,144.72v2.82h-2.07v-3.77h2.58v-1.99h-2.58v-3.48h2.07v2.8h2.44v-7.75h-8.48v4.95h1.02v9.24h-1.02v5.18h8.68v-8h-2.64Z"/>
        <path fill="#f0f6f7" d="m233.86,143.78v3.77h-2.07v-9.24h1.11v-4.95h-5.11v4.95h1.05v9.24h-1.05v5.18h8.72v-8.95h-2.64Z"/>
        <path fill="#f0f6f7" d="m246.59,133.36v8.56h1.8v-3.61h1.42v9.24h-1.16v5.18h5.11v-5.18h-1v-9.24h1.36v3.61h1.79v-8.56h-9.32Z"/>
        <path fill="#f0f6f7" d="m264.24,134.67c-.53-1.08-1.6-1.62-3.2-1.62-1.7,0-2.82.52-3.37,1.57-.21.39-.38.95-.51,1.66-.21,1.17-.31,2.77-.31,4.79v4.31c0,3.04.28,5.07.83,6.1.55,1.04,1.64,1.56,3.25,1.56s2.67-.54,3.24-1.62c.58-1.08.86-3.09.86-6.04v-4.29c0-3.2-.27-5.34-.8-6.42Zm-2.33,5.5l.03.84v3.71c0,1.9-.32,2.85-.96,2.85-.68,0-1.02-.94-1.02-2.82v-3.61c0-1.21.14-2.03.44-2.45.14-.21.33-.32.55-.32.59,0,.9.4.94,1.22v.22s.02.36.02.36Z"/>
        <path fill="#f0f6f7" d="m275.38,138.31v-4.95h-3.96v4.95h.68v6.45c0,1.16-.13,1.96-.4,2.4-.17.27-.38.4-.64.4-.45,0-.74-.51-.85-1.52h0c-.04-.35-.06-.74-.06-1.19v-6.54h.71v-4.95h-4.7v4.95h1.03v10.5c0,2.82,1.2,4.23,3.6,4.23,1.91,0,3.04-.85,3.38-2.54l.13-1.38v-.06s0-1.49,0-1.49v-9.25h1.07Z"/>
        <path fill="#f0f6f7" d="m286.95,145.51h-.72v.31c0,1.28-.21,1.92-.63,1.92-.3,0-.46-.27-.5-.81l-.06-1.07-.07-1.33c-.07-.95-.81-1.53-2.21-1.75.15-.03.27-.05.36-.07,1.64-.36,2.46-1.77,2.46-4.24,0-2.03-.29-3.4-.88-4.08-.44-.52-1.21-.84-2.32-.96-.36-.04-.75-.06-1.18-.06h-4.79v4.95h1.05v9.24h-1.05v5.18h5.11v-5.18h-1.11v-3.74c.14-.01.24-.02.28-.02.88,0,1.44.31,1.68.92.09.23.14.51.14.83l-.02,1.29-.02,1.28c0,3.18.76,4.77,2.27,4.77,1.59,0,2.38-1.53,2.38-4.58,0-.77-.06-1.69-.17-2.78Zm-4.59-4.18c-.32.37-.86.56-1.62.56h-.34v-3.57c.19-.01.32-.01.4-.01.73,0,1.25.21,1.56.63.23.31.35.74.35,1.28,0,.47-.12.84-.35,1.11Z"/>
        <path fill="#f0f6f7" d="m294.43,133.36v4.95h1.22v8.59l-3.17-13.54h-4.66v4.95h1.05v9.24h-1.05v5.18h4.26v-5.18h-1.2v-10.12l3.55,15.29h3.23v-14.41h1.03v-4.95h-4.26Z"/>
        <path fill="#f0f6f7" d="m308.49,147.55l-1.9-12.49-.26-1.7h-3.89l-2.1,14.19h-.97v5.18h4.27v-5.18h-1.19l.34-2.63h2.29l.33,2.63h-1.1v5.18h5.11v-5.18h-.91Zm-5.45-4.61l.88-5.96.85,5.96h-1.73Z"/>
        <path fill="#f0f6f7" d="m322.67,138.31h1.05v-4.95h-5.28l-1.41,8.86-1.39-8.86h-5.39v4.95h1.02v9.24h-1.02v5.18h4.26v-5.18h-1.03v-10.43l.52,3.09,2.09,12.52h1.22l1.42-9.23,1-6.51v10.57h-.9v5.18h4.9v-5.18h-1.05v-9.24Z"/>
        <path fill="#f0f6f7" d="m330.98,144.72v2.82h-2.07v-3.77h2.58v-1.99h-2.58v-3.48h2.07v2.8h2.45v-7.75h-8.49v4.95h1.02v9.24h-1.02v5.18h8.68v-8h-2.64Z"/>
        <path fill="#f0f6f7" d="m341.45,133.36v4.95h1.22v8.59l-2.16-9.22-1.01-4.31h-4.67v4.95h1.05v9.24h-1.05v5.18h4.27v-5.18h-1.2v-10.12l3.55,15.29h3.23v-14.41h1.03v-4.95h-4.26Z"/>
        <path fill="#f0f6f7" d="m346.37,133.36v8.56h1.8v-3.61h1.42v9.24h-1.16v5.18h5.11v-5.18h-1.01v-9.24h1.36v3.61h1.79v-8.56h-9.32Z"/>
      </g>
      <rect width="3.09" height="11.92" x="331.25" y="116.3" fill="#1790cb"/>
    </g>
  </g>
  <path fill="none" d="m504.96,337.96c-.07.58-.15,1.16-.23,1.74-.07.48-.14.97-.22,1.46-1.13,7.39-2.92,14.68-5.3,21.76-.36,1.07-.73,2.14-1.12,3.2-8.52,23.41-23.57,44.45-43.15,59.85H27.4c-.53-1.2-1.02-2.39-1.44-3.51-6.95-18.22-12.11-37.12-15.44-56.34-.19-1.07-.37-2.13-.53-3.2-1.18-7.22-2.09-14.48-2.75-21.76-.1-1.07-.19-2.13-.27-3.2-.71-8.9-1.03-17.82-.96-26.74.03-3.52.11-7.03.27-10.55.12-2.9.28-5.79.49-8.68.54-7.55,1.36-15.07,2.46-22.55.69-4.68,1.5-9.35,2.45-14,.54-2.66,1.13-5.31,1.77-7.95,2.06-8.5,4.67-16.84,7.99-24.88.13-.33.27-.66.41-.99,2.42-5.75,5.21-11.34,8.43-16.7.11-.19.23-.38.35-.58,1.16-1.91,2.38-3.78,3.66-5.62,1.8-2.58,3.7-5.1,5.73-7.52.58-.7,1.16-1.39,1.77-2.07,9.17-10.46,20.42-19.08,33.15-24.32,2.65-1.09,5.36-2.03,8.13-2.82,11.96-3.39,24.36-3.72,36.85-3.55,10.5.13,21.07.62,31.5-.06,1.35-.09,2.71-.2,4.05-.33,1.91-.18,3.82-.42,5.73-.71,1.39-.21,2.78-.45,4.17-.73,3.68-.74,7.28-1.69,10.79-2.84,3.84-1.25,7.59-2.73,11.27-4.38,1.33-.6,2.65-1.21,3.97-1.86,2.29-1.11,4.54-2.29,6.78-3.52.74-.4,1.47-.81,2.2-1.23.52-.29,1.04-.59,1.56-.89.08-.04.15-.09.23-.14.85-.48,1.69-.98,2.53-1.49,1.08-.64,2.15-1.29,3.22-1.96,2.31-1.42,4.6-2.88,6.88-4.37,3.78-2.46,7.54-4.99,11.31-7.53,3.14-2.11,6.29-4.24,9.46-6.33.15-.1.3-.2.45-.3,2.25-1.49,4.52-2.96,6.8-4.4,9.54-6.04,19.32-11.54,29.76-15.57,36.17-13.96,78.79-6.78,110.21,15.57,1.98,1.4,3.92,2.87,5.8,4.4,3.23,2.61,6.32,5.4,9.24,8.35,1.99,2.01,3.9,4.09,5.73,6.25,3.47,4.09,6.63,8.44,9.44,13.05,8.66,14.18,14.22,30.11,23.37,43.97.05.09.11.17.17.25,8.46,12.74,19.72,23.27,30.19,34.46,3.68,3.93,7.26,7.93,10.59,12.15,2.35,2.97,4.57,6.05,6.64,9.21,6.63,10.12,11.85,21.15,15.55,32.67,1.25,3.89,2.32,7.85,3.22,11.84,1.42,6.33,2.39,12.76,2.89,19.23.69,8.91.5,17.88-.64,26.74Z"/>
  <g>
    <g>
      <path fill="#ffae9a" d="m249.89,161.62s-7.12,39.8-9.2,44.37c-1.06,2.32-6.32,8.74-11.24,14.5-4.78,5.59-9.24,10.56-9.24,10.56l-5.22-21.75-.16-.67.83-.93,1.15-1.29,8.79-9.9,13.54-36.97,10.76,2.08Z"/>
      <g opacity=".41">
        <path fill="#eb8366" d="m229.45,220.49c-4.78,5.59-9.24,10.56-9.24,10.56l-5.22-21.75c.25-.59.47-1.14.67-1.6.47-1.13.77-1.84.77-1.84,0,0,.13.2.37.55,1.58,2.32,7.86,11.27,12.65,14.09Z"/>
      </g>
      <path fill="#d23838" d="m225.59,227.4l-16.1,17.5-5.94,6.46-3.33-11.42-5.93-20.35,20.89-12.92s8.16,5.61,10.41,20.72Z"/>
      <g opacity=".14">
        <path fill="#200e10" d="m209.49,244.9l-5.94,6.46-3.33-11.42,1.49-17.56s5.67,13.72,7.78,22.52Z"/>
      </g>
      <path fill="#ffae9a" d="m169.18,365.56s-1.7,7.05-3.74,14.64c-2.04,7.56-4.42,15.65-5.81,17.82-2.78,4.34-7.98,28-7.98,28h-21c.52-12.84,8.5-37.72,8.5-37.72l.7-16.81.34-8.01,28.99,2.08Z"/>
      <path fill="#eb8366" d="m169.18,365.56s-1.7,7.05-3.74,14.64c-6.8-6.03-20.92-8.16-25.58-8.71l.34-8.01,28.99,2.08Z"/>
      <path fill="#ffae9a" d="m212.4,387.95c0,4.17-5.55,38.01-5.55,38.01h-19.44c-1.39-4.16,0-37.32,0-37.32l-2.76-10.28-3.67-13.68,28.29-3.47s.55,3.96,1.19,8.87c.88,6.81,1.94,15.44,1.94,17.86Z"/>
      <path fill="#eb8366" d="m210.46,370.09c-6.63-.02-21.73,6.47-25.81,8.28l-3.67-13.68,28.29-3.47s.55,3.96,1.19,8.87Z"/>
      <path fill="#21426b" d="m213.44,363.83c-11.98,11.46-34.89,5.38-34.89,5.38l-1.9-10.65-1.23-6.88-4.34,18.92c-15.97,5.73-35.23-5.03-35.23-5.03-1.39-6.42,6.07-52.24,6.07-52.24l61.62-3.13,9.89,53.63Z"/>
      <path fill="#ffae9a" d="m144.53,205.01l-10.16,7.05-5.8,4.02s-1.47-4.15-3.3-9.65c-3.07-9.26-7.16-22.34-6.94-25.85.35-5.59,5.11-47.6,5.11-47.6h13.63l-.69,45.31,6.21,20.32.1.32,1.86,6.08Z"/>
      <g opacity=".41">
        <path fill="#eb8366" d="m143,198.41l-.33.52-8.31,13.13-5.8,4.02s-1.47-4.15-3.3-9.65c6.01-2.44,15.24-6.83,17.31-7.81.25-.12.4-.19.42-.2Z"/>
      </g>
      <path fill="#d23838" d="m206.84,315.23c-31.59,13.88-66.65-.69-66.65-.69,0,0,3.47-25.17,4.17-32.28.48-4.87.38-14.86-.17-23.36-.26-3.92-.61-7.51-1.05-10.14-.13-.8-.16-1.73-.08-2.77.12-1.74.5-3.77,1.07-5.92,2.61-9.97,9.05-22.72,10.99-22.72.67,0,1.84-.05,3.2-.13,3.9-.22,9.38-.66,9.38-.66,0,0,13.98,2.17,14.58,2.35.6.17,20.57-1.22,20.57-1.22,0,0,2.78,47.56,2.43,57.62-.35,10.07,1.56,39.92,1.56,39.92Z"/>
      <path fill="#d23838" d="m158.42,217.34s-7.8,28.34-11.9,32.66c-.75.8-1.39.78-1.82-.38-.35-.95-.92-2.19-1.64-3.64-.47-.94-1.01-1.97-1.59-3.06-5.64-10.51-15.86-26.84-15.86-26.84l18.22-18.52,14.48,19.65.1.13Z"/>
      <g opacity=".25">
        <polygon fill="#200e10" points="186.54 339.18 179.94 347.69 176.65 358.56 175.43 351.68 177.34 343.35 186.54 339.18"/>
      </g>
      <path fill="#ffae9a" d="m123.44,132.98s-3.55-12.79-1.64-15.45c1.91-2.66,2.02-3.99,3.7-3.88,0,0,1.21-3.07,3.93-3.07,0,0,2.02-1.91,4.92-1.68,0,0,3.82-1.83,5.21-.02,1.39,1.81,2.37,5.11,2.37,5.11,0,0,2.72.69,2.95,3.01.23,2.31-.23,6.88-2.02,8.97-1.79,2.08-5.67,6.25-6.07,7.58-.4,1.33-12.39.87-13.34-.58Z"/>
      <path fill="#eb8366" d="m132.29,130.03h-.4c0-.3.05-7.26,4.09-9.6l.2.34c-3.85,2.23-3.89,9.19-3.89,9.26Z"/>
      <path fill="#eb8366" d="m129.77,123.39c-.98,0-2.08-.41-2.49-1.19-.68-1.3-1.88-3.03-1.9-3.04l.33-.23s1.23,1.76,1.92,3.09c.4.76,1.77,1.12,2.68.93.32-.07.87-.27.91-.85.01-.2.03-.44.05-.71.15-1.77.39-4.74-.96-5.53-1.65-.97-5.1-2.64-5.14-2.65l.17-.36s3.5,1.69,5.16,2.67c1.57.92,1.31,4.04,1.16,5.91-.02.26-.04.5-.05.7-.04.61-.48,1.05-1.22,1.21-.2.04-.41.06-.63.06Z"/>
      <path fill="#eb8366" d="m132.45,122.56c-.34,0-.71-.09-1.11-.27l.16-.36c.67.3,1.23.31,1.68.02.71-.46.96-1.54.96-2.16,0-.34.04-.76.08-1.24.11-1.18.24-2.65-.08-4.1-.44-1.97-4.43-4.01-4.47-4.03l.18-.35c.17.09,4.2,2.15,4.67,4.3.34,1.51.19,3.08.09,4.22-.04.47-.08.88-.08,1.2,0,.84-.36,1.98-1.15,2.49-.29.18-.6.28-.95.28Z"/>
      <path fill="#eb8366" d="m138.08,114.82h-.4v-1.79c-.11-1.83-3.4-3.92-3.44-3.94l.21-.34c.14.09,3.5,2.22,3.62,4.26v1.81Z"/>
      <path fill="#eb8366" d="m137.04,120.79c-.74,0-1.46-.22-1.93-.88-1.27-1.78.05-2.94,1.21-3.97.11-.1.22-.19.32-.29,1.24-1.13,4.7-1.7,4.84-1.73l.06.39s-3.49.58-4.64,1.63c-.11.1-.22.19-.33.29-1.14,1-2.21,1.95-1.15,3.44,1.16,1.63,4.34-.04,4.37-.06l.19.35c-.09.05-1.57.82-2.96.82Z"/>
      <g>
        <path fill="#200e10" d="m164.83,185.32h0c-2.34,3.19-2.43,7.59-1.03,11.37.31.86.76,1.75,1.14,2.63.74,1.45,1.64,2.86,2.55,4.2,1.09,1.73,2.36,3.62,3.71,5.87,3.1-1.88,6.12-3.71,9.22-5.59,1.98-1.2,3.95-3.21,6.12-4.15,2.99-1.24,6.76-1.76,9.59-3.39,1.54-.91,2.86-2.22,3.51-4.17.45-1.24.19-2.76-.9-3.54-.68-.49-1.58-.64-2.16-1.26-.38-.44-.52-.97-.73-1.53-.16-.39-.31-.86-.54-1.27h0c.01-.07-.06-.08-.05-.16-.14-.54-.42-1.1-.77-1.68-1.36-2.3-3.3-4.33-5.96-5.31-2.96-1.03-6.28-.95-9.34-.16-3.06.79-5.85,2.21-8.58,3.72-2.13,1.17-4.36,2.47-5.79,4.43h0Z"/>
        <g>
          <path fill="#ffab96" d="m168.54,215.28c-.21,1.1-.27,2.18,0,3.17.88,3.41,2.79,6.56,5.45,8.89.82.72,1.73,1.37,2.77,1.71,2.26.74,5.91-.2,6.68-2.61.82-2.58-.27-5.51.57-8.01,0,0,.73-2.18.73-2.18l1.41-4.74.33-1.2.44-1.56.77-2.62-7.57-2.73-6.4-2.25-.81-.3-.32.99-.45,1.63-1.18,3.89-.23.85s-.52,1.62-.52,1.62c-.5,1.68-1.3,3.6-1.66,5.46Z"/>
          <path fill="#eb8366" d="m186.36,212.8c-3.92-3.85-10-9.18-12.96-9.43l-1.55,3.01c.12.54.06,1.2.4,1.79,7.28,13.42,12.17,9.18,12.17,9.18l1.94-4.56h0Z"/>
        </g>
        <path fill="#200e10" d="m194.15,182.48c-.96,1.08-2.46,2.59-3.58,2.83,0,0,2.75,6.95,4.65,10.96.18-.12.41-.15.57-.19,1.54-.91,2.86-2.22,3.51-4.17.85-2.33-1.33-3.88-2.76-5.51-1.1-1.26-1.55-2.56-2.39-3.93h0Z"/>
        <path fill="#ffab96" d="m166.22,202.84c1.14,1.37,2.99,2.58,4.78,3.34,0,0,4.31,9.8,14.02,10.1,6.94.26,10.4-6.63,11.17-12.23.96-7.11,1.64-16.48-5.17-21.35-3.41-2.44-8.11-3.19-12.12-1.83-4.64,1.47-7.94,5.3-11.05,8.95-.99,1.22-2.05,2.44-2.61,3.88-.4.96-.52,2.04-.31,3.04.25,1.15.29,1.38.26,2.4-.11,1.45.09,2.51,1.03,3.71h0Z"/>
        <path fill="#121136" d="m184.95,199.06c-.28.69-1.11,1.05-1.83.78-.72-.27-1.11-1.08-.84-1.76s1.11-1.05,1.83-.78c.72.27,1.11,1.08.84,1.76Z"/>
        <g>
          <path fill="#071b38" d="m184.95,199.06c-.28.69-1.11,1.05-1.83.78-.72-.27-1.11-1.08-.84-1.76s1.11-1.05,1.83-.78c.72.27,1.11,1.08.84,1.76Z"/>
          <path fill="#fff" d="m183.72,198.63c-.14.34-.47.5-.83.37-.36-.14-.53-.46-.39-.8.14-.34.47-.5.83-.37.36.14.52.53.39.8Z"/>
        </g>
        <g>
          <path fill="#071b38" d="m195.02,200.75c-.28.69-1.11,1.05-1.83.78-.72-.27-1.11-1.08-.84-1.76s1.11-1.05,1.83-.78c.72.27,1.11,1.08.84,1.76Z"/>
          <path fill="#fff" d="m193.79,200.32c-.14.34-.47.5-.83.37-.36-.14-.53-.46-.39-.8.14-.34.47-.5.83-.37.36.14.53.46.39.8Z"/>
        </g>
        <path fill="#200e10" d="m163.13,189.33h0c-.51,2.45-.17,4.99.67,7.35.31.86.76,1.75,1.14,2.63.06.09.11.24.17.33.04-.65.32-1.34.76-2.07,1.49-2.31,3.66-2,5.4-.16.84.88,1.13,1.82,1.8,2.82.48.75,2.29,2.24,2.11.22-.08-.82-.41-1.98-.27-2.77.11-.64.55-.93.81-1.55,1.12-2.35-1.39-5.86,2.43-7,1.69-.5,3.5.23,5.14.9s3.56,1.26,5.14.5c2.4-1.15,2.19-6.94,5.9-4.45.89.6,1.51,1.44,2.29,2.24.68.69,1.65,1.5,2.69,1.39.04-3.08-.28-5.25-2.36-7.82-1.52-1.87-2.8-3.15-4.66-4.6-1.48-1.15-3.95-1.81-5.86-1.78-2.09.04-4.11-.65-6.24-.42-2.87.31-4.63,2.53-7.32,3.11-.9.19-1.84.11-2.75.27-1.25.23-2.39.93-3.11,1.93-.59.82-.48,1.69-.78,2.59-.77,2.28-2.61,3.89-3.13,6.34h0Z"/>
        <g>
          <path fill="#f9b08e" d="m168.45,199.41h0c.3-.39.66-.69,1.1-.99-.5.21-.93.5-1.3.8-.37.38-.67.76-.78,1.33-.09.5.05,1.04.35,1.46.31.42.71.78,1.11,1.08-.32-.35-.72-.71-.95-1.12s-.31-.86-.22-1.36c.08-.43.39-.89.67-1.21h0Z"/>
          <path fill="#f9b08e" d="m169.91,200.7h0l.84.44c-.2-.18-.47-.38-.74-.57-.27-.2-.56-.32-.86-.37-.29-.12-.66-.19-.98-.1-.16.05-.34.16-.44.29s-.12.27-.08.43c.02-.14.13-.27.22-.4.1-.13.19-.19.34-.16.23-.03.53.02.82.14.29.12.58.18.87.3h0Z"/>
        </g>
        <path fill="#200e10" d="m179.93,196.2q.07.01.15.03c.07.01.16-.05.25-.1.86-.95,1.73-1.53,2.74-1.58,1.48-.11,2.54.82,2.62.83.14.1.29.12.39,0,.01-.07.04-.21-.1-.31-.07-.01-1.26-1.1-2.98-.96-1.17.09-2.19.65-3.08,1.74-.1.13-.05.29.01.37h0Z"/>
        <path fill="#200e10" d="m191.48,196.46h0c-.15-.03-.07-.01,0,0s.15.03.24-.03c1.18-1.05,2.18-1.46,3.15-1.29h0c1.2.21,1.76,1.34,1.76,1.34.05.16.2.18.36.14.16-.05.19-.19.14-.34.01-.07-.69-1.3-2.09-1.62-1.11-.19-2.27.27-3.56,1.44-.1.13-.12.27.01.37h0Z"/>
        <g>
          <path fill="#eb8366" d="m190.05,199.15h0c.24-.43.39-.8.62-1.15-.23.35-.45.71-.6,1.07-.15.37-.21.75-.3,1.2-.06.78.03,1.65.31,2.41.17.42.35.77.46,1.1.11.33.2.74-.03,1.09-.13.29-.5.54-.93.62-.34.1-.84.09-1.25.1.4.07.81.06,1.23-.02s.8-.33,1.1-.67c.23-.35.23-.82.06-1.25-.09-.41-.35-.77-.46-1.1-.28-.76-.39-1.48-.41-2.27-.01-.39.06-.77.2-1.14h0Z"/>
          <path fill="#eb8366" d="m187.44,205.52c-.12-.26-.42-.39-.65-.51-.32-.06-.56-.1-.84.09.32.06.56.1.78.22.24.04.46.16.7.2Z"/>
        </g>
        <g>
          <path fill="#eb8366" d="m190.76,208.57c-1.33.49-2.8.57-4.22.47-.71-.07-1.42-.18-2.11-.37-.69-.17-1.36-.45-1.99-.76,1.41.23,2.76.46,4.14.58.69.07,1.38.09,2.07.11.7,0,1.39.02,2.1-.02h0Z"/>
          <path fill="#eb8366" d="m188.5,210.19c-.35.24-.7.31-1.07.34-.36.01-.73-.02-1.1-.22.35-.24.7-.31,1.07-.34.36-.01.73.02,1.1.22h0Z"/>
        </g>
      </g>
      <g opacity=".14">
        <path fill="#200e10" d="m151.09,232.59l-4.57,17.41-2.33,8.89c-.26-3.92-.61-7.51-1.05-10.14-.13-.8-.16-1.73-.08-2.77-.47-.94-1.01-1.97-1.59-3.06l2.66-2.86,6.96-7.47Z"/>
      </g>
    </g>
    <g>
      <path fill="#200e10" d="m333.22,176.49c5.14,2.31,8.85,7.55,9.31,13.17.43,5.22-1.73,10.5-.69,15.62.65,3.21,2.5,6.03,4.05,8.92,1.55,2.89,2.85,6.16,2.26,9.38-.59,3.23-3.75,6.16-6.94,5.38.92,3.77,1.83,7.72.91,11.5-.92,3.77-4.32,7.25-8.19,6.85-3.71-.38-6.26-4.04-7.22-7.64s-.87-7.44-2.01-10.99c-1.81-5.66-6.59-10.1-7.95-15.89-1.87-7.97,3.1-16.9-.49-24.25-1.92-3.94-3.91-8.33.99-10.98,4.72-2.56,11.01-3.27,15.95-1.06Z"/>
      <path fill="#ffae9a" d="m301.31,380.69c-1.88,5.06-3.52,9.8-3.52,10.91,0,2.6,1.73,34.37,1.73,34.37h-20.31s-3.12-31.07-4.16-36.28c-.69-3.42,1.33-13.53,2.8-20.05.76-3.39,1.37-5.81,1.37-5.81l27.6,2.6s-2.97,7.43-5.51,14.26Z"/>
      <path fill="#eb8366" d="m306.82,366.43s-2.97,7.43-5.51,14.26c-5.12-5.46-18.19-9.57-23.46-11.06.76-3.39,1.37-5.81,1.37-5.81l27.6,2.6Z"/>
      <path fill="#ffae9a" d="m356.81,425.96h-21.52s-7.29-28.81-10.07-34.71c-1.4-2.98-2.72-8.09-3.68-12.42-.94-4.23-1.53-7.72-1.53-7.72l26.73-7.29,1.18,13.07,1.42,15.74c4.51,7.64,7.46,33.32,7.46,33.32Z"/>
      <path fill="#eb8366" d="m347.92,376.89c-9.21-3.26-22.01.47-26.38,1.94-.94-4.23-1.53-7.72-1.53-7.72l26.73-7.29,1.18,13.07Z"/>
      <path fill="#21426b" d="m286.86,315.06s-11.46,49.12-11.8,51.9c0,0,48.43,16.14,75.85,2.26l-5.32-49.37-58.73-4.78Z"/>
      <path fill="#ffae9a" d="m283.67,207.48l-9.72,16.58s-2.42-3.39-5.58-7.79c-5.39-7.53-12.92-18.03-14.09-19.62-1.85-2.52-5.29-30.1-5.29-30.1l11.54-2.09,11.34,28.25,10.24,12.82,1.56,1.96Z"/>
      <g opacity=".41">
        <path fill="#eb8366" d="m283.67,207.48l-9.72,16.58s-2.42-3.39-5.58-7.79c5.61-3.68,12.36-9.53,13.74-10.75l1.56,1.96Z"/>
      </g>
      <path fill="#200e10" d="m322.17,197.58l-4.47,5.02s3.6,13.87,9.68,11.39c6.09-2.48,6.96-15.85,6.96-15.85l-12.16-.56Z"/>
      <path fill="#d23838" d="m345.87,321.23c-12.32,7.21-61.27-1.83-61.27-1.83,0,0,4.51-25,5.21-30.2.69-5.21.52-18.05-1.04-25.52-1.56-7.46-1.56-14.58-1.22-20.65.35-6.07,11.28-22.22,13.5-22.22,1.31,0,5.06.05,7.9.09,1.96.03,3.48.05,3.48.05l15.84-1.76,3.6,2.01,14,7.82s-.38,11.95-1.13,25.33c-.5,8.82-1.16,18.27-1.99,25.3-.09.74-.16,1.49-.22,2.25-1.43,17.41,3.35,39.32,3.35,39.32Z"/>
      <path fill="#f0f6f7" d="m331.86,221.2c-2.55,4.86-6.41,11.7-15.79,11.39-8.84-.29-7.32-10.51-7.12-11.69,1.96.03,3.48.05,3.48.05l15.84-1.76,3.6,2.01Z"/>
      <g opacity=".14">
        <path fill="#200e10" d="m344.74,254.35c-.5,8.82-1.16,18.27-1.99,25.3-.09.74-.16,1.49-.22,2.25l-4.92-31.87,7.13,4.31Z"/>
      </g>
      <g opacity=".25">
        <path fill="#200e10" d="m296.92,346.64s15.79,18.4,24.82,20.65"/>
      </g>
      <path fill="#d23838" d="m302.84,220.46c-.88,0-18.83-14.02-18.83-14.02-4.37,5.06-9.31,10.77-14.52,16.81,0,0,17.55,20.82,19.46,25.51,1.91,4.69,13.9-28.29,13.9-28.29Z"/>
      <path fill="#ffae9a" d="m374.51,290.58c-.35,7.46-32.28,24.47-32.28,24.47l-6.59-10.59,20.31-18.22-1.58-4.04-4.15-10.6,17.7-6.01s1.11,2.81,2.42,6.65c1.97,5.76,4.38,13.87,4.17,18.34Z"/>
      <g opacity=".41">
        <path fill="#eb8366" d="m370.33,272.24c-5.21,1.26-12.84,7.33-15.98,9.97l-4.15-10.6,17.7-6.01s1.11,2.81,2.42,6.65Z"/>
      </g>
      <path fill="#21426b" d="m274.76,234.78c-12.47,8.33-17.83,22.48-9.49,34.95,4.92,7.35,13.78,12.99,22.79,14.67l20.19,7.34.29.1,3.04,1.1c.59.22,1.26.14,1.78-.22s.86-.93.88-1.57l.14-3.23v-.31s.95-21.46.95-21.46c1.89-8.97.07-19.32-4.84-26.67-8.34-12.47-23.27-13.05-35.74-4.71h0Zm-.25,32.24c-.4-.6-.24-1.4.36-1.8.6-.4,1.4-.24,1.8.36.4.6.24,1.4-.36,1.8s-1.4.24-1.8-.36h0s0,0,0,0Zm1.22-7.14c.6-.4,1.41-.24,1.81.36s.24,1.4-.36,1.8c-.6.4-1.4.24-1.8-.36-.4-.6-.24-1.4.36-1.8h0Zm4.64,3.23c-.4-.6-.24-1.4.36-1.8s1.4-.24,1.8.36c.4.6.24,1.4-.36,1.8-.6.4-1.4.24-1.8-.36Zm4.89,4.98c.6-.4,1.4-.24,1.8.36.4.6.24,1.4-.36,1.8-.6.4-1.4.24-1.8-.36-.4-.6-.24-1.4.36-1.8Zm-9.18-11.39c-.4-.6-.24-1.4.36-1.8s1.4-.24,1.8.36c.4.6.24,1.4-.36,1.8-.6.4-1.4.24-1.8-.36Zm10.03,6.32c.6-.4,1.4-.24,1.8.36s.24,1.4-.36,1.8c-.6.4-1.4.24-1.8-.36-.4-.6-.24-1.4.36-1.8h0s0,0,0,0Zm-3.22-4.81c-.6.4-1.4.24-1.8-.36-.4-.6-.24-1.4.36-1.8.6-.4,1.41-.24,1.81.36.4.6.24,1.4-.36,1.8h0Zm7.42,11.43c.6-.4,1.4-.24,1.8.36.4.6.24,1.4-.36,1.8-.6.4-1.4.24-1.8-.36s-.24-1.4.36-1.8h0s0,0,0,0Zm-11.93-17.84c-.6.4-1.4.24-1.8-.36-.4-.6-.24-1.4.36-1.8.6-.4,1.4-.24,1.8.36.4.6.24,1.4-.36,1.8h0s0,0,0,0Zm12.44,12.57c.6-.4,1.4-.24,1.8.36.4.6.24,1.4-.36,1.8-.6.4-1.4.24-1.8-.36-.4-.6-.24-1.4.36-1.8h0s0,0,0,0Zm-2.8-4.82c-.6.4-1.4.24-1.8-.36s-.24-1.4.36-1.8,1.4-.24,1.8.36.24,1.4-.36,1.8Zm-4.58-6.22c-.6.4-1.4.24-1.8-.36s-.24-1.4.36-1.8,1.4-.24,1.8.36.24,1.4-.36,1.8h0s0,0,0,0Zm-1.26-7.21c.6-.4,1.4-.24,1.8.36s.24,1.41-.36,1.81c-.6.4-1.4.24-1.8-.36-.4-.6-.24-1.4.36-1.8h0Zm9.48,13.18c.6-.4,1.4-.24,1.8.36s.24,1.4-.36,1.8c-.6.4-1.4.24-1.8-.36s-.24-1.4.36-1.8h0s0,0,0,0Zm-3.22-4.81c-.6.4-1.4.24-1.8-.36-.4-.6-.24-1.4.36-1.8.6-.4,1.41-.24,1.81.36.4.6.24,1.4-.36,1.8h0Zm8.91,11.99c.4.6.24,1.41-.36,1.81s-1.4.24-1.8-.36-.24-1.4.36-1.8c.6-.4,1.4-.24,1.8.36h0Zm-3.3-17.31c.4.6.24,1.4-.36,1.8s-1.4.24-1.8-.36c-.4-.6-.24-1.41.36-1.81.6-.4,1.4-.24,1.8.36h0Zm-4.82-6.21c.4.6.24,1.4-.36,1.8s-1.4.24-1.8-.36c-.4-.6-.24-1.4.36-1.8.6-.4,1.4-.24,1.8.36h0s0,0,0,0Zm7.67,12.82c.6-.4,1.4-.24,1.8.36.4.6.24,1.4-.36,1.8-.6.4-1.4.24-1.8-.36s-.24-1.4.36-1.8h0s0,0,0,0Zm3.9,6.83c.6-.4,1.4-.24,1.8.36s.24,1.4-.36,1.8-1.4.24-1.8-.36c-.4-.6-.24-1.4.36-1.8h0s0,0,0,0Zm-7.22-6.79c-.6.4-1.4.24-1.8-.36s-.24-1.4.36-1.8,1.4-.24,1.8.36.24,1.4-.36,1.8Zm4.28,5.38c.4.6.24,1.4-.36,1.8-.6.4-1.4.24-1.8-.36s-.24-1.4.36-1.8c.6-.4,1.4-.24,1.8.36Zm-10.98-11.75c-.4-.6-.24-1.4.36-1.8s1.4-.24,1.8.36.24,1.4-.36,1.8-1.4.24-1.8-.36Zm16.23,8.24c.4.6.24,1.4-.36,1.8s-1.4.24-1.8-.36-.24-1.4.36-1.8c.6-.4,1.4-.24,1.8.36Zm-4.28-5.38c-.6.4-1.4.24-1.8-.36-.4-.6-.24-1.4.36-1.8s1.4-.24,1.8.36.24,1.4-.36,1.8Zm-6.7-6.36c-.4-.6-.24-1.4.36-1.8s1.4-.24,1.8.36.24,1.4-.36,1.8c-.6.4-1.4.24-1.8-.36h0Zm5.01,1.15c-.4-.6-.24-1.4.36-1.8s1.4-.24,1.8.36c.4.6.24,1.4-.36,1.8-.6.4-1.4.24-1.8-.36h0s0,0,0,0Zm5.49-.46c.6-.4,1.4-.24,1.8.36s.24,1.4-.36,1.8c-.6.4-1.4.24-1.8-.36s-.24-1.4.36-1.8h0s0,0,0,0Zm1.32,5.98c.4.6.24,1.4-.36,1.8s-1.4.24-1.8-.36-.24-1.4.36-1.8c.6-.4,1.4-.24,1.8.36Zm-22.15,16.37c-.6.4-1.4.24-1.8-.36-.4-.6-.24-1.4.36-1.8s1.4-.24,1.8.36.24,1.4-.36,1.8h0s0,0,0,0Zm27.97,19.05l-10.52-3.83c2.3-.56,4.5-1.49,6.5-2.84,2.01-1.34,3.71-3.02,5.11-4.93l-.49,11.19-.03.61-.58-.21h0s0,0,0,0Z"/>
      <rect width="7.4" height="36.8" x="316.64" y="284.75" fill="#21426b" transform="rotate(-33.76 320.392 303.171)"/>
      <rect width="9.9" height="24.19" x="320.82" y="299.19" fill="#35b68e" rx="4.32" ry="4.32" transform="rotate(-33.76 325.826 311.298)"/>
      <rect width="12.65" height="7.52" x="324.08" y="314.44" fill="#21426b" rx="3.76" ry="3.76" transform="rotate(-33.76 330.454 318.227)"/>
      <path fill="#35b68e" d="m316.67,288.75h0c.63.94.38,2.22-.57,2.85l-4.81,3.22c-.94.63-2.22.38-2.85-.57h0c-.63-.94-.38-2.22.57-2.85l4.81-3.22c.94-.63,2.22-.38,2.85.57h0Z"/>
      <g opacity=".21">
        <path fill="#200e10" d="m268.11,267.82c7.3,10.92,24.86,18.02,35.78,10.73,10.92-7.3,11.06-26.24,3.76-37.16-7.3-10.92-20.08-11.07-30.99-3.77-10.92,7.3-15.84,19.29-8.54,30.2Zm20.72-15.14c.4.6.24,1.4-.36,1.8-.6.4-1.4.24-1.8-.36s-.24-1.4.36-1.8c.6-.4,1.41-.24,1.81.36h0Zm-1.38-10.08c.6-.4,1.4-.24,1.8.36.4.6.24,1.4-.36,1.8s-1.4.24-1.8-.36c-.4-.6-.24-1.4.36-1.8h0s0,0,0,0Zm6.63,6.57c.4.6.24,1.4-.36,1.8s-1.4.24-1.8-.36-.24-1.41.36-1.81c.6-.4,1.4-.24,1.8.36h0Zm10.03-.37c-.6.4-1.4.24-1.8-.36s-.24-1.4.36-1.8c.6-.4,1.4-.24,1.8.36s.24,1.4-.36,1.8h0s0,0,0,0Zm-2.28,5.27c-.4-.6-.24-1.4.36-1.8.6-.4,1.4-.24,1.8.36.4.6.24,1.4-.36,1.8-.6.4-1.4.24-1.8-.36Zm-2.85-6.61c-.6.4-1.4.24-1.8-.36s-.24-1.4.36-1.8,1.4-.24,1.8.36c.4.6.24,1.4-.36,1.8h0s0,0,0,0Zm-.12,4.85c-.6.4-1.4.24-1.8-.36s-.24-1.4.36-1.8,1.4-.24,1.8.36.24,1.4-.36,1.8Zm2.12,6.83c-.4-.6-.24-1.4.36-1.8.6-.4,1.4-.24,1.8.36s.24,1.4-.36,1.8c-.6.4-1.4.24-1.8-.36Zm-8.82-13.19c-.4-.6-.24-1.4.36-1.8s1.4-.24,1.8.36.24,1.4-.36,1.8-1.4.24-1.8-.36Zm6.58,10.18c.4.6.24,1.4-.36,1.8s-1.4.24-1.8-.36-.24-1.4.36-1.8,1.4-.24,1.8.36h0s0,0,0,0Zm3.54,8.64c-.6.4-1.4.24-1.8-.36s-.24-1.4.36-1.8c.6-.4,1.4-.24,1.8.36s.24,1.4-.36,1.8h0s0,0,0,0Zm-8.67-8.95c-.6.4-1.4.24-1.8-.36s-.24-1.4.36-1.8,1.4-.24,1.8.36.24,1.4-.36,1.8Zm2.12,6.83c-.4-.6-.24-1.4.36-1.8.6-.4,1.4-.24,1.8.36.4.6.24,1.4-.36,1.8-.6.4-1.4.24-1.8-.36Zm-8.82-13.19c-.4-.6-.24-1.4.36-1.8s1.4-.24,1.8.36.24,1.4-.36,1.8-1.4.24-1.8-.36Zm6.58,10.18c.4.6.24,1.4-.36,1.8s-1.4.24-1.8-.36-.24-1.4.36-1.8,1.4-.24,1.8.36h0s0,0,0,0Zm1.73,8.27c-.4-.6-.24-1.4.36-1.8.6-.4,1.4-.24,1.8.36.4.6.24,1.41-.36,1.81s-1.4.24-1.8-.36h0Zm-13.37-20.01c-.4-.6-.24-1.4.36-1.8s1.4-.24,1.8.36.24,1.41-.36,1.81c-.6.4-1.4.24-1.8-.36h0Zm10.43,18.61c-.6.4-1.4.24-1.8-.36s-.24-1.4.36-1.8c.6-.4,1.4-.24,1.8.36s.24,1.4-.36,1.8h0s0,0,0,0Zm-4.24-6.97c-.6.4-1.4.24-1.8-.36s-.24-1.4.36-1.8,1.4-.24,1.8.36.24,1.4-.36,1.8Zm-4.58-6.22c-.6.4-1.4.24-1.8-.36s-.24-1.4.36-1.8c.6-.4,1.4-.24,1.8.36s.24,1.4-.36,1.8h0s0,0,0,0Zm2.66,9.69c.6-.4,1.4-.24,1.8.36.4.6.24,1.4-.36,1.8-.6.4-1.4.24-1.8-.36-.4-.6-.24-1.4.36-1.8h0s0,0,0,0Zm-3.22-4.81c-.6.4-1.4.24-1.8-.36s-.24-1.4.36-1.8c.6-.4,1.41-.24,1.81.36.4.6.24,1.4-.36,1.8h0Zm8.87,13.59c-.6.4-1.4.24-1.8-.36-.4-.6-.24-1.4.36-1.8.6-.4,1.4-.24,1.8.36.4.6.24,1.4-.36,1.8h0s0,0,0,0Zm-13.37-20c-.6.4-1.4.24-1.8-.36-.4-.6-.24-1.4.36-1.8.6-.4,1.4-.24,1.8.36s.24,1.4-.36,1.8h0s0,0,0,0Zm6.51,18.1c-.4-.6-.24-1.4.36-1.8.6-.4,1.4-.24,1.8.36.4.6.24,1.4-.36,1.8-.6.4-1.4.24-1.8-.36Zm-4.53-6.78c-.4-.6-.24-1.4.36-1.8s1.4-.24,1.8.36c.4.6.24,1.4-.36,1.8-.6.4-1.4.24-1.8-.36Zm-4.29-6.41c-.4-.6-.24-1.4.36-1.8s1.4-.24,1.8.36c.4.6.24,1.4-.36,1.8-.6.4-1.4.24-1.8-.36h0Zm5.75,12.31c-.6.4-1.4.24-1.8-.36-.4-.6-.24-1.4.36-1.8s1.4-.24,1.8.36c.4.6.24,1.4-.36,1.8h0s0,0,0,0Zm-6.46-7.32c-.4-.6-.24-1.4.36-1.8.6-.4,1.41-.24,1.81.36s.24,1.4-.36,1.8c-.6.4-1.4.24-1.8-.36h0Zm.94,5.7c-.6.4-1.4.24-1.8-.36-.4-.6-.24-1.4.36-1.8.6-.4,1.4-.24,1.8.36.4.6.24,1.4-.36,1.8h0s0,0,0,0Z"/>
      </g>
      <path fill="#ffae9a" d="m338.41,304.12l-11.11-1.04s.52,1.3-1.13,2.43-9.63,3.56-9.63,4.6-1.39,3.47,1.48,3.99l2,.43s-2.69,3.91,1.04,4.69c0,0,0,2.52,2.69,3.04,0,0,0,2.69,2.43,2.52s7.64-1.74,9.89-3.91c2.26-2.17,6.16-5.81,6.16-5.81,0,0-.61-10.15-3.82-10.93Z"/>
      <path fill="#d23838" d="m345.87,229.02s18.57,17.48,24.3,39.87c0,0-15.1,9.72-19.27,9.72l-13.02-24.79s-2.6-23.53,7.98-24.79Z"/>
      <g>
        <path fill="#200e10" d="m302.02,192.63s6.27-5.21,7.09-4.68c.82.53,1.52,4.3,1.52,4.3,0,0-2.24,19.75-6.3,15.94-4.06-3.81-2.3-15.55-2.3-15.55h0Z"/>
        <g>
          <g>
            <path fill="#ffab96" d="m326.66,215.02c.41,1.44,1.22,2.73,1.61,4.17.34,1.28-.27,2.29-.83,3.46-1.37,2.83-4.12,5.13-7.09,6.13-2.79.95-5.94.32-7.56-2.37-1.1-1.81-.81-3.54-.36-5.46.37-1.6.04-2.84-.19-4.47-.23-1.57-.4-3.14-.6-4.71l-.13-1.18-.18-1.52-.32-2.56,7.16-1.38,6.05-1.11.76-.16.14.97.17,1.59.51,3.81.08.83c.13,1.29.41,2.63.78,3.96h0Z"/>
            <path fill="#eb8366" d="m311.22,212.94h0c4.05-2.99,10.26-7.03,12.94-6.81l.96,3.05c-.19.49-.23,1.11-.62,1.61-8.42,11.41-12.2,6.7-12.2,6.7l-1.09-4.54h0Z"/>
          </g>
          <path fill="#ffab96" d="m330.21,206.01h0s0,0,0,0c-1.11,1.23-2.85,2.25-4.51,2.85,0,0-4.45,8.98-13.24,8.65-6.3-.19-9.05-6.92-9.44-12.25-.48-6.78-.58-15.66,5.85-19.82,3.22-2.09,7.52-2.49,11.07-.96,4.12,1.68,6.89,5.51,9.5,9.14.82,1.22,1.72,2.43,2.15,3.83.31.94.35,1.96.11,2.88-.3,1.07-.34,1.28-.37,2.24.02,1.38-.21,2.37-1.13,3.44h0Z"/>
          <path fill="#100f36" d="m313.48,201.26c.21.67.95,1.07,1.61.85s1.07-.95.85-1.61-.95-1.07-1.61-.85-1.07.95-.85,1.61Z"/>
          <g>
            <path fill="#080e1c" d="m313.48,201.26c.21.67.95,1.07,1.61.85s1.07-.95.85-1.61-.95-1.07-1.61-.85-1.07.95-.85,1.61Z"/>
            <path fill="#fff" d="m314.61,200.92c.11.34.4.51.73.4.34-.11.51-.4.4-.73-.11-.34-.4-.51-.73-.4-.34.11-.5.47-.4.73Z"/>
          </g>
          <g>
            <path fill="#080e1c" d="m305.13,200.61c-.67.21-1.07.95-.85,1.61s.95,1.07,1.61.85c.67-.21,1.07-.95.85-1.61s-.95-1.07-1.61-.85h0Z"/>
            <path fill="#fff" d="m305.41,201.89c.11.34.4.51.73.4.34-.11.51-.4.4-.73-.11-.34-.4-.51-.73-.4-.34.11-.51.4-.4.73Z"/>
          </g>
          <path fill="#200e10" d="m332.75,200.34h0c.89-2.17,1.35-4.55,1.02-6.89-.34-2.34-1.92-3.98-2.48-6.18-1.95-7.47-10.84-9.57-17.91-8.86-3.81.39-7.33,3-9.83,5.87-.05.05-.08.09-.12.14-1.41,1.65-2.14,3.56-2.35,5.73-.15,1.57.02,7.65,1.91,4.37,1.49-2.6,2.41-4.87,5-6.69-.02,1.93.7,3.87,1.98,5.32,1.42,1.63,2.98,1.98,4.9,2.59,5.24,1.65,7.73,6.81,8.38,11.89.57,4.49,1.08-.09,1.34-2.17s.55-4.94,2.77-5.89c.63-.27,1.25-.33,1.84-.11.62.2,1.18.72,1.65,1.58.35.72.56,1.38.56,2,.07-.07.12-.22.18-.3.39-.79.85-1.61,1.17-2.41h0Z"/>
          <g>
            <path fill="#ff8389" d="m328.38,202.63h0c-.25-.39-.56-.7-.94-1,.44.23.82.53,1.13.84,1.47,1.74.4-.67.63,1.31.06.48-.09.97-.4,1.35s-.68.69-1.07.95c.31-.31.69-.62.92-1s.33-.8.27-1.27c-.05-.41-.3-.87-.55-1.18h0Z"/>
            <path fill="#ff8389" d="m326.99,203.76h0l-.79.36c.19-.16.45-.33.71-.49.26-.17.52-.27.8-.3.27-.09.61-.13.89-.03.15.05.3.18.38.3s.1.26.04.41c-.02-.14.27-.3.19-.42-.09-.13-.53-.16-.67-.14-.21-.04-.48-.02-.75.09-.26.1-.53.12-.8.23h0Z"/>
          </g>
          <path fill="#200e10" d="m318.18,198.86h0s-.13.02-.13.02c-.07,0-.15-.05-.22-.11-.73-.95-1.48-1.56-2.39-1.66-1.33-.19-2.35.61-2.42.62-.12.08-.27.09-.35-.03,0-.06-.02-.2.11-.28.07-.01,1.2-.96,2.75-.72,1.06.16,1.95.75,2.69,1.84.08.12.03.27-.03.35h0Z"/>
          <path fill="#200e10" d="m307.71,198.39h0c.13-.02.07-.01,0,0s-.14.02-.21-.04c-1.02-1.06-1.9-1.51-2.78-1.41h0c-1.09.12-1.66,1.15-1.66,1.15-.05.14-.19.16-.33.11-.14-.05-.16-.19-.11-.33,0-.06.7-1.18,1.98-1.39,1.02-.12,2.04.39,3.14,1.58.08.12.09.27-.03.35h0Z"/>
          <g>
            <path fill="#eb8366" d="m308.86,201.03h0c-.19-.41-.31-.77-.49-1.11.18.35.37.7.48,1.05.11.35.16.72.2,1.15,0,.74-.12,1.56-.41,2.25-.18.39-.36.71-.48,1.01-.11.3-.22.68-.03,1.03.1.28.43.54.81.65.31.11.75.13,1.12.17-.36.04-.73,0-1.11-.1-.38-.1-.71-.37-.96-.7-.19-.35-.16-.79.02-1.18.11-.38.36-.71.48-1.01.29-.7.44-1.38.5-2.12.04-.37,0-.74-.12-1.09h0Z"/>
            <path fill="#eb8366" d="m311.52,207.05c-.22.02-.43.12-.65.14.12-.23.41-.34.62-.44.29-.04.51-.06.75.14-.29.04-.51.06-.72.16h0Z"/>
          </g>
          <ellipse cx="317.01" cy="205.26" fill="#eb8366" rx="2.55" ry="1.25" transform="rotate(-3.99 317.072 205.203)"/>
          <ellipse cx="305.62" cy="205.55" fill="#eb8366" rx="1.87" ry="1.37" transform="rotate(-3.99 305.564 205.52)"/>
          <g>
            <path fill="#342f46" d="m311,209.3c1.73-.01,3.15.34,3.15,1.19,0,.85-1.4,1.89-3.13,1.91-1.74.01-3.15-1.01-3.16-1.87s1.4-1.22,3.14-1.23Z"/>
            <path fill="#eb8366" d="m308.19,211.28c.52.6,1.59,1.12,2.82,1.11,1.24,0,2.3-.54,2.81-1.15-.52-.6-1.59-1.12-2.82-1.11-1.24,0-2.3.54-2.81,1.15Z"/>
            <path fill="#fff" d="m313.83,209.89c-.51-.42-1.59-.6-2.84-.59-1.25,0-2.33.2-2.83.63.74.18,1.73.26,2.84.25,1.1,0,2.1-.1,2.83-.29h0Z"/>
          </g>
        </g>
      </g>
    </g>
    <g>
      <path fill="#f9b928" d="m233.84,128.93c0-.81-1.16-3.36-2.43-4.51-.08-.07-.18-.16-.3-.25-1.75-1.38-7.51-5-13.47-10.86-6.37-6.25-6.25-16.08-1.39-19.9,2.64-2.08,5.49-1.24,7.54-.04,1.72,1.01,2.89,2.27,2.89,2.27,0,0,1.84,6.56.67,6.52-.52-.02-1.3-.85-2.01-1.77-.9-1.16-1.68-2.46-1.68-2.46-5.79-1.74-6.6,1.27-6.6,6.36,0,4.1,8.11,11.58,12.6,14.39,1.08.68,1.96,1.09,2.45,1.11,2.55.11,5.34,7.73,5.34,7.73.37,2.74-3.61,2.24-3.61,1.43Z"/>
      <g opacity=".14">
        <path fill="#173454" d="m226.68,95.64s1.84,6.56.67,6.52c-.52-.02-1.3-.85-2.01-1.77-.65-2.93-1.2-5.4-1.55-7.01,1.72,1.01,2.89,2.27,2.89,2.27Z"/>
      </g>
      <g opacity=".14">
        <path fill="#173454" d="m233.84,128.93c0-.81-1.16-3.36-2.43-4.51-.08-.07-.18-.16-.3-.25-.46-1.64-.95-3.51-1.45-5.49,1.08.68,1.96,1.09,2.45,1.11,2.55.11,5.34,7.73,5.34,7.73.37,2.74-3.61,2.24-3.61,1.43Z"/>
      </g>
      <g>
        <path fill="#f9b928" d="m280.2,113.31c-5.14,5.04-10.12,8.43-12.52,10.15-.58.41-1,.73-1.25.96-1.27,1.16-2.43,3.7-2.43,4.51s-3.97,1.31-3.61-1.43c0,0,2.78-7.62,5.34-7.73.67-.03,2.03-.76,3.67-1.92,4.59-3.24,11.38-9.82,11.38-13.58,0-5.09-.81-8.1-6.59-6.36,0,0-1.06,1.75-2.12,3-.58.68-1.16,1.22-1.58,1.23-1.17.05.67-6.52.67-6.52,0,0,.56-.61,1.47-1.31,1.98-1.53,5.63-3.53,8.95-.92,4.86,3.82,4.98,13.65-1.39,19.9Z"/>
        <g opacity=".14">
          <path fill="#173454" d="m265.73,119.78c.67-.03,2.03-.76,3.67-1.92-.5,2.07-1.07,3.99-1.72,5.6-.58.41-1,.73-1.25.96-1.27,1.16-2.43,3.7-2.43,4.51s-3.97,1.31-3.61-1.43c0,0,2.78-7.62,5.34-7.73Z"/>
        </g>
        <g opacity=".14">
          <path fill="#173454" d="m272.64,94.33c-.1,1.47-.29,3.81-.57,6.6-.58.68-1.16,1.22-1.58,1.23-1.17.05.67-6.52.67-6.52,0,0,.56-.61,1.47-1.31Z"/>
        </g>
      </g>
      <path fill="#fccf3a" d="m256.71,157.86h-15.5c.34-.47.65-1.07.92-1.77,2.86-7.31,2.12-25.54,2.12-25.54,4.31-5.67,9.29.81,9.29.81-1.37,5.58,1.62,19.75,2.77,24.73.26,1.11.42,1.77.42,1.77Z"/>
      <path fill="#fccf3a" d="m240.63,157.86h17.47c2.49,0,4.51,2.02,4.51,4.51v4.63h-26.5v-4.63c0-2.49,2.02-4.51,4.51-4.51Z"/>
      <path fill="#fccf3a" d="m249.66,131.83c-24.07.02-24.07-43.28-24.07-43.28,0,0,3.75-.78,9.38-1.48,7.63-.95,18.71-1.75,28.62-.29,2.73.4,5.37.98,7.82,1.77,0,0,.83,43.26-21.75,43.28Z"/>
      <path fill="#f9b928" d="m249.66,131.83c-24.07.02-24.07-43.28-24.07-43.28,0,0,3.75-.78,9.38-1.48.06,6.3.88,37.82,11.91,40.01,12.27,2.43,15.85-10.65,15.97-21.29.07-6.61.46-14.2.74-19.01,2.73.4,5.37.98,7.82,1.77,0,0,.83,43.26-21.75,43.28Z"/>
      <rect width="34.61" height="11.46" x="231.72" y="164.46" fill="#173454" rx="2.02" ry="2.02"/>
      <g opacity=".19">
        <path fill="#173454" d="m225.23,96.69l-.28-1.23c.28-.06,28.38-6.27,46.4-.42l-.39,1.2c-17.7-5.75-45.46.38-45.74.45Z"/>
      </g>
      <path fill="#f9b928" d="m256.71,157.86h-15.5c.34-.47.65-1.07.92-1.77h14.17c.26,1.11.42,1.77.42,1.77Z"/>
      <g>
        <g opacity=".31">
          <ellipse cx="235.82" cy="106.03" fill="#fff" rx="3.82" ry="7.42" transform="rotate(-6.77 235.828 106.073)"/>
        </g>
        <g opacity=".31">
          <ellipse cx="238.78" cy="118.01" fill="#fff" rx="1.52" ry="1.95" transform="rotate(-6.77 238.853 118.043)"/>
        </g>
      </g>
    </g>
    <path fill="#ffae9a" d="m260.37,159.02s-.68-5.55-.51-9.2,1.39-11.54-1.48-12.76-7.12-2.17-8.5-1.39-2.86,2.6-.52,3.99,3.56,1.91,3.56,1.91c0,0-1.3,9.98.43,11.98,1.74,2,3.36,4.31,3.36,4.31,0,0,1.13-.4,3.66,1.16Z"/>
    <g>
      <path fill="#ffae9a" d="m246.94,137.93s-5.12-3.47-6.77-1.39c-1.65,2.08-.69,4.17-.69,4.17,0,0-3.07,1.74-.27,4.86,0,0-.94,3.21.8,4.08,0,0-1.13,3.21.52,4.08,1.65.87,2.86-.09,3.38,0s.35.78,2.52,1.13,3.39-1.48,2.08-3.38c0,0,2.88-2.02.53-4.26,0,0,2.42-3.11-2.09-5.63,0,0,1.68-2.67,0-3.64Z"/>
      <path fill="#eb8366" d="m246.87,141.76c-3.48-1.19-7.34-.86-7.38-.86l-.04-.4s3.99-.34,7.55.88l-.13.38Z"/>
      <path fill="#eb8366" d="m248.91,147.36c-4.11-3.12-9.6-1.62-9.65-1.6l-.11-.38c.06-.02,5.73-1.57,10,1.67l-.24.32Z"/>
      <path fill="#eb8366" d="m248.38,151.63c-3.7-2.69-8.3-1.8-8.35-1.79l-.08-.39s4.82-.94,8.66,1.86l-.23.32Z"/>
    </g>
  </g>
  <g>
    <path fill="#eb8366" d="m375.97,216.6s1.95,19.12,3.99,19.05c2.04-.07,5.11-8.86,5.11-8.86l-3.22-11.73-5.87,1.54Z"/>
    <g opacity=".31">
      <ellipse cx="393.52" cy="342.18" fill="#144355" rx="23.8" ry="4.51"/>
    </g>
    <path fill="#ec773f" d="m386.26,220.7l-.16.1-8.81,5.55c-.2-.29-.46-.73-.76-1.28-1.89-3.51-5.26-11.39-5.26-11.39l12.05-11.67c.73.31,1.28,1.56,1.69,3.3,1.29,5.4,1.25,15.4,1.25,15.4Z"/>
    <g opacity=".14">
      <path fill="#200e10" d="m386.11,220.8l-8.81,5.55c-.2-.29-.46-.73-.76-1.28,1.1-1.79,2.19-3.55,2.23-3.55.09,0,6.25-16.22,6.25-16.22l1.09,15.5Z"/>
    </g>
    <path fill="#ffab96" d="m394.61,291.6c2.26,6.27-.5,20.58-.75,23.84-.04.48-.08,1.12-.12,1.86-.24,4.23-.51,11.69-.51,11.69-2.18,2.39-7.7,1.43-9.55,1.02-.39-.08-.61-.14-.61-.14,0,0-.02-.52-.06-1.44-.09-2.11-.28-6.34-.52-11.35-.57-12.13-1.41-28.79-1.8-30.76-.21-1.04-.28-2.7-.28-4.47,0-3.58.28-7.58.28-7.58l14.81,3.64-.52,8.11-.36,5.57Z"/>
    <path fill="#eb8366" d="m395.5,277.92l-.52,8.11c-3.59-1.62-11.22-3.42-14.57-4.17,0-3.58.28-7.58.28-7.58l14.81,3.64Z"/>
    <path fill="#f0f6f7" d="m393.74,317.3c-.24,4.23-.51,11.69-.51,11.69-2.18,2.39-7.7,1.43-9.55,1.02-.21-.48-.44-1.01-.68-1.58-.09-2.11-.28-6.34-.52-11.35,3.25.52,8.34,1.1,11.25.21Z"/>
    <path fill="#ffab96" d="m419.63,321.09c-.02,4.9-.05,9.46-.05,9.46-3.76,2.31-7.4,1.33-7.4,1.33,0,0-1.12-4.67-2.59-10.89-2.42-10.2-5.81-24.6-6.82-29.51-.35-1.7-.66-3.2-.93-4.49-.99-4.72-1.45-6.8-1.45-6.8l14.18-6.78.76,9.99.37,4.82c1.38,3.64,3.77,19.2,3.89,21.33.06,1.08.06,6.49.05,11.54Z"/>
    <path fill="#eb8366" d="m415.33,283.39c-4.49.22-11.15,2.67-13.49,3.59-.99-4.72-1.45-6.8-1.45-6.8l14.18-6.78.76,9.99Z"/>
    <path fill="#f0f6f7" d="m419.63,321.09c-.02,4.9-.05,9.46-.05,9.46-3.76,2.31-7.4,1.33-7.4,1.33,0,0-1.12-4.67-2.59-10.89,2.43.47,6.75,1.05,10.04.1Z"/>
    <path fill="#21426b" d="m381.81,248.56s-3.64,24.47-3.64,31.12c0,0,9.91,3.26,17.82,1.25l.88-6.53,1.32,8.28s11.86,2.76,18.76-2.38c0,0-1.63-28.23-3.64-31.75h-31.5Z"/>
    <path fill="#ec773f" d="m414.63,206.33c-.1,1.19-.22,2.49-.33,3.85-.14,1.67-.28,3.42-.42,5.16-.35,4.52-.65,8.92-.7,11.38-.03,1.45,0,3.41.06,5.58.05,1.66.11,3.45.18,5.22.26,6.28.63,12.41.63,12.41-9.41,6.02-32.88,0-32.88,0,0,0,1.25-18.2,1-25.1-.25-6.9,0-20.83,1.13-22.84,1.13-2.01,11.33-4.36,11.33-4.36l7-1.13,7.49,2c3.48.93,5.8,4.23,5.48,7.82Z"/>
    <g opacity=".14">
      <path fill="#200e10" d="m413.19,226.72c-.03,1.45,0,3.41.06,5.58-2.53,2.3-5.94,4.82-7.02,4.91-1.71.14-7.38-9.8-7.38-9.8l4.45-6.49-1.71-2.29c.69-2.06,6.79-14.28,6.79-14.28l5.92,5.82c-.14,1.67-.28,3.42-.42,5.16-.35,4.52-.65,8.92-.7,11.38Z"/>
    </g>
    <g opacity=".14">
      <path fill="#200e10" d="m413.43,237.53l-3.89-22.47,4.34.29c-.35,4.52-.65,8.92-.7,11.38-.05,2.57.08,6.72.25,10.8Z"/>
    </g>
    <path fill="#21426b" d="m394.32,335.95c-.29,2.51-2.06,3.02-4.54,3.02-2.76,0-8.66,1.82-10.1,2.07-1.44.25-10.67,1.25-12.05-2.51-.11-.3-.16-.59-.17-.86-.08-3.15,6.25-4.53,8.39-5.17,2.32-.69,5.83-6.4,6.9-7.15,1.07-.75,5.02,1.7,6.21,3.51,1.19,1.82,4.38-2.76,4.38-2.76,0,0,.96,5.58,1.02,8.91,0,.34,0,.65-.04.93Z"/>
    <path fill="#f0f6f7" d="m394.32,335.95c-.29,2.51-2.06,3.02-4.54,3.02-2.76,0-8.66,1.82-10.1,2.07-1.44.25-10.67,1.25-12.05-2.51-.11-.3-.16-.59-.17-.86,2.48.82,7.69,2.4,11.09,1.74,4-.78,13.14-2.94,15.77-3.46Z"/>
    <path fill="#21426b" d="m421.53,340.16c0,.17-.02.33-.04.48-.36,3.24-2.52,4.06-4.79,4.54-2.38.5-10.98,1.88-10.79-3.01,0,0,.17-.32.45-.86,1.06-2.03,3.65-7.12,4.19-9.23,0,0,2.26-4.1,5.08-3.6,2.82.5,3.7,2.63,3.7,2.63l.31-.86s2.08,6.25,1.89,9.89Z"/>
    <path fill="#f0f6f7" d="m421.49,340.64c-.36,3.24-2.52,4.06-4.79,4.54-2.38.5-10.98,1.88-10.79-3.01,0,0,.17-.32.45-.86.34,1.11,1.44,2.57,4.88,2.49,4.77-.11,8.42-1.11,10.25-3.16Z"/>
    <path fill="#f0f6f7" d="m417.26,333.86c-2.14-1.73-5.98-.4-6.01-.38l-.14-.39c.17-.06,4.09-1.42,6.41.45l-.26.32Z"/>
    <path fill="#f0f6f7" d="m416.58,336.56c-1.97-1.43-5.87-.43-5.91-.42l-.1-.4c.17-.04,4.13-1.06,6.26.48l-.24.33Z"/>
    <path fill="#f0f6f7" d="m383.08,331.35c-1.08-1.86-2.75-2.71-2.77-2.72l.18-.37c.07.04,1.79.91,2.94,2.88l-.35.21Z"/>
    <path fill="#f0f6f7" d="m380.69,333.73c-.27-1.56-2.68-2.64-2.7-2.65l.16-.38c.11.05,2.63,1.17,2.94,2.95l-.4.07Z"/>
    <g opacity=".25">
      <polygon fill="#200e10" points="391.41 261.23 395.5 264.81 396.87 274.41 396.87 278.49 393.86 265.99 391.41 261.23"/>
    </g>
    <g>
      <path fill="#200e10" d="m404.79,180.13h0c1.24,1.69,1.29,4.01.55,6.01-.16.46-.4.93-.6,1.39-.39.77-.87,1.51-1.35,2.22-.58.91-1.25,1.92-1.96,3.11-1.64-1-3.24-1.96-4.88-2.96-1.05-.63-2.09-1.7-3.24-2.19-1.58-.66-3.58-.93-5.07-1.79-.82-.48-1.51-1.17-1.86-2.2-.24-.66-.1-1.46.48-1.87.36-.26.83-.34,1.14-.67.2-.23.27-.52.38-.81.09-.21.16-.46.29-.67h0s.03-.04.03-.08c.07-.29.22-.58.41-.89.72-1.21,1.74-2.29,3.15-2.81,1.57-.55,3.32-.5,4.94-.09,1.62.42,3.09,1.17,4.54,1.97,1.13.62,2.31,1.31,3.06,2.34h0Z"/>
      <g>
        <path fill="#ffab96" d="m402.83,195.98c.11.58.14,1.15,0,1.68-.47,1.81-1.48,3.47-2.88,4.7-.44.38-.92.73-1.47.91-1.2.39-3.13-.11-3.53-1.38-.44-1.37.14-2.91-.3-4.24l-.38-1.16-.75-2.51-.18-.64-.23-.82-.41-1.38,4-1.44,3.38-1.19.43-.16.17.52.24.86.63,2.06.12.45s.28.86.28.86c.27.89.69,1.9.88,2.89Z"/>
        <path fill="#eb8366" d="m393.4,194.66c2.07-2.03,5.29-4.86,6.85-4.98l.82,1.59c-.06.29-.03.63-.21.94-3.85,7.1-6.44,4.86-6.44,4.86l-1.03-2.41h0Z"/>
      </g>
      <path fill="#200e10" d="m389.28,178.63c.51.57,1.3,1.37,1.89,1.5,0,0-1.46,3.68-2.46,5.8-.09-.06-.22-.08-.3-.1-.82-.48-1.51-1.17-1.86-2.2-.45-1.23.7-2.05,1.46-2.91.58-.67.82-1.35,1.27-2.08h0Z"/>
      <path fill="#ffab96" d="m404.05,189.4c-.6.73-1.58,1.37-2.53,1.76,0,0-2.28,5.18-7.41,5.34-3.67.14-5.5-3.51-5.91-6.47-.51-3.76-.87-8.72,2.73-11.29,1.8-1.29,4.29-1.69,6.41-.97,2.45.78,4.2,2.8,5.84,4.73.52.65,1.08,1.29,1.38,2.05.21.51.27,1.08.17,1.61-.13.61-.15.73-.14,1.27.06.77-.05,1.33-.54,1.96h0Z"/>
      <path fill="#121136" d="m394.14,187.4c.15.36.59.56.97.41.38-.14.59-.57.44-.93s-.59-.56-.97-.41c-.38.14-.59.57-.44.93Z"/>
      <g>
        <path fill="#071b38" d="m394.14,187.4c.15.36.59.56.97.41.38-.14.59-.57.44-.93s-.59-.56-.97-.41c-.38.14-.59.57-.44.93Z"/>
        <path fill="#fff" d="m394.79,187.17c.07.18.25.27.44.19.19-.07.28-.24.21-.43-.07-.18-.25-.27-.44-.19-.19.07-.28.28-.21.43Z"/>
      </g>
      <g>
        <path fill="#071b38" d="m388.82,188.29c.15.36.59.56.97.41.38-.14.59-.57.44-.93s-.59-.56-.97-.41c-.38.14-.59.57-.44.93Z"/>
        <path fill="#fff" d="m389.47,188.06c.07.18.25.27.44.19.19-.07.28-.24.21-.43-.07-.18-.25-.27-.44-.19-.19.07-.28.24-.21.43Z"/>
      </g>
      <path fill="#200e10" d="m405.69,182.25h0c.27,1.3.09,2.64-.36,3.89-.16.46-.4.93-.6,1.39-.03.05-.06.13-.09.17-.02-.35-.17-.71-.4-1.1-.79-1.22-1.94-1.06-2.86-.08-.44.47-.6.96-.95,1.49-.25.39-1.21,1.18-1.12.12.04-.44.22-1.05.14-1.46-.06-.34-.29-.49-.43-.82-.59-1.25.74-3.1-1.29-3.7-.9-.27-1.85.12-2.72.47s-1.88.66-2.72.26c-1.27-.61-1.16-3.67-3.12-2.35-.47.32-.8.76-1.21,1.18-.36.37-.87.79-1.42.74-.02-1.63.15-2.78,1.25-4.13.8-.99,1.48-1.67,2.46-2.43.78-.61,2.09-.96,3.1-.94,1.11.02,2.17-.34,3.3-.22,1.52.16,2.45,1.34,3.87,1.65.48.1.97.06,1.45.15.66.12,1.26.49,1.65,1.02.31.43.25.89.41,1.37.4,1.21,1.38,2.06,1.65,3.35h0Z"/>
      <g>
        <path fill="#f9b08e" d="m402.87,187.59h0c-.16-.21-.35-.37-.58-.52.26.11.49.26.69.43.2.2.36.4.41.71.05.26-.02.55-.19.77-.16.22-.37.41-.59.57.17-.19.38-.38.5-.59s.16-.46.12-.72c-.04-.23-.2-.47-.36-.64h0Z"/>
        <path fill="#f9b08e" d="m402.1,188.27h0l-.44.23c.11-.1.25-.2.39-.3.14-.1.3-.17.45-.2.15-.07.35-.1.52-.05.09.02.18.09.23.15s.07.14.04.23c-.01-.08-.07-.14-.12-.21-.05-.07-.1-.1-.18-.09-.12-.02-.28.01-.43.08-.15.07-.31.09-.46.16h0Z"/>
      </g>
      <path fill="#200e10" d="m396.8,185.89s-.04,0-.08.01-.09-.02-.13-.06c-.46-.5-.92-.81-1.45-.84-.78-.06-1.35.43-1.38.44-.07.05-.15.07-.2,0,0-.04-.02-.11.05-.16.04,0,.67-.58,1.58-.51.62.05,1.16.34,1.63.92.05.07.03.15,0,.2h0Z"/>
      <path fill="#200e10" d="m390.69,186.02h0c.08-.01.04,0,0,0s-.08.01-.12-.02c-.63-.55-1.15-.77-1.67-.68h0c-.63.11-.93.71-.93.71-.03.08-.11.1-.19.07-.09-.02-.1-.1-.07-.18,0-.04.36-.69,1.11-.85.59-.1,1.2.14,1.88.76.05.07.07.14,0,.2h0Z"/>
      <g>
        <path fill="#eb8366" d="m391.45,187.45h0c-.13-.23-.21-.42-.33-.61.12.19.24.37.32.57.08.19.11.4.16.64.03.41-.02.87-.16,1.27-.09.22-.19.41-.24.58-.06.18-.1.39.02.58.07.15.27.29.49.33.18.05.44.05.66.05-.21.04-.43.03-.65,0s-.42-.17-.58-.35c-.12-.19-.12-.44-.03-.66.05-.22.19-.41.24-.58.15-.4.21-.78.22-1.2,0-.21-.03-.41-.11-.6h0Z"/>
        <path fill="#eb8366" d="m392.83,190.82c.06-.14.22-.21.34-.27.17-.03.29-.05.44.05-.17.03-.29.05-.41.11-.13.02-.24.08-.37.11Z"/>
      </g>
      <g>
        <path fill="#eb8366" d="m391.07,192.43c.7.26,1.48.3,2.23.25.38-.04.75-.09,1.12-.2.37-.09.72-.24,1.05-.4-.74.12-1.46.25-2.19.3-.36.04-.73.05-1.1.06-.37,0-.74,0-1.11-.01h0Z"/>
        <path fill="#eb8366" d="m392.27,193.28c.18.13.37.16.56.18.19,0,.38-.01.58-.12-.18-.13-.37-.16-.56-.18-.19,0-.38.01-.58.12h0Z"/>
      </g>
    </g>
    <g>
      <path fill="#f9a291" d="m379.02,219.06s.73-5.11,1.07-6.24,1.92-7.36.75-7.69c-1.17-.33-1.92.85-2.57,2.57l-2.45-5.25s-1.25-2.29-2.26-2.12-.96,1.18-.96,1.18c0,0-.58-1.46-1.25-1.39s-1.44.86-1.06,2.05c0,0-1.7-.4-1.77,1.79l.19.82s-1.79.2-1.39,1.91,2.19,6,2.5,6.85c.32.86,2.98,4.56,2.93,5.27s5.28,2.41,6.26.26Z"/>
      <g>
        <path fill="#ff8389" d="m375.75,212.33s.37-2.61,1.97-3.42l.04-.02.72-1.34-.23-.12-.68,1.27c-1.69.89-2.05,3.48-2.07,3.59l.25.03Z"/>
        <rect width=".26" height="6.22" x="373.73" y="201.25" fill="#ff8389" transform="rotate(-23.91 373.873 204.378)"/>
        <rect width=".26" height="6.42" x="371.35" y="201.94" fill="#ff8389" transform="rotate(-21.84 371.528 205.168)"/>
        <rect width=".26" height="4.82" x="369.58" y="204.56" fill="#ff8389" transform="rotate(-24.53 369.634 206.956)"/>
      </g>
    </g>
    <g>
      <g>
        <path fill="#ffab96" d="m391.55,219.62s-.49-1.53-.42-2.25-.74-8.51-1.43-8.54c0,0-1.28-.74-1.43,1.13v.89s-2.59-4.76-3.5-4.49c0,0-1.23,0-1.16,1.01,0,0-.94-1.01-1.36-1.02s-1.41.36-1.1,1.39c0,0-1.42-.79-1.32,1.63l.2.74s-1.5.05-1.06,2.05c.44,2,2.17,7.06,3.23,8.24,1.06,1.18,2.76,2.89,3.6,3.18s1.88.52,2.62,1.65c.74,1.13,3.55-3.38,3.13-5.63Z"/>
        <g>
          <rect width=".26" height="2.41" x="388.57" y="210.78" fill="#ff8389" transform="rotate(-21.06 388.682 211.975)"/>
          <path fill="#ff8389" d="m386.82,213.34l.24-.08c-.52-1.53-3.23-5.77-3.34-5.95l-.22.14s2.81,4.4,3.32,5.89Z"/>
          <path fill="#ff8389" d="m384.82,214.26l.24-.09c-.39-1.08-3.55-6.34-3.69-6.56l-.22.13c.03.05,3.28,5.45,3.67,6.52Z"/>
          <path fill="#ff8389" d="m382.87,215.62l.23-.11c-.09-.2-2.27-4.97-3-5.5l-.15.21c.56.41,2.3,4.04,2.92,5.4Z"/>
        </g>
      </g>
      <path fill="#ffab96" d="m415.68,217s-.4,6.19-2.36,11.75c-1.25,3.55-3.14,6.85-5.96,8.12-7.25,3.26-20.29-13.18-20.29-13.18.73-3.06,1.5-3.17,4.02-5.08l11.97,5.82.92-2.24,4.61-11.26c.38-.15.73-.29,1.07-.4,4.88-1.65,6.22.45,6.43,2.68.18,1.84-.42,3.78-.42,3.78Z"/>
    </g>
    <g opacity=".41">
      <path fill="#eb8366" d="m415.68,217s-.4,6.19-2.36,11.75c-2.25-3-7.48-5.67-9.34-6.56l4.61-11.26c.38-.15.73-.29,1.07-.4l6.43,2.68c.18,1.84-.42,3.78-.42,3.78Z"/>
    </g>
    <path fill="#f9a291" d="m379.46,216.16s4.36,15.36,2.08,18.04c-2.29,2.68-4.57,2.64-6.04,1.95s-4.41-4.88-2.7-19.15l6.66-.84Z"/>
    <path fill="#ec773f" d="m410.01,199.75l-6.71,18.96s4.87,6,12.83,5.85c0,0,5.51-15.78-.98-22.56,0,0-1.26-2.17-5.12-3.2"/>
  </g>
  <g>
    <path fill="#efa192" d="m108.38,239.26c-.08,0-.16-.02-.24-.03-7.11-1.09-5.92-8.39-5.87-11.74.02-1.41.73-3.47,1.55-5.39,1.12-2.64,2.59-3.34,2.59-3.34l4.73,1.16s4.08,19.93-2.76,19.35Z"/>
    <path fill="#ec773f" d="m102.56,206.4s5.78,12.74,6.13,17.65l-10.08,8.12,3.95-25.77Z"/>
    <g opacity=".31">
      <ellipse cx="90.71" cy="343.27" fill="#144355" rx="21.69" ry="4.75"/>
    </g>
    <path fill="#ffab96" d="m106,287.21c-.01,1.57-.09,3.01-.28,3.94-.4,1.97-1.24,18.68-1.81,30.81-.34,7.16-.58,12.73-.58,12.73,0,0-7.53,2.01-10.16-.88,0,0-.24-6.54-.46-10.85-.06-1.09-.11-2.04-.16-2.7-.25-3.26-3.01-17.57-.75-23.84l-.27-4.21-.61-9.47,14.81-3.64s.31,4.4.28,8.11Z"/>
    <path fill="#eb8366" d="m106,287.21c-4.55-.06-11.43,3.35-14.48,5l-.61-9.47,14.81-3.64s.31,4.4.28,8.11Z"/>
    <path fill="#ffab96" d="m86.02,285s-.46,2.07-1.44,6.73c-.27,1.31-.59,2.83-.95,4.56-1.03,4.97-4.49,19.69-6.91,29.92-1.43,6.02-2.5,10.49-2.5,10.49,0,0-3.64.98-7.4-1.33,0,0-.03-4.91-.05-10.01-.02-4.89-.01-9.95.05-11,.12-2.13,2.51-17.69,3.89-21.33l.4-5.2.73-9.61,14.18,6.78Z"/>
    <path fill="#eb8366" d="m86.02,285s-.46,2.07-1.44,6.73c-3.48-2.39-10.49-3.52-13.47-3.9l.73-9.61,14.18,6.78Z"/>
    <path fill="#f0f6f7" d="m103.92,321.96c-.34,7.16-.58,12.73-.58,12.73,0,0-7.53,2.01-10.16-.88,0,0-.24-6.54-.46-10.85,2.59.61,7.46,1.28,11.21-1.01Z"/>
    <g>
      <path fill="#21426b" d="m92.09,340.77c.29,2.51,2.06,3.02,4.54,3.02,2.76,0,8.66,1.82,10.1,2.07,1.44.25,10.67,1.25,12.05-2.51.11-.3.16-.59.17-.86.08-3.15-6.25-4.53-8.39-5.17-2.32-.69-5.83-6.4-6.9-7.15-1.07-.75-5.02,1.7-6.21,3.51-1.19,1.82-4.38-2.76-4.38-2.76,0,0-.96,5.58-1.02,8.91,0,.34,0,.65.04.93Z"/>
      <path fill="#f0f6f7" d="m92.09,340.77c.29,2.51,2.06,3.02,4.54,3.02,2.76,0,8.66,1.82,10.1,2.07,1.44.25,10.67,1.25,12.05-2.51.11-.3.16-.59.17-.86-2.48.82-7.69,2.4-11.09,1.74-4-.78-13.14-2.94-15.77-3.46Z"/>
      <path fill="#f0f6f7" d="m103.33,336.17l-.35-.21c1.15-1.98,2.86-2.85,2.94-2.88l.18.37s-1.68.86-2.76,2.72Z"/>
      <path fill="#f0f6f7" d="m105.72,338.55l-.4-.07c.31-1.78,2.84-2.91,2.94-2.95l.16.38s-2.43,1.08-2.7,2.65Z"/>
    </g>
    <path fill="#f0f6f7" d="m76.73,326.21c-1.43,6.02-2.5,10.49-2.5,10.49,0,0-3.64.98-7.4-1.33,0,0-.03-4.91-.05-10.01,2.27.63,6.93,1.7,9.95.85Z"/>
    <g>
      <path fill="#21426b" d="m64.88,344.98c0,.17.02.33.04.48.36,3.24,2.52,4.06,4.79,4.54,2.38.5,10.98,1.88,10.79-3.01,0,0-.17-.32-.45-.86-1.06-2.03-3.65-7.12-4.19-9.23,0,0-2.26-4.1-5.08-3.6-2.82.5-3.7,2.63-3.7,2.63l-.31-.86s-2.08,6.25-1.89,9.89Z"/>
      <path fill="#f0f6f7" d="m64.92,345.46c.36,3.24,2.52,4.06,4.79,4.54,2.38.5,10.98,1.88,10.79-3.01,0,0-.17-.32-.45-.86-.34,1.11-1.44,2.57-4.88,2.49-4.77-.11-8.42-1.11-10.25-3.16Z"/>
      <path fill="#f0f6f7" d="m69.15,338.68l-.26-.32c2.32-1.87,6.24-.51,6.41-.45l-.14.39s-3.87-1.34-6.01.38Z"/>
      <path fill="#f0f6f7" d="m69.83,341.38l-.24-.33c2.12-1.55,6.09-.53,6.26-.48l-.1.4s-3.95-1.01-5.91.42Z"/>
    </g>
    <path fill="#21426b" d="m102.84,245.97s6.4,32,5.39,38.52c-3.21,1.06-6.21,2.4-9.59,3.11-3.74.79-7.57,1.18-11.39,1.17-3.27,0-6.4-.56-9.63-.88-2.94-.29-8.41-1.9-10.85-3.72,0,0,4.95-34.51,6.96-38.03l29.11-.18Z"/>
    <path fill="#ec773f" d="m102.95,249.86c-1.54,1.35-3.75,1.37-5.72,1.68-2.44.38-4.9.59-7.37.63-4.8.08-9.66-.47-14.23-1.98-.66-.22-1.34-.44-1.94-.73-1.05-.52-1.85-1.26-1.78-2.64.09-1.78.32-3.57.39-5.37.11-3.02-.11-6.25.4-9.24.51-3.01.41-5.88.32-8.96-.1-3.43-.2-6.86-.31-10.28-.06-2.09-.13-4.18-.2-6.27h0c-.01-.34.19-.64.49-.76l11.75-4.62s6.99,1.13,7,1.13c3.03.49,6.34,1.56,9.12,2.85,2.15,1,2.38,1.74,2.5,4.06.2,3.85,1.23,7.32.81,11.26-.38,3.57-1.4,7.06-1.71,10.64-.39,4.53.36,9.06,1.33,13.48.52,2.35,1.09,3.4-.86,5.11Z"/>
    <g opacity=".14">
      <path fill="#200e10" d="m80.7,216.01c.91,2.03,1.82,4.05,2.73,6.08.74,1.64,2.32,3.91,2.32,5.75.31.92.63,1.89.46,2.84-.34,1.85-2.3,2.84-3.92,3.8-2.68,1.6-4.96,3.86-6.6,6.52-1.7,2.75-1.12,5.45-2.01,8.48-1.05-.52-1.85-1.26-1.78-2.64.09-1.78.32-3.57.39-5.37.11-3.02-.11-6.25.4-9.24.51-3.01.41-5.88.32-8.96-.07-2.63-.15-5.27-.23-7.9-.04-1.38,0-3.96,1.55-4.66,1.31-.59,3.35.62,4.21,1.54.91.97,1.47,2.21,2.01,3.42.05.12.1.23.16.35Z"/>
    </g>
    <g>
      <path fill="#200e10" d="m79.7,191.01s1.34,7.19,4.81,8.14c3.46.95,4.51-6.81,4.51-6.81l-2.75-2.43-6.56,1.1Z"/>
      <g>
        <path fill="#200e10" d="m95.78,186.05s1.72,6.26-.24,8.59c-1.95,2.33-4.46-8.23-4.46-8.23,0,0,.13-2.09.54-2.43s4.15,2.07,4.15,2.07Z"/>
        <g>
          <g>
            <path fill="#ffab96" d="m83.88,199.8c.12-.74.18-1.49.17-2.2v-.46s.02-2.1.02-2.1v-.87s0-.54,0-.54l.42.03,3.35.21,3.98.28v1.41s0,.84,0,.84v.65c0,.86,0,1.73-.01,2.59s-.12,1.59.18,2.44c.37,1.02.64,1.93.16,2.99-.7,1.57-2.37,2.11-3.95,1.78-1.67-.35-3.32-1.42-4.24-2.87-.38-.6-.78-1.1-.68-1.82.11-.81.47-1.56.6-2.37Z"/>
            <path fill="#eb8366" d="m92.11,197.67l-.29,2.54s-1.74,2.8-7.05-2.84c-.24-.24-.31-.58-.44-.83l.32-1.72c1.44-.3,5.07,1.49,7.46,2.85h0s0,0,0,0Z"/>
          </g>
          <path fill="#ffab96" d="m81.36,195.14c-.57-.52-.76-1.04-.84-1.79-.08-.52-.12-.63-.35-1.19-.19-.49-.23-1.04-.13-1.57.14-.79.55-1.5.92-2.22,1.18-2.14,2.43-4.4,4.56-5.58,1.82-1.06,4.18-1.12,6.06-.2,3.76,1.84,4.29,6.66,4.47,10.37.14,2.92-.92,6.75-4.32,7.26-4.75.75-7.74-3.83-7.74-3.83-.94-.22-1.95-.66-2.63-1.25h0s0,0,0,0Z"/>
          <path fill="#100f36" d="m89.56,190.66c-.37-.07-.75.19-.82.57-.07.37.19.75.57.82.37.07.75-.19.82-.57.07-.37-.19-.75-.57-.82Z"/>
          <g>
            <path fill="#080e1c" d="m89.56,190.66c-.37-.07-.75.19-.82.57-.07.37.19.75.57.82.37.07.75-.19.82-.57.07-.37-.19-.75-.57-.82Z"/>
            <path fill="#fff" d="m89.23,190.99c-.19-.04-.34.08-.37.27-.04.19.08.34.27.37.19.04.34-.08.37-.27.04-.15-.08-.34-.27-.37Z"/>
          </g>
          <g>
            <path fill="#080e1c" d="m94.61,190.58c-.37-.07-.75.19-.82.57-.07.37.19.75.57.82.37.07.75-.19.82-.57.07-.37-.19-.75-.57-.82h0Z"/>
            <path fill="#fff" d="m94.28,190.92c-.19-.04-.34.08-.37.27-.04.19.08.34.27.37.19.04.34-.08.37-.27.04-.19-.08-.34-.27-.37Z"/>
          </g>
          <path fill="#200e10" d="m79.62,192.23c.23.42.53.83.79,1.23.04.04.08.12.12.15-.04-.34.03-.71.17-1.12.2-.49.47-.82.79-.97.3-.16.64-.17,1-.06,1.26.37,1.61,1.91,1.88,3.02.28,1.11.85,3.56.87,1.09.02-2.8,1.03-5.76,3.77-6.99,1-.45,1.83-.75,2.49-1.72.6-.87.86-1.97.72-3.02,1.52.82,2.17,1.99,3.15,3.3,1.24,1.66.93-1.65.75-2.49-.26-1.16-.77-2.15-1.65-2.95-.02-.02-.05-.05-.07-.07-1.54-1.39-3.62-2.59-5.71-2.55-3.88.07-8.56,1.79-9.13,5.97-.16,1.23-.91,2.22-.94,3.51-.03,1.29.38,2.55,1,3.67h0s0,0,0,0Z"/>
          <path fill="#200e10" d="m76.36,180.14c.67-2.34,2.69-4.24,5.07-4.75,1.58-.34,3.38-.04,4.51,1.12,1.05,1.08,1.35,2.71,1.11,4.2-.3,1.88-1.4,3.63-2.98,4.7-1.38.94-4.37,1.9-6.02,1.09-1.98-.97-2.2-4.56-1.69-6.36Z"/>
          <g>
            <path fill="#ff8389" d="m82.13,193.19c-.11.19-.22.45-.22.68,0,.26.08.49.23.67s.38.33.57.48c-.23-.11-.45-.26-.64-.44-.19-.19-.3-.45-.3-.71,0-1.09-.43.29.26-.75.15-.19.33-.38.56-.53-.19.19-.33.38-.44.6h0Z"/>
            <path fill="#ff8389" d="m82.96,193.71c-.15-.04-.3-.03-.45-.07-.15-.04-.3-.03-.41,0-.07,0-.31.05-.35.12-.04.07.13.14.13.22-.04-.08-.04-.15,0-.22s.11-.15.19-.19c.15-.07.34-.08.49-.04.15,0,.3.03.45.11s.3.15.41.22l-.45-.15h0Z"/>
          </g>
          <path fill="#200e10" d="m87.42,190.49s-.08-.11-.04-.19c.33-.64.78-1.02,1.34-1.17.82-.23,1.5.21,1.54.21.07.04.08.11.07.15-.04.07-.11.08-.19.04-.04,0-.64-.37-1.35-.18-.48.12-.86.49-1.19,1.06-.04.04-.07.08-.11.08h-.07s0,0,0,0h0Z"/>
          <path fill="#200e10" d="m93.07,189.54c-.07-.04-.08-.11-.04-.19.52-.72,1.04-1.06,1.6-1.06.71.03,1.17.59,1.17.63.04.08.04.15-.04.19-.08.04-.15.04-.19-.04,0,0-.38-.52-.98-.52h0c-.49,0-.93.31-1.42.95-.04.04-.08.04-.11.04s-.07,0,0,0h0s0,0,0,0Z"/>
          <g>
            <path fill="#eb8366" d="m92.62,191.05c-.04.2-.04.4,0,.6.08.4.21.76.41,1.11.08.16.24.32.32.52.12.2.17.44.09.64-.12.2-.28.36-.48.44-.2.08-.4.12-.6.13.2-.04.44-.08.6-.16.2-.08.36-.24.39-.4.08-.2,0-.4-.08-.56-.08-.16-.2-.32-.32-.52-.2-.36-.33-.8-.37-1.2,0-.24,0-.44.03-.64.04-.2.12-.4.19-.6-.08.2-.12.4-.2.64h0s0,0,0,0Z"/>
            <path fill="#eb8366" d="m91.57,194.49c-.12-.04-.24-.04-.4-.04.12-.12.24-.12.4-.12.12.04.28.08.36.2-.12,0-.24-.04-.36-.04h0Z"/>
          </g>
          <ellipse cx="88.48" cy="193.88" fill="#eb8366" rx="1.39" ry=".68" transform="rotate(-2.86 88.552 194.01)"/>
          <ellipse cx="94.67" cy="193.29" fill="#eb8366" rx="1.02" ry=".75" transform="rotate(-2.86 94.78 193.365)"/>
          <g>
            <path fill="#342f46" d="m93.78,196.14c.05.46-.65,1.11-1.59,1.22-.94.11-1.77-.37-1.82-.83s.69-.74,1.63-.85,1.73,0,1.78.46Z"/>
            <path fill="#eb8366" d="m92.05,196.13c-.67.08-1.22.43-1.46.79.32.3.93.52,1.6.44s1.22-.43,1.46-.79c-.32-.3-.93-.52-1.6-.44Z"/>
            <path fill="#fff" d="m90.5,196.18c.41.05.96.04,1.56-.03s1.13-.18,1.52-.32c-.3-.2-.9-.23-1.58-.15s-1.25.24-1.5.51Z"/>
          </g>
        </g>
      </g>
    </g>
    <g>
      <path fill="#efa192" d="m106.65,222.19s-.73-5.11-1.07-6.24-1.92-7.36-.75-7.69,1.92.85,2.57,2.57l2.45-5.25s1.25-2.29,2.26-2.12.96,1.18.96,1.18c0,0,.58-1.46,1.25-1.39s1.44.86,1.06,2.05c0,0,1.7-.4,1.77,1.79l-.19.82s1.79.2,1.39,1.91c-.39,1.71-2.19,6-2.5,6.85-.32.86-2.98,4.56-2.93,5.27s-5.28,2.41-6.26.26Z"/>
      <g>
        <path fill="#ff8389" d="m109.92,215.45s-.37-2.61-1.97-3.42l-.04-.02-.72-1.34.23-.12.68,1.27c1.69.89,2.05,3.48,2.07,3.59l-.25.03Z"/>
        <rect width="6.22" height=".26" x="108.69" y="207.36" fill="#ff8389" transform="rotate(-66.09 111.803 207.485)"/>
        <rect width="6.42" height=".26" x="110.97" y="208.15" fill="#ff8389" transform="rotate(-68.16 114.175 208.269)"/>
        <rect width="4.82" height=".26" x="113.54" y="209.97" fill="#ff8389" transform="rotate(-65.47 115.97 210.106)"/>
      </g>
    </g>
    <g>
      <g>
        <path fill="#ffae9a" d="m94.11,222.74s.49-1.53.42-2.25.74-8.51,1.43-8.54c0,0,1.28-.74,1.43,1.13v.89s2.59-4.76,3.5-4.49c0,0,1.23,0,1.16,1.01,0,0,.94-1.01,1.36-1.02s1.41.36,1.1,1.39c0,0,1.42-.79,1.32,1.63l-.2.74s1.5.05,1.06,2.05c-.44,2-2.17,7.06-3.23,8.24s-2.76,2.89-3.6,3.18-1.88.52-2.62,1.65c-.74,1.13-3.55-3.38-3.13-5.63Z"/>
        <g>
          <rect width="2.41" height=".26" x="95.76" y="214.98" fill="#ff8389" transform="rotate(-68.94 96.966 215.11)"/>
          <path fill="#ff8389" d="m98.85,216.47l-.24-.08c.52-1.53,3.23-5.77,3.34-5.95l.22.14s-2.81,4.4-3.32,5.89Z"/>
          <path fill="#ff8389" d="m100.84,217.38l-.24-.09c.39-1.08,3.55-6.34,3.69-6.56l.22.13c-.03.05-3.28,5.45-3.67,6.52Z"/>
          <path fill="#ff8389" d="m102.79,218.75l-.23-.11c.09-.2,2.27-4.97,3-5.5l.15.21c-.56.41-2.3,4.04-2.92,5.4Z"/>
        </g>
      </g>
      <path fill="#ffae9a" d="m98.6,226.82s-13.04,16.44-20.29,13.18c-1.94-.87-3.43-2.69-4.59-4.9-2.37-4.53-3.29-10.68-3.6-13.48-.1-.93-.14-1.5-.14-1.5,0,0-3.13-10.21,7.09-6.06l2.19,5.33,2.79,6.81.56,1.36,11.98-5.82c2.53,1.91,3.29,2.02,4.02,5.08Z"/>
      <g opacity=".41">
        <path fill="#eb8366" d="m82.05,226.21c-1.63.97-5.92,3.87-8.32,8.89-2.37-4.53-3.29-10.68-3.6-13.48,3.24-.92,6.8-1.94,6.95-2.02.07-.04.95-.11,2.19-.21l2.79,6.81Z"/>
      </g>
    </g>
    <path fill="#ec773f" d="m73,205.95s-7.68,5.72-2.57,24.49c5.45-.01,8.92-2.2,12.27-6.39h-.54s-3.56-12.83-3.56-12.83c0,0-3.33-5.41-5.61-5.27Z"/>
    <path fill="#efa192" d="m106.21,219.28s-4.36,15.36-2.08,18.04,4.57,2.64,6.04,1.95,4.41-4.88,2.7-19.15l-6.66-.84Z"/>
  </g>
</svg>
