<svg xmlns="http://www.w3.org/2000/svg" id="Layer_1" viewBox="0 0 512 512">
  <g>
    <path fill="#43c2e5" d="m505.71,300.53v25.17l-.23-.02c-.14,3.9-.37,7.8-.67,11.7-.07,1-.15,1.99-.24,2.99-.01.17-.03.34-.04.51-.51,5.84-1.19,11.67-2.04,17.47l-159.04-3.85-11.03-.27-324.08-7.85c-.35-1.83-.67-3.67-.94-5.51-.05-.29-.09-.58-.13-.86-.11-.78-.21-1.55-.31-2.33-.12-1-.23-1.99-.32-2.98h0c-.28-2.8-.47-5.58-.56-8.38-.09-2.51-.1-5.02-.04-7.52.11-4.83.48-9.65,1.12-14.44,1.33-10.11,3.8-20.07,7.35-29.63.57-1.55,1.18-3.09,1.8-4.62,4.65-11.27,10.81-21.9,18.38-31.47.29-.36.57-.72.87-1.09,1.09-1.35,2.2-2.68,3.34-3.99,10.78-12.5,23.34-23.53,33.18-36.72,1.16-1.56,2.29-3.15,3.37-4.78,4.65-7,8.37-14.53,12.03-22.1.23-.5.47-.98.71-1.48l1.62-.14,36.26-3.21,3.01-.27,25.2-2.23,6.25-.56,4.58-.4,155.23-13.76c3.93,1.92,7.93,3.65,12.04,5.14,2.36.86,4.76,1.64,7.2,2.32,1.69.48,3.41.91,5.14,1.29.58.13,1.16.25,1.74.37.42.09.84.17,1.27.24.75.14,1.5.27,2.25.39,8.76,1.4,17.69,1.58,26.64,1.47,15.71-.18,31.5-1.22,46.67,1.95h0c1.82.38,3.63.82,5.43,1.33,7.91,2.24,15.33,5.78,22.15,10.3,1.13.75,2.24,1.52,3.34,2.33,2.04,1.48,4.01,3.06,5.93,4.71,1.41,1.22,2.8,2.48,4.14,3.79,3.78,3.66,7.28,7.62,10.46,11.82,2.29,3.01,4.43,6.15,6.39,9.37,1.3,2.13,2.52,4.3,3.68,6.5,9.56,18.06,14.71,38.29,17.7,58.57.06.42.12.83.18,1.24,1.41,9.78,2.32,19.63,2.75,29.5h.3Z"/>
    <g>
      <g>
        <ellipse cx="47.17" cy="241.55" fill="#25addb" rx="7.68" ry="11.54"/>
        <path fill="#25addb" d="m35.23,255.3c5.23-6.34,15.39-8.69,22.03-3.86,6.01,4.36,7.5,12.54,8.52,19.89,1.19,8.6,2.39,17.2,3.58,25.8.57,4.09.97,8.76-1.78,11.83-2.39,2.67-6.33,3.16-9.9,3.47-8.38.73-16.77,1.47-25.15,2.2-.75-11.44-1.84-22.92-2.2-34.38-.27-8.57-.88-17.91,4.89-24.96Z"/>
      </g>
      <g opacity=".58">
        <ellipse cx="443.75" cy="223.39" fill="#25addb" rx="7.68" ry="11.54"/>
        <path fill="#25addb" d="m431.81,237.14c5.23-6.34,15.39-8.69,22.03-3.86,6.01,4.36,7.5,12.54,8.52,19.89,1.19,8.6,2.39,17.2,3.58,25.8.57,4.09.97,8.76-1.78,11.83-2.39,2.67-6.33,3.16-9.9,3.47-8.38.73-16.77,1.47-25.15,2.2-.75-11.44-1.84-22.92-2.2-34.38-.27-8.57-.88-17.91,4.89-24.96Z"/>
      </g>
      <g opacity=".47">
        <g>
          <ellipse cx="112.99" cy="240.46" fill="#25addb" rx="5.44" ry="8.17"/>
          <path fill="#25addb" d="m104.53,250.2c3.7-4.49,10.9-6.16,15.61-2.74,4.26,3.09,5.31,8.88,6.04,14.09.85,6.09,1.69,12.18,2.54,18.28.4,2.89.69,6.2-1.26,8.38-1.69,1.89-4.48,2.24-7.01,2.46-5.94.52-11.88,1.04-17.82,1.56-.53-8.11-1.3-16.24-1.56-24.35-.19-6.07-.62-12.68,3.47-17.68Z"/>
        </g>
        <g>
          <ellipse cx="89.05" cy="250.84" fill="#25addb" rx="5.44" ry="8.17"/>
          <path fill="#25addb" d="m80.59,260.58c3.7-4.49,10.9-6.16,15.61-2.74,4.26,3.09,5.31,8.88,6.04,14.09.85,6.09,1.69,12.18,2.54,18.28.4,2.89.69,6.2-1.26,8.38-1.69,1.89-4.48,2.24-7.01,2.46-5.94.52-11.88,1.04-17.82,1.56-.53-8.11-1.3-16.24-1.56-24.35-.19-6.07-.62-12.68,3.47-17.68Z"/>
        </g>
        <g>
          <ellipse cx="132.02" cy="247.14" fill="#25addb" rx="5.44" ry="8.17"/>
          <path fill="#25addb" d="m123.57,256.88c3.7-4.49,10.9-6.16,15.61-2.74,4.26,3.09,5.31,8.88,6.04,14.09.85,6.09,1.69,12.18,2.54,18.28.4,2.89.69,6.2-1.26,8.38-1.69,1.89-4.48,2.24-7.01,2.46-5.94.52-11.88,1.04-17.82,1.56-.53-8.11-1.3-16.24-1.56-24.35-.19-6.07-.62-12.68,3.47-17.68Z"/>
        </g>
      </g>
      <g opacity=".58">
        <g>
          <ellipse cx="410.79" cy="236.06" fill="#25addb" rx="5.44" ry="8.17"/>
          <path fill="#25addb" d="m402.33,245.8c3.7-4.49,10.9-6.16,15.61-2.74,4.26,3.09,5.31,8.88,6.04,14.09.85,6.09,1.69,12.18,2.54,18.28.4,2.89.69,6.2-1.26,8.38-1.69,1.89-4.48,2.24-7.01,2.46-5.94.52-11.88,1.04-17.82,1.56-.53-8.11-1.3-16.24-1.56-24.35-.19-6.07-.62-12.68,3.47-17.68Z"/>
        </g>
        <g>
          <ellipse cx="394.28" cy="241.79" fill="#25addb" rx="5.44" ry="8.17"/>
          <path fill="#25addb" d="m385.83,251.53c3.7-4.49,10.9-6.16,15.61-2.74,4.26,3.09,5.31,8.88,6.04,14.09.85,6.09,1.69,12.18,2.54,18.28.4,2.89.69,6.2-1.26,8.38-1.69,1.89-4.48,2.24-7.01,2.46-5.94.52-11.88,1.04-17.82,1.56-.53-8.11-1.3-16.24-1.56-24.35-.19-6.07-.62-12.68,3.47-17.68Z"/>
        </g>
        <g>
          <ellipse cx="423.23" cy="233.85" fill="#25addb" rx="5.44" ry="8.17"/>
          <path fill="#25addb" d="m414.78,243.59c3.7-4.49,10.9-6.16,15.61-2.74,4.26,3.09,5.31,8.88,6.04,14.09.85,6.09,1.69,12.18,2.54,18.28.4,2.89.69,6.2-1.26,8.38-1.69,1.89-4.48,2.24-7.01,2.46-5.94.52-11.88,1.04-17.82,1.56-.53-8.11-1.3-16.24-1.56-24.35-.19-6.07-.62-12.68,3.47-17.68Z"/>
        </g>
      </g>
      <g>
        <g>
          <ellipse cx="292.33" cy="246.7" fill="#25addb" rx="5.44" ry="8.17"/>
          <path fill="#25addb" d="m283.87,256.44c3.7-4.49,10.9-6.16,15.61-2.74,4.26,3.09,5.31,8.88,6.04,14.09.85,6.09,1.69,12.18,2.54,18.28.4,2.89.69,6.2-1.26,8.38-1.69,1.89-4.48,2.24-7.01,2.46-5.94.52-11.88,1.04-17.82,1.56-.53-8.11-1.3-16.24-1.56-24.35-.19-6.07-.62-12.68,3.47-17.68Z"/>
        </g>
        <g>
          <ellipse cx="275.82" cy="252.44" fill="#25addb" rx="5.44" ry="8.17"/>
          <path fill="#25addb" d="m267.37,262.18c3.7-4.49,10.9-6.16,15.61-2.74,4.26,3.09,5.31,8.88,6.04,14.09.85,6.09,1.69,12.18,2.54,18.28.4,2.89.69,6.2-1.26,8.38-1.69,1.89-4.48,2.24-7.01,2.46-5.94.52-11.88,1.04-17.82,1.56-.53-8.11-1.3-16.24-1.56-24.35-.19-6.07-.62-12.68,3.47-17.68Z"/>
        </g>
        <g>
          <ellipse cx="304.77" cy="244.5" fill="#25addb" rx="5.44" ry="8.17"/>
          <path fill="#25addb" d="m296.31,254.24c3.7-4.49,10.9-6.16,15.61-2.74,4.26,3.09,5.31,8.88,6.04,14.09.85,6.09,1.69,12.18,2.54,18.28.4,2.89.69,6.2-1.26,8.38-1.69,1.89-4.48,2.24-7.01,2.46-5.94.52-11.88,1.04-17.82,1.56-.53-8.11-1.3-16.24-1.56-24.35-.19-6.07-.62-12.68,3.47-17.68Z"/>
        </g>
        <g opacity=".58">
          <ellipse cx="337.05" cy="244.28" fill="#25addb" rx="5.44" ry="8.17"/>
          <path fill="#25addb" d="m328.59,254.02c3.7-4.49,10.9-6.16,15.61-2.74,4.26,3.09,5.31,8.88,6.04,14.09.85,6.09,1.69,12.18,2.54,18.28.4,2.89.69,6.2-1.26,8.38-1.69,1.89-4.48,2.24-7.01,2.46-5.94.52-11.88,1.04-17.82,1.56-.53-8.11-1.3-16.24-1.56-24.35-.19-6.07-.62-12.68,3.47-17.68Z"/>
        </g>
      </g>
    </g>
    <path fill="#29afda" d="m505.71,300.53v25.17l-.23-.02c-.14,3.9-.37,7.8-.67,11.7-.07,1-.15,1.99-.24,2.99-.01.17-.03.34-.04.51H7.4c-.05-.29-.09-.58-.13-.86-.11-.78-.21-1.55-.31-2.33-.12-1-.23-1.99-.32-2.98h0c-.28-2.8-.47-5.58-.56-8.38-.09-2.51-.1-5.02-.04-7.52.11-4.83.48-9.65,1.12-14.44,1.33-10.11,3.8-20.07,7.35-29.63l15.68-.27,5.37-.09,3.34-.05,23.95-.42,3.28-.06,10.89-.18,14.83-.26h0l9.45-.17,1.11-.02,16.57-.29,1.07-.02,6.01-.11,1.67-.03,1.34-.02,16.73-.29,82.39-1.42,1.17-.02h273.3c1.41,9.78,2.32,19.63,2.75,29.5h.3Z"/>
    <path fill="#53c8ea" d="m464.25,183.53l-10.06,1.39-.76.1-2.58.36-73.57,10.16-29.56,4.08-3.01.41-33.68,4.65h0l-40.46,5.58h0l-40.04,5.53-2.34.32-1.67.23-39.32-4.97-16.89-2.13-22.14-2.8-19.11-2.42-3.01-.38-18.02-2.28-35.96-4.54c1.16-1.56,2.29-3.15,3.37-4.78,4.65-7,8.37-14.53,12.03-22.1.23-.5.47-.98.71-1.48,3.33-6.9,6.64-13.81,10.62-20.35l-.28-.07.55-.37c.75-1.22,1.52-2.42,2.32-3.6,29-43.12,89.29-62.58,137.91-43.82,29.18,11.26,53.3,34.09,81.04,47.64,3.93,1.92,7.93,3.65,12.04,5.14,2.36.86,4.76,1.64,7.2,2.32,1.69.48,3.41.91,5.14,1.29.58.13,1.16.25,1.74.37.42.09.84.17,1.27.24.75.14,1.5.27,2.25.39,8.76,1.4,17.69,1.58,26.64,1.47,15.71-.18,31.5-1.22,46.67,1.95h0c1.82.38,3.63.82,5.43,1.33,7.91,2.24,15.33,5.78,22.15,10.3,1.13.75,2.24,1.52,3.34,2.33,2.04,1.48,4.01,3.06,5.93,4.71,1.41,1.22,2.8,2.48,4.14,3.79Z"/>
    <path fill="#1790cb" d="m35.56,237.55c1.09-1.35,2.2-2.68,3.34-3.99v93.53h-3.34v-89.54Z"/>
    <path fill="#1790cb" d="m332.37,153.05c2.36.86,4.76,1.64,7.2,2.32l-17.65,4.29-90.33,21.95-.31,1.14-.75-.2v127.52h-2.34v-127.65l-1.34.32-.31-1.24-4.83-1.27h0l-12.06-3.15-18.28-4.78-33-8.63-4.09-1.06-25.2-6.59v160.48h-3.01v-161.27l-12.66-3.31-14.6-3.81-.28-.07.55-.37c.75-1.22,1.52-2.42,2.32-3.6l2.2.61,14.48,4,44.07,12.15,2.95.82,29.46,8.12,17.96,4.95,11.71,3.24,4.97,1.37,102.39-26.1.78-.2Z"/>
    <path fill="#1790cb" d="m346.45,157.02c.42.09.84.17,1.27.24v159.25h-3.01v-159.86c.58.13,1.16.25,1.74.37Z"/>
    <path fill="#1790cb" d="m450.85,172.7c1.13.75,2.24,1.52,3.34,2.33v154.81h-3.34v-157.14Z"/>
    <g opacity=".09">
      <path fill="#fff" d="m194.56,169.79l-3.2,2.53-43.18,34.13-19.11,15.1-3.01,2.37-11.2,8.85-7.14,5.64-13.37,10.57-9.31,7.36-19.22,15.19-2.97,2.35-23.95,18.93-3.34,2.64-4.17,3.3-6.7,5.3-18.65,14.74c.11-4.83.48-9.65,1.12-14.44,1.33-10.11,3.8-20.07,7.35-29.63.57-1.55,1.18-3.09,1.8-4.62l17.87-13.38,1.38-1.04,3.34-2.5,3.49-2.61,1.05-.79,11.4-8.54,53.2-39.85,18.02-13.5,3.01-2.25,29.29-21.94,2.16-1.62,1.63-1.22,2.95.82,29.46,8.12Z"/>
      <polygon fill="#fff" points="224.22 177.98 221.7 180.25 221.7 180.25 129.07 263.83 126.06 266.54 70.67 316.52 38.9 322.52 35.56 323.15 29.63 324.27 35.56 319.42 38.9 316.69 126.06 245.43 129.07 242.97 209.63 177.1 212.51 174.74 224.22 177.98"/>
      <path fill="#fff" d="m118.07,148.69l-4.67,3.25-23.6,16.39-2.33,1.62c.23-.5.47-.98.71-1.48,3.33-6.9,6.64-13.81,10.62-20.35l-.28-.07.55-.37,4.52-2.99,14.48,4Z"/>
    </g>
    <g opacity=".08">
      <path fill="#fff" d="m454.19,175.03c2.04,1.48,4.01,3.06,5.93,4.71l-5.93,4.68-.76.6-2.58,2.04-2.02,1.59-3.91,3.09-63.87,50.48-3.01,2.37-27.66,21.87-2.67,2.11-3.01,2.37-.09.07-13.07,10.33-4.34,3.43-1.26,1-5.54,4.38-5.28,4.17-7.83,6.19-13.57,10.73-9.7,7.66-1.34,1.05-2.1,1.67-.2.15-17.16,13.57-4.87-15.41-.06-.18-.59-1.88-.38-1.2-2.55-8.08-2.55-8.07-2.89-9.15,12.19-9.13,2.34-1.75.06-.04,12.58-9.43,3.81-2.85,6.11-4.58,7.8-5.85,5.33-3.99,2.69-2.02,2.67-2,5.22-3.91,17.07-12.79,4.34-3.25,13.16-9.86,3.01-2.25,29.56-22.15.77-.58,3.01-2.25,42.21-31.63h0c1.82.38,3.63.82,5.43,1.33,7.91,2.24,15.33,5.78,22.15,10.3,1.13.75,2.24,1.52,3.34,2.33Z"/>
      <path fill="#fff" d="m484.78,211.22l-27.83,25.11-2.76,2.49-3.34,3.01-2.01,1.82-3.91,3.53-8.52,7.69-9.44,8.52-1.88,1.7-6.59,5.95-6.26,5.65-2.52,2.27-9.31,8.4-5.86,5.29h0l-8.74,7.88-12.92,11.65-17.37,3.28h-.01l-23.95,4.53-4.34.82-6.28,1.18h-.01l-1.43.27.43-.35,7.29-5.96,2.73-2.24,1.61-1.31,13.16-10.77,1.37-1.11,1.64-1.34,34.44-28.16.27-.22,16.35-13.37h0s5.92-4.84,5.92-4.84l8.85-7.24h0s3.5-2.87,3.5-2.87l2.77-2.26.6-.49h0s8.21-6.72,8.21-6.72l7.75-6.34,8.53-6.97,3.91-3.2.75-.61,1.26-1.03,3.34-2.73,20.52-16.78c2.29,3.01,4.43,6.15,6.39,9.37,1.3,2.13,2.52,4.3,3.68,6.5Z"/>
      <path fill="#fff" d="m376.6,159.12l-28.88,20.07-3.01,2.09-26.64,18.51-4.34,3.02-2.69,1.87h0l-47.16,32.77-2.34,1.62-31,21.54-2.34,1.62-.29.2v-23.9l.29-.19,2.34-1.55,31-20.55,2.34-1.55,6.7-4.44h0l43.16-28.6,4.34-2.88,26.64-17.65,3.01-1.99,2.25-1.49c8.76,1.4,17.69,1.58,26.64,1.47Z"/>
    </g>
    <path fill="#1790cb" d="m505.71,300.53v25.17l-.23-.02c-.14,3.9-.37,7.8-.67,11.7-.07,1-.15,1.99-.24,2.99-.01.17-.03.34-.04.51-.51,5.84-1.19,11.67-2.04,17.47-.58,4.02-1.25,8.03-2,12.03H15.42c-3.11-7.75-5.49-15.79-7.08-23.99-.35-1.83-.67-3.67-.94-5.51-.05-.29-.09-.58-.13-.86-.11-.78-.21-1.55-.31-2.33-.12-1-.23-1.99-.32-2.98h0c-.28-2.8-.47-5.58-.56-8.38-.09-2.51-.1-5.02-.04-7.52.11-4.83.48-9.65,1.12-14.44l17.53-.3,7.08-.12,3.79-.06,3.34-.06,16.09-.28,14.75-.26,15.91-.28h0l40.41-.69,3.01-.05,99.12-1.71,1.17-.02h276.35Z"/>
    <path fill="#35b68e" d="m505.48,325.68c-.14,3.9-.37,7.8-.67,11.7-.07,1-.15,1.99-.24,2.99-.01.17-.03.34-.04.51-.51,5.84-1.19,11.67-2.04,17.47-.58,4.02-1.25,8.03-2,12.03-3.33,17.85-8.24,35.39-14.71,52.35-.43,1.12-.92,2.31-1.44,3.51H57.03c-18.46-14.52-32.89-34.06-41.62-55.86-3.11-7.75-5.49-15.79-7.08-23.99-.35-1.83-.67-3.67-.94-5.51-.05-.29-.09-.58-.13-.86-.11-.78-.21-1.55-.31-2.33-.12-1-.23-1.99-.32-2.98h0c-.28-2.8-.47-5.58-.56-8.38l23.55-2.05,5.93-.52,3.34-.29,87.16-7.59,3.01-.27,99.12-8.64,1.17-.1,1.17.08,24.26,1.65,38.94,2.66,36.21,2.47,14.77,1.01,3.01.21,7.78.53h.01l95.35,6.5,3.34.23,51.29,3.49Z"/>
    <path fill="#fff" d="m504.81,337.37c-.07,1-.15,1.99-.24,2.99l-199.48-16.67-24.5-2.05-8.49-.71-13.8-1.16-29.63-2.48L6.96,337.68c-.12-1-.23-1.99-.32-2.98h0s222.02-20.42,222.02-20.42h.13s28.54,2.4,28.54,2.4l13.79,1.16,12.91,1.08,24.51,2.04,11.38.95,1,.08h.01l183.89,15.38Z"/>
  </g>
  <g>
    <g opacity=".31">
      <ellipse cx="187.23" cy="402.18" fill="#144355" rx="122.2" ry="14.57"/>
    </g>
    <path fill="#200e10" d="m213.28,155.07c-3.31,1.85-5.72,5.23-6.41,8.96-.49,2.68-.12,5.44-.3,8.16s-1.07,5.64-3.35,7.14c-1.95,1.3-4.59,1.32-6.4,2.81-2.07,1.7-2.4,4.74-2.2,7.41s.73,5.46-.19,7.97c-1.1,3-4.01,4.93-5.68,7.65-1.53,2.5-1.94,5.66-1.08,8.46s2.96,5.2,5.63,6.41c-1.55-1.3-1.8-3.73-.95-5.57s2.6-3.12,4.47-3.91,3.88-1.13,5.85-1.59c2.79-.65,5.55-1.54,7.96-3.08s4.45-3.79,5.32-6.51c.68-2.15.61-4.46.98-6.68,1.39-8.18,8.55-14.09,11.78-21.73,1.19-2.82,1.84-5.95,1.29-8.96-1.44-7.9-10.12-10.66-16.72-6.97Z"/>
    <path fill="#200e10" d="m178.3,194.21c-1.03,4.24-1.73,8.62-2.07,12.97-.2,2.56-.28,5.16.03,7.72.22,1.84,1.69,5.34,1.69,5.34,0,0,.48.71.59.3,0,0,6.1-22.64-.24-26.34Z"/>
    <path fill="#ffab96" d="m184.24,217.11c-.05-.03-.28-.09-.65-.18-1.58-.4-5.82-1.35-10.65-2.61-7.56-1.97-16.54-4.69-18.97-7.2-4.34-4.47-4.34-46.49-4.34-46.49l13.03-5.49,6.26,37.75,9.23,2.12.37.09,2.29.53s4.09,21.84,3.45,21.49Z"/>
    <path fill="#eb8366" d="m183.6,216.92c-1.58-.4-5.82-1.35-10.65-2.61,2.52-6.73,4.61-16.47,5.2-19.3.1-.51.16-.8.16-.8l.21.88,5.09,21.83Z"/>
    <path fill="#ffab96" d="m332.72,240.32s-46.49-8.51-52.92-10.24c-.28-.08-.57-.15-.87-.23-6.31-1.7-14.22-3.83-14.22-3.83l12.52-14.3s1.66.38,3.55.8c2.04.44,4.34.92,5.14.99,1.53.13,47.41,16.36,48.56,16.87,1.15.51-1.76,9.96-1.76,9.96Z"/>
    <path fill="#eb8366" d="m280.78,212.51c-1.53,3.83-1.83,12.13-1.84,17.34-6.31-1.7-14.22-3.83-14.22-3.83l12.52-14.3s1.66.38,3.55.8Z"/>
    <path fill="#d23838" d="m281.19,211.65l-10.35,22.03s-1.48-.45-3.73-1.13c-6.79-2.06-20.56-6.24-21.56-6.53-.73-.21,2.33-7.7,5.27-14.51,2.48-5.73,4.88-10.97,4.88-10.97l25.48,11.11Z"/>
    <g opacity=".2">
      <path fill="#144355" d="m267.12,232.55c-6.79-2.06-20.56-6.24-21.56-6.53-.73-.21,2.33-7.7,5.27-14.51l4.78-4.07s-2.03,15.35,2.16,17.52c2.52,1.3,6.54,4.91,9.35,7.59Z"/>
    </g>
    <path fill="#200e10" d="m252.64,277.17s-2.02,31.43-33.67,35.38c0,0,12.41-35.19,33.67-35.38Z"/>
    <path fill="#ffab96" d="m182.58,309.94s-4.5,3.84-10.73,8.72c-8.89,6.98-21.3,16.09-29.18,19.24-8.43,3.37-26.17,13.63-39.23,21.84-7.73,4.85-13.82,8.98-15.38,10.55-4.22,4.21-13.22-10.54-10.16-13.22,2.31-2.03,10.97-7.44,16.8-12.27,1.89-1.57,3.49-3.08,4.48-4.39,2.61-3.48,6.24-6.34,9.6-9.03,4.94-3.95,10.18-7.62,15.73-10.66,2.57-1.41,5.68-2.26,7.85-4.18,3.1-2.74,6.25-5.42,9.38-8.13,3.71-3.2,7.42-6.4,11.12-9.61,1.54-1.33,3.08-2.66,4.62-4l1.49.9,23.61,14.25Z"/>
    <path fill="#eb8366" d="m182.58,309.94s-4.5,3.84-10.73,8.72c-6.68-7.97-18.99-19.87-18.99-19.87l6.11-3.1,23.61,14.25Z"/>
    <path fill="#ffab96" d="m300.54,352.85s-6.7,11.88-14.37,11.5c0,0-3.6-8.68-7.19-15.84-1.95-3.89-3.9-7.34-5.25-8.69-3.85-3.83-15.34-28.55-15.54-34.49l-11.4-1.21-20.99-2.23,21.12-23.72s4.28.03,9.64.68c7.57.93,17.3,3.12,20.22,8.28,3.3,5.85,12.68,32.85,18.62,50.38,3.01,8.89,5.14,15.34,5.14,15.34Z"/>
    <path fill="#eb8366" d="m251.9,277.17c-4.43,4.69-3.32,19.33-5.1,26.95l-20.99-2.23,21.12-23.72s-.39-1.65,4.97-1Z"/>
    <path fill="#21426b" d="m252.14,277.82c.03-.93-.94-1.05-2.66-1.42-8.01-1.71-16.25-1.94-24.4-2.25l-4.44-12.82h-46.94s-10.15,16.41-14.18,21.78c-1.77,2.36-3.89,4.42-5.86,6.6-1.74,1.93-4.98,4.49-3.05,6.74,4.1,4.79,10.77,8.94,16.08,12.27,6.27,3.94,13.22,6.99,20.57,7.93,6.9.88,13.89-.12,20.77-1.17,7.89-1.21,16.13-2.65,22.48-7.48,4.41-3.35,7.54-8.07,10.58-12.7,2.32-3.52,4.64-7.04,6.96-10.57,1.17-1.78,2.68-3.57,3.61-5.48.31-.63.46-1.09.47-1.44Z"/>
    <path fill="#d9e6e8" d="m300.54,352.85s-6.71,11.88-14.37,11.5c0,0-3.6-8.68-7.19-15.84,6-3.02,14.71-7.81,16.41-11,3.01,8.89,5.14,15.34,5.14,15.34Z"/>
    <path fill="#d9e6e8" d="m103.44,359.74c-7.72,4.85-13.82,8.98-15.38,10.54-4.22,4.21-13.22-10.54-10.16-13.22,2.31-2.03,10.97-7.44,16.79-12.27,1.37,4.9,4.13,12.31,8.74,14.95Z"/>
    <g>
      <path fill="#21426b" d="m335.46,352.51c-5.53,7.96-30.95,31.54-39.41,30.48-.23-.03-.46-.07-.68-.12-.08-.02-.16-.04-.24-.06-1.35-.36-2.51-1.1-3.51-2.11-.03-.03-.07-.07-.11-.11-5.36-5.56-5.98-18.62-5.98-18.62,8.39,4.94,8.12-8.81,10.52-12.4,2.4-3.6,6.13-3.19,10.65-1.99,4.53,1.2,9.19-1.06,17.84-4.39,4.68-1.8,7.65-.6,9.47,1.43,1.1,1.21,1.78,2.73,2.17,4.08.16.56.27,1.09.35,1.55.06.41-.32,1.2-1.06,2.26Z"/>
      <path fill="#f0f6f7" d="m309.79,355.48c-.67,0-1.27-.48-1.39-1.16-.31-1.68-1.05-7.22,2.35-7.94.77-.16,1.52.33,1.68,1.1.16.76-.32,1.51-1.08,1.68-.39.37-.55,2.5-.16,4.65.14.77-.37,1.51-1.14,1.65-.09.02-.17.02-.26.02Z"/>
      <path fill="#f0f6f7" d="m314.71,354.04c-.43,0-.86-.19-1.13-.56-1.01-1.34-2.11-4.71.98-7.86.55-.56,1.45-.57,2.01-.02.56.55.57,1.45.02,2.01-2.17,2.21-.8,4.08-.74,4.16.47.63.35,1.52-.28,1.99-.26.19-.56.29-.85.29Z"/>
      <path fill="#cad6d8" d="m296.05,383c-.31-.04-.62-.1-.92-.18-1.4-.37-2.6-1.16-3.62-2.22-.49-.51,20.13-18.47,21.93-19.96,3.29-2.72,6.32-5.78,9.92-8.12,3.08-2,8.43-4.46,12.17-2.8,1.67.74.58,1.88-.32,3.13-1.25,1.75-2.71,3.36-4.17,4.93-8.08,8.71-17.61,17.75-28.24,23.24-1.98,1.02-4.44,2.26-6.75,1.97Z"/>
      <path fill="#fff" d="m335.46,352.51c-6.45,1.99-25.48,9.35-40.09,30.37-.08-.02-.16-.04-.24-.06-1.35-.36-2.51-1.1-3.51-2.11,4.96-6.45,26.21-32.55,44.56-32.01.16.56.27,1.09.35,1.55.06.41-.32,1.2-1.06,2.26Z"/>
    </g>
    <g>
      <path fill="#21426b" d="m91.92,369.75c-.18,1.82-8.74,8.3-10.27,12.13-1.53,3.82-5.57,19.12-10.66,22.4-1.08.7-2.03,1.23-2.92,1.58-3.29,1.29-5.73-.03-10.89-5.62-6.56-7.1,2.62-23.49,5.35-29.19,2.73-5.7,4.26-14.19,8.96-20.09,1.45-1.82,3.49-2.62,5.62-2.86,4.78-.54,10.01,1.76,10.01,1.76-6.89,3.06-3.61,12.13-3.61,12.13,8.85.66,8.6,5.93,8.41,7.76Z"/>
      <path fill="#fff" d="m85.04,377.23c-.47,0-.94-.21-1.25-.61-1.2-1.55-5.24-3.97-7.51-5.13-.78-.4-1.08-1.35-.68-2.12.4-.78,1.35-1.08,2.12-.68.66.34,6.55,3.4,8.56,6.01.53.69.41,1.68-.28,2.21-.29.22-.63.33-.96.33Z"/>
      <path fill="#fff" d="m82.61,381.8c-.5,0-1-.24-1.3-.68-1.01-1.46-4.62-3.22-6.66-3.99-.82-.31-1.23-1.21-.92-2.03.31-.82,1.21-1.23,2.03-.92.63.24,6.26,2.4,8.15,5.15.49.72.31,1.7-.41,2.19-.27.19-.58.28-.89.28Z"/>
      <path fill="#fff" d="m80.22,387.6c-.64,0-1.25-.4-1.48-1.03-.47-1.29-3.73-3.75-5.78-5.01-.74-.46-.98-1.43-.52-2.17.46-.74,1.43-.98,2.17-.52,1.01.62,6.08,3.83,7.1,6.61.3.82-.12,1.72-.94,2.02-.18.07-.36.1-.54.1Z"/>
      <path fill="#f0f6f7" d="m68.07,405.86c-3.29,1.29-5.73-.03-10.89-5.62-6.56-7.1,2.62-23.49,5.35-29.19,2.73-5.7,4.26-14.19,8.96-20.09,1.45-1.82,3.49-2.62,5.62-2.86-4.96,9.37-18.49,35.36-18.68,40.76-.21,5.92,2.61,14.86,9.65,17Z"/>
    </g>
    <path fill="#d23838" d="m249.45,237.32c-.41,1.16-.93,2.27-1.44,3.39-1.88,4.07-3.94,8.06-6,12.05-2.27,4.39-4.58,8.77-6.91,13.14-.88,1.65-1.76,3.29-2.64,4.94-.74,1.38-1.34,3-2.82,3.74-.54.28-1.09.55-1.65.79-1.1.49-2.23.91-3.39,1.27-2.26.7-4.59,1.14-6.94,1.36-5.43.51-10.93-.12-16.23-1.36-5.02-1.18-9.91-2.91-14.62-4.98-3.62-1.59-7.15-3.39-10.57-5.37-1.38-.8-2.75-1.62-4.07-2.52,0,0,3.18-4.98,6.87-11.04,4.47-7.33,9.69-16.24,10.95-19.81.92-2.6,2.08-9.23,3.15-16.24,1.6-10.54,2.98-21.96,2.98-21.96l19.33-1.22,4.13-.26s11.03,2.7,11.61,2.7c.14,0,1.65.19,3.86.51h0c6.58.94,19.38,2.94,20.67,4.09,1.73,1.53-4.02,30.46-6.26,36.79Z"/>
    <g opacity=".2">
      <path fill="#144355" d="m207.88,217.07s-18.07,18.76-18.57,24.06c-.25,2.67-5,7.37-10.27,11.59,4.47-7.33,9.69-16.24,10.95-19.81.92-2.6,2.08-9.23,3.15-16.24,5.33-.91,10.43-.97,14.74.4Z"/>
    </g>
    <path fill="#f0f6f7" d="m228.03,207.44c-9.11,1.16-12.16-11.92-12.58-13.95l4.13-.26s11.03,2.7,11.61,2.7c.14,0,1.65.19,3.86.51h0s2.86,9.74-7.01,11Z"/>
    <path fill="#d23838" d="m196.12,194.71l-17.82-.51c1.88,9.46.38,26.44,0,26.44l20.5,5.36c14.48,0,17.98-31.09-2.68-31.3Z"/>
    <path fill="#ffab96" d="m331.77,230.61s9.84-.89,15.07-1.41c5.24-.51,15.58-2.17,16.99,3.45l-1.02,1.02s2.68,3.07-7.54,2.43l-12.77,4.09s6.13,1.15,6.51,4.22c.38,3.07-3.83,2.43-7.15,1.79-3.32-.64-9.45-4.09-11.88-7.66-2.43-3.58,1.79-7.92,1.79-7.92Z"/>
    <g>
      <g>
        <path fill="#fff" d="m290.87,145.19c7.48-4.84,15.52-8.91,23.99-11.71,1.39-.45,2.87-.87,4.3-1.2,1.45-.33,2.92-.61,4.4-.76-5.8,1.26-11.32,3.46-16.73,5.85-5.42,2.4-10.7,5.07-15.96,7.82h0Z"/>
        <path fill="#fff" d="m295.98,147.62c8.04-5.55,18.38-9.83,28.15-10.69,1.44-.12,2.9-.15,4.34-.09-2.16.16-4.3.4-6.42.81-2.81.52-5.62,1.27-8.34,2.14-6.15,2.01-12.08,4.69-17.73,7.84h0Z"/>
        <path fill="#fff" d="m320.71,144.82c2.44-1.07,4.95-1.93,7.48-2.73,2.54-.79,5.09-1.52,7.71-2.02-2.44,1.07-4.95,1.93-7.48,2.73-2.54.78-5.09,1.51-7.71,2.02h0Z"/>
      </g>
      <g>
        <path fill="#fccf3a" d="m340.01,126.54c2.09,2.02,3.06,4.75,2.91,7.44-.02.35-.06.71-.12,1.06-.31,1.84-1.16,3.61-2.55,5.05-1.87,1.94-4.37,2.92-6.87,2.93-.35,0-.71-.02-1.06-.05-2.04-.22-4.03-1.1-5.62-2.63-2.41-2.33-3.34-5.61-2.76-8.67h0c.06-.35.15-.69.25-1.02.43-1.4,1.18-2.73,2.27-3.85,1.61-1.67,3.68-2.63,5.83-2.87.35-.04.71-.06,1.06-.06,2.4,0,4.8.89,6.66,2.69Z"/>
        <path fill="#fabe30" d="m324.19,130.63c-.1.34-.19.68-.25,1.02,2.48-.65,5.22-.03,7.2,1.87,2.61,2.52,3.02,6.46,1.19,9.43.35.04.7.06,1.06.05,1.76-3.28,1.21-7.46-1.59-10.16-2.09-2.02-4.95-2.75-7.6-2.22Z"/>
        <path fill="#fabe30" d="m335.56,131.86c-2.21-2.14-2.96-5.23-2.21-8.01-.36,0-.71.02-1.06.06-.7,3.04.16,6.36,2.57,8.69,2.19,2.11,5.16,2.92,7.95,2.44.06-.35.1-.7.12-1.06-2.56.54-5.34-.16-7.36-2.11Z"/>
        <path fill="#f9b928" d="m340.01,126.54c3.81,3.67,3.91,9.74.24,13.55-2.19,2.27-5.23,3.22-8.14,2.85,1.96-.32,3.83-1.26,5.31-2.8,3.67-3.81,3.57-9.87-.24-13.55-1.54-1.48-3.44-2.35-5.41-2.61,2.89-.48,5.96.37,8.23,2.56Z"/>
        <g opacity=".45">
          <ellipse cx="325.64" cy="135.26" fill="#fff" rx=".9" ry="3.16" transform="rotate(-17.99 325.71 135.288)"/>
        </g>
        <g opacity=".45">
          <circle cx="327.76" cy="139.23" r=".95" fill="#fff"/>
        </g>
      </g>
    </g>
    <g>
      <path fill="#ffab96" d="m145.93,151.17s2.63,9.71,7.97,9.54c5.34-.17,14.64-12.46,14.64-12.46,0,0-4.84-9.03-5.2-8.55s-17.41,11.47-17.41,11.47Z"/>
      <g>
        <path fill="#21426b" d="m220.76,95.69c-9.02-10.55-22.47-13.78-33.03-4.75-6.22,5.32-10.43,14.09-11,22.55l-4.54,19.35-.06.28-.68,2.91c-.13.57.01,1.17.39,1.62s.95.69,1.54.64l2.98-.22.28-.02,19.83-1.48c8.45.76,17.76-2.04,23.98-7.36,10.55-9.02,9.32-22.97.3-33.52h0Zm-7.86,28.79c-.51.43-1.26.37-1.7-.13s-.37-1.26.13-1.7,1.26-.37,1.7.13.37,1.26-.13,1.7h0Zm.57-4.98c-.51.43-1.26.37-1.7-.13s-.37-1.26.13-1.7,1.26-.37,1.7.13c.43.51.37,1.26-.13,1.7Zm-6.51-.11c-.43-.51-.37-1.26.13-1.7s1.26-.37,1.7.13.37,1.26-.13,1.7-1.26.37-1.7-.13Zm-4.04,5.04c-.51.43-1.26.37-1.7-.13s-.37-1.26.13-1.7,1.26-.37,1.7.13.37,1.26-.13,1.7Zm9.47-9.68c-.43-.51-.37-1.26.13-1.7s1.26-.37,1.7.13.37,1.26-.13,1.7-1.26.37-1.7-.13Zm-8.82,3.25c.43.51.37,1.26-.13,1.7s-1.26.37-1.7-.13-.37-1.26.13-1.7,1.26-.37,1.7.13h0Zm4.2-5.17c.51-.43,1.26-.37,1.7.13s.37,1.26-.13,1.7-1.26.37-1.7-.13-.37-1.26.13-1.7Zm-9.61,10.01c.43.51.37,1.26-.13,1.7s-1.26.37-1.7-.13-.37-1.26.13-1.7,1.26-.37,1.7.13h0Zm15.1-12.92c-.43-.51-.37-1.26.13-1.7s1.26-.37,1.7.13.37,1.26-.13,1.7-1.26.37-1.7-.13h0Zm-14.23,8.09c.43.51.37,1.26-.13,1.7s-1.26.37-1.7-.13-.37-1.26.13-1.7,1.26-.37,1.7.13h0Zm3.83-5.29c.51-.43,1.26-.37,1.7.13s.37,1.26-.13,1.7-1.26.37-1.7-.13-.37-1.26.13-1.7Zm5.5-2.7c-.43-.51-.37-1.26.13-1.7s1.26-.37,1.7.13.37,1.26-.13,1.7-1.26.37-1.7-.13h0Zm2.8-4.42c-.51.43-1.26.37-1.7-.13s-.37-1.26.13-1.7,1.26-.37,1.7.13.37,1.26-.13,1.7Zm-11.61,7.67c.43.51.37,1.26-.13,1.7s-1.26.37-1.7-.13-.37-1.26.13-1.7,1.26-.37,1.7.13h0Zm4.2-5.17c.51-.43,1.26-.37,1.7.13s.37,1.26-.13,1.7-1.26.37-1.7-.13-.37-1.26.13-1.7Zm-9.38,10.28c.43.51.37,1.26-.13,1.7s-1.26.37-1.7-.13-.37-1.26.13-1.7,1.26-.37,1.7.13Zm7.28-14.6c.43.51.37,1.26-.13,1.7s-1.26.37-1.7-.13-.37-1.26.13-1.7,1.26-.37,1.7.13Zm4.16-4.46c.51-.43,1.26-.37,1.7.13s.37,1.26-.13,1.7-1.26.37-1.7-.13-.37-1.26.13-1.7h0Zm-10.05,9.5c.43.51.37,1.26-.13,1.7s-1.26.37-1.7-.13-.37-1.26.13-1.7,1.26-.37,1.7.13h0Zm-5.18,5.11c.43.51.37,1.26-.13,1.7s-1.26.37-1.7-.13-.37-1.26.13-1.7,1.26-.37,1.7.13h0Zm8.27-5.94c.51-.43,1.26-.37,1.7.13s.37,1.26-.13,1.7-1.26.37-1.7-.13-.37-1.26.13-1.7Zm-3.6,5.55c.43.51.37,1.26-.13,1.7s-1.26.37-1.7-.13-.37-1.26.13-1.7,1.26-.37,1.7.13Zm9.34-7.98c-.43-.51-.37-1.26.13-1.7s1.26-.37,1.7.13.37,1.26-.13,1.7-1.26.37-1.7-.13Zm-13.13,3.54c.43.51.37,1.26-.13,1.7s-1.26.37-1.7-.13-.37-1.26.13-1.7,1.26-.37,1.7.13Zm3.6-5.55c.51-.43,1.26-.37,1.7.13s.37,1.26-.13,1.7-1.26.37-1.7-.13-.37-1.26.13-1.7Zm5.73-2.43c-.43-.51-.37-1.26.13-1.7s1.26-.37,1.7.13.37,1.26-.13,1.7-1.26.37-1.7-.13Zm-3.06-.09c-.51.43-1.26.37-1.7-.13s-.37-1.26.13-1.7,1.26-.37,1.7.13.37,1.26-.13,1.7h0Zm-4.77-1.79c.43.51.37,1.26-.13,1.7s-1.26.37-1.7-.13-.37-1.26.13-1.7,1.26-.37,1.7.13h0Zm-.98,5.13c.43.51.37,1.26-.13,1.7s-1.26.37-1.7-.13-.37-1.26.13-1.7c.51-.43,1.26-.37,1.7.13Zm13.94,20.01c-.43-.51-.37-1.26.13-1.7s1.26-.37,1.7.13.37,1.26-.13,1.7-1.26.37-1.7-.13h0Zm-29.7,9.97l-.57.04.13-.55,2.37-10.09c.77,2.05,1.86,3.97,3.32,5.67s3.18,3.07,5.09,4.16l-10.33.77h0Z"/>
        <rect width="34.06" height="6.85" x="145.99" y="141.77" fill="#21426b" transform="rotate(-40.53 163.013 145.192)"/>
        <rect width="22.39" height="9.16" x="144.94" y="146.49" fill="#35b68e" rx="4" ry="4" transform="rotate(-40.53 156.134 151.07)"/>
        <rect width="6.96" height="11.71" x="146.79" y="150.23" fill="#21426b" rx="3.48" ry="3.48" transform="rotate(-40.53 150.278 156.094)"/>
        <path fill="#35b68e" d="m172.57,133.5l3.48,4.07c.68.8.59,2-.21,2.68h0c-.8.68-2,.59-2.68-.21l-3.48-4.07c-.68-.8-.59-2,.21-2.68h0c.8-.68,2-.59,2.68.21Z"/>
        <g opacity=".21">
          <path fill="#200e10" d="m218.35,97.75c-7.9-9.24-19.32-12.3-28.56-4.4s-13.86,24.81-5.96,34.05c7.9,9.24,25.33,7.3,34.56-.6s7.85-19.82-.05-29.05Zm-12.92,10.5c.43.51.37,1.26-.13,1.7s-1.26.37-1.7-.13-.37-1.26.13-1.7,1.26-.37,1.7.13Zm2.05-8.77c.43.51.37,1.26-.13,1.7s-1.26.37-1.7-.13-.37-1.26.13-1.7,1.26-.37,1.7.13h0Zm-5.85,4.32c.43.51.37,1.26-.13,1.7s-1.26.37-1.7-.13-.37-1.26.13-1.7,1.26-.37,1.7.13Zm-10.54-2.97c-.43-.51-.37-1.26.13-1.7s1.26-.37,1.7.13.37,1.26-.13,1.7-1.26.37-1.7-.13h0Zm-.98,5.13c-.43-.51-.37-1.26.13-1.7.51-.43,1.26-.37,1.7.13s.37,1.26-.13,1.7-1.26.37-1.7-.13Zm5.89-5.04c-.43-.51-.37-1.26.13-1.7s1.26-.37,1.7.13.37,1.26-.13,1.7-1.26.37-1.7-.13h0Zm-.98,2.66c.51-.43,1.26-.37,1.7.13s.37,1.26-.13,1.7-1.26.37-1.7-.13-.37-1.26.13-1.7Zm-5.43,7.12c-.43-.51-.37-1.26.13-1.7s1.26-.37,1.7.13.37,1.26-.13,1.7-1.26.37-1.7-.13Zm11.17-9.55c-.43-.51-.37-1.26.13-1.7s1.26-.37,1.7.13.37,1.26-.13,1.7-1.26.37-1.7-.13Zm-6.72,7.56c.51-.43,1.26-.37,1.7.13s.37,1.26-.13,1.7-1.26.37-1.7-.13-.37-1.26.13-1.7h0Zm-5.32,6.81c-.43-.51-.37-1.26.13-1.7s1.26-.37,1.7.13.37,1.26-.13,1.7-1.26.37-1.7-.13h0Zm10.1-7.5c.51-.43,1.26-.37,1.7.13s.37,1.26-.13,1.7-1.26.37-1.7-.13-.37-1.26.13-1.7Zm-5.43,7.12c-.43-.51-.37-1.26.13-1.7s1.26-.37,1.7.13.37,1.26-.13,1.7-1.26.37-1.7-.13Zm11.17-9.55c-.43-.51-.37-1.26.13-1.7s1.26-.37,1.7.13.37,1.26-.13,1.7-1.26.37-1.7-.13Zm-6.72,7.56c.51-.43,1.26-.37,1.7.13s.37,1.26-.13,1.7-1.26.37-1.7-.13-.37-1.26.13-1.7h0Zm-5.31,6.81c-.43-.51-.37-1.26.13-1.7s1.26-.37,1.7.13.37,1.26-.13,1.7-1.26.37-1.7-.13Zm16.93-14.47c-.43-.51-.37-1.26.13-1.7s1.26-.37,1.7.13.37,1.26-.13,1.7-1.26.37-1.7-.13Zm-12.26,14.1c-.43-.51-.37-1.26.13-1.7s1.26-.37,1.7.13.37,1.26-.13,1.7-1.26.37-1.7-.13h0Zm5.66-6.85c.51-.43,1.26-.37,1.7.13s.37,1.26-.13,1.7-1.26.37-1.7-.13-.37-1.26.13-1.7Zm5.5-2.7c-.43-.51-.37-1.26.13-1.7s1.26-.37,1.7.13.37,1.26-.13,1.7-1.26.37-1.7-.13h0Zm-4.79,7.96c.43.51.37,1.26-.13,1.7s-1.26.37-1.7-.13-.37-1.26.13-1.7,1.26-.37,1.7.13h0Zm4.2-5.17c.51-.43,1.26-.37,1.7.13s.37,1.26-.13,1.7-1.26.37-1.7-.13-.37-1.26.13-1.7Zm-11.44,11.58c-.43-.51-.37-1.26.13-1.7s1.26-.37,1.7.13.37,1.26-.13,1.7-1.26.37-1.7-.13h0Zm16.93-14.48c-.43-.51-.37-1.26.13-1.7s1.26-.37,1.7.13.37,1.26-.13,1.7-1.26.37-1.7-.13h0Zm-12.03,14.36c-.43-.51-.37-1.26.13-1.7s1.26-.37,1.7.13.37,1.26-.13,1.7-1.26.37-1.7-.13Zm5.74-4.91c-.43-.51-.37-1.26.13-1.7s1.26-.37,1.7.13.37,1.26-.13,1.7-1.26.37-1.7-.13Zm5.42-4.64c-.43-.51-.37-1.26.13-1.7s1.26-.37,1.7.13.37,1.26-.13,1.7-1.26.37-1.7-.13Zm-6.5,9.66c-.43-.51-.37-1.26.13-1.7s1.26-.37,1.7.13.37,1.26-.13,1.7-1.26.37-1.7-.13h0Zm5.89-5.04c-.43-.51-.37-1.26.13-1.7s1.26-.37,1.7.13c.43.51.37,1.26-.13,1.7s-1.26.37-1.7-.13Zm-.58,4.98c-.43-.51-.37-1.26.13-1.7s1.26-.37,1.7.13.37,1.26-.13,1.7-1.26.37-1.7-.13h0Z"/>
        </g>
      </g>
      <path fill="#ffab96" d="m158.44,162.03s14-11.43,13.14-16.16-5.02-3.44-8.89-2.01c-3.87,1.43-7.45,1.86-5.3,4.3,2.15,2.44,6.16,2.58,6.16,2.58l-7.64,7.19c-.19,3.07-.05,4.09,2.53,4.09Z"/>
      <path fill="#ffab96" d="m145.93,151.17s3.58-.06,4.44,1.19c.86,1.25,1.25,6.17,3.51,5.26,2.26-.91,2.37-2.86,2.37-2.86,0,0,5.45-.29,4.87-3.59,0,0,4.01.43,3.58-2.58-.26-1.85.87-4.35,1.25-6.13.63-2.98-1.03-5.28-4.07-5.86-1.23-.24-3.4-.2-4.38.74-.17.16-1.01,2.31-.84,2.37,0,0-3.86-1.34-4.87,2.84,0,0-2.44-.69-2.15,3.18,0,0-5.3,2.44-3.73,5.45h0Z"/>
      <path fill="#eb8366" d="m156.06,154.8c-1.67-7.79-6.4-8.87-6.44-8.88l.08-.38c.2.04,5.01,1.13,6.74,9.18l-.38.08Z"/>
      <path fill="#eb8366" d="m157.44,145.78c-.37-1.21-4.24-2.61-5.7-3.05l.11-.37c.56.17,5.46,1.68,5.95,3.31l-.37.11Z"/>
      <path fill="#eb8366" d="m162.51,143.93c-1.24-3.43-5.82-4.02-5.87-4.03l.05-.38c.2.02,4.87.63,6.18,4.28l-.36.13Z"/>
      <path fill="#eb8366" d="m161.12,151.37c-2.31,0-3.43-.87-3.96-1.6-.79-1.07-.77-2.45-.51-3.29.5-1.62,8.28-3.6,9.16-3.82l.09.37c-3.39.84-8.56,2.49-8.89,3.56-.23.76-.26,1.99.45,2.95.7.95,1.93,1.43,3.65,1.44v.38Z"/>
    </g>
    <g>
      <path fill="#200e10" d="m218.43,171.97s-1.56,13.19,3.93,16.71c5.49,3.52,11.49-9.37,11.49-9.37l-3.46-5.7-11.97-1.64Z"/>
      <g>
        <path fill="#200e10" d="m247.44,166.95s-.4,11.77-5.05,14.76c-4.65,2.99-3.28-16.68-3.28-16.68,0,0,1.36-3.54,2.25-3.92s6.07,5.84,6.07,5.84Z"/>
        <g>
          <g>
            <path fill="#ffab96" d="m220.93,189.46c.6-1.22,1.11-2.48,1.47-3.72l.23-.8,1.18-3.63.45-1.52.31-.92.72.29,5.7,2.17,6.74,2.64-.77,2.44-.45,1.45-.34,1.12c-.48,1.49-.93,3-1.43,4.48-.52,1.54-1.07,2.69-1,4.32.09,1.96.06,3.69-1.33,5.27-2.07,2.33-5.25,2.38-7.8.96-2.71-1.51-4.98-4.25-5.81-7.26-.34-1.24-.75-2.34-.19-3.53.63-1.34,1.66-2.45,2.32-3.78Z"/>
            <path fill="#eb8366" d="m236.36,190.21l-1.88,4.24s-4.53,3.91-10.69-8.73c-.29-.56-.22-1.17-.31-1.68l1.49-2.8c2.66.27,7.99,5.32,11.4,8.97h0s0,0,0,0Z"/>
          </g>
          <path fill="#ffab96" d="m218.41,180.91c-.91-1.05-1.15-2.04-1.14-3.4-.03-.96-.08-1.17-.38-2.23-.24-.91-.2-1.93.1-2.86.42-1.39,1.3-2.59,2.11-3.81,2.57-3.62,5.3-7.43,9.38-9.12,3.51-1.54,7.78-1.15,10.98.9,6.4,4.1,6.35,12.91,5.9,19.63-.36,5.3-3.05,11.98-9.3,12.2-8.72.37-13.17-8.52-13.17-8.52-1.64-.59-3.38-1.59-4.49-2.8h0s0,0,0,0Z"/>
          <path fill="#100f36" d="m234.13,174.52c-.66-.21-1.39.19-1.59.86-.21.66.19,1.39.86,1.59.66.21,1.39-.19,1.59-.86.21-.66-.19-1.39-.86-1.59Z"/>
          <g>
            <path fill="#080e1c" d="m234.13,174.52c-.66-.21-1.39.19-1.59.86-.21.66.19,1.39.86,1.59.66.21,1.39-.19,1.59-.86.21-.66-.19-1.39-.86-1.59Z"/>
            <path fill="#fff" d="m233.46,175.07c-.33-.1-.62.07-.73.4-.1.33.07.62.4.73.33.1.62-.07.73-.4.1-.26-.07-.62-.4-.73Z"/>
          </g>
          <g>
            <path fill="#080e1c" d="m243.26,175.43c-.66-.21-1.39.19-1.59.86-.21.66.19,1.39.86,1.59.66.21,1.39-.19,1.59-.86.21-.66-.19-1.39-.86-1.59h0Z"/>
            <path fill="#fff" d="m242.59,175.98c-.33-.1-.62.07-.73.4-.1.33.07.62.4.73.33.1.62-.07.73-.4.1-.33-.07-.62-.4-.73Z"/>
          </g>
          <path fill="#200e10" d="m215.87,175.3c.32.8.79,1.6,1.18,2.38.06.07.11.22.18.29,0-.62.2-1.28.55-1.99.45-.85,1.02-1.37,1.63-1.58.57-.22,1.2-.17,1.82.1,2.2.93,2.5,3.77,2.77,5.83.27,2.06.8,6.6,1.33,2.15.61-5.04,3.06-10.17,8.25-11.83,1.9-.61,3.45-.97,4.85-2.59,1.26-1.45,1.96-3.37,1.93-5.29,2.57,1.79,3.5,4.04,4.99,6.62,1.88,3.24,2.03-2.79,1.87-4.34-.22-2.15-.95-4.03-2.36-5.67-.04-.05-.07-.09-.12-.14-2.49-2.83-5.99-5.42-9.77-5.78-7.01-.67-15.81,1.46-17.72,8.87-.54,2.19-2.11,3.82-2.43,6.14-.32,2.32.15,4.67,1.04,6.82h0s0,0,0,0Z"/>
          <g>
            <path fill="#ff8389" d="m220.2,177.55c-.24.31-.49.77-.54,1.17-.05.47.04.89.28,1.26s.61.68.92.98c-.39-.25-.76-.56-1.06-.93-.3-.37-.46-.87-.4-1.34.21-1.97-.83.43.62-1.3.3-.31.68-.61,1.12-.84-.38.3-.68.61-.93.99h0Z"/>
            <path fill="#ff8389" d="m221.59,178.66c-.26-.1-.54-.13-.79-.22-.26-.1-.54-.13-.74-.08-.13-.01-.57.02-.66.15-.08.13.2.28.19.42-.05-.14-.04-.28.04-.4s.23-.25.38-.3c.28-.1.62-.07.89.02.27.03.54.13.79.29s.51.33.7.48l-.78-.36h0Z"/>
          </g>
          <path fill="#200e10" d="m230.31,173.78c-.06-.07-.11-.22-.03-.34.73-1.08,1.61-1.67,2.66-1.84,1.53-.25,2.66.69,2.73.7.13.08.11.22.1.28-.08.13-.22.11-.34.03-.07,0-1.08-.8-2.4-.6-.9.11-1.65.71-2.37,1.66-.07.06-.15.12-.22.11h-.13s0-.02,0-.02h0Z"/>
          <path fill="#200e10" d="m240.69,173.24c-.13-.08-.11-.22-.03-.34,1.08-1.18,2.1-1.69,3.11-1.58,1.28.2,1.98,1.31,1.97,1.37.05.14.04.28-.1.33-.14.05-.28.04-.33-.1,0,0-.58-1.02-1.66-1.13h0c-.88-.09-1.75.36-2.75,1.41-.07.06-.14.05-.21.05s-.13-.01,0,0h0s0,0,0,0Z"/>
          <g>
            <path fill="#eb8366" d="m239.56,175.87c-.11.35-.15.71-.12,1.08.07.74.22,1.41.51,2.1.11.3.37.62.48,1,.18.39.21.83.02,1.17-.25.33-.57.6-.95.7-.38.1-.75.14-1.11.1.37-.04.81-.06,1.11-.17.37-.11.7-.36.8-.64.18-.35.07-.72-.04-1.02-.11-.3-.3-.61-.48-1-.29-.69-.42-1.5-.42-2.23.04-.44.09-.8.19-1.15.11-.35.29-.7.48-1.04-.18.35-.29.7-.49,1.12h0s0,0,0,0Z"/>
            <path fill="#eb8366" d="m236.95,181.86c-.21-.09-.42-.12-.71-.15.24-.19.45-.17.75-.14.21.09.49.2.61.43-.22-.02-.42-.12-.64-.14h0Z"/>
          </g>
          <ellipse cx="231.5" cy="180.1" fill="#eb8366" rx="1.24" ry="2.53" transform="rotate(-86.29 231.49 180.109)"/>
          <ellipse cx="242.81" cy="180.34" fill="#eb8366" rx="1.36" ry="1.85" transform="rotate(-86.29 242.795 180.343)"/>
          <g>
            <path fill="#342f46" d="m240.6,185.29c0,.85-1.4,1.87-3.12,1.87s-3.12-1.03-3.11-1.88c0-.85,1.4-1.2,3.12-1.19,1.72,0,3.12.36,3.12,1.2Z"/>
            <path fill="#eb8366" d="m237.49,184.91c-1.23,0-2.28.52-2.79,1.12.51.61,1.57,1.13,2.79,1.13s2.28-.52,2.79-1.12c-.51-.61-1.56-1.13-2.79-1.13Z"/>
            <path fill="#fff" d="m234.68,184.68c.73.18,1.72.27,2.81.27,1.09,0,2.08-.08,2.81-.26-.5-.42-1.57-.61-2.81-.61-1.24,0-2.31.18-2.81.6Z"/>
          </g>
        </g>
      </g>
    </g>
    <g opacity=".21">
      <path fill="#200e10" d="m190.26,304.87s26.72-7.47,35.78-23.22c0,0-24.61,21.66-35.78,23.22Z"/>
    </g>
  </g>
  <g>
    <path fill="#fff" d="m502.03,361.3c-.17,1.08-.34,2.16-.53,3.24-.19,1.17-.39,2.34-.61,3.51l-5.81,3.48-20.59,12.33h0s-4.67,2.81-4.67,2.81h0l-16.28,9.75-5.45,3.26h0s-18.18,10.89-18.18,10.89h0l-3.11,1.87-.04.02h0s-8.51,5.1-8.51,5.1l-.03.02-2,1.19-.03.02-12.43,7.45h-12.18l4.58-2.69,17.22-10.13.06-.04,1.4-.83.03-.02,20.77-12.21,5.33-3.14,16.51-9.7,4.62-2.72,31.24-18.36,7.26-4.27,1.44-.84Z"/>
    <g>
      <g>
        <path fill="#21426b" d="m502.75,271.69c.01.05.02.11.03.17-1.75.65-3.51,1.31-5.31,1.99-.23.08-.46.17-.69.26-2.79,1.04-5.63,2.1-8.53,3.19-.23.09-.46.17-.69.26-8.95,3.35-18.39,6.88-28.25,10.57-.23.09-.46.18-.69.26-3.02,1.13-6.07,2.27-9.16,3.43-.23.09-.46.17-.7.26-3.02,1.13-6.07,2.27-9.16,3.42-.23.09-.46.18-.69.26-3.13,1.17-6.29,2.35-9.48,3.55-.23.09-.46.17-.7.26-2.92,1.1-5.87,2.2-8.85,3.32-.23.09-.46.17-.69.26-3.76,1.41-7.55,2.83-11.39,4.26-.23.09-.46.18-.7.26-3.45,1.29-6.93,2.59-10.44,3.91-.23.09-.46.18-.69.26-3.66,1.37-7.35,2.75-11.07,4.14-.23.09-.46.18-.7.26-3.46,1.29-6.94,2.59-10.43,3.9-.23.09-.46.18-.69.26-4.19,1.57-8.42,3.15-12.67,4.74-.23.09-.46.18-.69.26-3.88,1.45-7.78,2.91-11.71,4.38-.23.09-.46.18-.69.26-4.2,1.57-8.42,3.15-12.66,4.74-.23.09-.46.17-.7.26-4.09,1.53-8.21,3.07-12.34,4.62-.23.08-.46.17-.69.26-4.42,1.65-8.85,3.31-13.3,4.97-.23.09-.46.17-.69.26-4.63,1.73-9.28,3.47-13.93,5.21-.23.09-.46.17-.69.26-4.64,1.73-9.28,3.47-13.94,5.21-.23.09-.46.17-.69.26-4.48,1.68-8.97,3.36-13.46,5.04-.23.09-.46.18-.7.26-5.65,2.11-11.3,4.23-16.95,6.34-.23.09-.46.18-.69.26-11.11,4.15-22.18,8.29-33.18,12.4-.23.09-.46.17-.69.26-5.2,1.94-10.38,3.88-15.52,5.8-.23.09-.47.18-.7.26-6.65,2.49-13.26,4.96-19.82,7.41-.23.09-.46.17-.69.26-13.82,5.16-27.41,10.23-40.65,15.17-.23.09-.46.17-.69.26-15.23,5.68-30,11.19-44.13,16.45h-2.3l108.28-40.3.7-.26,15.52-5.78.69-.26,33.18-12.35.69-.26,16.95-6.31.7-.26,13.46-5.01.69-.26,13.94-5.19.69-.26,13.93-5.19.69-.26,13.3-4.95.69-.26,12.34-4.59.7-.26,12.66-4.71.69-.26,11.71-4.36.69-.26,12.67-4.72.69-.26,10.43-3.89.7-.26,11.07-4.12.69-.26,10.44-3.88.7-.26,11.39-4.24.69-.26,8.85-3.29.7-.26,9.48-3.53.69-.26,9.16-3.41.7-.26,9.16-3.41.69-.26,28.25-10.51.69-.26,8.53-3.17.69-.26,5.28-1.96Z"/>
        <path fill="#21426b" d="m497.47,349.55l6.58-3.81c-.03.28-.06.57-.09.85l-6.49,3.76-.69.4-1.24.71-7.22,4.18-.07.04-.69.4-8.53,4.94-.69.4-9.49,5.49-.69.4-1.93,1.11-.03.02s0,0-.01,0l-1.17.68h-.03s0,.02,0,.02l-5.69,3.3-.4.23-.29.17-4.21,2.44-4.95,2.87-.7.4-9.16,5.31-.69.4-1.74,1.01-5.43,3.14-2.32,1.35-.7.4-8.85,5.12-.69.4-6.69,3.88h0s-3.07,1.78-3.07,1.78l-.02.02-1.6.93-.7.4-10.44,6.05-.69.4-8.99,5.21-2.08,1.21-.7.4-4.53,2.62-5.91,3.42-.69.4-6.57,3.81h-1.37l7.94-4.61.69-.4,5.5-3.18,4.94-2.86.7-.4,1.67-.97,9.4-5.45.69-.4,10.44-6.05.7-.4,11.39-6.6.69-.4,8.85-5.13.7-.4,1.93-1.12,5.52-3.2,2.03-1.18.69-.4,9.16-5.31.7-.4,4.28-2.48,4.88-2.83.27-.15.42-.24,8.85-5.13.69-.4,9.49-5.49.69-.4,8.53-4.94.43-.25.26-.15,6.96-4.03,1.57-.91.69-.4Z"/>
        <path fill="#21426b" d="m506,332.98v.79l-.97.53-7.56,4.12-.69.38-6.87,3.74-1.66.91-.69.38-5.06,2.75-3.47,1.88-.69.38-9.49,5.16-.69.38-3.36,1.83-3.81,2.08h-.02s-1.66.91-1.66.91l-.69.38-9.16,4.99-.7.38-9.16,4.99-.69.38-5.84,3.17h-.01s-3.64,1.99-3.64,1.99l-.7.38-1.2.65h-.02s-7.63,4.16-7.63,4.16l-.69.37-11.39,6.2-.7.38-10.44,5.68-.69.38-11.07,6.02-.7.38-3.75,2.04-6.68,3.64-.69.37-.05.03-12.62,6.87-.69.38-11.71,6.37-.69.38-11.19,6.09h-1.45l12.64-6.88.69-.38,11.71-6.37.69-.38,12.38-6.73.29-.16.69-.38,6.46-3.51,3.98-2.16.7-.38,11.07-6.02.69-.38,10.44-5.68.7-.38,11.39-6.2.69-.37,7.28-3.96h.01s1.56-.86,1.56-.86l.7-.38,3.33-1.82h.02s6.13-3.34,6.13-3.34l.69-.38,9.16-4.99.7-.38,2.46-1.34h0l1.47-.8s0,0,.01,0l5.21-2.84.69-.38,2.35-1.28s.01,0,.01,0l1.78-.97,4.71-2.56.69-.38,9.49-5.16.69-.37,3.05-1.66,5.48-2.98.69-.38,1.26-.68,7.27-3.96.69-.38,7.61-4.14.92-.5Z"/>
        <polygon fill="#21426b" points="506 322.34 506 323.11 505.56 323.33 497.47 327.42 496.78 327.76 488.25 332.06 487.56 332.42 483.46 334.48 479.03 336.72 478.34 337.06 475.67 338.41 468.85 341.85 468.16 342.2 462.46 345.07 462.45 345.08 459.31 346.66 458.62 347.01 456.8 347.93 456.78 347.93 449.45 351.63 448.76 351.98 439.59 356.6 438.9 356.95 429.42 361.73 428.72 362.09 428.63 362.13 422.95 365 419.88 366.55 419.18 366.9 407.8 372.64 407.1 372.99 396.66 378.26 395.97 378.61 384.9 384.19 384.2 384.54 377.95 387.69 373.76 389.8 373.07 390.15 369.84 391.79 360.41 396.54 359.71 396.89 348 402.8 347.31 403.15 334.65 409.53 333.95 409.88 321.61 416.11 320.92 416.46 307.61 423.17 306.92 423.51 301.55 426.23 300 426.23 306.92 422.74 307.61 422.39 320.92 415.68 321.61 415.33 333.95 409.11 334.65 408.76 347.31 402.37 348 402.02 359.71 396.11 360.41 395.77 369.78 391.04 373.07 389.38 373.76 389.02 377.93 386.92 384.2 383.76 384.9 383.41 395.97 377.83 396.66 377.48 407.1 372.22 407.8 371.87 419.18 366.12 419.88 365.77 422.78 364.31 428.18 361.58 428.72 361.31 429.42 360.96 438.9 356.18 439.59 355.82 448.76 351.2 449.45 350.85 456.47 347.32 456.48 347.31 458.62 346.23 459.31 345.89 462.14 344.46 462.15 344.45 468.16 341.42 468.85 341.07 475.16 337.89 478.34 336.29 479.03 335.94 482.98 333.94 487.56 331.64 488.25 331.29 496.78 326.99 497.47 326.64 505.58 322.55 506 322.34"/>
        <polygon fill="#21426b" points="506 309.22 506 309.99 505.68 310.14 497.47 313.97 496.78 314.29 488.25 318.27 487.56 318.59 479.03 322.57 478.34 322.89 473.56 325.12 468.85 327.32 468.16 327.64 464.9 329.16 459.31 331.77 458.62 332.09 449.45 336.37 448.76 336.69 439.59 340.97 438.9 341.29 429.42 345.71 428.72 346.03 421.96 349.19 421.96 349.19 419.88 350.16 419.18 350.49 418.5 350.8 407.8 355.8 407.1 356.12 396.66 360.99 395.97 361.31 384.9 366.48 384.2 366.8 380.89 368.35 373.76 371.67 373.07 371.99 371.06 372.93 360.41 377.9 359.71 378.22 348 383.69 347.31 384.01 334.65 389.91 333.95 390.24 321.61 396 320.92 396.32 307.61 402.53 306.92 402.85 292.99 409.35 292.3 409.67 278.36 416.17 277.67 416.5 264.21 422.77 263.51 423.1 256.8 426.23 255.16 426.23 263.51 422.34 264.21 422.01 277.67 415.73 278.36 415.41 292.3 408.9 292.99 408.58 306.92 402.08 307.61 401.76 320.92 395.56 321.61 395.23 333.95 389.48 334.65 389.15 347.31 383.25 348 382.92 359.71 377.46 360.41 377.14 371.25 372.08 373.07 371.23 373.76 370.91 381.18 367.45 384.2 366.04 384.9 365.71 395.97 360.55 396.66 360.23 407.1 355.36 407.8 355.03 419.18 349.72 419.88 349.4 428.72 345.27 429.42 344.94 438.9 340.52 439.59 340.2 448.76 335.92 449.45 335.6 458.62 331.32 459.31 331 464.23 328.7 468.16 326.87 468.85 326.55 472.94 324.64 478.34 322.12 479.03 321.81 487.56 317.83 488.25 317.5 496.78 313.53 497.47 313.2 505.67 309.37 506 309.22"/>
        <polygon fill="#21426b" points="506 296.76 506 297.52 505.28 297.83 497.47 301.22 496.78 301.52 488.25 305.22 487.56 305.52 479.03 309.22 478.34 309.52 468.85 313.64 468.16 313.95 460.9 317.1 459.31 317.79 458.62 318.08 450.02 321.82 449.45 322.07 448.76 322.36 439.59 326.35 438.9 326.64 429.42 330.76 428.72 331.06 419.88 334.91 419.18 335.21 407.8 340.15 407.1 340.45 396.66 344.99 395.97 345.28 391.35 347.29 384.9 350.09 384.2 350.39 378.18 353 373.76 354.93 373.07 355.22 360.41 360.72 359.71 361.02 348 366.11 347.31 366.41 334.65 371.9 333.95 372.21 321.61 377.56 320.92 377.87 307.61 383.64 306.92 383.94 292.99 389.99 292.3 390.29 278.36 396.34 277.67 396.64 264.21 402.48 263.51 402.79 246.56 410.14 245.87 410.45 228.91 417.81 228.21 418.11 212.69 424.85 212 425.15 209.52 426.23 207.76 426.23 212 424.39 212.69 424.09 228.21 417.35 228.91 417.05 245.87 409.69 246.56 409.39 263.51 402.03 264.21 401.72 277.67 395.88 278.36 395.58 292.3 389.53 292.99 389.23 306.92 383.18 307.61 382.88 320.92 377.1 321.61 376.81 333.95 371.45 334.65 371.15 347.31 365.65 348 365.35 359.71 360.27 360.41 359.96 373.07 354.46 373.76 354.16 378.69 352.02 384.2 349.63 384.9 349.33 392.12 346.2 395.97 344.53 396.66 344.22 407.1 339.69 407.8 339.39 419.18 334.44 419.88 334.15 428.72 330.31 429.42 330 438.9 325.88 439.59 325.59 448.76 321.61 448.98 321.51 449.45 321.3 458.62 317.33 459.31 317.02 460.06 316.7 468.16 313.19 468.85 312.89 478.34 308.77 479.03 308.46 487.56 304.76 488.25 304.47 496.78 300.76 497.47 300.46 505.24 297.09 506 296.76"/>
        <path fill="#21426b" d="m504.36,285.36l-6.89,2.78-.69.28-8.53,3.44-.69.28-8.53,3.44-.69.28-9.49,3.83-.69.28-8.85,3.58-.69.28-9.16,3.71-.7.28-9.12,3.68-.04.02-.69.28-9.48,3.83-.7.28-8.85,3.57-.69.28-11.39,4.6-.7.28-10.44,4.22-.69.28-.27.11-10.8,4.37-.7.28-10.43,4.22-.69.28-12.67,5.12-.69.28-11.71,4.73-.69.28-12.66,5.12-.7.28-12.34,4.98-.69.28-13.3,5.37-.69.28-13.93,5.63-.69.28-13.94,5.63-.69.28-13.46,5.44-.7.28-16.95,6.85-.69.28-16.96,6.86-.69.28-15.52,6.27-.69.28-15.52,6.27-.7.28-19.82,8.01-.69.28-19.57,7.91-.26.1v-.1h-1.59l.9-.36.69-.28,19.82-8.01.69-.28,19.82-8.01.7-.28,15.52-6.27.69-.28,15.52-6.27.69-.28,16.96-6.85.69-.28,16.95-6.85.7-.28,13.46-5.44.69-.28,13.94-5.63.69-.28,13.93-5.63.69-.28,13.3-5.37.69-.28,12.34-4.98.7-.28,12.66-5.12.69-.28,11.71-4.73.69-.28,12.67-5.12.69-.28,10.43-4.22.7-.28,11.07-4.47.69-.28.47-.19,9.97-4.02.7-.28,11.39-4.6.69-.28,8.85-3.57.7-.28,8.51-3.44.97-.39.69-.28,9.16-3.71.7-.28,9.16-3.7.69-.28,8.85-3.57.69-.28,9.49-3.83.69-.28,8.53-3.44.69-.28,8.53-3.44.69-.28,6.82-2.75c.03.24.05.48.07.72Z"/>
        <rect width=".69" height="17.11" x="133.93" y="409.12" fill="#21426b"/>
        <rect width=".69" height="17.11" x="154.75" y="409.12" fill="#21426b"/>
        <rect width=".69" height="32.37" x="175.27" y="393.85" fill="#21426b"/>
        <polygon fill="#21426b" points="196.47 385.68 196.47 426.23 195.78 426.23 195.78 385.93 196.47 385.68"/>
        <rect width=".69" height="47.64" x="212" y="378.58" fill="#21426b"/>
        <rect width=".69" height="47.64" x="228.21" y="378.58" fill="#21426b"/>
        <polygon fill="#21426b" points="246.56 367.03 246.56 426.23 245.87 426.23 245.87 367.29 246.56 367.03"/>
        <polygon fill="#21426b" points="264.21 360.46 264.21 426.23 263.51 426.23 263.51 360.72 264.21 360.46"/>
        <polygon fill="#21426b" points="278.36 355.2 278.36 426.23 277.67 426.23 277.67 355.45 278.36 355.2"/>
        <polygon fill="#21426b" points="292.99 349.76 292.99 426.23 292.3 426.23 292.3 350.01 292.99 349.76"/>
        <polygon fill="#21426b" points="307.61 344.31 307.61 426.23 306.92 426.23 306.92 344.56 307.61 344.31"/>
        <polygon fill="#21426b" points="321.61 339.1 321.61 426.23 320.92 426.23 320.92 339.36 321.61 339.1"/>
        <polygon fill="#21426b" points="334.65 334.25 334.65 426.23 333.95 426.23 333.95 334.51 334.65 334.25"/>
        <polygon fill="#21426b" points="348 329.28 348 426.23 347.31 426.23 347.31 329.54 348 329.28"/>
        <polygon fill="#21426b" points="360.41 324.66 360.41 426.23 359.71 426.23 359.71 324.92 360.41 324.66"/>
        <polygon fill="#21426b" points="373.77 319.69 373.77 422.02 373.07 422.42 373.07 319.95 373.77 319.69"/>
        <polygon fill="#21426b" points="384.9 315.55 384.9 415.58 384.2 415.98 384.2 315.81 384.9 315.55"/>
        <polygon fill="#21426b" points="396.66 311.17 396.66 408.76 395.97 409.16 395.97 311.43 396.66 311.17"/>
        <polygon fill="#21426b" points="407.79 307.03 407.79 402.31 407.1 402.71 407.1 307.29 407.79 307.03"/>
        <polygon fill="#21426b" points="419.88 302.53 419.88 395.31 419.18 395.71 419.18 302.79 419.88 302.53"/>
        <polygon fill="#21426b" points="429.42 298.98 429.42 389.78 428.72 390.18 428.72 299.24 429.42 298.98"/>
        <polygon fill="#21426b" points="439.59 295.19 439.59 383.89 438.9 384.29 438.9 295.45 439.59 295.19"/>
        <polygon fill="#21426b" points="449.45 291.52 449.45 378.18 448.76 378.58 448.76 291.78 449.45 291.52"/>
        <polygon fill="#21426b" points="459.31 287.86 459.31 372.47 458.62 372.87 458.62 288.11 459.31 287.86"/>
        <polygon fill="#21426b" points="468.85 285.09 468.85 366.94 468.16 367.34 468.16 285.09 468.85 285.09"/>
        <polygon fill="#21426b" points="479.03 285.09 479.03 361.04 478.33 361.44 478.33 285.09 479.03 285.09"/>
        <polygon fill="#21426b" points="488.25 277.08 488.25 355.7 487.56 356.1 487.56 277.34 488.25 277.08"/>
        <polygon fill="#21426b" points="497.47 273.65 497.47 350.36 496.78 350.76 496.78 273.91 497.47 273.65"/>
      </g>
      <path fill="#fff" d="m502.78,271.85c.18,1.28.35,2.56.51,3.84l-5.82,2.23-.69.27-8.53,3.26-.69.26-8.83,3.38-.39.15-9.49,3.63-.69.26-8.85,3.39-.69.27-9.16,3.5-.7.27-9.16,3.5-.69.27-9.48,3.63-.7.27-8.85,3.38-.69.27-11.39,4.35-.7.27-10.44,4-.69.26-11.07,4.24-.7.27-10.43,3.99-.69.27-12.67,4.84-.69.27-11.71,4.48-.69.27-12.66,4.84-.7.27-12.34,4.72-.69.26-13.3,5.09-.69.27-13.93,5.33-.69.27-13.94,5.33-.69.27-13.46,5.15-.7.27-16.95,6.48-.69.27-16.96,6.48-.69.27-15.52,5.94-.69.26-15.52,5.94-.7.27-19.82,7.58-.69.26-40.65,15.55-.69.27-24.17,9.24h-43.87l436.32-158.22c.1.59.19,1.19.27,1.78.1.63.19,1.27.27,1.9.01.05.02.11.03.17Z"/>
    </g>
  </g>
  <g>
    <path fill="#21426b" d="m500.6,362.14c-1.44-3.64-3.14-7.21-5.05-10.67-.11-.2-.22-.4-.34-.6-1.62-2.87-3.39-5.66-5.3-8.34-.13-.19-.27-.38-.4-.56-.42-.57-.83-1.13-1.26-1.69-.23-.3-.46-.6-.69-.9-1.31-1.68-2.67-3.32-4.09-4.89-.16-.18-.32-.36-.48-.54-1.28-1.4-2.59-2.75-3.95-4.04-.23-.22-.46-.44-.69-.65-1.55-1.45-3.14-2.83-4.78-4.13-.2-.16-.41-.32-.61-.48-1.34-1.04-2.7-2.03-4.09-2.97-.23-.15-.46-.31-.69-.46-.32-.21-.64-.42-.96-.62-2.09-1.31-4.2-2.49-6.3-3.5-.28-.14-.56-.27-.84-.4-.25-.12-.5-.23-.75-.35-.23-.1-.46-.2-.69-.3-3.05-1.33-6.11-2.35-9.16-3.09-.23-.06-.46-.12-.7-.17-3.05-.71-6.1-1.13-9.12-1.28h-.04c-.23-.01-.46-.02-.69-.03-.32-.01-.65-.02-.97-.02-2.86-.05-5.7.13-8.51.55-.23.03-.47.06-.7.11-3,.48-5.95,1.21-8.85,2.19-.23.07-.46.15-.69.23-3.91,1.38-7.73,3.19-11.39,5.42-.23.14-.47.28-.7.43-3.47,2.16-6.8,4.69-9.97,7.55-.15.14-.31.28-.47.43-.23.21-.46.43-.69.65-.09.08-.18.17-.27.25-3.89,3.7-7.52,7.92-10.8,12.59-.23.34-.46.67-.7,1.01-.64.94-1.27,1.9-1.89,2.88h0c-1.3,2.08-2.51,4.17-3.62,6.29-.17.32-.34.65-.51.98-1.73,3.39-3.21,6.83-4.42,10.28-.24.69-.47,1.37-.69,2.07-.72,2.24-1.33,4.48-1.83,6.73-.06.28-.13.57-.19.85-1.28,6.11-1.72,12.2-1.28,18.11.02.25.04.5.06.75.41,4.71,1.38,9.3,2.95,13.7.07.22.15.44.24.65.01.05.03.09.05.13.22.6.45,1.18.69,1.77,1.45,3.48,3.27,6.83,5.5,9.99.14.19.27.38.41.56,1.94,2.68,4.16,5.23,6.69,7.63h97.95c.53-1.2,1.02-2.39,1.44-3.51.17-.44.33-.87.5-1.31,4.62-12.27,8.42-24.84,11.4-37.61,1.22-5.22,2.31-10.47,3.24-15.75.21-1.17.42-2.34.61-3.51-.29-.8-.59-1.6-.91-2.4Zm-38.99,24.19c-.88,1.4-2.68,1.88-4.13,1.16-.09-.05-.18-.1-.27-.15-1.49-.94-1.94-2.91-1-4.4.94-1.49,2.91-1.94,4.4-1,1.01.63,1.53,1.74,1.49,2.84-.02.54-.18,1.08-.48,1.56Zm-20.21,14.81c-.94,1.49-2.91,1.94-4.4,1-.69-.44-1.16-1.09-1.36-1.82-.24-.85-.14-1.78.36-2.59h.01c.94-1.5,2.91-1.94,4.4-1,.21.13.39.28.56.45,1.03,1.03,1.24,2.67.43,3.96Zm-25.52,11.3c.09,0,.17.02.26.03.26.03.51.1.76.2.03.01.05.02.07.03.14.06.27.13.4.22,1.49.94,1.94,2.91,1,4.4-.05.09-.11.17-.18.25-.51.65-1.22,1.06-2,1.19-.28.05-.58.06-.87.03-.11,0-.21-.03-.32-.05-.36-.07-.71-.21-1.03-.42,0,0,0,0-.01,0-.06-.04-.12-.08-.18-.12-.05-.04-.1-.08-.15-.12-.09-.08-.18-.16-.26-.24-1-1.03-1.2-2.65-.4-3.92.12-.19.25-.36.39-.51.42-.44.94-.73,1.5-.88.33-.09.67-.12,1.02-.1Zm54-39.23c-.94,1.5-2.91,1.94-4.4,1-.23-.15-.45-.32-.63-.52-.06-.06-.12-.13-.18-.2-.07-.09-.14-.19-.2-.29h0c-.07-.12-.13-.23-.19-.35-.03-.06-.05-.12-.07-.19-.03-.06-.05-.13-.07-.19-.14-.45-.19-.94-.12-1.41.03-.21.08-.43.16-.64h0c.07-.22.17-.43.3-.62.15-.24.32-.45.52-.63,0,0,0,0,0,0,.36-.33.78-.57,1.23-.71.86-.26,1.83-.17,2.65.35.17.11.32.22.46.36.07.06.13.13.2.2.06.07.12.14.18.21.05.07.11.15.16.23.07.12.14.23.2.36.06.12.11.25.15.38.02.06.04.13.05.19s.03.13.04.2c.06.34.07.68.02,1.03-.06.43-.21.86-.46,1.25Zm-33.02,14.83c-.94,1.49-2.91,1.94-4.4,1-.27-.17-.51-.38-.71-.61-.15-.18-.29-.37-.39-.57-.54-.98-.54-2.21.1-3.23.94-1.49,2.91-1.94,4.4-1,.43.27.77.62,1.02,1.03.12.2.22.41.3.63.3.88.22,1.9-.31,2.75Zm-9.23,14.65c-.94,1.5-2.91,1.94-4.4,1-1.49-.94-1.94-2.91-1-4.4.94-1.49,2.91-1.94,4.4-1,1.49.94,1.94,2.91,1,4.4Zm-14.94-3.08c.18.02.36.06.53.12.2.06.4.14.6.25.06.03.11.06.17.1.09.06.18.12.26.19.09.06.17.13.24.21.05.04.1.1.14.14.14.14.26.3.36.47.12.19.22.39.29.6.02.07.05.14.07.21,0,0,0,0,0,.01.23.84.12,1.78-.38,2.58-.38.6-.92,1.03-1.53,1.28-.09.04-.18.06-.27.09-.1.03-.21.06-.31.07-.29.05-.58.07-.88.04-.12,0-.25-.03-.37-.05-.14-.03-.28-.07-.43-.12-.1-.04-.21-.08-.31-.13h0c-.1-.05-.2-.11-.29-.17,0,0,0,0-.01-.01-.18-.11-.35-.24-.5-.38-.1-.09-.19-.19-.27-.29-.05-.06-.09-.12-.13-.17-.67-.93-.8-2.18-.28-3.25.05-.11.11-.21.17-.31.65-1.03,1.79-1.57,2.92-1.49.06,0,.13.01.19.02Zm48.48-56.12c.2.13.39.28.55.44.16.17.3.35.43.54.13.19.23.4.31.62.33.9.26,1.94-.3,2.81-.22.35-.51.65-.83.89-.11.08-.22.15-.34.21,0,0-.01,0-.02,0-.17.09-.35.17-.53.23-.01,0-.02,0-.02,0-.13.04-.26.07-.38.1-.24.04-.48.06-.73.05-.1,0-.19-.02-.28-.03-.14-.02-.28-.04-.42-.08-.3-.08-.59-.21-.87-.38-.4-.25-.72-.58-.97-.95-.13-.19-.23-.4-.31-.62-.34-.91-.27-1.95.28-2.83h.01c.11-.18.24-.35.38-.5.26-.27.55-.48.86-.64.09-.05.18-.09.27-.12.11-.05.23-.09.34-.12.09-.02.17-.04.26-.06.07-.01.14-.03.22-.03.07-.01.14-.01.22-.02.27-.02.54,0,.81.06.14.03.28.06.43.12.21.08.42.18.62.3Zm-28.41,32.77c-.11.18-.24.35-.38.5-.09.1-.19.19-.29.27-.11.09-.22.17-.33.23-.11.07-.22.13-.33.18-.09.04-.18.08-.27.11-.09.03-.18.06-.27.09-.08.02-.16.04-.24.05-.4.08-.82.08-1.22,0-.23-.05-.47-.12-.7-.22-.13-.06-.25-.13-.37-.2-.34-.21-.62-.47-.84-.77-.14-.19-.26-.38-.36-.59-.24-.52-.34-1.11-.27-1.68.01-.11.03-.21.05-.32.02-.11.05-.22.09-.32.04-.11.07-.21.12-.31.03-.07.06-.14.1-.2.03-.06.07-.13.11-.19,0,0,0,0,.01-.01.11-.18.24-.34.38-.49.05-.05.1-.1.14-.14.26-.23.54-.42.84-.56.22-.11.46-.18.7-.23.78-.16,1.62-.03,2.34.43.42.26.75.6.99.99.13.2.23.4.3.62.2.55.24,1.16.12,1.74-.03.14-.06.28-.12.42,0,0,0,.01,0,.01-.07.21-.18.42-.3.62Zm28.91-19.15s.02-.02.02-.02l.14-.14c.1-.09.21-.18.31-.26.11-.08.22-.15.34-.21h0c.18-.09.36-.17.54-.23.14-.04.28-.07.42-.1.44-.07.9-.06,1.35.05.1.02.19.05.29.09.07.02.14.05.21.08.14.06.28.13.41.22.12.07.23.16.34.24.09.07.18.15.26.24.09.08.17.18.23.27h0c.05.07.11.15.15.22.09.14.18.3.24.46t0,0c.09.21.16.44.2.67.14.77,0,1.59-.44,2.29-.15.24-.32.45-.52.64-.1.09-.21.18-.32.26-.17.12-.34.21-.51.3t0,0c-.12.06-.24.11-.37.14-.65.21-1.38.21-2.06-.04-.14-.05-.28-.11-.41-.19-.07-.04-.14-.07-.2-.12-.18-.12-.35-.24-.5-.38-.08-.07-.15-.15-.23-.24-.14-.17-.27-.35-.37-.53t0,0c-.07-.13-.13-.27-.19-.42-.26-.67-.29-1.43-.05-2.13.03-.1.07-.19.11-.28,0,0,0,0,0,0,.06-.14.13-.27.21-.4.11-.17.23-.32.36-.47,0,0,.01,0,.01,0Zm-8.27,4.5s-.02.02-.03.03c-.26.24-.55.43-.87.57-.09.04-.19.08-.29.11-.1.03-.19.06-.29.09h0c-.45.11-.93.11-1.39.02-.09-.02-.18-.04-.27-.07-.06-.02-.13-.04-.2-.07-.2-.07-.39-.17-.58-.28-.01,0-.02-.01-.03-.02-.27-.18-.5-.38-.7-.61-.89-1.04-1.04-2.57-.28-3.77.09-.13.18-.26.28-.38.04-.04.08-.09.12-.12.05-.05.1-.1.14-.14.14-.13.28-.24.44-.34.13-.09.27-.16.42-.23.05-.02.11-.04.16-.06.71-.27,1.5-.3,2.24-.03.21.07.42.18.62.3,1.49.94,1.94,2.91,1,4.4-.14.22-.3.42-.48.6,0,0-.01,0-.01,0Zm-8.78,8.11c1.16.73,1.69,2.09,1.43,3.36-.04.21-.11.43-.2.63-.06.14-.13.27-.22.4-.15.24-.34.46-.54.65-.15.13-.3.26-.47.36-.17.11-.35.2-.53.27,0,0-.01,0-.01,0-.12.04-.24.09-.37.12-.06.01-.13.03-.19.04-.11.02-.22.03-.33.04-.67.06-1.36-.09-1.97-.47-1.36-.85-1.85-2.57-1.22-4,.06-.14.14-.28.22-.42.11-.18.24-.34.38-.48l.14-.14c.37-.35.82-.6,1.3-.73.07-.02.14-.04.21-.05.07-.02.15-.03.22-.04.09-.02.18-.03.26-.03.06,0,.12-.01.19,0,.07,0,.15,0,.22,0,.51.04,1.02.2,1.48.48Zm-37.92,23.47c-1.09-1.03-1.33-2.71-.51-4.02.24-.38.55-.7.91-.94.22-.15.45-.27.7-.35.76-.28,1.62-.27,2.39.07.14.06.28.14.42.22.18.11.34.24.48.38.05.04.1.09.14.14.14.14.27.31.37.48.07.11.13.21.18.33.02.03.04.07.05.11.4.93.35,2.03-.23,2.95-.28.45-.65.8-1.08,1.06-.06.04-.12.07-.19.1-.07.04-.15.07-.22.1-.2.08-.4.14-.62.18-.29.05-.59.07-.88.04-.12,0-.24-.03-.37-.05-.07-.01-.14-.03-.21-.05-.07-.02-.14-.04-.21-.07,0,0-.01,0-.02,0-.2-.07-.4-.17-.6-.29-.04-.02-.07-.04-.1-.06h0c-.15-.1-.28-.21-.4-.32Zm34.64-30.68c-.08.21-.18.42-.3.61-.13.21-.29.4-.46.57-.14.14-.3.27-.46.38-.17.11-.34.2-.52.28-.1.04-.19.08-.29.11-.12.04-.25.07-.38.1h-.02c-.05.01-.11.02-.17.03-.48.06-.99.01-1.47-.17-.11-.04-.21-.09-.32-.13-.05-.03-.1-.05-.15-.08-.05-.03-.1-.06-.15-.09-1.37-.86-1.86-2.58-1.22-4,0,0,0,0,0,0,.06-.14.13-.27.21-.4.11-.18.24-.35.39-.5.04-.05.1-.1.14-.14.15-.14.31-.26.48-.36.11-.07.22-.13.35-.19.59-.27,1.26-.36,1.92-.24.18.03.35.07.52.14.06.02.12.05.18.07.15.06.29.14.44.23.09.06.18.12.26.18h0c.22.17.4.36.56.57.16.21.29.44.4.68.07.16.13.32.17.49.15.61.13,1.26-.1,1.87Zm-18.94-13.21c.21.07.42.18.62.3h0c1.16.74,1.69,2.09,1.43,3.36-.04.21-.11.43-.2.63-.06.14-.13.27-.22.4-.12.18-.24.35-.39.51-.1.1-.19.19-.29.27-.11.09-.21.16-.32.23-.13.08-.26.15-.4.21-.85.38-1.85.38-2.74-.06-.09-.04-.18-.1-.27-.15-.15-.1-.3-.2-.43-.32-.4-.36-.7-.8-.87-1.28-.03-.07-.05-.14-.07-.21-.05-.19-.09-.38-.11-.57-.03-.32-.02-.65.05-.98.06-.29.17-.58.31-.85.03-.07.07-.13.11-.2.17-.26.36-.48.57-.67.21-.19.45-.35.69-.47.04-.02.08-.04.12-.06.1-.04.19-.08.29-.11.53-.18,1.11-.22,1.67-.1h0c.14.03.29.06.43.12Zm-12.28,14.83c.06-.14.14-.28.22-.42.3-.48.71-.86,1.18-1.11.18-.1.36-.17.54-.23.06-.02.13-.04.19-.06t.01,0c.81-.2,1.7-.08,2.48.4.18.11.35.24.5.38.1.1.19.19.28.29h0c.06.08.12.15.17.23.04.06.08.12.11.18.1.18.19.37.26.56.06.17.11.35.13.53.05.28.06.56.03.85-.01.12-.03.23-.05.35-.07.36-.21.71-.42,1.04-.12.18-.24.35-.39.51-.09.1-.19.19-.29.27-.11.09-.22.17-.33.24-1.01.63-2.33.67-3.4-.01-1.36-.85-1.85-2.57-1.22-3.99Zm-2.64,16.12c-.11.18-.24.34-.38.49-.21.23-.45.42-.71.57-.09.05-.18.1-.27.14-.12.06-.24.11-.37.14-.87.27-1.85.18-2.68-.35-.24-.15-.45-.32-.63-.52-.37-.4-.63-.89-.76-1.4-.02-.07-.03-.13-.04-.2-.1-.55-.06-1.12.14-1.66.07-.21.17-.43.3-.63.83-1.32,2.45-1.82,3.84-1.28.12.05.24.1.36.17.07.04.14.08.21.12.23.15.44.32.62.51.29.3.51.65.65,1.03.02.04.03.09.05.14,0,.02.01.03.02.04.17.52.2,1.09.09,1.63-.02.12-.05.24-.1.36,0,0,0,0,0,.01,0,.02-.01.03-.02.05-.08.21-.18.42-.3.62h0Zm8.48-.59c-1.5-.94-1.93-2.91-1-4.41.91-1.43,2.76-1.9,4.22-1.11.06.04.12.07.18.11.19.12.36.25.51.4,1.07,1.03,1.31,2.7.49,4h0c-.14.23-.3.43-.48.6-.21.2-.44.37-.69.51-.98.53-2.21.53-3.23-.1Zm20.95-27.24c-.94,1.49-2.91,1.94-4.4,1-1.5-.94-1.94-2.91-1-4.4.94-1.49,2.91-1.94,4.4-1,1.49.94,1.94,2.91,1,4.4Zm12.55-2.7c-.05.1-.1.19-.15.28-.15.25-.34.47-.54.65h0c-.1.09-.2.17-.3.24-.14.1-.28.18-.43.26-.96.48-2.16.46-3.14-.15h0c-.09-.06-.17-.12-.25-.19-.09-.06-.16-.13-.24-.2h0c-.08-.08-.15-.16-.23-.24-.19-.22-.34-.46-.46-.72-.45-.95-.42-2.1.19-3.06.03-.04.06-.09.09-.13.03-.04.06-.09.1-.13.06-.08.13-.16.2-.23l.14-.14c.35-.32.76-.56,1.19-.7.51-.16,1.05-.2,1.58-.09.23.04.47.11.69.21h0c.07.03.14.06.21.1.06.04.13.08.19.12.09.05.16.11.24.17h0c.07.06.14.12.21.19.29.27.53.58.7.92.44.87.46,1.93,0,2.85Zm-30.87,37.03c.17-.27.37-.5.6-.7.21-.19.44-.35.69-.46.96-.48,2.15-.46,3.13.16,1.49.94,1.93,2.91.99,4.4-.88,1.39-2.67,1.88-4.12,1.16-.1-.05-.19-.1-.29-.16-.14-.09-.28-.19-.4-.3-1.16-1.02-1.45-2.74-.6-4.1Zm5.64-20.22c-.6-.38-1.04-.93-1.28-1.55-.09-.22-.14-.45-.18-.69-.11-.73.03-1.5.45-2.17.94-1.49,2.91-1.94,4.4-1,.2.13.39.28.55.44.17.17.32.36.45.55.03.05.06.11.1.17.52.93.55,2.1,0,3.09-.03.05-.06.11-.09.15-.94,1.49-2.91,1.94-4.4,1Zm20.11,18.31c.03-.14.07-.29.12-.43.07-.21.17-.41.29-.6h.01c.06-.09.12-.18.18-.26.06-.09.13-.17.2-.24.05-.05.1-.1.14-.14.15-.14.31-.27.48-.37.26-.16.53-.29.81-.36.07-.02.14-.04.22-.05.14-.03.29-.05.44-.06h0c.12,0,.24-.01.36,0,.05,0,.09,0,.14,0,.1,0,.19.02.28.04.06.01.13.03.19.04.11.03.22.06.33.1.07.02.14.05.21.08.14.06.27.14.4.22,1.49.94,1.93,2.91.99,4.41-.22.36-.52.66-.84.89-.14.1-.28.18-.43.26-.96.48-2.15.46-3.14-.15-1.17-.73-1.69-2.1-1.42-3.37Zm9.69-9.75c-.11-.06-.2-.14-.3-.21-1.25-1-1.57-2.81-.7-4.19h-.01c.11-.17.22-.32.36-.46.06-.07.13-.13.2-.2.07-.06.14-.13.21-.18.07-.05.15-.11.23-.16.12-.07.23-.14.36-.2.12-.06.25-.11.38-.15.06-.02.13-.04.19-.05.06-.02.13-.03.2-.04.34-.06.68-.07,1.03-.02.43.06.86.21,1.25.46.54.34.94.8,1.19,1.34.13.28.22.57.27.87.04.26.05.52.02.78-.04.49-.2.97-.48,1.41-.86,1.37-2.59,1.86-4.02,1.2-.13-.06-.25-.12-.37-.2Zm-25.43,41.65c-.22-.07-.43-.18-.64-.3-1.36-.86-1.85-2.57-1.22-3.99h0c.06-.14.13-.28.22-.41.47-.75,1.19-1.23,1.99-1.41.11-.02.23-.04.35-.06.2-.03.4-.03.61-.02h0c.13.01.26.03.38.05.15.03.31.07.46.13.21.08.42.18.62.3,1.49.94,1.93,2.91.99,4.4h.01c-.65,1.03-1.79,1.56-2.92,1.49-.28-.02-.56-.08-.84-.18Zm16.42-4.64c-.06.43-.21.86-.46,1.25-.06.09-.12.18-.18.26-.06.09-.13.17-.2.24h0c-.23.24-.5.45-.79.61t0,0c-.06.03-.12.06-.18.09-.31.14-.65.23-1,.27-.69.07-1.42-.07-2.05-.48-.12-.07-.22-.15-.33-.23s-.2-.18-.29-.27c-.06-.06-.12-.13-.17-.2-.07-.09-.14-.19-.2-.28h0c-.07-.12-.14-.24-.2-.36s-.11-.25-.15-.38c-.14-.45-.19-.94-.12-1.41.03-.21.08-.43.16-.64.07-.21.17-.42.3-.62.94-1.49,2.91-1.94,4.4-1,.36.23.66.52.89.84h0c.18.25.31.52.42.79.03.09.06.19.09.28,0,0,0,.01,0,.01.02.06.03.13.04.2.06.34.07.68.02,1.03Zm4.53-11.36c-.21-.07-.42-.18-.61-.3-.09-.05-.17-.11-.24-.17-.08-.05-.15-.12-.22-.19-.14-.13-.27-.28-.38-.43-.69-.91-.84-2.14-.37-3.21,0,0,0,0,0,0,.06-.14.14-.27.22-.4h0c.94-1.49,2.91-1.94,4.4-1,.54.34.95.82,1.2,1.36.44.95.4,2.09-.2,3.05-.21.34-.47.61-.77.84-.07.05-.15.11-.23.16-.11.07-.23.14-.36.2-.13.06-.26.11-.38.15-.65.21-1.38.2-2.05-.04Zm7.91,11.04h0c-.11.19-.24.35-.38.5-1.02,1.08-2.71,1.32-4.02.49-.12-.07-.22-.15-.33-.23-.11-.08-.2-.18-.29-.27-.06-.06-.12-.13-.17-.2-.07-.09-.14-.19-.2-.28h0c-.07-.12-.14-.24-.2-.36-.06-.12-.11-.25-.15-.38-.04-.12-.07-.24-.1-.37-.06-.34-.07-.69-.02-1.04.03-.21.08-.43.16-.64.07-.21.17-.42.3-.62h0c.94-1.49,2.91-1.93,4.4-.99,1.49.94,1.94,2.91,1,4.4Zm8.57-13.75c-.04.11-.09.21-.13.32-.03.05-.05.11-.08.15-.03.05-.06.11-.09.15-.11.18-.24.35-.38.49l-.14.14s-.1.09-.15.13c-.15.13-.32.24-.5.33,0,0,0,0,0,0-.18.09-.36.17-.54.23-.86.28-1.85.19-2.68-.34-.34-.21-.61-.47-.84-.77-.05-.07-.11-.15-.16-.23-.07-.12-.14-.23-.2-.36-.06-.12-.11-.25-.15-.38-.02-.06-.04-.13-.05-.19-.02-.06-.03-.13-.04-.2-.06-.34-.07-.68-.02-1.03.06-.43.21-.86.46-1.25.06-.09.12-.18.18-.26.06-.09.13-.17.2-.24.05-.05.1-.1.14-.14.07-.07.15-.14.23-.2.16-.12.33-.23.51-.32h0c.77-.39,1.68-.46,2.51-.15.11.04.21.08.31.13.05.02.1.05.15.08.05.03.1.06.15.09.18.12.35.24.5.39.05.04.1.09.14.14.1.1.18.2.26.31.08.11.15.22.21.34.03.06.06.12.09.18.06.12.11.24.14.37.21.66.21,1.38-.04,2.05Zm8.35-13.37c-.02.09-.05.18-.09.26-.07.21-.18.42-.3.62-.16.26-.36.48-.57.69-.07.06-.15.12-.23.18-.11.08-.22.14-.33.21-.3.18-.63.29-.97.36-.1.02-.21.03-.31.04-.05,0-.1,0-.14,0-.48.03-.98-.06-1.44-.27h0c-.06-.03-.13-.06-.19-.1h0c-.07-.04-.15-.08-.22-.12-1.49-.94-1.94-2.91-1-4.4h0s0,0,.01,0c.07-.12.16-.23.24-.34.05-.05.09-.11.14-.15.23-.25.51-.46.8-.61.06-.03.12-.06.18-.09.12-.05.24-.1.37-.14.87-.27,1.84-.18,2.67.34.97.61,1.5,1.66,1.5,2.72,0,.2-.02.4-.06.6-.01.07-.03.13-.05.2Z"/>
    <g opacity=".21">
      <path fill="#200e10" d="m495.09,371.53c-.52-1.71-1.1-3.42-1.75-5.12-1.4-3.68-3.08-7.28-5.01-10.75-.03-.05-.05-.09-.07-.13-.09-.16-.18-.31-.26-.47l-.43-.75c-1.55-2.67-3.24-5.27-5.06-7.74-.14-.19-.28-.37-.42-.56-.98-1.31-2-2.6-3.05-3.84-.23-.28-.46-.55-.69-.81-.87-1.01-1.76-1.98-2.67-2.93-.17-.18-.34-.35-.51-.52-2.02-2.07-4.13-4-6.31-5.77-.23-.19-.46-.37-.69-.55-1.06-.84-2.15-1.65-3.26-2.41-.22-.15-.44-.3-.67-.45-.5-.34-1.01-.67-1.52-.99-1.13-.71-2.27-1.38-3.41-1.99-.23-.13-.46-.25-.69-.37-2.86-1.49-5.73-2.67-8.59-3.54-.19-.06-.38-.12-.57-.17-.16-.05-.32-.1-.47-.13-.07-.03-.15-.05-.22-.06-3.07-.85-6.13-1.36-9.16-1.54-.23-.02-.46-.03-.69-.04-3.2-.15-6.37.05-9.48.6-.23.04-.47.08-.7.12-3.01.56-5.96,1.44-8.85,2.6-.23.1-.46.19-.69.28-3.95,1.66-7.76,3.85-11.39,6.53-.23.17-.47.35-.7.52-3.71,2.81-7.2,6.13-10.44,9.89-.23.27-.46.54-.69.81-1.33,1.59-2.62,3.25-3.85,4.98-.26.36-.52.72-.77,1.09-.66.96-1.3,1.93-1.93,2.93-1.68,2.67-3.19,5.38-4.52,8.12-.24.49-.47.98-.7,1.48-1.17,2.53-2.17,5.08-3.02,7.63-.1.3-.19.6-.29.9-1.98,6.24-2.99,12.5-2.95,18.58,0,.26,0,.52.02.77.1,4.73.84,9.34,2.27,13.74.07.22.15.45.22.67.96,2.81,2.21,5.53,3.75,8.12.22.38.46.76.7,1.14.52.83,1.08,1.64,1.67,2.44.13.19.27.37.42.56,2.5,3.32,5.55,6.39,9.17,9.17,1.21.93,2.49,1.83,3.83,2.69h80.81c1.96-1.46,3.79-3.07,5.48-4.82,4.62-12.27,8.42-24.84,11.4-37.61-.46-4.09-1.34-8.21-2.57-12.27Zm-33.48,14.81c-.88,1.4-2.68,1.88-4.13,1.16-.09-.05-.18-.1-.27-.15-1.49-.94-1.94-2.91-1-4.4.94-1.49,2.91-1.94,4.4-1,1.01.63,1.53,1.74,1.49,2.84-.02.54-.18,1.08-.48,1.56Zm-20.21,14.81c-.94,1.49-2.91,1.94-4.4,1-.69-.44-1.16-1.09-1.36-1.82-.24-.85-.14-1.78.36-2.59h.01c.94-1.5,2.91-1.94,4.4-1,.21.13.39.28.56.45,1.03,1.03,1.24,2.67.43,3.96Zm22.88-28.29c-.03-.06-.05-.12-.07-.19-.03-.06-.05-.13-.07-.19-.14-.45-.19-.94-.12-1.41.03-.22.09-.43.16-.64h0c.08-.21.18-.42.3-.61.16-.25.35-.47.55-.66.34-.31.74-.54,1.17-.68t.01,0c.87-.27,1.84-.18,2.67.34.17.11.32.22.46.35.07.06.13.13.2.2.06.07.12.14.18.21.05.07.11.15.16.23.07.12.14.23.2.36.06.12.11.25.15.38.02.06.04.13.05.19s.03.13.04.2c.06.34.07.68.02,1.03-.06.43-.21.86-.46,1.26-.94,1.49-2.91,1.94-4.4,1-.24-.15-.45-.32-.63-.53-.06-.06-.12-.13-.18-.2-.07-.09-.14-.19-.2-.29h0c-.07-.12-.13-.23-.19-.35Zm-27.42,15.18c-.94,1.49-2.91,1.94-4.4,1-.27-.17-.51-.38-.71-.61-.15-.18-.29-.37-.39-.57-.54-.98-.54-2.21.1-3.23.94-1.49,2.91-1.94,4.4-1,.43.27.77.62,1.02,1.03.12.2.22.41.3.63.3.88.22,1.9-.31,2.75Zm-9.23,14.65c-.94,1.5-2.91,1.94-4.4,1-1.49-.94-1.94-2.91-1-4.4.94-1.49,2.91-1.94,4.4-1,1.49.94,1.94,2.91,1,4.4Zm5.56-27.48c-.03.14-.06.28-.12.42,0,0,0,.01,0,.01-.07.21-.17.41-.29.61,0,0,0,0-.01.01-.11.18-.24.35-.38.5-.09.1-.19.19-.29.27-.11.09-.22.17-.33.23-.11.07-.22.13-.33.18-.09.04-.18.08-.27.11-.09.03-.18.06-.27.09-.08.02-.16.04-.24.05-.4.07-.81.07-1.22-.01-.24-.05-.47-.12-.7-.23-.12-.06-.24-.12-.36-.2-.34-.21-.62-.47-.84-.77-.15-.19-.27-.38-.36-.59-.24-.52-.34-1.1-.28-1.68.01-.11.03-.21.05-.32.02-.11.05-.22.09-.32.04-.11.07-.21.12-.31.03-.07.06-.14.1-.2.04-.07.07-.13.12-.2.11-.18.24-.34.38-.49.04-.05.1-.1.14-.14.25-.24.54-.43.84-.56.22-.11.46-.18.7-.23.78-.16,1.62-.03,2.35.43.42.26.75.61,1,1,.12.2.22.4.3.62.2.55.24,1.16.11,1.75Zm-26.49,17.99c-1.08-1.03-1.32-2.71-.5-4.01.24-.38.55-.7.9-.93.22-.15.45-.27.7-.36.76-.28,1.62-.27,2.39.07.14.06.28.14.42.22.18.11.34.24.48.38.05.04.1.09.14.14.14.14.27.31.37.48.07.11.13.21.18.33.02.03.04.07.05.11.41.93.36,2.03-.22,2.96-.28.45-.65.81-1.09,1.05-.06.04-.12.07-.19.1-.07.04-.15.07-.22.1-.2.08-.4.14-.62.18-.29.05-.59.07-.88.04-.12,0-.24-.03-.37-.05-.07-.01-.14-.03-.21-.05-.07-.02-.14-.04-.21-.07,0,0-.01,0-.02,0-.2-.07-.4-.17-.6-.29-.04-.02-.07-.04-.1-.06h0c-.15-.1-.28-.21-.4-.32Zm47.2-32.19c-.14.22-.31.43-.49.6-.02.02-.03.03-.04.04-.26.24-.55.43-.87.57-.09.04-.19.08-.29.11-.1.03-.19.06-.29.09h0c-.45.11-.93.11-1.39.02-.09-.02-.18-.04-.27-.07-.06-.02-.13-.04-.2-.07-.19-.07-.38-.17-.56-.29-.01-.01-.03-.02-.04-.03-.27-.17-.51-.38-.7-.61-.88-1.03-1.03-2.56-.27-3.76.08-.13.17-.25.27-.36.04-.05.07-.09.12-.13.05-.05.1-.1.14-.14.14-.13.28-.24.44-.34.13-.09.27-.16.42-.23.05-.02.11-.04.16-.06.71-.27,1.5-.3,2.24-.03.22.07.43.17.63.3,1.49.94,1.94,2.91,1,4.4Zm-9.81,14.39s-.01,0-.01,0c-.12.04-.24.09-.37.12-.06.01-.13.03-.19.04-.11.02-.22.03-.33.04-.67.05-1.35-.1-1.96-.48-1.36-.85-1.85-2.56-1.22-3.99.06-.14.14-.28.22-.42.11-.18.24-.34.38-.48.04-.05.1-.1.14-.14.37-.35.82-.6,1.3-.73.07-.02.14-.04.21-.05.07-.02.14-.03.22-.04.09-.02.18-.03.26-.03.06,0,.12-.01.19,0,.07,0,.15,0,.22,0,.51.03,1.02.19,1.49.47,1.17.73,1.69,2.1,1.42,3.37-.04.21-.11.43-.2.63-.06.14-.13.27-.22.4-.15.24-.34.46-.54.65-.15.13-.3.26-.47.36-.17.11-.35.2-.53.27Zm-42.01,1.47c.82-1.31,2.44-1.82,3.83-1.29.12.05.24.1.36.17.07.04.14.08.21.12.23.15.44.32.62.51.29.3.51.65.65,1.03.02.04.03.09.05.13h0s.01.04.02.05c.17.52.2,1.09.09,1.63-.02.12-.05.24-.1.36,0,0,0,0,0,.01,0,.02-.01.03-.02.05-.07.21-.17.42-.3.62h0c-.11.19-.24.35-.38.5-.21.22-.45.41-.71.56-.09.05-.18.1-.27.14-.12.06-.24.11-.37.14-.87.28-1.85.19-2.68-.34-.24-.15-.45-.33-.64-.53-.37-.4-.63-.89-.76-1.4-.02-.07-.03-.13-.04-.2-.1-.55-.06-1.12.14-1.66.07-.21.18-.42.3-.62Zm13.6-13.23c.04.06.08.12.11.18.11.18.2.36.26.56.06.17.11.35.13.53.05.28.06.56.03.85-.01.12-.03.23-.05.35-.07.36-.21.71-.42,1.04-.12.18-.24.35-.39.51-.09.1-.19.19-.29.27-.11.09-.22.17-.33.24-1.01.62-2.32.65-3.39-.02-1.36-.86-1.85-2.56-1.22-3.99.06-.14.14-.28.22-.42.3-.48.71-.86,1.18-1.11.18-.1.36-.17.54-.23.06-.03.12-.04.19-.06t.01,0c.81-.2,1.71-.09,2.48.4.18.11.35.24.5.39.1.09.19.19.28.29h0c.06.08.12.15.17.23Zm4.69,15.02h0c-.14.23-.3.43-.48.6-.21.2-.44.37-.69.51-.98.53-2.21.53-3.23-.1-1.5-.94-1.93-2.91-1-4.41.91-1.43,2.76-1.9,4.22-1.11.06.04.12.07.18.11.19.12.36.25.51.4,1.07,1.03,1.31,2.7.49,4Zm3.87-12.12c-.6-.38-1.04-.93-1.28-1.55-.09-.22-.14-.45-.18-.69-.11-.73.03-1.5.45-2.17.94-1.49,2.91-1.94,4.4-1,.2.13.39.28.55.44.17.17.32.36.45.55.03.05.06.11.1.17.52.93.55,2.1,0,3.09-.03.05-.06.11-.09.15-.94,1.49-2.91,1.94-4.4,1Zm7.27-17.52c.94-1.49,2.91-1.94,4.4-1,1.49.94,1.94,2.91,1,4.4-.94,1.49-2.91,1.94-4.4,1-1.5-.94-1.94-2.91-1-4.4Zm5.14,15.1c-1.37-.86-1.86-2.58-1.23-4,0,0,0,0,0,0,.06-.14.14-.27.22-.4.11-.18.24-.35.38-.5.05-.05.1-.1.14-.14.15-.14.31-.26.48-.36.11-.07.23-.13.35-.19.59-.27,1.26-.36,1.92-.24.18.03.35.07.52.14.06.02.12.04.18.07.15.06.3.14.45.23.09.06.17.12.25.18h0c.22.17.4.36.56.57.17.21.3.44.4.68.07.16.13.32.17.49.15.61.13,1.26-.1,1.87-.07.21-.17.42-.29.61-.13.22-.29.41-.47.57-.14.14-.3.27-.46.38-.16.11-.34.2-.52.28-.1.04-.19.08-.29.11-.12.04-.25.07-.38.1,0,0-.01,0-.02,0-.05,0-.11.02-.17.02-.48.06-.99.01-1.47-.17-.11-.04-.21-.09-.32-.13-.05-.03-.1-.05-.15-.08-.05-.03-.1-.06-.14-.09Zm12.81-14.38c-.04.09-.09.17-.14.26h0s0,0-.01,0c-.15.25-.34.47-.54.65h0c-.1.09-.2.17-.3.24-.14.1-.28.18-.43.26-.97.47-2.15.45-3.13-.16-.09-.06-.18-.12-.26-.18-.09-.06-.16-.13-.24-.2h0c-.08-.08-.15-.16-.23-.24-.19-.22-.34-.46-.46-.72-.44-.95-.41-2.1.19-3.06.03-.04.05-.09.09-.13.03-.04.06-.09.1-.13.06-.08.13-.16.2-.23l.14-.14c.35-.32.76-.56,1.19-.7.51-.17,1.05-.2,1.58-.09.23.04.47.11.69.21h0c.07.03.14.06.21.1.07.04.14.07.2.12.08.05.15.1.23.17h0c.07.05.15.12.21.18.29.27.53.57.7.92.45.89.47,1.96,0,2.89Zm-27.06-.44c.21.07.42.17.62.3,1.17.73,1.69,2.1,1.42,3.37-.04.21-.11.43-.2.63-.06.14-.13.27-.22.4-.12.18-.24.35-.39.51-.1.1-.19.19-.29.27-.11.09-.21.16-.32.23-.13.08-.26.15-.4.21-.86.37-1.86.37-2.74-.07-.09-.05-.18-.1-.26-.15-.15-.1-.3-.21-.43-.32-.39-.35-.69-.79-.87-1.27-.03-.07-.05-.14-.07-.21-.05-.19-.09-.38-.11-.57-.03-.32-.02-.65.05-.98.06-.29.17-.58.31-.85.03-.07.07-.13.11-.2.17-.26.36-.48.57-.67.21-.19.45-.35.69-.47.04-.02.08-.04.12-.06.09-.04.19-.08.29-.11.53-.18,1.11-.22,1.67-.1h0c.14.03.29.06.43.12Zm-3.81,37.45c.17-.27.37-.5.6-.7.21-.19.44-.35.69-.46.96-.48,2.15-.46,3.13.16,1.49.94,1.93,2.91.99,4.4-.88,1.39-2.67,1.88-4.12,1.16-.1-.05-.19-.1-.29-.16-.14-.09-.28-.19-.4-.3-1.16-1.02-1.45-2.74-.6-4.1Zm44.86-30.63c.44-.07.9-.06,1.35.05.1.02.19.05.29.09.07.02.14.05.21.08.14.06.28.13.41.22.12.07.23.16.34.24.09.07.18.15.26.24.09.08.17.18.23.27h0c.05.07.11.15.15.22.09.14.18.3.24.46t0,0c.09.21.16.44.2.67.15.77.02,1.59-.44,2.29-.15.24-.33.46-.53.64-.1.09-.21.18-.32.26-.16.12-.33.22-.51.3t0,0c-.12.06-.24.11-.37.14-.65.21-1.38.21-2.06-.04-.14-.05-.28-.11-.41-.19-.07-.04-.14-.07-.2-.12-.18-.12-.35-.24-.5-.38-.08-.07-.15-.15-.23-.24-.14-.17-.27-.35-.37-.53t0,0c-.07-.13-.13-.27-.19-.42-.26-.68-.27-1.44-.03-2.14.03-.1.06-.19.1-.28,0,0,0,0,0,0,.06-.14.14-.27.22-.4.11-.17.23-.33.36-.47.01,0,.02-.02.02-.02l.14-.14c.1-.09.21-.18.31-.26.11-.08.22-.15.34-.21h0c.18-.09.36-.17.54-.23.14-.04.28-.07.42-.1Zm-17.68,32.08c-1.16-.73-1.69-2.09-1.43-3.36.03-.14.07-.29.12-.43.07-.21.18-.41.3-.6,0,0,0,0,0-.01.05-.09.11-.17.18-.25.06-.09.13-.17.2-.24.04-.05.1-.1.14-.14.15-.14.31-.27.48-.37.26-.16.53-.29.81-.36.07-.02.14-.04.22-.05.14-.03.29-.05.44-.06h0c.12-.01.24-.01.36,0,.05,0,.09,0,.14,0,.1,0,.19.02.28.04.06.01.13.03.19.04.11.03.22.06.33.1.07.02.14.05.21.08.14.06.27.13.4.21h0c1.5.94,1.93,2.91,1,4.4,0,0,0,0-.01.01-.22.36-.52.66-.84.89-.14.1-.28.18-.43.26-.97.47-2.15.45-3.13-.16Zm8.26-13.11c-.11-.06-.2-.14-.3-.21-1.25-1-1.57-2.81-.7-4.19.11-.17.22-.32.35-.46.06-.07.13-.13.2-.2.07-.06.14-.12.21-.18.07-.05.15-.11.23-.16.12-.07.23-.14.36-.2.12-.06.25-.11.38-.15.06-.02.13-.04.19-.05.06-.02.13-.03.2-.04.34-.06.68-.07,1.03-.02.43.06.86.21,1.26.46h-.01c.54.34.94.8,1.19,1.34.13.28.22.57.27.87.04.26.05.52.02.78-.04.49-.2.97-.48,1.41-.86,1.37-2.59,1.86-4.02,1.2-.13-.06-.25-.12-.37-.2Zm8.43-30.04c.33.9.25,1.94-.29,2.81-.23.36-.52.67-.84.89-.11.08-.22.15-.34.21,0,0-.01,0-.02,0-.17.1-.35.17-.53.23-.01,0-.02,0-.02,0-.13.04-.26.07-.38.1-.24.04-.48.06-.73.05-.1,0-.19-.02-.28-.03-.14-.02-.28-.05-.42-.09-.29-.08-.58-.21-.85-.38-.07-.05-.14-.1-.21-.15-.05-.04-.11-.08-.15-.12-.13-.11-.26-.23-.36-.36-.03-.04-.06-.07-.09-.11-.06-.07-.11-.14-.16-.22-.13-.2-.23-.4-.31-.62-.34-.91-.27-1.95.28-2.83.11-.18.24-.35.38-.5.26-.27.55-.48.86-.64.09-.05.18-.09.27-.12.11-.05.23-.09.34-.12.09-.02.17-.04.26-.06.07-.01.14-.03.22-.03.07-.01.14-.02.22-.02.27-.02.54,0,.81.06.14.03.28.06.43.12.21.07.42.17.62.3.2.13.39.27.55.44.17.16.31.34.44.53.13.2.23.4.31.62Zm-53.04,56.3c.05-.1.1-.19.16-.28.65-1.03,1.78-1.56,2.91-1.49.06,0,.13.01.2.02.18.03.35.06.53.12.2.06.4.14.6.25.06.03.12.07.18.11.09.05.18.11.26.18.09.06.17.13.24.21.05.05.1.1.14.14.14.14.26.3.36.47.12.19.22.39.29.6.03.06.05.13.07.21,0,0,0,0,0,.01.24.84.14,1.78-.37,2.59-.38.61-.92,1.04-1.54,1.27-.09.04-.18.06-.27.09-.1.03-.21.06-.31.07-.29.05-.58.07-.88.04-.12,0-.25-.03-.37-.05-.14-.03-.28-.07-.43-.12-.1-.04-.21-.08-.31-.13h0c-.1-.05-.2-.11-.29-.17,0,0,0,0-.01-.01-.18-.11-.35-.24-.5-.38-.1-.09-.19-.19-.27-.29-.05-.06-.09-.12-.13-.17-.67-.94-.79-2.2-.26-3.27Zm6.76,17.41c-.28.05-.56.05-.84.02-.11,0-.21-.03-.32-.05-.36-.07-.71-.21-1.03-.42,0,0,0,0-.01,0-.06-.04-.12-.08-.18-.12-.05-.04-.1-.08-.15-.12-.09-.08-.18-.16-.26-.24-.98-1.04-1.19-2.65-.38-3.91.13-.2.28-.39.44-.55.39-.4.88-.68,1.4-.83.34-.1.69-.13,1.05-.11.09,0,.17.02.26.03.26.03.51.1.76.2.03.01.05.02.07.03.14.06.29.14.43.22,1.49.94,1.94,2.91,1,4.4h-.01c-.05.08-.1.15-.16.23-.51.68-1.26,1.1-2.05,1.22Zm16.21-3.32c-.65,1.04-1.81,1.57-2.95,1.48-.28-.02-.56-.08-.84-.18-.21-.07-.42-.18-.61-.3-1.37-.86-1.86-2.59-1.2-4.02.05-.13.12-.26.2-.38.46-.73,1.18-1.22,1.96-1.41.11-.02.23-.04.35-.06.2-.03.4-.03.61-.02h0c.13.01.26.03.38.05.15.03.31.07.46.13.22.07.44.18.64.31,1.49.94,1.93,2.91.99,4.4h.01Zm12.63-3.34c-.06.44-.21.87-.46,1.26-.05.09-.11.17-.18.25-.06.09-.13.17-.2.24h0c-.23.26-.5.46-.79.61t0,0c-.06.03-.12.06-.18.09-.31.14-.65.23-1,.27-.69.08-1.41-.07-2.05-.47-.12-.07-.22-.15-.33-.24-.11-.08-.2-.18-.29-.27-.06-.06-.12-.13-.17-.2-.07-.09-.14-.19-.2-.28h0c-.07-.12-.14-.24-.2-.36-.06-.12-.11-.25-.15-.38-.14-.45-.19-.94-.12-1.41.03-.22.09-.43.16-.64.07-.21.18-.42.3-.61.94-1.5,2.91-1.94,4.4-1,.36.22.65.51.89.83h0c.18.25.31.52.42.79.03.09.06.19.09.28,0,0,0,.01,0,.01.02.06.03.13.04.2.06.34.07.68.02,1.03Zm4.53-11.36c-.21-.07-.42-.17-.62-.3-.08-.05-.16-.11-.23-.17-.08-.05-.15-.12-.22-.19-.14-.13-.27-.27-.38-.42-.69-.91-.85-2.15-.37-3.22,0,0,0,0,0,0,.06-.14.13-.27.21-.4.94-1.49,2.91-1.94,4.4-1,.54.34.95.82,1.2,1.36.44.95.4,2.09-.2,3.05h-.01c-.21.33-.46.61-.76.84-.07.05-.15.11-.23.16-.11.07-.23.14-.36.2-.13.06-.26.11-.38.15-.65.21-1.38.2-2.05-.04Zm7.91,11.04h0c-.11.19-.24.35-.38.5-1.02,1.09-2.71,1.33-4.02.5-.12-.07-.22-.15-.33-.24-.11-.08-.2-.18-.29-.27-.06-.06-.12-.13-.17-.2-.07-.09-.14-.19-.2-.28h0c-.07-.12-.14-.24-.2-.36-.06-.12-.11-.25-.15-.38-.04-.12-.07-.24-.1-.37-.06-.34-.07-.69-.02-1.04.03-.21.09-.43.16-.64.07-.21.18-.42.3-.61.94-1.5,2.91-1.94,4.4-1,1.49.94,1.94,2.91,1,4.4Zm8.57-13.75c-.04.11-.09.21-.13.32-.03.05-.05.11-.08.15-.03.05-.06.1-.09.14-.11.18-.24.35-.38.5l-.14.14s-.1.09-.15.13c-.15.13-.32.23-.5.33,0,0,0,0,0,0-.18.09-.36.17-.54.23-.87.27-1.85.18-2.68-.35-.33-.21-.61-.46-.84-.76-.05-.07-.11-.15-.16-.23-.07-.12-.14-.23-.2-.36-.06-.12-.11-.25-.15-.38-.02-.06-.04-.13-.05-.19-.02-.06-.03-.13-.04-.2-.06-.34-.07-.68-.02-1.03.06-.43.21-.86.46-1.26.05-.09.11-.17.18-.25.06-.09.13-.17.2-.24.04-.05.1-.1.14-.14.07-.07.15-.14.23-.2.16-.12.33-.23.51-.32h0c.77-.39,1.68-.46,2.51-.15.11.04.21.08.31.13.05.02.1.05.15.08s.1.06.15.09c.18.12.35.24.5.39.05.04.1.09.14.14.1.1.18.2.26.31.08.11.15.22.21.34.03.06.06.12.09.18.06.12.11.24.14.37.21.66.21,1.38-.04,2.05Zm8.4-13.58c-.01.07-.03.13-.05.2-.02.09-.05.18-.09.26-.07.21-.17.42-.29.61h0c-.17.27-.36.5-.58.69-.07.06-.15.12-.23.18-.11.08-.22.14-.33.21-.3.18-.63.29-.97.36-.1.02-.21.03-.31.04-.05,0-.1,0-.14,0-.48.03-.98-.06-1.44-.27h0c-.06-.03-.13-.06-.19-.1h0c-.07-.04-.14-.08-.21-.12-1.49-.94-1.94-2.91-1-4.4.07-.12.16-.23.24-.34.05-.05.09-.11.14-.15.23-.25.51-.46.8-.61.06-.03.12-.06.18-.09.12-.05.24-.1.37-.14.87-.28,1.85-.19,2.68.34.97.61,1.5,1.65,1.49,2.72,0,.2-.02.4-.06.61Z"/>
    </g>
  </g>
</svg>
