<svg xmlns="http://www.w3.org/2000/svg" id="Layer_1" viewBox="0 0 512 512">
  <g>
    <path fill="#53c8ea" d="m499.49,276.83v20.52H6.28c.12-2.9.28-5.79.49-8.68.54-7.55,1.36-15.07,2.46-22.55.69-4.68,1.5-9.35,2.45-14,.54-2.66,1.13-5.31,1.77-7.95,2.06-8.5,4.67-16.84,7.99-24.88.13-.33.27-.66.41-.99,2.42-5.75,5.21-11.34,8.43-16.7.11-.19.23-.38.35-.58,1.16-1.91,2.38-3.78,3.66-5.62,1.8-2.58,3.7-5.1,5.73-7.52.58-.7,1.16-1.39,1.77-2.07,9.17-10.46,20.42-19.08,33.15-24.32,2.65-1.09,5.36-2.03,8.13-2.82,11.96-3.39,24.36-3.72,36.85-3.55,10.5.13,21.07.62,31.5-.06,1.35-.09,2.71-.2,4.05-.33,1.91-.18,3.82-.42,5.73-.71,1.39-.21,2.78-.45,4.17-.73,13.18-2.63,25.22-8.13,36.81-14.85,11.35-6.57,22.27-14.32,33.39-21.68l-.39-.29h.84c2.25-1.49,4.52-2.96,6.8-4.4,9.54-6.03,19.33-11.54,29.77-15.57,36.17-13.96,78.79-6.78,110.21,15.57,1.98,1.4,3.92,2.87,5.8,4.4,3.23,2.61,6.32,5.4,9.24,8.35,1.99,2.01,3.9,4.09,5.73,6.25,3.47,4.09,6.63,8.44,9.44,13.05,8.66,14.18,14.22,30.11,23.37,43.97.05.09.11.17.17.25,8.46,12.74,19.72,23.27,30.19,34.46,3.68,3.93,7.26,7.93,10.59,12.15,2.35,2.97,4.57,6.05,6.64,9.21,6.63,10.12,11.85,21.15,15.55,32.67Z"/>
    <g>
      <g>
        <path fill="#25addb" d="m33.96,210.89c0,2.76-.7,5.28-1.86,7.17-1.29,2.11-3.14,3.43-5.2,3.43-1.77,0-3.39-.98-4.62-2.59-.15-.19-.29-.4-.43-.61,2.42-5.75,5.21-11.34,8.43-16.7,2.19,1.8,3.68,5.29,3.68,9.31Z"/>
        <path fill="#25addb" d="m45.66,272.83c-2.19,2.46-5.81,2.9-9.1,3.19-7.7.68-15.4,1.35-23.1,2.02-.57-8.64-1.35-17.29-1.78-25.94.54-2.66,1.13-5.31,1.77-7.95,2.06-8.5,4.67-16.84,7.99-24.88.28-.13.56-.26.84-.38,3.14-1.31,6.65-1.67,9.82-.84.75.2,1.48.46,2.18.8.66.31,1.29.68,1.89,1.12,1.59,1.16,2.84,2.61,3.84,4.25,2.44,4.03,3.32,9.22,4,14.02.27,1.97.55,3.94.82,5.91.83,5.93,1.65,11.87,2.47,17.8.52,3.76.89,8.05-1.64,10.87Z"/>
      </g>
      <g>
        <ellipse cx="62.12" cy="204.38" fill="#25addb" rx="7.06" ry="10.6"/>
        <path fill="#25addb" d="m51.16,217.01c4.8-5.82,14.13-7.98,20.24-3.55,5.52,4.01,6.89,11.52,7.83,18.27,1.1,7.9,2.2,15.8,3.29,23.71.52,3.75.89,8.05-1.63,10.87-2.2,2.46-5.81,2.9-9.1,3.19-7.7.67-15.4,1.35-23.11,2.02-.69-10.51-1.69-21.06-2.02-31.59-.25-7.88-.81-16.45,4.5-22.93Z"/>
      </g>
      <g opacity=".58">
        <path fill="#25addb" d="m467.66,259.82c-2.92,3.27-7.74,3.87-12.11,4.25-10.25.89-20.51,1.79-30.76,2.69-.49-7.52-1.1-15.06-1.64-22.6,0-.1-.01-.19-.02-.29-.34-4.79-.63-9.59-.85-14.39h0c-.07-1.6-.13-3.2-.18-4.78-.13-4.18-.33-8.5-.07-12.74h0c.38-6.4,1.81-12.6,6.06-17.79.31-.38.65-.76,1-1.11,2.03-2.13,4.54-3.81,7.27-4.97.05.09.11.17.17.25,8.46,12.74,19.72,23.27,30.19,34.46.99,7.12,1.98,14.24,2.97,21.36.05.39.11.79.17,1.18.69,5,1.18,10.71-2.18,14.47Z"/>
      </g>
      <g opacity=".47">
        <g>
          <ellipse cx="152.35" cy="193.23" fill="#25addb" rx="6.65" ry="9.99"/>
          <path fill="#25addb" d="m142.01,205.14c4.53-5.49,13.33-7.53,19.09-3.35,5.2,3.78,6.5,10.86,7.38,17.23,1.04,7.45,2.07,14.9,3.11,22.35.49,3.54.84,7.59-1.54,10.25-2.07,2.32-5.48,2.74-8.58,3.01-7.26.64-14.53,1.27-21.79,1.91-.65-9.91-1.59-19.86-1.91-29.79-.23-7.43-.76-15.51,4.24-21.62Z"/>
        </g>
        <g>
          <ellipse cx="123.07" cy="205.93" fill="#25addb" rx="6.65" ry="9.99"/>
          <path fill="#25addb" d="m112.73,217.84c4.53-5.49,13.33-7.53,19.09-3.35,5.2,3.78,6.5,10.86,7.38,17.23,1.04,7.45,2.07,14.9,3.11,22.35.49,3.54.84,7.59-1.54,10.25-2.07,2.32-5.48,2.74-8.58,3.01-7.26.64-14.53,1.27-21.79,1.91-.65-9.91-1.59-19.86-1.91-29.79-.23-7.43-.76-15.51,4.24-21.62Z"/>
        </g>
        <g>
          <ellipse cx="175.63" cy="201.4" fill="#25addb" rx="6.65" ry="9.99"/>
          <path fill="#25addb" d="m165.29,213.31c4.53-5.49,13.33-7.53,19.09-3.35,5.2,3.78,6.5,10.86,7.38,17.23,1.04,7.45,2.07,14.9,3.11,22.35.49,3.54.84,7.59-1.54,10.25-2.07,2.32-5.48,2.74-8.58,3.01-7.26.64-14.53,1.27-21.79,1.91-.65-9.91-1.59-19.86-1.91-29.79-.23-7.43-.76-15.51,4.24-21.62Z"/>
        </g>
      </g>
      <g opacity=".58">
        <g>
          <ellipse cx="388.78" cy="190.8" fill="#25addb" rx="6.65" ry="9.99"/>
          <path fill="#25addb" d="m378.44,202.72c4.53-5.49,13.33-7.53,19.09-3.35,5.2,3.78,6.5,10.86,7.38,17.23,1.04,7.45,2.07,14.9,3.11,22.35.49,3.54.84,7.59-1.54,10.25-2.07,2.32-5.48,2.74-8.58,3.01-7.26.64-14.53,1.27-21.79,1.91-.65-9.91-1.59-19.86-1.91-29.79-.23-7.43-.76-15.51,4.24-21.62Z"/>
        </g>
        <g>
          <ellipse cx="368.59" cy="197.82" fill="#25addb" rx="6.65" ry="9.99"/>
          <path fill="#25addb" d="m358.25,209.74c4.53-5.49,13.33-7.53,19.09-3.35,5.2,3.78,6.5,10.86,7.38,17.23,1.04,7.45,2.07,14.9,3.11,22.35.49,3.54.84,7.59-1.54,10.25-2.07,2.32-5.48,2.74-8.58,3.01-7.26.64-14.53,1.27-21.79,1.91-.65-9.91-1.59-19.86-1.91-29.79-.23-7.43-.76-15.51,4.24-21.62Z"/>
        </g>
        <g>
          <ellipse cx="403.99" cy="188.11" fill="#25addb" rx="6.65" ry="9.99"/>
          <path fill="#25addb" d="m393.65,200.02c4.53-5.49,13.33-7.53,19.09-3.35,5.2,3.78,6.5,10.86,7.38,17.23,1.04,7.45,2.07,14.9,3.11,22.35.49,3.54.84,7.59-1.54,10.25-2.07,2.32-5.48,2.74-8.58,3.01-7.26.64-14.53,1.27-21.79,1.91-.65-9.91-1.59-19.86-1.91-29.79-.23-7.43-.76-15.51,4.24-21.62Z"/>
        </g>
      </g>
      <g>
        <g>
          <ellipse cx="236.61" cy="195.51" fill="#25addb" rx="6.65" ry="9.99"/>
          <path fill="#25addb" d="m226.27,207.42c4.53-5.49,13.33-7.53,19.09-3.35,5.2,3.78,6.5,10.86,7.38,17.23,1.04,7.45,2.07,14.9,3.11,22.35.49,3.54.84,7.59-1.54,10.25-2.07,2.32-5.48,2.74-8.58,3.01-7.26.64-14.53,1.27-21.79,1.91-.65-9.91-1.59-19.86-1.91-29.79-.23-7.43-.76-15.51,4.24-21.62Z"/>
        </g>
        <g>
          <ellipse cx="216.43" cy="202.53" fill="#25addb" rx="6.65" ry="9.99"/>
          <path fill="#25addb" d="m206.08,214.44c4.53-5.49,13.33-7.53,19.09-3.35,5.2,3.78,6.5,10.86,7.38,17.23,1.04,7.45,2.07,14.9,3.11,22.35.49,3.54.84,7.59-1.54,10.25-2.07,2.32-5.48,2.74-8.58,3.01-7.26.64-14.53,1.27-21.79,1.91-.65-9.91-1.59-19.86-1.91-29.79-.23-7.43-.76-15.51,4.24-21.62Z"/>
        </g>
        <g>
          <ellipse cx="251.83" cy="192.82" fill="#25addb" rx="6.65" ry="9.99"/>
          <path fill="#25addb" d="m241.49,204.73c4.53-5.49,13.33-7.53,19.09-3.35,5.2,3.78,6.5,10.86,7.38,17.23,1.04,7.45,2.07,14.9,3.11,22.35.49,3.54.84,7.59-1.54,10.25-2.07,2.32-5.48,2.74-8.58,3.01-7.26.64-14.53,1.27-21.79,1.91-.65-9.91-1.59-19.86-1.91-29.79-.23-7.43-.76-15.51,4.24-21.62Z"/>
        </g>
        <g opacity=".58">
          <ellipse cx="291.31" cy="192.55" fill="#25addb" rx="6.65" ry="9.99"/>
          <path fill="#25addb" d="m280.96,204.46c4.53-5.49,13.33-7.53,19.09-3.35,5.2,3.78,6.5,10.86,7.38,17.23,1.04,7.45,2.07,14.9,3.11,22.35.49,3.54.84,7.59-1.54,10.25-2.07,2.32-5.48,2.74-8.58,3.01-7.26.64-14.53,1.27-21.79,1.91-.65-9.91-1.59-19.86-1.91-29.79-.23-7.43-.76-15.51,4.24-21.62Z"/>
        </g>
      </g>
    </g>
    <g opacity=".08">
      <path fill="#fff" d="m420.28,255.15l-2.93,9.27-2.58,8.18-2.97,9.41-.66,2.09-1.44,4.57-2.74,8.68-.75,2.36-2.98-2.36-10.99-8.68-3.41-2.7-2.33-1.84-11.18-8.83-13.75-10.87-4.3-3.4-1.44-1.14-14.43-11.41-4.4-3.48-1.07-.84-12.18-9.63-.09-.07-3.04-2.41-12.67-10.01-18.06-14.28-3.05-2.41-3.76-2.97h0l-.71-.56-5.72-4.52-54.52-43.08-3.96-3.13-2.05-1.61-2.62-2.07-.77-.61-10.57-8.36c11.35-6.57,22.27-14.32,33.39-21.68l41.09,30.78,5.72,4.29,4.47,3.35,3.05,2.29.77.58,29.96,22.44,3.04,2.29,13.34,9.99,4.4,3.3,17.41,13.04,15.28,11.45,11.39,8.53,4.48,3.36,2.81,2.1,5.06,3.79,5.73,4.29,2.02,1.52.04.03,2.33,1.75.14.11,4.73,3.54,7.48,5.6Z"/>
      <polygon fill="#fff" points="278.27 112.06 281.43 114.26 282.37 114.91 284.6 116.47 286.84 118.02 289.88 120.13 350.65 162.36 355.05 165.42 397.82 195.14 403.54 199.11 405.57 200.52 407.94 202.16 442.01 225.84 442.01 201.62 407.94 179.04 405.57 177.47 403.54 176.13 397.82 172.34 355.05 144 350.65 141.08 313.51 116.47 312.97 116.12 306.86 112.06 278.27 112.06"/>
    </g>
    <g opacity=".08">
      <path fill="#fff" d="m199.96,255.15l-2.93,9.27-2.58,8.18-2.97,9.41-.66,2.09-1.44,4.57-2.74,8.68-.75,2.36-2.99-2.36-10.98-8.68-3.42-2.7-2.33-1.84-11.18-8.83-13.75-10.87-.34-.27-19.83-15.68-4.41-3.48-1.07-.84-7.15-5.65-5.03-3.97-.09-.07-3.05-2.41-30.73-24.29-.65-.51-2.4-1.9-4.47-3.54-5.35-4.22-.38-.3-14.54-11.49c9.17-10.46,20.42-19.08,33.15-24.32l25.36,19,3.05,2.29,13.33,9.99,4.41,3.3.28.21,7.87,5.9,10.09,7.56,16.14,12.09,5.53,4.14.2.14,9.23,6.92,2.01,1.51,5.06,3.79,5.72,4.29,2.02,1.52.04.03,2.33,1.75,7.49,5.6,4.86,3.64Z"/>
      <path fill="#fff" d="m294.54,253.18l-3.14,1.57-9.03,4.52-5.72,2.87-2.84,1.42-13.07-9.31-4.85-3.45-9.32-6.64-8.72-6.21-4.39-3.13-11.5-8.19-16.31-11.62-18.03-12.84-2.37-1.64-2.02-1.41-1.27-.89-4.45-3.09-4.34-3.02-11.96-8.32-5.73-3.98-20.73-14.41-4.4-3.06-10.42-7.24c10.5.13,21.07.62,31.5-.06l4.05,2.68,5.73,3.8,16.31,10.8,5.72,3.79,2.02,1.34,2.37,1.57,23.98,16.63,11.45,7.94,4.11,2.85,10.46,7.25,15.58,10.8,17.25,11.96,6.21,4.3.94.65,3.95,2.74.83.58,12.18,8.44Z"/>
    </g>
    <g>
      <path fill="#1790cb" d="m388.58,116.47h-152.58c2.25-1.49,4.52-2.96,6.8-4.4h139.97c1.98,1.4,3.92,2.87,5.8,4.4Z"/>
      <path fill="#1790cb" d="m403.54,131.07v143.55h-5.73V124.82c1.99,2.01,3.9,4.09,5.73,6.25Z"/>
      <rect width="5.73" height="160.36" x="276.64" y="114.27" fill="#1790cb" transform="rotate(-180 279.505 194.445)"/>
      <path fill="#1790cb" d="m155.46,154.72c1.91-.18,3.82-.42,5.73-.71v120.6h-5.73v-119.9Z"/>
      <path fill="#1790cb" d="m40.01,187.87v86.75h-5.73v-79.23c1.8-2.58,3.7-5.1,5.73-7.52Z"/>
    </g>
    <path fill="#1790cb" d="m505.6,307.9H6.01c.03-3.52.11-7.03.27-10.55.12-2.9.28-5.79.49-8.68.54-7.55,1.36-15.07,2.46-22.55.69-4.68,1.5-9.35,2.45-14,.54-2.66,1.13-5.31,1.77-7.95h470.49c6.63,10.12,11.85,21.15,15.55,32.67,1.25,3.89,2.32,7.85,3.22,11.84,1.42,6.33,2.39,12.76,2.89,19.23Z"/>
    <path fill="#35b68e" d="m504.96,334.64c-.07.58-.15,1.16-.23,1.74-.07.48-.14.97-.22,1.46-1.13,7.39-2.91,14.68-5.3,21.76-.36,1.07-.73,2.14-1.12,3.2-8.52,23.4-23.58,44.45-43.16,59.85H27.4c-.53-1.2-1.02-2.39-1.44-3.51-6.95-18.22-12.11-37.12-15.44-56.34-.19-1.07-.37-2.13-.53-3.2-1.18-7.22-2.09-14.48-2.75-21.76-.1-1.07-.19-2.13-.27-3.2-.71-8.9-1.03-17.82-.96-26.74.03-3.52.11-7.03.27-10.55.12-2.9.28-5.79.49-8.68h495.95c1.42,6.33,2.39,12.76,2.89,19.23.69,8.91.5,17.88-.64,26.74Z"/>
    <path fill="#fff" d="m6.97,334.64h497.99c-.07.58-.15,1.16-.23,1.74-.07.48-.14.97-.22,1.46H7.24c-.1-1.07-.19-2.13-.27-3.2Z"/>
    <path fill="#fff" d="m9.99,359.6h489.23c-.36,1.07-.73,2.14-1.12,3.2H10.52c-.19-1.07-.37-2.13-.53-3.2Z"/>
    <polygon fill="#fff" points="240.84 361.26 240.21 362.79 215.5 422.65 209.18 422.65 236.05 362.79 237.4 359.78 240.84 361.26"/>
  </g>
  <path fill="none" d="m504.96,334.64c-.07.58-.15,1.16-.23,1.74-.07.48-.14.97-.22,1.46-1.13,7.39-2.91,14.68-5.3,21.76-.36,1.07-.73,2.14-1.12,3.2-8.52,23.4-23.58,44.45-43.16,59.85H27.4c-.53-1.2-1.02-2.39-1.44-3.51-6.95-18.22-12.11-37.12-15.44-56.34-.19-1.07-.37-2.13-.53-3.2-1.18-7.22-2.09-14.48-2.75-21.76-.1-1.07-.19-2.13-.27-3.2-.71-8.9-1.03-17.82-.96-26.74.03-3.52.11-7.03.27-10.55.12-2.9.28-5.79.49-8.68.54-7.55,1.36-15.07,2.46-22.55.69-4.68,1.5-9.35,2.45-14,.54-2.66,1.13-5.31,1.77-7.95,2.06-8.5,4.67-16.84,7.99-24.88.13-.33.27-.66.41-.99,2.42-5.75,5.21-11.34,8.43-16.7.11-.19.23-.38.35-.58,1.16-1.91,2.38-3.78,3.66-5.62,1.8-2.58,3.7-5.1,5.73-7.52.58-.7,1.16-1.39,1.77-2.07,9.17-10.46,20.42-19.08,33.15-24.32,2.65-1.09,5.36-2.03,8.13-2.82,11.96-3.39,24.36-3.72,36.85-3.55,10.5.13,21.07.62,31.5-.06,1.35-.09,2.71-.2,4.05-.33,1.91-.18,3.82-.42,5.73-.71,1.39-.21,2.78-.45,4.17-.73,13.18-2.63,25.22-8.13,36.81-14.85,11.35-6.57,22.27-14.32,33.39-21.68.15-.1.3-.19.45-.29,2.25-1.49,4.52-2.96,6.8-4.4,9.54-6.03,19.33-11.54,29.77-15.57,36.17-13.96,78.79-6.78,110.21,15.57,1.98,1.4,3.92,2.87,5.8,4.4,3.23,2.61,6.32,5.4,9.24,8.35,1.99,2.01,3.9,4.09,5.73,6.25,3.47,4.09,6.63,8.44,9.44,13.05,8.66,14.18,14.22,30.11,23.37,43.97.05.09.11.17.17.25,8.46,12.74,19.72,23.27,30.19,34.46,3.68,3.93,7.26,7.93,10.59,12.15,2.35,2.97,4.57,6.05,6.64,9.21,6.63,10.12,11.85,21.15,15.55,32.67,1.25,3.89,2.32,7.85,3.22,11.84,1.42,6.33,2.39,12.76,2.89,19.23.69,8.91.5,17.88-.64,26.74Z"/>
  <g>
    <g opacity=".31">
      <ellipse cx="129" cy="389.88" fill="#144355" rx="83.91" ry="11.86"/>
    </g>
    <path fill="#ffab96" d="m213.71,278.04l-10.98-6.51.93-31.99-2.92-5.59-5.82-11.15,14.93-8.74s1.86,3.05,3.97,7.06c2.63,5.01,5.63,11.52,5.84,15.45.37,7.07-5.95,41.48-5.95,41.48Z"/>
    <g opacity=".45">
      <path fill="#eb8366" d="m213.82,221.12c-3.96,2.94-9.75,9.14-13.07,12.83l-5.82-11.15,14.93-8.74s1.86,3.05,3.97,7.06Z"/>
    </g>
    <path fill="#ec773f" d="m215.01,217.96s-7.81,5.78-14.59,8.81c-2.4,1.07-4.67,1.8-6.43,1.8l-11.12-19-1.62-2.76,7.4-19.24,2.61-6.8s15.01,17.11,23.75,37.2Z"/>
    <g opacity=".1">
      <path fill="#200e10" d="m200.42,226.77c-2.4,1.07-4.67,1.8-6.43,1.8l-11.12-19,5.78-22s6.64,16.48,6.27,23.54c-.29,5.5,3.72,12.75,5.5,15.67Z"/>
    </g>
    <path fill="#200e10" d="m176.32,303.34s21.95-.93,31.25-11.16c0,0-19.35-8.18-31.25,11.16Z"/>
    <path fill="#ffab96" d="m127.3,298.32s-9.77,10.6-12.74,16.37c-.4.77-1.03,1.86-1.83,3.17-5.23,8.56-17.78,26.78-20.68,29.2-1.76,1.47-5.48,6.9-8.61,11.71-2.82,4.34-5.16,8.19-5.16,8.19-4.65,2.6-16.18-2.23-16.18-2.23,1.21-1.54,3.89-6.35,7.12-12.53,7.71-14.71,18.63-37.15,20.59-41.6,1.25-2.83,3.8-6.67,6.24-10.05,3.01-4.16,5.85-7.62,5.85-7.62l25.39,5.39Z"/>
    <path fill="#eb8366" d="m127.3,298.32s-9.77,10.6-12.74,16.37c-.4.77-1.03,1.86-1.83,3.17-5.2-6.32-12.11-13.06-16.67-17.31,3.01-4.16,5.85-7.62,5.85-7.62l25.39,5.39Z"/>
    <path fill="#ffab96" d="m209.62,309.16c-1.33,6.61-10.18,31.45-15.09,46.74-1.97,6.12-3.3,10.71-3.26,11.98,0,0-10.67,2.6-16.43-2.98,0,0,1.71-5.74,2.97-10.8.73-2.94,1.31-5.64,1.31-6.87,0-3.35,1.49-25.86,7.07-35.34l-5.41-8.07-5.93-8.85,26.79-6.88s6.79,8.14,8.04,16.2c.26,1.65.28,3.3-.04,4.87Z"/>
    <path fill="#eb8366" d="m209.65,304.29c-9.29-2.69-24.41-1.04-28.89-.46l-5.93-8.85,26.79-6.88s6.79,8.14,8.04,16.2Z"/>
    <path fill="#0f2b44" d="m207.57,292.18c-9.11-2.05-31.25,11.16-31.25,11.16l-18.6-24.93c-.48-.07-1.77,1.1-3.53,3.02-7.08,7.74-21.77,27.67-21.77,27.67-10.97,1.12-33.85-15.81-33.85-15.81l31.44-44.09,53.38-2.82,24.18,45.79Z"/>
    <path fill="#f0f6f7" d="m194.52,355.9c-1.97,6.12-3.3,10.71-3.26,11.98,0,0-10.67,2.6-16.43-2.98,0,0,1.71-5.74,2.97-10.8,3.31,1.15,11.45,3.59,16.72,1.79Z"/>
    <path fill="#f0f6f7" d="m83.45,358.77c-2.82,4.34-4.94,10.42-4.94,10.42-4.65,2.6-16.4-4.46-16.4-4.46,1.21-1.54,3.89-6.35,7.12-12.53,2.96,2.09,8.87,5.83,14.22,6.57Z"/>
    <g>
      <path fill="#21426b" d="m217.73,388.72c-5.97,3.98-27.39.61-30.75-1.53s-12.24-.15-16.98-3.37c-1.38-.94-1.5-3.15-.98-5.81,1.26-6.47,6.33-15.61,6.33-15.61-.32,5.05,8.73,5.85,8.73,5.85,2.91-7.62,9.51-4.64,9.47-4.47,0,.2,11.81,10.57,16.9,12.71,3.35,1.41,8.03,4.54,9.14,7.65.58,1.62.19,3.23-1.85,4.59Z"/>
      <path fill="#f0f6f7" d="m217.73,388.72c-5.97,3.98-27.39.61-30.75-1.53s-12.24-.15-16.98-3.37c-1.38-.94-1.5-3.15-.98-5.81,3.56,1.35,12.22,4.57,17.81,6.11,7.19,1.99,28.79,4.74,32.76,0,.58,1.62.19,3.23-1.85,4.59Z"/>
      <g>
        <path fill="#f0f6f7" d="m191.26,376.4c-.1,0-.2-.02-.29-.08-.29-.16-.4-.53-.24-.83.03-.06,3.49-6.14,11.38-5.16.33.04.57.35.53.68-.04.33-.35.57-.68.53-7.06-.88-10.05,4.32-10.17,4.54-.11.2-.32.31-.53.31Z"/>
        <path fill="#f0f6f7" d="m196.65,377.94c-.2,0-.39-.09-.51-.27-.19-.28-.11-.66.17-.84,1.27-.85,7.7-5.01,9.91-3.54.28.19.36.56.17.84-.19.28-.56.36-.84.17-1.02-.67-5.24,1.32-8.56,3.54-.1.07-.22.1-.34.1Z"/>
        <path fill="#f0f6f7" d="m203.48,380.17c-.16,0-.32-.06-.44-.19-.23-.24-.22-.63.03-.86.5-.47,4.94-4.53,7.65-3.18.3.15.42.51.27.82-.15.3-.51.42-.82.27-1.48-.73-4.63,1.44-6.27,2.98-.12.11-.27.16-.42.16Z"/>
      </g>
    </g>
    <path fill="#ec773f" d="m191.26,180.76s-2.02,28.46-2.02,36.83-3.07,34.32-3.07,34.32c-21.21,18.97-58.87,0-58.87,0,0,0,1.12-6.1,2.38-13.49,1.62-9.5,3.47-21.13,3.47-24.74,0-2-.16-6.11-.34-10.9-.38-10.55-.82-24.46.34-26.77,1.31-2.63,17.14-4.83,23.89-5.66,1.85-.23,3.02-.35,3.02-.35l9.72,3.1c1.85.13,3.83.54,5.9,1.14,4.85,1.41,10.18,3.9,15.57,6.51Z"/>
    <path fill="#f0f6f7" d="m167.34,188.74c-8.18-1.13-10.03-15.9-10.29-18.38,1.85-.23,3.02-.35,3.02-.35l9.72,3.1c1.85.13,3.83.54,5.9,1.14,0,0,.58,15.72-8.35,14.48Z"/>
    <g opacity=".1">
      <path fill="#200e10" d="m129.69,238.42c1.62-9.5,3.47-21.13,3.47-24.74,0-2-.16-6.11-.34-10.9,2.37-2,5.11-3.1,8.2-2.81,0,0-3.72,30-11.33,38.44Z"/>
    </g>
    <g opacity=".21">
      <path fill="#200e10" d="m157.72,278.41c-.48-.07-1.77,1.1-3.53,3.02l-6.33-8.23,9.86,5.21Z"/>
    </g>
    <path fill="#ffab96" d="m121.54,208.1l-.53.4-12.3,9.28-4.19,3.16-16.93,31.62-11.72-4.46s10.6-29.39,14.51-36.65c3.1-5.77,12.09-12.35,15.64-14.81.25-.17.47-.32.66-.45.52-.35.81-.54.81-.54l.79.7,11.66,10.35,1.59,1.41Z"/>
    <g opacity=".45">
      <path fill="#eb8366" d="m121.01,208.5l-12.3,9.28c-.59-7.6-2.29-18.62-2.69-21.14-.05-.34-.08-.53-.08-.53l.74.08,1.61.16,5.94.6,5.72,9.75,1.06,1.81Z"/>
    </g>
    <g>
      <path fill="#ffab96" d="m202.78,270.03s-5.53,7.45-6.27,9.31-4.28,5.95-3.72,6.6,3.26,2.14,7.07-2.23c0,0,1.12-1.95,1.86-.84.74,1.12.84,3.12,1.07,5.58.23,2.46-1.62,10.14-.42,11.63s2.79.47,2.79.47c0,0,.74,2.85,3.81.77,0,0,1.49,1.83,3.26-.96,0,0,1.4.74,2.79-2.42,1.4-3.16,1.74-20-.43-24.74-2.17-4.74-11.8-3.17-11.8-3.17Z"/>
      <path fill="#eb8366" d="m205.32,300.66l-.33-.22c1.99-2.99,2.38-14.4,2.39-14.51h.4c-.02.49-.4,11.65-2.45,14.73Z"/>
      <path fill="#eb8366" d="m209.13,301.44l-.33-.23c1.35-1.95,1.73-14.12,1.73-14.24h.4c-.02.52-.39,12.43-1.8,14.47Z"/>
      <path fill="#eb8366" d="m212.41,300.43l-.38-.13c.64-1.91,1.38-12.12,1.39-12.23l.4.03c-.03.42-.75,10.37-1.41,12.32Z"/>
    </g>
    <path fill="#21426b" d="m79.69,366.22s-.61,5.75-1.18,9.58c-.19,1.32-.38,2.41-.54,2.97-.62,2.17-1.55,6.35-8.83,10.85-7.28,4.49-13.33,3.1-20.77.94-2.53-.73-3.39-2.47-3.27-4.57.23-4.07,4.18-9.46,6.84-11.41,3.07-2.24,7.85-9.07,9.95-12.19.78-1.16,1.97-2,3.33-2.33,9.42-2.29,10.9,7.84,10.9,7.84,1.09-.04,3.57-1.68,3.57-1.68Z"/>
    <g>
      <path fill="#f0f6f7" d="m71.92,374.27c-.27,0-.52-.15-.64-.4-2.58-5.43-12.37-6.48-12.47-6.49-.39-.04-.67-.39-.64-.78.04-.39.39-.68.78-.64.43.04,10.68,1.14,13.61,7.29.17.35.02.78-.34.95-.1.05-.2.07-.3.07Z"/>
      <path fill="#f0f6f7" d="m68.01,377.62c-.27,0-.53-.16-.65-.42-2.19-4.89-11.15-6.37-11.24-6.38-.39-.06-.65-.43-.59-.81.06-.39.42-.65.81-.59.4.06,9.82,1.61,12.32,7.2.16.36,0,.78-.36.94-.09.04-.19.06-.29.06Z"/>
      <path fill="#f0f6f7" d="m63.55,379.71c-.27,0-.53-.16-.65-.43-1.77-4.04-9.73-5.06-9.81-5.07-.39-.05-.67-.4-.62-.79.05-.39.4-.67.79-.62.36.04,8.85,1.13,10.94,5.91.16.36,0,.78-.37.93-.09.04-.19.06-.28.06Z"/>
    </g>
    <path fill="#f0f6f7" d="m78.51,375.79c-.19,1.32-.38,2.41-.54,2.97-.62,2.17-1.55,6.35-8.83,10.85-7.28,4.49-13.33,3.1-20.77.94-2.53-.73-3.39-2.47-3.27-4.57,3.57,1.69,12.12,5.03,18.93,1.92,6.65-3.03,12.17-9.23,14.49-12.11Z"/>
    <g>
      <path fill="#200e10" d="m158.73,142.17h0c-2.5,2.85-2.96,7.04-1.95,10.76.22.85.58,1.74.87,2.6.58,1.45,1.32,2.87,2.08,4.22.89,1.74,1.95,3.66,3.04,5.92,3.12-1.53,6.16-3.02,9.28-4.56,1.99-.97,4.04-2.72,6.19-3.44,2.96-.93,6.61-1.1,9.45-2.42,1.55-.73,2.91-1.88,3.7-3.68.54-1.15.41-2.62-.56-3.46-.61-.52-1.45-.75-1.95-1.39-.33-.45-.41-.97-.56-1.52-.12-.39-.22-.85-.41-1.26h0c.02-.07-.05-.08-.03-.15-.08-.53-.3-1.09-.6-1.67-1.1-2.31-2.78-4.41-5.24-5.58-2.74-1.24-5.92-1.44-8.9-.95-2.99.49-5.77,1.62-8.5,2.82-2.13.94-4.37,1.99-5.9,3.74h0Z"/>
      <g>
        <path fill="#ffbbae" d="m159.72,171.09c-.29,1.03-.44,2.06-.28,3.03.55,3.33,2.11,6.5,4.45,8.95.72.76,1.54,1.46,2.5,1.87,2.1.9,5.66.31,6.6-1.93,1.01-2.4.21-5.28,1.22-7.6l.88-2.02,1.75-4.4.42-1.12.55-1.45.95-2.43-6.99-3.25-5.92-2.69-.74-.35-.39.92-.57,1.52-1.46,3.61-.29.79s-.64,1.5-.64,1.51c-.62,1.56-1.55,3.33-2.05,5.07Z"/>
        <path fill="#ff8389" d="m176.94,170.23c-3.41-4.01-8.77-9.61-11.57-10.1l-1.74,2.74c.07.53-.04,1.15.23,1.74,5.81,13.43,10.84,9.8,10.84,9.8l2.24-4.18h0Z"/>
      </g>
      <path fill="#200e10" d="m186.95,141.95c-1.01.95-2.57,2.26-3.66,2.4,0,0,2.04,6.87,3.5,10.86.18-.1.41-.11.56-.14,1.55-.73,2.91-1.88,3.7-3.68,1.01-2.15-.94-3.81-2.16-5.49-.94-1.3-1.26-2.58-1.95-3.95h0Z"/>
      <path fill="#ffbbae" d="m158.57,159.02c.97,1.41,2.64,2.72,4.28,3.59,0,0,3.29,9.72,12.52,10.83,6.61.84,10.49-5.45,11.71-10.73,1.52-6.71,2.97-15.59-3.12-20.82-3.05-2.61-7.47-3.73-11.41-2.77-4.55,1.01-8.03,4.39-11.3,7.6-1.05,1.09-2.16,2.15-2.82,3.48-.47.88-.67,1.91-.56,2.87.14,1.12.16,1.34.05,2.31-.23,1.38-.13,2.41.67,3.63h0Z"/>
      <path fill="#121136" d="m176.77,157c-.32.63-1.15.91-1.81.59-.66-.32-.97-1.12-.65-1.76s1.15-.91,1.81-.59c.66.32.97,1.12.65,1.76Z"/>
      <g>
        <path fill="#071b38" d="m176.77,157c-.32.63-1.15.91-1.81.59-.66-.32-.97-1.12-.65-1.76s1.15-.91,1.81-.59c.66.32.97,1.12.65,1.76Z"/>
        <path fill="#fff" d="m175.63,156.48c-.16.32-.49.44-.83.28-.33-.16-.47-.49-.31-.8.16-.32.49-.44.83-.28.33.16.45.55.31.8Z"/>
      </g>
      <g>
        <path fill="#071b38" d="m186.23,159.47c-.32.63-1.15.91-1.81.59-.66-.32-.97-1.12-.65-1.76s1.15-.91,1.81-.59c.66.32.97,1.12.65,1.76Z"/>
        <path fill="#fff" d="m185.1,158.95c-.16.32-.49.44-.83.28-.33-.16-.47-.49-.31-.8.16-.32.49-.44.83-.28.33.16.47.49.31.8Z"/>
      </g>
      <path fill="#200e10" d="m156.76,145.86h0c-.7,2.3-.58,4.75.02,7.07.22.85.58,1.74.87,2.6.05.09.08.24.14.33.09-.62.42-1.25.9-1.91,1.62-2.08,3.67-1.6,5.17.31.73.92.93,1.83,1.48,2.84.4.75,2,2.33,2,.39,0-.79-.23-1.93-.03-2.67.16-.6.6-.84.91-1.41,1.27-2.15-.83-5.71,2.91-6.47,1.66-.34,3.32.52,4.83,1.29s3.29,1.5,4.87.91c2.39-.9,2.68-6.44,6.01-3.75.8.64,1.32,1.5,1.99,2.33.59.72,1.45,1.57,2.45,1.56.3-2.93.18-5.04-1.59-7.66-1.29-1.92-2.41-3.24-4.06-4.79-1.31-1.23-3.62-2.07-5.45-2.19-2-.14-3.87-.97-5.92-.93-2.77.05-4.63,2.03-7.25,2.35-.87.11-1.77-.05-2.65.03-1.21.11-2.36.69-3.13,1.58-.64.73-.6,1.57-.97,2.4-.92,2.11-2.83,3.49-3.52,5.79h0Z"/>
      <g>
        <path fill="#f9b08e" d="m160.99,155.93h0c.32-.35.69-.61,1.13-.85-.49.16-.93.4-1.31.66-.39.33-.71.67-.85,1.21-.13.47-.04,1,.21,1.42.26.43.61.81.97,1.12-.28-.36-.63-.74-.81-1.15s-.22-.85-.09-1.32c.11-.4.44-.82.75-1.09h0Z"/>
        <path fill="#f9b08e" d="m162.27,157.28h0l.77.49c-.17-.19-.42-.4-.66-.61-.24-.21-.51-.35-.79-.43-.26-.14-.61-.24-.93-.18-.16.03-.34.13-.44.24s-.14.25-.11.4c.03-.14.14-.25.25-.36.11-.12.19-.16.34-.13.23-.01.51.06.77.21.26.14.54.22.8.36h0Z"/>
      </g>
      <path fill="#200e10" d="m172.22,153.84q.07.02.14.04c.07.02.16-.03.25-.08.9-.84,1.78-1.32,2.75-1.27,1.42.02,2.36.99,2.43,1.01.12.11.26.14.37.03.02-.07.05-.2-.07-.31-.07-.02-1.11-1.16-2.76-1.17-1.12-.01-2.14.43-3.08,1.4-.1.12-.07.27-.02.35h0Z"/>
      <path fill="#200e10" d="m183.22,155.07h0c-.14-.04-.07-.02,0,0s.14.04.23-.01c1.22-.9,2.21-1.21,3.11-.96h0c1.12.3,1.57,1.42,1.57,1.42.03.15.17.19.33.16.16-.03.19-.16.16-.32.02-.07-.55-1.3-1.86-1.72-1.05-.28-2.19.06-3.52,1.07-.1.12-.14.25-.02.35h0Z"/>
      <g>
        <path fill="#ff8389" d="m181.62,157.51h0c.27-.39.44-.73.69-1.04-.25.32-.49.64-.67.97-.17.34-.27.7-.39,1.12-.12.74-.11,1.58.09,2.33.13.42.27.76.34,1.09.07.33.12.72-.12,1.04-.15.27-.53.47-.94.51-.34.06-.81.01-1.2-.01.37.1.77.13,1.18.09s.79-.25,1.11-.55c.25-.32.29-.77.16-1.18-.05-.4-.27-.76-.34-1.09-.2-.74-.25-1.45-.2-2.2.02-.38.12-.73.29-1.07h0Z"/>
        <path fill="#ff8389" d="m178.59,163.37c-.09-.26-.37-.41-.57-.54-.3-.08-.52-.14-.81.01.3.08.52.14.73.27.22.06.43.19.65.25Z"/>
      </g>
      <g>
        <path fill="#ff8389" d="m181.5,166.56c-1.31.36-2.72.31-4.06.09-.68-.13-1.34-.29-1.98-.54-.65-.23-1.26-.54-1.83-.9,1.32.34,2.6.68,3.91.9.65.13,1.31.21,1.97.28.66.07,1.33.14,2.01.16h0Z"/>
        <path fill="#ff8389" d="m179.21,167.92c-.35.2-.7.23-1.05.23-.35-.02-.69-.08-1.04-.31.35-.2.7-.24,1.05-.23.35.02.69.08,1.04.31h0Z"/>
      </g>
    </g>
    <path fill="#ec773f" d="m135.21,174.62l-30.69,19.53s3.93,19.91,14.26,21.02l22.25-11.54-5.81-29.02Z"/>
    <g>
      <path fill="#244c77" d="m129.44,334.42c11.33-8.38,15.55-21.76,7.17-33.09-4.94-6.68-13.52-11.57-22.05-12.74l-19.27-5.98-.28-.08-2.9-.9c-.57-.18-1.19-.07-1.67.29s-.76.92-.76,1.51v3.03s0,.29,0,.29l.08,20.18c-1.37,8.5.8,18.13,5.74,24.8,8.38,11.33,22.59,11.08,33.91,2.7h0Zm-28.59-10.01c-.4-.54-.29-1.31.26-1.71s1.31-.29,1.71.26.29,1.31-.26,1.71-1.31.29-1.71-.25h0s0,0,0,0Zm5,.93c-.4-.54-.29-1.31.26-1.71s1.31-.29,1.71.25.29,1.31-.26,1.71c-.54.4-1.31.29-1.71-.26h0Zm.58-6.58c.54-.4,1.31-.29,1.71.26s.29,1.31-.26,1.71-1.31.29-1.71-.26-.29-1.31.26-1.71Zm-4.81-4.45c-.4-.54-.29-1.31.26-1.71s1.31-.29,1.71.26.29,1.31-.26,1.71-1.31.29-1.71-.26Zm9.12,10.28c.54-.4,1.31-.29,1.71.26s.29,1.31-.26,1.71-1.31.29-1.71-.26-.29-1.31.26-1.71Zm-2.66-9.16c-.54.4-1.31.29-1.71-.26s-.29-1.31.26-1.71,1.31-.29,1.71.25.29,1.31-.26,1.71h0s0,0,0,0Zm4.94,4.62c.4.54.29,1.31-.26,1.71s-1.31.29-1.71-.26c-.4-.54-.29-1.31.26-1.71s1.31-.29,1.71.25h0Zm-9.45-10.44c-.54.4-1.31.29-1.71-.26s-.29-1.31.25-1.71,1.31-.29,1.71.26.29,1.31-.26,1.71h0Zm12,16.21c.54-.4,1.31-.29,1.71.26s.29,1.31-.26,1.71-1.31.29-1.71-.26-.29-1.31.25-1.71h0Zm-7.17-14.99c-.54.4-1.31.29-1.71-.25s-.29-1.31.26-1.71,1.31-.29,1.71.26.29,1.31-.26,1.71h0s0,0,0,0Zm5.08,4.26c.4.54.29,1.31-.26,1.71s-1.31.29-1.71-.26c-.4-.54-.29-1.31.26-1.71s1.31-.29,1.71.26Zm2.34,5.76c.54-.4,1.31-.29,1.71.26s.29,1.31-.26,1.71-1.31.29-1.71-.25c-.4-.54-.29-1.31.26-1.71h0s0,0,0,0Zm4.27,3.15c-.4-.54-.29-1.31.25-1.71s1.31-.29,1.71.26.29,1.31-.26,1.71-1.31.29-1.71-.26Zm-6.93-12.3c-.54.4-1.31.29-1.71-.26s-.29-1.31.26-1.71,1.31-.29,1.71.25.29,1.31-.26,1.71h0s0,0,0,0Zm4.94,4.62c.4.54.29,1.31-.26,1.71s-1.31.29-1.71-.26-.29-1.31.26-1.71,1.31-.29,1.71.25h0Zm-9.74-10.23c-.54.4-1.31.29-1.71-.26s-.29-1.31.25-1.71,1.31-.29,1.71.26.29,1.31-.26,1.71Zm14.26,8.41c-.54.4-1.31.29-1.71-.26-.41-.55-.29-1.31.26-1.71s1.31-.29,1.71.26.29,1.31-.25,1.71h0Zm4.21,4.53c.4.54.29,1.31-.26,1.71s-1.31.29-1.71-.26-.29-1.31.25-1.71,1.31-.29,1.71.26h0Zm-8.9-10.85c-.54.4-1.31.29-1.71-.25s-.29-1.31.26-1.71,1.31-.29,1.71.26.29,1.31-.26,1.71h0s0,0,0,0Zm-4.8-5.61c-.54.4-1.31.29-1.71-.26s-.29-1.31.25-1.71,1.31-.29,1.71.26c.4.54.29,1.31-.26,1.71h0Zm5.42,8.79c.4.54.29,1.31-.26,1.71s-1.31.29-1.71-.26-.29-1.31.26-1.71,1.31-.29,1.71.26Zm-5.36-4.04c-.54.4-1.31.29-1.71-.26s-.29-1.31.26-1.71,1.31-.29,1.71.26c.4.54.29,1.31-.26,1.71Zm7.42,10.02c.54-.4,1.31-.29,1.71.26s.29,1.31-.26,1.71-1.31.29-1.71-.26c-.4-.54-.29-1.31.26-1.71Zm-2.65-13.55c-.54.4-1.31.29-1.71-.26s-.29-1.31.26-1.71,1.31-.29,1.71.26.29,1.31-.26,1.71Zm5.36,4.04c.4.54.29,1.31-.26,1.71s-1.31.29-1.71-.26-.29-1.31.26-1.71,1.31-.29,1.71.26Zm2.05,5.98c.54-.4,1.31-.29,1.71.26s.29,1.31-.26,1.71-1.31.29-1.71-.26-.29-1.31.26-1.71Zm.31-3.09c-.4-.54-.29-1.31.26-1.71s1.31-.29,1.71.26.29,1.31-.25,1.71-1.31.29-1.71-.26h0Zm2.15-4.71c-.54.4-1.31.29-1.71-.26s-.29-1.31.26-1.71,1.31-.29,1.71.25.29,1.31-.26,1.71h0s0,0,0,0Zm-5.12-1.36c-.54.4-1.31.29-1.71-.26-.4-.54-.29-1.31.26-1.71s1.31-.29,1.71.26c.4.54.29,1.31-.26,1.71Zm-21.25,12.69c.54-.4,1.31-.29,1.71.25s.29,1.31-.26,1.71-1.31.29-1.71-.26-.29-1.31.26-1.71h0s0,0,0,0Zm-7.97-30.78v-.58s.55.17.55.17l10.04,3.12c-2.13.63-4.15,1.6-5.98,2.95-1.83,1.35-3.34,3-4.57,4.85l-.05-10.52h0s0,0,0,0Z"/>
      <rect width="6.95" height="34.57" x="79.98" y="255.14" fill="#21426b" transform="rotate(-36.5 83.44 272.394)"/>
      <rect width="9.3" height="22.72" x="73.34" y="253.68" fill="#d23838" rx="4.06" ry="4.06" transform="rotate(-36.5 77.973 265.01)"/>
      <path fill="#21426b" d="m78.11,255.22h0c1.16,1.57.83,3.78-.74,4.94l-3.87,2.86c-1.57,1.16-3.78.83-4.94-.74h0c-1.16-1.57-.83-3.78.74-4.94l3.87-2.86c1.57-1.16,3.78-.83,4.94.74Z"/>
      <path fill="#d23838" d="m94.61,282.93l-4.37,3.23c-.86.63-2.07.45-2.7-.41h0c-.63-.86-.45-2.07.41-2.7l4.37-3.23c.86-.63,2.07-.45,2.7.41h0c.63.86.45,2.07-.41,2.7Z"/>
      <g opacity=".21">
        <path fill="#200e10" d="m127.53,331.83c9.92-7.34,13.84-18.68,6.5-28.6-7.34-9.92-24.13-15.8-34.05-8.46-9.92,7.34-9.2,25.12-1.87,35.03,7.34,9.92,19.5,9.36,29.42,2.03Zm-9.71-13.83c-.54.4-1.31.29-1.71-.26s-.29-1.31.26-1.71,1.31-.29,1.71.25.29,1.31-.26,1.71h0Zm8.73,2.7c-.54.4-1.31.29-1.71-.26s-.29-1.31.25-1.71,1.31-.29,1.71.26.29,1.31-.26,1.71h0Zm-3.96-6.23c-.54.4-1.31.29-1.71-.26-.41-.55-.29-1.31.26-1.71s1.31-.29,1.71.26.29,1.31-.25,1.71Zm3.76-10.46c.54-.4,1.31-.29,1.71.25s.29,1.31-.26,1.71-1.31.29-1.71-.26-.29-1.31.26-1.71h0s0,0,0,0Zm-5.12-1.36c.54-.4,1.31-.29,1.71.26.4.54.29,1.31-.26,1.71s-1.31.29-1.71-.26c-.4-.54-.29-1.31.26-1.71Zm4.68,6.33c.54-.4,1.31-.29,1.71.26s.29,1.31-.25,1.71-1.31.29-1.71-.26-.29-1.31.26-1.71h0Zm-2.62-1.18c.4.54.29,1.31-.26,1.71s-1.31.29-1.71-.26-.29-1.31.26-1.71,1.31-.29,1.71.26Zm-6.82-6.01c.54-.4,1.31-.29,1.71.26s.29,1.31-.26,1.71-1.31.29-1.71-.26-.29-1.31.26-1.71Zm8.87,11.99c.54-.4,1.31-.29,1.71.26s.29,1.31-.26,1.71-1.31.29-1.71-.26-.29-1.31.26-1.71Zm-7.17-7.34c.4.54.29,1.31-.26,1.71s-1.31.29-1.71-.25-.29-1.31.26-1.71,1.31-.29,1.71.26h0s0,0,0,0Zm-6.51-5.87c.54-.4,1.31-.29,1.71.26s.29,1.31-.26,1.71-1.31.29-1.71-.26-.29-1.31.25-1.71h0Zm6.87,10.76c.4.54.29,1.31-.26,1.71s-1.31.29-1.71-.26-.29-1.31.26-1.71,1.31-.29,1.71.26Zm-6.82-6.01c.54-.4,1.31-.29,1.71.26s.29,1.31-.26,1.71-1.31.29-1.71-.26-.29-1.31.26-1.71Zm8.87,11.99c.54-.4,1.31-.29,1.71.26s.29,1.31-.26,1.71-1.31.29-1.71-.26c-.4-.54-.29-1.31.26-1.71Zm-7.17-7.34c.4.54.29,1.31-.26,1.71s-1.31.29-1.71-.26-.29-1.31.26-1.71,1.31-.29,1.71.25h0s0,0,0,0Zm-6.51-5.87c.54-.4,1.31-.29,1.71.26s.29,1.31-.26,1.71-1.31.29-1.71-.26-.29-1.31.25-1.71Zm13.44,18.17c.54-.4,1.31-.29,1.71.26s.29,1.31-.26,1.71-1.31.29-1.71-.26-.29-1.31.25-1.71h0Zm-13.4-13.42c.54-.4,1.31-.29,1.71.26s.29,1.31-.26,1.71-1.31.29-1.71-.25-.29-1.31.26-1.71h0s0,0,0,0Zm6.53,6.22c.4.54.29,1.31-.26,1.71s-1.31.29-1.71-.26-.29-1.31.26-1.71,1.31-.29,1.71.26Zm2.34,5.76c.54-.4,1.31-.29,1.71.26s.29,1.31-.26,1.71-1.31.29-1.71-.25c-.4-.54-.29-1.31.26-1.71h0s0,0,0,0Zm-7.72-5.42c-.54.4-1.31.29-1.71-.26s-.29-1.31.26-1.71,1.31-.29,1.71.25.29,1.31-.26,1.71h0s0,0,0,0Zm4.94,4.62c.4.54.29,1.31-.26,1.71s-1.31.29-1.71-.26-.29-1.31.26-1.71,1.31-.29,1.71.25h0Zm-10.91-12.4c.54-.4,1.31-.29,1.71.26s.29,1.31-.26,1.71-1.31.29-1.71-.26-.29-1.31.25-1.71h0Zm13.45,18.17c.54-.4,1.31-.29,1.71.26s.29,1.31-.26,1.71-1.31.29-1.71-.26-.29-1.31.25-1.71h0Zm-13.68-13.2c.54-.4,1.31-.29,1.71.26s.29,1.31-.26,1.71-1.31.29-1.71-.26-.29-1.31.26-1.71Zm4.56,6.16c.54-.4,1.31-.29,1.71.26s.29,1.31-.26,1.71-1.31.29-1.71-.26-.29-1.31.26-1.71Zm4.31,5.82c.54-.4,1.31-.29,1.71.26s.29,1.31-.26,1.71-1.31.29-1.71-.26-.29-1.31.26-1.71Zm-9.31-7.28c.54-.4,1.31-.29,1.71.25s.29,1.31-.26,1.71-1.31.29-1.71-.26-.29-1.31.26-1.71h0s0,0,0,0Zm4.68,6.33c.54-.4,1.31-.29,1.71.25s.29,1.31-.26,1.71c-.54.4-1.31.29-1.71-.26s-.29-1.31.26-1.71h0Zm-4.99-.94c.54-.4,1.31-.29,1.71.26s.29,1.31-.26,1.71-1.31.29-1.71-.25-.29-1.31.26-1.71h0s0,0,0,0Z"/>
      </g>
    </g>
    <g>
      <path fill="#ffab96" d="m76.62,246.05s-7.72,6.42-9.02,10.51c-1.3,4.09-.74,8.28,1.12,9.67,1.07.8,1.56,2.68,3.03,2.97.14.03,1.63,3.24,1.98,3.63.71.81,1.71,2.42,2.9,2.42,1.86,0,2.7,1.3,2.6,0s-2.33-4.28-1.02-6.51,3.26-4.93,4.37-4.65,3.63,4.56,3.63,4.56c0,0,1.49-2.95,1.77-8.31.28-5.36,0-10.01,0-10.01l-11.35-4.28Z"/>
      <path fill="#eb8366" d="m68.52,266.27c-.28-1.42.7-6.2.74-6.4l.39.08s-1.01,4.91-.74,6.24l-.39.08Z"/>
      <path fill="#eb8366" d="m71.55,269.21c-.03-1.47-.06-8.2-.06-8.27h.4c0,.07.03,6.79.06,8.26h-.4Z"/>
      <path fill="#eb8366" d="m74.28,273.58c-.47-1.82-.02-10.17,0-10.53l.4.02c0,.09-.46,8.65,0,10.41l-.39.1Z"/>
    </g>
  </g>
  <g>
    <g opacity=".31">
      <ellipse cx="395.14" cy="381.35" fill="#144355" rx="77.19" ry="13.02"/>
    </g>
    <g>
      <path fill="#ffab96" d="m453.68,361.84s.85,3.04-.64,0c-.62-1.28-5.86-8.92-12.49-18.48-9.15-13.17-20.96-29.97-27.02-38.72-4.5-6.48-7.42-12.81-9.3-17.92-2.48-6.78-3.12-11.41-3.12-11.41l19.41-10.61,8.21-4.48,1.33,7.74,1.02,5.91,3.86,22.37c7.69,5.05,18.93,29.99,22.84,39.36.61,1.46,1.04,2.54,1.25,3.11,1.58,4.26,7.18,14.24,7.18,14.24-1.46,3.77-12.53,8.88-12.53,8.88Z"/>
      <path fill="#eb8366" d="m431.09,273.88c-5.22,5.06-20.66,10.71-26.86,12.85-2.48-6.78-3.12-11.41-3.12-11.41l19.41-10.61c3.68.86,7.23,1.95,9.54,3.26l1.02,5.91Z"/>
    </g>
    <g>
      <path fill="#ffab96" d="m384.57,272.4l-.21.27-9.23,12.09-11.37,14.9c1.53,6.01-1.58,29.05-3.32,40.72-.62,4.15-1.06,6.86-1.06,6.86v10.59c-2.19,2.92-15.61,1.19-15.61,1.19,0,0-.55-9.43-1.27-20.9-.87-14.01-1.97-31.06-2.59-37.69-.9-9.62,9.26-26.57,13.39-33.01,1.04-1.63,1.7-2.58,1.7-2.58l29.3,7.5.27.07Z"/>
      <path fill="#eb8366" d="m384.35,272.67l-9.23,12.09c-5.17-6.11-18.55-15.18-21.83-17.35,1.04-1.63,1.7-2.58,1.7-2.58l29.3,7.5c.02.12.04.23.06.35Z"/>
    </g>
    <path fill="#f0f6f7" d="m453.68,361.84s.85,3.04-.64,0c-.62-1.28-5.86-8.92-12.49-18.48,4.33-.99,12.28-3.32,17.23-7.75.61,1.46,1.04,2.54,1.25,3.11,1.58,4.26,7.18,14.24,7.18,14.24,4.07,12.24-8.7,14.75-12.53,8.88Z"/>
    <path fill="#f0f6f7" d="m360.44,340.38c-.62,4.15-1.06,6.86-1.06,6.86v10.59c-1.76,13.88-15.2,11.36-15.61,1.19,0,0-.55-9.43-1.27-20.9,4.67,1.06,12.93,2.7,17.93,2.27Z"/>
    <path fill="#ffab96" d="m357.19,208.51s-.44,6.25-1.83,12.74c-.79,3.72-1.89,7.51-3.4,10.26-4.14,7.54-42.71,11.09-42.71,11.09l-3.89-9.76,33.83-11.92,1.59-6.22,2.42-9.48,13.99,3.28Z"/>
    <path fill="#eb8366" d="m357.19,208.51s-.44,6.25-1.83,12.74c-4.23-2.82-10.98-5.32-14.59-6.55l2.42-9.48,13.99,3.28Z"/>
    <path fill="#200e10" d="m376.82,128.34c2.96.38,5.67,2.31,7.01,4.98,1.37,2.74,1.35,6.13,3.21,8.58,2.89,3.82,8.86,3.62,12.46,6.78,3.13,2.75,3.74,7.47,3.04,11.58-.41,2.41-1.18,4.74-1.9,7.07-.32,1.05-.92,5.24-1.94,4.98-.56-.14-1.41-1.54-1.84-1.96-.79-.76-1.64-1.46-2.51-2.12-1.75-1.31-3.66-2.43-5.67-3.31-1.97-.86-4.11-1.55-5.6-3.1-1.61-1.68-2.19-4.1-3.62-5.92-1.26-1.6-3.08-2.64-4.58-4-2.32-2.1-3.84-4.96-4.81-7.93-1.15-3.53-3.55-11.3.32-14.02,1.84-1.3,4.2-1.89,6.44-1.6Z"/>
    <path fill="#d23838" d="m365.22,188.2l-1.91,7.74-4.92,19.88c-1.01.04-2.17-.08-3.42-.29-6.45-1.13-15.06-5.06-15.06-5.06.85-17.16,12.05-34.33,12.05-34.33l13.26,12.06Z"/>
    <g opacity=".15">
      <path fill="#200e10" d="m363.3,195.93l-4.92,19.88c-1.01.04-2.17-.08-3.42-.29.06-.84-.17-1.91-.93-3.36-2.22-4.23-1.92-26.83-1.92-26.83,0,0,6.24,5.9,11.19,10.6Z"/>
    </g>
    <path fill="#21426b" d="m366.44,238.21l-15.28,30.06s22.09,11.8,47.65,11.68c25.55-.12,38.33-12.17,38.33-12.17,0,0-12.9-32.73-22.51-38.21l-48.19,8.64Z"/>
    <g>
      <path fill="#21426b" d="m361.64,375.42c-2.1,4.26-16.55,3.73-21.21,5.06-4.66,1.33-19.45,4.13-23.44-1.2-1.82-2.43-.79-4.72,1.35-6.67,0-.01.02-.02.03-.03.37-.34.77-.66,1.19-.98.02,0,.04-.02.06-.04h0c2.53-1.86,5.89-3.35,8.28-4.26,5.19-2,13.55-10.02,13.55-10.02,5.56-1.36,4.16,3.89,9.09,5.76,4.93,1.86,8.79-5.76,8.79-5.76,0,0,1.94,6.13,2.63,11.5.35,2.71.37,5.21-.33,6.64Z"/>
      <path fill="#f0f6f7" d="m341.63,366.49c-.25,0-.49-.14-.6-.39-.03-.06-1.72-3.7-4.76-3.6-.36,0-.66-.27-.67-.63-.01-.36.27-.66.63-.67,3.93-.15,5.91,4.18,6,4.37.15.33,0,.72-.33.86-.09.04-.18.06-.27.06Z"/>
      <path fill="#f0f6f7" d="m337.9,369.02c-.22,0-.44-.11-.56-.32-.08-.13-1.83-3-5.34-3-.36,0-.65-.29-.65-.65s.29-.65.65-.65h0c4.28,0,6.38,3.5,6.47,3.65.18.31.08.71-.23.89-.1.06-.22.09-.33.09Z"/>
      <path fill="#f0f6f7" d="m361.64,375.42c-2.1,4.26-16.55,3.73-21.21,5.06-4.66,1.33-19.45,4.13-23.44-1.2-1.82-2.43-.79-4.72,1.35-6.67-1.52,1.48-3.05,4.1,3.97,4.94,9.48,1.14,32.74-3,39.65-8.78.35,2.71.37,5.21-.33,6.64Z"/>
    </g>
    <g>
      <path fill="#21426b" d="m474.13,375.35c-4.1,4.36.79,4.1-5.29,11.5-4.44,5.4-13.74,4.96-18.44,4.33-2.64-.36-4.78-2.47-4.98-5.12-.08-1.11.16-2.13.6-3.08h0c1.42-3.12,4.86-5.53,5.47-8.03,1.03-4.23,0-13.22,0-13.22,2.08-4.36,6.77-1.98,10.87-.13,4.1,1.85,3.44-9.52,3.44-9.52,4.95,3.65,8.11,8.61,9.43,13.15,1.22,4.19.86,8.02-1.1,10.11Z"/>
      <path fill="#f0f6f7" d="m451.92,368.47c-.22,0-.43-.11-.55-.31-.19-.3-.1-.7.21-.89,4.48-2.79,8.66-.92,8.84-.84.33.15.47.53.32.86-.15.33-.53.47-.86.32-.16-.07-3.75-1.65-7.61.76-.11.07-.23.1-.34.1Z"/>
      <path fill="#f0f6f7" d="m451.92,372.46c-.26,0-.5-.15-.6-.41-.13-.33.03-.71.36-.84,4.57-1.85,8.32-1.79,8.48-1.79.36,0,.64.3.63.66s-.32.64-.66.64c-.03,0-3.66-.05-7.97,1.69-.08.03-.16.05-.24.05Z"/>
      <path fill="#f0f6f7" d="m474.13,375.35c-4.1,4.36.79,4.1-5.29,11.5-4.44,5.4-13.74,4.96-18.44,4.33-2.64-.36-4.78-2.47-4.98-5.12-.08-1.11.16-2.13.6-3.08,0,.22-.03,6.74,9.07,4.53,9.26-2.24,13.09-5.15,14.01-8.19.93-3.04,3.13-11.77,6.12-14.08h0c1.22,4.19.86,8.02-1.1,10.11Z"/>
    </g>
    <path fill="#d23838" d="m416.45,229.57c-12.9,19.35-51.35,11.43-51.35,11.43,0,0,.57-5.61.54-11.03,0-2.52-.15-5-.54-6.85-1.22-5.84-.85-5.6-6.71-11.56-5.85-5.96-8.26-28.6-7.23-33.58.65-3.17,5.52-6.64,8.98-8.74,1.98-1.21,3.5-1.97,3.5-1.97l13.32-4.78,3.78.57,16,2.38s4.38,12.05,4.5,12.66c.06.31,1.24,6.22,2.5,12.29,1.16,5.62,2.39,11.38,2.86,13.02.45,1.57,2.58,7.25,4.74,12.92.71,1.87,1.43,3.73,2.09,5.45,1.69,4.38,3.02,7.8,3.02,7.8Z"/>
    <path fill="#f0f6f7" d="m380.74,163.05c-.8,2.43-4.32,11.92-10.66,13.46-6.17,1.5-9.17-5.21-9.94-7.28,1.98-1.21,3.5-1.97,3.5-1.97l13.32-4.78,3.78.57Z"/>
    <g opacity=".21">
      <path fill="#200e10" d="m374.47,247.09s14.36,15.33,27.14,18.37"/>
    </g>
    <path fill="#ffab96" d="m428.26,237.14c-1,4.39-1.91,8.1-2.44,10.22-.06.23-.11.45-.16.64-.21.82-.33,1.27-.33,1.27l-7.79-3.12-3.16-1.26v-.14s1.02-10.93,1.02-10.93l2.02-21.91-3.34-3.94-5.43-6.4,12.23-13.38s3.79,4.15,7.17,8.86c1.99,2.77,3.84,5.74,4.69,8.18,1.43,4.12-1.83,20.35-4.47,31.91Z"/>
    <path fill="#eb8366" d="m428.04,197.06c-4.54,2.94-10.54,7.98-13.96,10.93l-5.43-6.4,12.23-13.38s3.79,4.15,7.17,8.86Z"/>
    <g>
      <path fill="#ffab96" d="m426.27,258.07c-.09,5.38-1.54,7.76-3.47,10.5-1.92,2.74-1.94,0-1.94,0,0,0-.43.82-1.25,2.56-.82,1.74-2.74.82-2.74.82-1.46,2.37-2.65,0-2.65,0,0,0-.36,2.01-2.1,1.97-1.74-.03-.06-7.24-.06-7.24l.37-9.61s-2.68,7.18-4.51,5.96c-1.82-1.21.85-6.45,1.18-10.34.21-2.45,2.76-5.42,4.63-7.3.23-.23.45-.44.65-.64.78-.74,1.33-1.19,1.33-1.19l9.55,1.28s.14.98.31,2.5c.02.21.05.44.08.67.31,2.77.67,6.86.62,10.07Z"/>
      <path fill="#eb8366" d="m414.42,271.99l-.38-.1c.81-3.05,1.45-13.54,1.45-13.65l.4.02c-.03.43-.65,10.64-1.47,13.73Z"/>
      <path fill="#eb8366" d="m417.05,272.04l-.34-.2c1.51-2.58,2.52-13.02,2.53-13.12l.4.04c-.04.43-1.03,10.63-2.58,13.29Z"/>
      <path fill="#eb8366" d="m421.04,268.65l-.36-.18c1.22-2.5,2.19-10.17,2.2-10.25l.4.05c-.04.32-.98,7.82-2.23,10.38Z"/>
    </g>
    <g>
      <path fill="#ffab96" d="m306.17,245.97c-1.9.92-3.97,1.86-6.03,1.44-1.86-.38-3.33-1.81-4.45-3.35-1.36-1.86-2.39-4.05-2.4-6.35,0-2.3,1.19-4.69,3.29-5.63,1.24-.55,2.64-.56,3.99-.56,4.39,0,8.78,0,13.17,0,.36,1.76.73,3.51,1.09,5.27.23,1.13,1.31,3.86.55,4.72-.89,1-3.44,1.67-4.67,2.26-.65.32-3.98,2.44-4.53,2.19Z"/>
      <g>
        <path fill="#21426b" d="m261.31,164.99c-12.01,6.39-17.95,18.56-11.56,30.57,3.76,7.08,11.25,12.97,19.23,15.31l17.54,8.46.25.12,2.64,1.27c.52.25,1.12.24,1.63-.03s.86-.77.94-1.33l.42-2.9.04-.28,2.8-19.27c2.52-7.92,1.82-17.42-1.94-24.5-6.39-12.01-19.98-13.8-31.99-7.41Zm25.86,13.64c.31.57.09,1.29-.49,1.59s-1.29.09-1.59-.49-.09-1.29.49-1.59,1.29-.09,1.6.49Zm-4.64-1.61c.31.57.09,1.29-.49,1.59s-1.29.09-1.6-.49c-.31-.58-.09-1.29.49-1.6s1.29-.09,1.59.49Zm-1.49,6.2c-.57.31-1.29.09-1.59-.49s-.09-1.29.49-1.59,1.29-.09,1.59.49.09,1.29-.49,1.59Zm3.96,4.94c.31.57.09,1.29-.49,1.59s-1.29.09-1.59-.49-.09-1.29.49-1.59,1.29-.09,1.59.49Zm-7.24-11.11c-.57.31-1.29.09-1.59-.49s-.09-1.29.49-1.59,1.29-.09,1.59.49.09,1.29-.49,1.59Zm1.24,9.12c.57-.31,1.29-.09,1.59.49s.09,1.29-.49,1.59-1.29.09-1.6-.49-.09-1.29.49-1.59Zm-4.06-5.11c-.31-.58-.09-1.29.49-1.6s1.29-.09,1.59.49.09,1.29-.49,1.59-1.29.09-1.6-.49Zm7.53,11.32c.57-.31,1.29-.09,1.59.49s.09,1.29-.49,1.6-1.29.09-1.59-.49-.09-1.29.49-1.59Zm-9.14-17.18c-.58.31-1.29.09-1.59-.49s-.09-1.29.49-1.59,1.29-.09,1.59.49.09,1.29-.49,1.6Zm4.71,15.33c.58-.31,1.29-.09,1.6.49s.09,1.29-.49,1.59-1.29.09-1.59-.49-.09-1.29.49-1.59Zm-4.24-4.79c-.31-.57-.09-1.29.49-1.59s1.29-.09,1.59.49.09,1.29-.49,1.59-1.29.09-1.59-.49Zm-1.41-5.83c-.57.31-1.29.09-1.59-.49s-.09-1.29.49-1.59,1.29-.09,1.6.49.09,1.29-.49,1.59Zm-3.63-3.61c.31.58.09,1.29-.49,1.6s-1.29.09-1.6-.49-.09-1.29.49-1.59,1.29-.09,1.59.49Zm4.87,12.74c.57-.31,1.29-.09,1.59.49s.09,1.29-.49,1.59-1.29.09-1.6-.49-.09-1.29.49-1.59Zm-4.06-5.11c-.31-.58-.09-1.29.49-1.6s1.29-.09,1.59.49.09,1.29-.49,1.59-1.29.09-1.6-.49Zm7.84,11.15c.57-.31,1.29-.09,1.59.49s.09,1.29-.49,1.6-1.29.09-1.6-.49-.09-1.29.49-1.59Zm-12.41-10.06c.58-.31,1.29-.09,1.6.49s.09,1.29-.49,1.59-1.29.09-1.59-.49-.09-1.29.49-1.6Zm-3.38-4.92c-.31-.57-.09-1.29.49-1.59s1.29-.09,1.59.49.09,1.29-.49,1.6-1.29.09-1.59-.49Zm6.95,11.63c.58-.31,1.29-.09,1.6.49s.09,1.29-.49,1.59-1.29.09-1.59-.49-.09-1.29.49-1.59Zm3.79,6.04c.58-.31,1.29-.09,1.59.49s.09,1.29-.49,1.6-1.29.09-1.59-.49c-.31-.57-.09-1.29.49-1.59Zm-3.92-9.17c-.31-.57-.09-1.29.49-1.59s1.29-.09,1.59.49.09,1.29-.49,1.59-1.29.09-1.59-.49Zm4.55,4.63c.57-.31,1.29-.09,1.59.49s.09,1.29-.49,1.59-1.29.09-1.59-.49-.09-1.29.49-1.59Zm-5.65-10.62c-.57.31-1.29.09-1.59-.49s-.09-1.29.49-1.59,1.29-.09,1.59.49.09,1.29-.49,1.59Zm.59,13.31c.57-.31,1.29-.09,1.59.49s.09,1.29-.49,1.59-1.29.09-1.59-.49-.09-1.29.49-1.59Zm-4.55-4.63c-.31-.57-.09-1.29.49-1.59s1.29-.09,1.59.49.09,1.29-.49,1.59-1.29.09-1.59-.49Zm-1.1-6c-.57.31-1.29.09-1.59-.49s-.09-1.29.49-1.59,1.29-.09,1.59.49.09,1.29-.49,1.59Zm-.74,2.91c.31.57.09,1.29-.49,1.59s-1.29.09-1.59-.49-.09-1.29.49-1.6,1.29-.09,1.59.49Zm-2.73,4.19c.57-.31,1.29-.09,1.59.49s.09,1.29-.49,1.59-1.29.09-1.6-.49-.09-1.29.49-1.59Zm4.7,2.03c.58-.31,1.29-.09,1.59.49s.09,1.29-.49,1.59-1.29.09-1.59-.49-.09-1.29.49-1.59Zm22.09-9.08c-.58.31-1.29.09-1.6-.49s-.09-1.29.49-1.59,1.29-.09,1.59.49.09,1.29-.49,1.59Zm3.22,30.52l-.08.55-.5-.24-9.14-4.41c2.13-.3,4.19-.94,6.13-1.97s3.61-2.38,5.05-3.98l-1.46,10.05Z"/>
        <rect width="6.71" height="33.37" x="293.02" y="214.04" fill="#21426b" transform="rotate(-28 296.42 230.742)"/>
        <rect width="8.98" height="21.93" x="296.05" y="227.59" fill="#35b68e" rx="3.91" ry="3.91" transform="rotate(-28 300.601 238.58)"/>
        <rect width="11.47" height="6.82" x="298.35" y="241.81" fill="#21426b" rx="3.41" ry="3.41" transform="rotate(-28 304.134 245.254)"/>
        <rect width="8.98" height="3.73" x="285.93" y="217.65" fill="#35b68e" rx="1.86" ry="1.86" transform="rotate(-28 290.459 219.542)"/>
        <g opacity=".21">
          <path fill="#200e10" d="m262.76,167.73c-10.51,5.59-15.87,15.86-10.28,26.38,5.59,10.51,20.78,18.52,31.3,12.93,10.51-5.59,12.37-22.66,6.77-33.18-5.59-10.51-17.28-11.72-27.79-6.13Zm7.3,14.59c.57-.31,1.29-.09,1.59.49s.09,1.29-.49,1.59-1.29.09-1.6-.49-.09-1.29.49-1.6Zm-7.95-3.83c.58-.31,1.29-.09,1.59.49s.09,1.29-.49,1.6-1.29.09-1.59-.49-.09-1.29.49-1.59Zm2.89,6.52c.58-.31,1.29-.09,1.6.49s.09,1.29-.49,1.59-1.29.09-1.59-.49-.09-1.29.49-1.6Zm-5.08,9.44c-.58.31-1.29.09-1.6-.49s-.09-1.29.49-1.59,1.29-.09,1.59.49.09,1.29-.49,1.59Zm4.7,2.03c-.57.31-1.29.09-1.59-.49s-.09-1.29.49-1.59,1.29-.09,1.59.49.09,1.29-.49,1.59Zm-3.57-6.71c-.57.31-1.29.09-1.59-.49s-.09-1.29.49-1.6,1.29-.09,1.59.49.09,1.29-.49,1.59Zm2.33,1.5c-.31-.57-.09-1.29.49-1.59s1.29-.09,1.59.49.09,1.29-.49,1.59-1.29.09-1.59-.49Zm5.65,6.71c-.57.31-1.29.09-1.59-.49s-.09-1.29.49-1.59,1.29-.09,1.59.49.09,1.29-.49,1.59Zm-6.76-12.7c-.57.31-1.29.09-1.59-.49s-.09-1.29.49-1.59,1.29-.09,1.59.49.09,1.29-.49,1.59Zm5.8,8.03c-.31-.57-.09-1.29.49-1.59s1.29-.09,1.6.49.09,1.29-.49,1.59-1.29.09-1.59-.49Zm5.38,6.53c-.57.31-1.29.09-1.59-.49-.31-.57-.09-1.29.49-1.59s1.29-.09,1.59.49.09,1.29-.49,1.6Zm-5.02-11.25c-.31-.57-.09-1.29.49-1.59s1.29-.09,1.59.49.09,1.29-.49,1.59-1.29.09-1.59-.49Zm5.65,6.71c-.57.31-1.29.09-1.59-.49s-.09-1.29.49-1.59,1.29-.09,1.59.49.09,1.29-.49,1.59Zm-6.76-12.7c-.57.31-1.29.09-1.59-.49s-.09-1.29.49-1.59,1.29-.09,1.59.49.09,1.29-.49,1.59Zm5.8,8.03c-.31-.57-.09-1.29.49-1.59s1.29-.09,1.59.49.09,1.29-.49,1.59-1.29.09-1.6-.49Zm5.38,6.53c-.58.31-1.29.09-1.6-.49s-.09-1.29.49-1.59,1.29-.09,1.59.49.09,1.29-.49,1.6Zm-10.24-19.26c-.58.31-1.29.09-1.6-.49s-.09-1.29.49-1.59,1.29-.09,1.59.49.09,1.29-.49,1.6Zm10.87,14.72c-.57.31-1.29.09-1.59-.49s-.09-1.29.49-1.59,1.29-.09,1.6.49.09,1.29-.49,1.59Zm-5.35-6.87c-.31-.57-.09-1.29.49-1.59s1.29-.09,1.59.49.09,1.29-.49,1.59-1.29.09-1.59-.49Zm-1.41-5.83c-.57.31-1.29.09-1.59-.49s-.09-1.29.49-1.59,1.29-.09,1.6.49.09,1.29-.49,1.59Zm6.6,6.27c.57-.31,1.29-.09,1.59.49s.09,1.29-.49,1.59-1.29.09-1.6-.49-.09-1.29.49-1.59Zm-4.06-5.11c-.31-.58-.09-1.29.49-1.6s1.29-.09,1.59.49.09,1.29-.49,1.59-1.29.09-1.6-.49Zm8.64,13.4c-.58.31-1.29.09-1.59-.49s-.09-1.29.49-1.59,1.29-.09,1.59.49.09,1.29-.49,1.6Zm-10.24-19.26c-.58.31-1.29.09-1.59-.49s-.09-1.29.49-1.59,1.29-.09,1.59.49.09,1.29-.49,1.6Zm11.18,14.56c-.57.31-1.29.09-1.59-.49s-.09-1.29.49-1.59,1.29-.09,1.59.49.09,1.29-.49,1.59Zm-3.47-6.53c-.57.31-1.29.09-1.59-.49s-.09-1.29.49-1.59,1.29-.09,1.59.49.09,1.29-.49,1.59Zm-3.28-6.17c-.57.31-1.29.09-1.59-.49s-.09-1.29.49-1.59,1.29-.09,1.59.49.09,1.29-.49,1.59Zm7.86,8.27c-.58.31-1.29.09-1.6-.49s-.09-1.29.49-1.59,1.29-.09,1.59.49.09,1.29-.49,1.59Zm-3.57-6.71c-.58.31-1.29.09-1.6-.49-.31-.58-.09-1.29.49-1.6s1.29-.09,1.59.49.09,1.29-.49,1.59Zm4.64,1.61c-.57.31-1.29.09-1.59-.49s-.09-1.29.49-1.59,1.29-.09,1.6.49.09,1.29-.49,1.59Z"/>
        </g>
      </g>
      <g>
        <path fill="#ffab96" d="m293.08,234.42c1.1-.48,2.2-.95,3.3-1.43.73-.31,1.47-.63,2.26-.67s1.65.28,2.04.96c.39.69.11,1.74-.66,1.95.63-.09,1.46-.02,2.02.29s.99.88,1.02,1.52-.39,1.3-1.01,1.45c.65.31,1.06,1,1.08,1.72s-.39,1.43-1.02,1.78c.64.48.97,1.29.87,2.08s-.64,1.52-1.38,1.83c-.55.23-.86.94-1.34,1.31s-1.06.61-1.65.56c-.63-.06-1.22-.47-1.48-1.04-.26-.57-.19-1.29.18-1.8-.48.11-.97.15-1.45.05-.58-.12-1.17-.42-1.45-.94s-.17-1.28.35-1.57c-.87.04-1.71-.81-1.87-1.66-.14-.77.23-1.53.59-2.23-.66.16-1.35-.38-1.67-.98s-.28-1.35,0-1.97.64-.93,1.26-1.2Z"/>
        <g>
          <rect width="7.34" height=".21" x="293.08" y="236.8" fill="#eb8366" transform="rotate(-26.99 296.695 236.88)"/>
          <rect width="8.3" height=".21" x="294.26" y="240.37" fill="#eb8366" transform="rotate(-28.55 298.393 240.465)"/>
          <rect width="5.63" height=".21" x="296.9" y="243.35" fill="#eb8366" transform="rotate(-31.42 299.746 243.469)"/>
        </g>
      </g>
      <path fill="#ffab96" d="m314.97,230.76c-1.78.65-3.77.72-5.59.18-3.61-1.07-6.75-3.04-10.52-2.86-.9.04-1.85.17-2.56.73s-1.05,1.68-.48,2.39c.8,1,2.4.4,3.65.65,1.1.22,1.94,1.14,2.46,2.13.52.99.81,2.09,1.3,3.1,1.14,2.34,5.77,5.28,8.33,5.75,2.91.53,3.54-2.73,6.4-3.48-1.92-2.41-3.12-5.52-2.98-8.6Z"/>
    </g>
    <g>
      <path fill="#200e10" d="m377.15,143.94s1.4,11.88-3.54,15.05-10.35-8.43-10.35-8.43l3.12-5.14,10.77-1.48Z"/>
      <g>
        <path fill="#200e10" d="m349.64,144.01s.36,10.6,4.55,13.29c4.18,2.69,2.95-15.02,2.95-15.02,0,0-1.22-3.19-2.03-3.53-.8-.34-5.47,5.26-5.47,5.26Z"/>
        <g>
          <g>
            <path fill="#ffab96" d="m374.9,159.69c-.54-1.1-1-2.23-1.33-3.35l-.21-.72-1.06-3.27-.4-1.37-.28-.83-.65.26-5.13,1.96-6.07,2.38.69,2.2.4,1.31.31,1.01c.43,1.35.84,2.7,1.29,4.04.47,1.39.96,2.42.9,3.89-.08,1.77-.05,3.33,1.2,4.74,1.86,2.1,4.72,2.14,7.03.86,2.44-1.36,4.49-3.83,5.23-6.54.31-1.12.68-2.1.17-3.18-.57-1.21-1.5-2.21-2.09-3.41Z"/>
            <path fill="#eb8366" d="m361.01,160.37l1.69,3.82s4.08,3.52,9.63-7.86c.26-.5.2-1.05.28-1.51l-1.34-2.52c-2.39.24-7.19,4.79-10.27,8.08h0s0,0,0,0Z"/>
          </g>
          <path fill="#ffab96" d="m376.56,151.2c.63-1.09.68-2,.44-3.2-.13-.86-.13-1.05-.04-2.03.06-.85-.14-1.74-.57-2.51-.6-1.16-1.59-2.08-2.51-3.02-2.88-2.77-5.94-5.69-9.83-6.49-3.37-.77-7.08.28-9.56,2.64-4.97,4.7-3.45,12.49-1.93,18.36,1.21,4.62,4.71,10.09,10.27,9.23,7.78-1.13,10.23-9.74,10.23-9.74,1.36-.8,2.73-1.97,3.5-3.23h0s0,0,0,0Z"/>
          <path fill="#100f36" d="m361.58,148.18c.55-.3,1.26-.06,1.55.49.3.55.06,1.26-.49,1.55-.55.3-1.26.06-1.55-.49-.3-.55-.06-1.26.49-1.55Z"/>
          <g>
            <path fill="#080e1c" d="m361.58,148.18c.55-.3,1.26-.06,1.55.49.3.55.06,1.26-.49,1.55-.55.3-1.26.06-1.55-.49-.3-.55-.06-1.26.49-1.55Z"/>
            <path fill="#fff" d="m362.27,148.55c.27-.15.56-.04.71.23.15.27.04.56-.23.71-.27.15-.56.04-.71-.23-.13-.22-.04-.56.23-.71Z"/>
          </g>
          <g>
            <path fill="#080e1c" d="m353.66,150.52c.55-.3,1.26-.06,1.55.49.3.55.06,1.26-.49,1.55-.55.3-1.26.06-1.55-.49-.3-.55-.06-1.26.49-1.55h0Z"/>
            <path fill="#fff" d="m354.35,150.88c.27-.15.56-.04.71.23.15.27.04.56-.23.71-.27.15-.56.04-.71-.23-.15-.27-.04-.56.23-.71Z"/>
          </g>
          <path fill="#200e10" d="m377.87,145.81c-.15.76-.43,1.55-.64,2.31-.04.08-.06.22-.11.29-.1-.54-.39-1.1-.82-1.67-.55-.68-1.13-1.04-1.7-1.12-.54-.1-1.09.05-1.6.39-1.79,1.19-1.58,3.76-1.48,5.62.11,1.87.4,5.97-.82,2.12-1.39-4.36-4.42-8.48-9.28-9.09-1.78-.22-3.22-.28-4.73-1.48-1.35-1.07-2.3-2.65-2.6-4.36-1.98,2.02-2.41,4.16-3.31,6.69-1.12,3.19-2.26-2.12-2.38-3.53-.16-1.94.16-3.73,1.14-5.41.03-.05.05-.09.08-.15,1.73-2.92,4.39-5.8,7.68-6.75,6.09-1.77,14.24-1.36,17.16,4.88.85,1.84,2.5,3.02,3.18,5.02.67,2,.65,4.16.22,6.21h0s0,0,0,0Z"/>
          <g>
            <path fill="#ff8389" d="m374.41,148.53c.26.24.56.59.67.95.13.41.11.8-.03,1.16s-.43.7-.65,1.03c.3-.28.58-.62.78-1,.21-.38.26-.85.13-1.25-.52-1.71.8.24-.76-1.05-.32-.22-.7-.43-1.13-.56.38.2.7.43.99.72h0Z"/>
            <path fill="#ff8389" d="m373.37,149.73c.22-.13.45-.2.67-.33.22-.13.45-.2.64-.2.11-.03.51-.08.61.02.09.1-.13.28-.1.4.02-.14-.01-.25-.1-.35s-.25-.18-.38-.2c-.27-.04-.56.04-.78.17-.23.07-.45.2-.65.39s-.4.38-.54.54l.63-.45h0Z"/>
          </g>
          <path fill="#200e10" d="m364.84,146.88c.04-.08.06-.21-.03-.31-.83-.84-1.71-1.21-2.66-1.18-1.4.04-2.24,1.06-2.3,1.08-.1.09-.06.21-.04.27.09.1.21.06.31-.03.06-.02.82-.89,2.02-.93.81-.05,1.58.35,2.37,1.07.08.04.15.08.21.06l.11-.03h0s0,0,0,0Z"/>
          <path fill="#200e10" d="m355.56,148.15c.1-.09.06-.21-.03-.31-1.16-.87-2.14-1.15-3.02-.88-1.1.39-1.53,1.49-1.52,1.54-.02.14.01.25.15.27.14.02.25-.01.27-.15,0,0,.34-1,1.28-1.28h0c.76-.23,1.61.03,2.67.79.08.04.14.02.19,0s.11-.03,0,0h0s0,0,0,0Z"/>
          <g>
            <path fill="#eb8366" d="m357.01,150.28c.16.29.25.6.28.94.06.66.05,1.28-.1,1.94-.05.28-.22.61-.25.96-.09.37-.04.77.18,1.04.28.25.61.43.96.46.35.03.68,0,1-.1-.33.03-.73.08-1.01.03-.35-.03-.68-.21-.81-.44-.22-.28-.19-.63-.14-.91.05-.28.16-.59.25-.96.14-.66.12-1.4,0-2.05-.11-.38-.21-.69-.36-.98-.16-.29-.38-.57-.6-.84.22.28.38.57.62.91h0s0,0,0,0Z"/>
            <path fill="#eb8366" d="m360.32,155.14c.17-.12.36-.18.6-.25-.24-.13-.43-.08-.68,0-.17.12-.4.26-.47.48.19-.06.36-.18.54-.23h0Z"/>
          </g>
          <ellipse cx="364.84" cy="152.68" fill="#eb8366" rx="2.28" ry="1.11" transform="rotate(-14.45 364.724 152.635)"/>
          <ellipse cx="354.89" cy="154.78" fill="#eb8366" rx="1.67" ry="1.22" transform="rotate(-14.45 354.76 154.738)"/>
          <g>
            <path fill="#342f46" d="m357.66,158.79c.14.75,1.55,1.42,3.07,1.13s2.58-1.43,2.44-2.18c-.14-.75-1.44-.82-2.96-.53-1.52.29-2.7.84-2.56,1.59Z"/>
            <path fill="#eb8366" d="m360.36,157.93c1.08-.21,2.11.07,2.66.52-.35.62-1.2,1.26-2.28,1.47s-2.11-.07-2.66-.52c.35-.62,1.2-1.26,2.28-1.47Z"/>
            <path fill="#fff" d="m362.81,157.26c-.61.29-1.48.53-2.44.71-.97.18-1.86.28-2.53.24.37-.46,1.29-.8,2.39-1.01s2.08-.23,2.59.06Z"/>
          </g>
        </g>
      </g>
    </g>
    <g opacity=".15">
      <path fill="#200e10" d="m411.34,216.32c-9.8-9.07-18.74-25.93-18.74-25.93h11.14c1.16,5.62,2.39,11.38,2.86,13.02.45,1.57,2.58,7.25,4.74,12.92Z"/>
    </g>
    <path fill="#d23838" d="m396.74,165.44s19.71,10.34,29.33,26.16c0,0-8.4,11.8-16.43,13.63l-17.04-14.85s-2.43-24.34,4.14-24.94Z"/>
    <path fill="#f0f6f7" d="m428.26,237.14c-1,4.39-1.91,8.1-2.44,10.22-.08-.01-.16-.02-.23-.03-2.28-.28-11.39-2.38-11.19-2.58l1.01-10.93c3.73,1.31,9.21,3.04,12.86,3.32Z"/>
  </g>
  <g>
    <path fill="#fccf3a" d="m302.54,304.73c1.56,10.25-1.61,20.13-7.86,27.43-.82.96-1.7,1.88-2.63,2.74-4.87,4.55-11.11,7.72-18.19,8.8-9.52,1.45-18.73-1.18-25.84-6.58-1-.76-1.96-1.58-2.88-2.44-5.32-5.05-9.06-11.84-10.25-19.66-1.8-11.82,2.69-23.15,10.95-30.6h0c.93-.84,1.91-1.63,2.93-2.36,4.25-3.05,9.27-5.17,14.79-6.01,8.2-1.25,16.16.53,22.75,4.49,1.09.65,2.14,1.37,3.14,2.13,6.81,5.19,11.69,12.93,13.07,22.06Z"/>
    <path fill="#fabe30" d="m248.77,282.05c-1.02.73-2,1.52-2.93,2.36,8.43,3.52,14.89,11.24,16.36,20.92,1.94,12.79-5.45,24.89-17.07,29.34.92.87,1.88,1.69,2.88,2.44,12.09-5.49,19.61-18.53,17.52-32.29-1.56-10.25-8.08-18.53-16.76-22.77Z"/>
    <path fill="#fabe30" d="m278.37,310.2c-1.65-10.86,2.94-21.26,11.09-27.54-1.01-.77-2.06-1.48-3.14-2.13-8.57,7.12-13.33,18.42-11.54,30.22,1.63,10.73,8.31,19.46,17.26,24.15.93-.87,1.81-1.78,2.63-2.74-8.43-4.04-14.79-12.04-16.3-21.95Z"/>
    <path fill="#f9b928" d="m302.54,304.73c2.84,18.68-10,36.13-28.69,38.97-11.14,1.69-21.84-2.19-29.26-9.56,6.26,3.32,13.6,4.73,21.14,3.58,18.68-2.84,31.52-20.29,28.68-38.97-1.15-7.55-4.68-14.14-9.71-19.13,9.25,4.9,16.13,13.96,17.83,25.11Z"/>
    <g opacity=".45">
      <ellipse cx="242.87" cy="298.34" fill="#fff" rx="11.29" ry="3.22" transform="rotate(-70.62 242.888 298.345)"/>
    </g>
    <g opacity=".45">
      <circle cx="240.27" cy="314.19" r="3.39" fill="#fff"/>
    </g>
  </g>
</svg>
