<svg xmlns="http://www.w3.org/2000/svg" id="Layer_1" viewBox="0 0 512 512">
  <g>
    <g>
      <path fill="#53c8ea" d="m498.68,294.2H6.85v-7.21c.53-7.06,1.31-14.1,2.34-21.11.08-.53.16-1.06.24-1.59,3.37-21.98,9.38-43.85,20.94-62.83,7.68-12.61,18.01-23.88,30.31-31.93,1.92-1.26,3.89-2.45,5.91-3.54,2.03-1.1,4.11-2.12,6.23-3.04,3.06-1.33,6.2-2.46,9.43-3.38,1.97-.56,3.95-1.03,5.94-1.43,2.21-.45,4.43-.8,6.66-1.09h0c11.43-1.45,23.13-1.01,34.82-.79,11.44.21,22.86.2,34-2.02,7.04-1.41,13.74-3.63,20.23-6.44.66-.28,1.32-.57,1.97-.87,1.99-.9,3.96-1.85,5.92-2.85,11.63-5.92,22.65-13.42,33.73-20.88,8.21-5.53,16.46-11.05,25.01-15.9,2.82-1.6,5.67-3.12,8.57-4.55,3.49-1.73,7.05-3.31,10.68-4.71,29.17-11.26,62.58-8.62,90.77,4.71,2.96,1.4,5.87,2.92,8.7,4.55,15.99,9.21,29.8,22.05,39.46,37.86.53.87,1.05,1.75,1.56,2.63,6.61,11.45,11.5,23.88,18.12,35.3,1.14,1.98,2.34,3.93,3.61,5.83,1.36,2.05,2.8,4.04,4.29,5.99,1.89,2.47,3.87,4.86,5.92,7.2,9.76,11.18,20.92,21.26,30.15,32.93.18.23.36.46.54.69,6.25,8.02,11.52,16.79,15.73,26.04,2.97,6.52,5.42,13.28,7.31,20.19,1.11,4.03,2.03,8.11,2.76,12.23Z"/>
      <g>
        <g>
          <ellipse cx="85.19" cy="239.4" fill="#25addb" rx="4.78" ry="7.18"/>
          <path fill="#25addb" d="m77.76,247.95c3.25-3.94,9.57-5.41,13.7-2.4,3.74,2.71,4.66,7.8,5.3,12.37.74,5.35,1.49,10.7,2.23,16.05.35,2.54.6,5.45-1.11,7.36-1.49,1.66-3.94,1.97-6.16,2.16-5.21.46-10.43.91-15.64,1.37-.47-7.12-1.14-14.26-1.37-21.39-.17-5.33-.55-11.14,3.04-15.52Z"/>
        </g>
        <g>
          <ellipse cx="109.03" cy="234.99" fill="#25addb" rx="4.78" ry="7.18"/>
          <path fill="#25addb" d="m101.61,243.54c3.25-3.94,9.57-5.41,13.7-2.4,3.74,2.71,4.66,7.8,5.3,12.37.74,5.35,1.49,10.7,2.23,16.05.35,2.54.6,5.45-1.11,7.36-1.49,1.66-3.94,1.97-6.16,2.16-5.21.46-10.43.91-15.64,1.37-.47-7.12-1.14-14.26-1.37-21.39-.17-5.33-.55-11.14,3.04-15.52Z"/>
        </g>
        <g opacity=".58">
          <ellipse cx="366.7" cy="216.69" fill="#25addb" rx="6.36" ry="9.55"/>
          <path fill="#25addb" d="m356.81,228.08c4.33-5.25,12.74-7.2,18.25-3.2,4.97,3.61,6.21,10.38,7.06,16.47.99,7.12,1.98,14.25,2.97,21.37.47,3.38.8,7.25-1.47,9.8-1.98,2.21-5.24,2.62-8.2,2.88-6.94.61-13.89,1.21-20.83,1.82-.62-9.48-1.52-18.98-1.82-28.47-.22-7.1-.73-14.83,4.05-20.67Z"/>
        </g>
        <g opacity=".47">
          <g>
            <ellipse cx="170.12" cy="227.44" fill="#25addb" rx="4.51" ry="6.77"/>
            <path fill="#25addb" d="m163.12,235.51c3.07-3.72,9.02-5.1,12.92-2.27,3.52,2.56,4.4,7.35,5,11.67.7,5.05,1.4,10.09,2.1,15.14.33,2.4.57,5.14-1.04,6.94-1.4,1.57-3.71,1.85-5.81,2.04-4.92.43-9.83.86-14.75,1.29-.44-6.71-1.08-13.44-1.29-20.17-.16-5.03-.51-10.5,2.87-14.64Z"/>
          </g>
          <g>
            <ellipse cx="150.3" cy="236.04" fill="#25addb" rx="4.51" ry="6.77"/>
            <path fill="#25addb" d="m143.3,244.1c3.07-3.72,9.02-5.1,12.92-2.27,3.52,2.56,4.4,7.35,5,11.67.7,5.05,1.4,10.09,2.1,15.14.33,2.4.57,5.14-1.04,6.94-1.4,1.57-3.71,1.85-5.81,2.04-4.92.43-9.83.86-14.75,1.29-.44-6.71-1.08-13.44-1.29-20.17-.16-5.03-.51-10.5,2.87-14.64Z"/>
          </g>
          <g>
            <ellipse cx="185.88" cy="232.97" fill="#25addb" rx="4.51" ry="6.77"/>
            <path fill="#25addb" d="m178.88,241.04c3.07-3.72,9.02-5.1,12.92-2.27,3.52,2.56,4.4,7.35,5,11.67.7,5.05,1.4,10.09,2.1,15.14.33,2.4.57,5.14-1.04,6.94-1.4,1.57-3.71,1.85-5.81,2.04-4.92.43-9.83.86-14.75,1.29-.44-6.71-1.08-13.44-1.29-20.17-.16-5.03-.51-10.5,2.87-14.64Z"/>
          </g>
        </g>
        <g opacity=".58">
          <g>
            <ellipse cx="330.2" cy="225.8" fill="#25addb" rx="4.51" ry="6.77"/>
            <path fill="#25addb" d="m323.2,233.86c3.07-3.72,9.02-5.1,12.92-2.27,3.52,2.56,4.4,7.35,5,11.67.7,5.05,1.4,10.09,2.1,15.14.33,2.4.57,5.14-1.04,6.94-1.4,1.57-3.71,1.85-5.81,2.04-4.92.43-9.83.86-14.75,1.29-.44-6.71-1.08-13.44-1.29-20.17-.16-5.03-.51-10.5,2.87-14.64Z"/>
          </g>
          <g>
            <ellipse cx="316.53" cy="230.55" fill="#25addb" rx="4.51" ry="6.77"/>
            <path fill="#25addb" d="m309.53,238.61c3.07-3.72,9.02-5.1,12.92-2.27,3.52,2.56,4.4,7.35,5,11.67.7,5.05,1.4,10.09,2.1,15.14.33,2.4.57,5.14-1.04,6.94-1.4,1.57-3.71,1.85-5.81,2.04-4.92.43-9.83.86-14.75,1.29-.44-6.71-1.08-13.44-1.29-20.17-.16-5.03-.51-10.5,2.87-14.64Z"/>
          </g>
          <g>
            <ellipse cx="340.5" cy="223.97" fill="#25addb" rx="4.51" ry="6.77"/>
            <path fill="#25addb" d="m333.5,232.04c3.07-3.72,9.02-5.1,12.92-2.27,3.52,2.56,4.4,7.35,5,11.67.7,5.05,1.4,10.09,2.1,15.14.33,2.4.57,5.14-1.04,6.94-1.4,1.57-3.71,1.85-5.81,2.04-4.92.43-9.83.86-14.75,1.29-.44-6.71-1.08-13.44-1.29-20.17-.16-5.03-.51-10.5,2.87-14.64Z"/>
          </g>
        </g>
        <g>
          <g>
            <ellipse cx="227.17" cy="228.98" fill="#25addb" rx="4.51" ry="6.77"/>
            <path fill="#25addb" d="m220.17,237.05c3.07-3.72,9.02-5.1,12.92-2.27,3.52,2.56,4.4,7.35,5,11.67.7,5.05,1.4,10.09,2.1,15.14.33,2.4.57,5.14-1.04,6.94-1.4,1.57-3.71,1.85-5.81,2.04-4.92.43-9.83.86-14.75,1.29-.44-6.71-1.08-13.44-1.29-20.17-.16-5.03-.51-10.5,2.87-14.64Z"/>
          </g>
          <g>
            <ellipse cx="213.5" cy="233.74" fill="#25addb" rx="4.51" ry="6.77"/>
            <path fill="#25addb" d="m206.5,241.8c3.07-3.72,9.02-5.1,12.92-2.27,3.52,2.56,4.4,7.35,5,11.67.7,5.05,1.4,10.09,2.1,15.14.33,2.4.57,5.14-1.04,6.94-1.4,1.57-3.71,1.85-5.81,2.04-4.92.43-9.83.86-14.75,1.29-.44-6.71-1.08-13.44-1.29-20.17-.16-5.03-.51-10.5,2.87-14.64Z"/>
          </g>
          <g>
            <ellipse cx="237.47" cy="227.16" fill="#25addb" rx="4.51" ry="6.77"/>
            <path fill="#25addb" d="m230.47,235.23c3.07-3.72,9.02-5.1,12.92-2.27,3.52,2.56,4.4,7.35,5,11.67.7,5.05,1.4,10.09,2.1,15.14.33,2.4.57,5.14-1.04,6.94-1.4,1.57-3.71,1.85-5.81,2.04-4.92.43-9.83.86-14.75,1.29-.44-6.71-1.08-13.44-1.29-20.17-.16-5.03-.51-10.5,2.87-14.64Z"/>
          </g>
          <g opacity=".58">
            <ellipse cx="264.2" cy="226.98" fill="#25addb" rx="4.51" ry="6.77"/>
            <path fill="#25addb" d="m257.2,235.04c3.07-3.72,9.02-5.1,12.92-2.27,3.52,2.56,4.4,7.35,5,11.67.7,5.05,1.4,10.09,2.1,15.14.33,2.4.57,5.14-1.04,6.94-1.4,1.57-3.71,1.85-5.81,2.04-4.92.43-9.83.86-14.75,1.29-.44-6.71-1.08-13.44-1.29-20.17-.16-5.03-.51-10.5,2.87-14.64Z"/>
          </g>
        </g>
      </g>
      <g opacity=".08">
        <path fill="#fff" d="m459.48,250.61l-3.03,9.58-.31,1-2.35,7.45-2.16,6.84-.91,2.88-.68,2.16-4.33,13.69-.42,1.32-.31.99-.04.13-.17-.13-1.24-.99-1.68-1.33-14.88-11.76-2.41-1.9-6.4-5.07-5.14-4.06-12.94-10.23-1.26-1-15.83-12.51-5.01-3.96-4.55-3.59-13.69-10.81-.09-.07-2.27-1.8-.88-.69-31.75-25.1-3.15-2.49-4.62-3.65h0s-5.91-4.68-5.91-4.68l-56.32-44.52-4.09-3.23-2.11-1.67-2.71-2.14-.79-.62-19.53-15.44c8.21-5.53,16.46-11.05,25.01-15.9,2.82-1.6,5.67-3.12,8.57-4.55h3.05l6.08,4.55,42.86,32.11,5.91,4.43h0s4.62,3.46,4.62,3.46l3.15,2.36.8.6,30.95,23.18,3.15,2.36,13.78,10.32,4.55,3.41,53.07,39.76,5.23,3.92,5.91,4.43h0s2.09,1.57,2.09,1.57l2.45,1.83,12.76,9.56Z"/>
        <path fill="#fff" d="m428.37,183.1l-36.28-25.21-4.55-3.16-62.79-43.63-3.15-2.18-2.31-1.6-2.31-1.6h0s-.96-.68-.96-.68l-3.27-2.27h29.54l6.32,4.19.55.36,38.38,25.43,4.55,3.02,18.17,12.04c6.61,11.45,11.5,23.88,18.12,35.3Z"/>
      </g>
      <g opacity=".08">
        <path fill="#fff" d="m334.6,260.7l-.15.48-1.77,5.6-.3.95-.8,2.54-1.64,5.2-1.02,3.25-3.07,9.72-.68,2.16-1.13,3.6-.53,1.67-.29.93-3.13,9.93-12.49-9.87-1.2-.95-2.16-1.7-2.11-1.67-2.41-1.91-3.42-2.7-4.93-3.89-.91-.71-.58-.46-.27-.22-.87-.69-.56-.45-1.35-1.07-1.28-1.02-2.39-1.88-.72-.58-.38-.3-.58-.46-.92-.72-2.55-2.02-.94-.74-3.09-2.45-.42-.33-.73-.58-.55-.43-.57-.45-.06-.05-2.31-1.83-.73-.58-2.6-2.05-3.53-2.79-1.32-1.04-6.54-5.16-1.48-1.17-3.85-3.04-.7-.55-11.49-9.08h0l-2.19-1.74-.1-.07-3.15-2.48-1.48-1.17-.87-.69-2.08-1.65-4.48-3.54-22.84-18.05-3.14-2.49-4.93-3.89h0s-5.91-4.68-5.91-4.68l-56.01-44.27-.18-.14c11.44.21,22.86.2,34-2.02,7.04-1.41,13.74-3.63,20.23-6.44l1.97,1.47,5.91,4.43h0s4.93,3.7,4.93,3.7l3.14,2.35.81.61,30.94,23.18,3.15,2.35,13.78,10.33,4.54,3.4,38.62,28.93,2.23,1.67,1.39,1.04,3.55,2.66,7.28,5.45,1.94,1.45,2.97,2.23,5.91,4.43h0s2.4,1.8,2.4,1.8l1,.75,1.45,1.09,6.74,5.05,2.71,2.03,3.3,2.48Z"/>
        <path fill="#fff" d="m261.17,293.03l-5.08-.96-.75-.14-1.26-.24-.81-.15-.19-.04-3.74-.71-.75-.14h-.05s-5.47-1.04-5.47-1.04l-.12-.02h0l-.61-.12-8.16-1.54h0l-10.7-2.02h0l-18.18-3.44-7.76-6.99-1.77-1.6-3.97-3.57-.02-.02-5.9-5.32-2.49-2.25-1.69-1.52-5.66-5.11-15.6-14.08-2.88-2.6-2.78-2.5-7.07-6.38-17.83-16.09-4.09-3.7-2.11-1.9-3.5-3.15-31.97-28.85-15.37-13.87c3.06-1.33,6.2-2.46,9.43-3.38,1.97-.56,3.95-1.03,5.94-1.43,2.21-.45,4.43-.8,6.66-1.09h0l25.3,20.69,3.5,2.86,2.11,1.72,4.09,3.35,52.56,42.96,3.45,2.82,4.31,3.53,1.6,1.32,3.78,3.09,8.61,7.04,13.39,10.95,4.65,3.8,4.05,3.31,2.37,1.94,2.98,2.43,1.02.84h0l.7.57.32.26,1.11.91,4.93,4.03,3.65,2.99,5.19,4.24.34.28h.02s.73.61.73.61l.6.49,2.86,2.34,2.4,1.96.75.61,4.93,4.03Z"/>
      </g>
      <g>
        <path fill="#1790cb" d="m369.23,107.31h-118.71c2.82-1.6,5.67-3.12,8.57-4.55h101.45c2.96,1.4,5.87,2.92,8.7,4.55Z"/>
        <path fill="#1790cb" d="m442.19,202.13v68.6h-5.92v-75.79c1.89,2.47,3.87,4.86,5.92,7.2Z"/>
        <rect width="5.92" height="165.68" x="311.07" y="105.04" fill="#1790cb" transform="rotate(-180 314.03 187.88)"/>
        <path fill="#1790cb" d="m185.87,146.94c1.99-.9,3.96-1.85,5.92-2.85v126.63h-5.92v-123.78Z"/>
        <path fill="#1790cb" d="m60.67,169.54c1.92-1.26,3.89-2.45,5.91-3.54v104.72h-5.91v-101.18Z"/>
      </g>
      <g opacity=".11">
        <path fill="#21426b" d="m498.68,294.2c1.08,6.06,1.74,12.19,1.97,18.33h-27.77v-76.79c6.25,8.02,11.52,16.79,15.73,26.04,2.97,6.52,5.42,13.28,7.31,20.19,1.11,4.03,2.03,8.11,2.76,12.23Z"/>
      </g>
      <g opacity=".11">
        <path fill="#21426b" d="m88.19,158.15v154.39H6.01c-.07-7.73.14-15.46.66-23.17.05-.79.11-1.58.17-2.37.53-7.06,1.31-14.1,2.34-21.11.08-.53.16-1.06.24-1.59,3.37-21.98,9.38-43.85,20.94-62.83,7.68-12.61,18.01-23.88,30.31-31.93,1.92-1.26,3.89-2.45,5.91-3.54,2.03-1.1,4.11-2.12,6.23-3.04,3.06-1.33,6.2-2.46,9.43-3.38,1.97-.56,3.95-1.03,5.94-1.43Z"/>
      </g>
      <path fill="#1790cb" d="m500.07,330.46c-.13,1.28-.28,2.55-.45,3.82-.05.37-.1.75-.15,1.12-.44,3.09-.99,6.16-1.66,9.21-.14.69-.3,1.37-.46,2.05-.29,1.27-.61,2.54-.95,3.79l-236.5,3.93-6.26.11-5.73.09-.78.02h-.36s-.76.02-.76.02l-5.56.1-1.18.02-6.66.11-.76.02-2.05.03-.89.02-4.4.07-.76.02-6.81.11-.92.02-2.81.05-8.59.14-194.67,3.23c-.46-2.79-.87-5.59-1.25-8.39-.19-1.35-.36-2.7-.52-4.05-1.35-11.13-2.08-22.35-2.19-33.56-.07-7.73.14-15.46.66-23.17.05-.79.11-1.58.17-2.37.53-7.06,1.31-14.1,2.34-21.11.08-.53.16-1.06.24-1.59l51.24-2.06,5.91-.23,8.08-.33,12.48-.5h385.74l15.73.6c2.97,6.52,5.42,13.28,7.31,20.19,1.11,4.03,2.03,8.11,2.76,12.23,1.08,6.06,1.74,12.19,1.97,18.33.22,5.98.04,11.98-.57,17.93Z"/>
      <path fill="#35b68e" d="m500.07,330.46c-.13,1.28-.28,2.55-.45,3.82-.05.37-.1.75-.15,1.12-.44,3.09-.99,6.16-1.66,9.21-.14.69-.3,1.37-.46,2.05-.29,1.27-.61,2.54-.95,3.79-7.36,27.56-23.78,52.68-46.2,70.32h-241.77l-.14.24-.44-.24H27.17c-.52-1.19-1.01-2.36-1.43-3.47-7.24-18.99-12.51-38.71-15.78-58.77-.46-2.79-.87-5.59-1.25-8.39-.19-1.35-.36-2.7-.52-4.05-1.35-11.13-2.08-22.35-2.19-33.56-.07-7.73.14-15.46.66-23.17l.17-.03,68.65-12.53,7.27-1.33h388.46l1.65.44,23.04,6.06c1.11,4.03,2.03,8.11,2.76,12.23,1.08,6.06,1.74,12.19,1.97,18.33.22,5.98.04,11.98-.57,17.93Z"/>
    </g>
    <path fill="#fff" d="m470.78,295.43c-8.01.03-16.55.06-25.48.09-.59,0-1.17,0-1.76,0-37.3.14-81.06.28-120.05.35-5.83.01-11.54.02-17.12.03-3.56,0-7.06,0-10.49.01l-.05.99c3.92-.02,7.84-.03,11.75-.04,5.22-.02,10.42-.04,15.62-.06,41.32-.14,82.23-.25,121.58-.29h.21c8.51-.01,16.94-.02,25.29-.02.01.02,1.08,1.4,2.6,3.36v-1.91c-1.34-1.61-2.08-2.49-2.09-2.51Zm-187.87.49h-1.28c-1.48,0-2.99.01-4.56.01-.29,0-.58,0-.87,0-1.21,0-2.46,0-3.72,0h-.75c-.85,0-1.72,0-2.59,0-.29,0-.59,0-.88,0-.04,0-.09,0-.13,0h-.76c-1.72,0-3.47,0-5.26.01h-2.29c-1.27,0-2.56,0-3.87.01-.25,0-.51,0-.76,0-1.48,0-2.99,0-4.51,0h-2.3c-1.83,0-3.68,0-5.55.01h-.76c-1.61,0-3.23,0-4.87,0l-1.02,1.14c1.95,0,3.9-.02,5.85-.02.25,0,.5,0,.75,0,1.85,0,3.7-.02,5.56-.02.49,0,.97,0,1.46,0,1.78-.01,3.56-.02,5.34-.02.25,0,.5,0,.75,0,1.04,0,2.08,0,3.12-.01.3,0,.61,0,.92,0,.46,0,.91,0,1.37,0,.25,0,.5,0,.76,0,1.75,0,3.51-.01,5.26-.02.37,0,.74,0,1.11,0,1.09,0,2.17-.01,3.25-.01.25,0,.5,0,.75,0,1.04,0,2.07-.01,3.11-.01.5,0,.99,0,1.49-.01,1.48,0,2.96-.01,4.43-.02.28,0,.56,0,.84,0,2.8,0,5.61-.02,8.41-.03l.05-1.01c-2.66,0-5.28,0-7.85,0Zm-48.69.51l-.03.72c.25,0,.51,0,.76,0l.03-.72h-.76Zm-11.54,49.72l-1.53,2.06h.92s1.52-2.07,1.52-2.07h-.91Zm23.69-.13h-.75s-.87.01-.87.01l-3.94.02h-.75l-4.36.03h-.88s-1.84.02-1.84.02h-.76s-7.34.04-7.34.04h-.76s-.54.01-.54.01l-1.52,2.06h1.98s.76-.02.76-.02l7.34-.04h.76s.55,0,.55,0h.88s5.66-.04,5.66-.04h.75s2.73-.02,2.73-.02h.87s1.96-.02,1.96-.02h.75l.09-2.06h-.76Zm0,0h-.75s-.87.01-.87.01l-3.94.02h-.75l-4.36.03h-.88s-1.84.02-1.84.02h-.76s-7.34.04-7.34.04h-.76s-.54.01-.54.01l-1.52,2.06h1.98s.76-.02.76-.02l7.34-.04h.76s.55,0,.55,0h.88s5.66-.04,5.66-.04h.75s2.73-.02,2.73-.02h.87s1.96-.02,1.96-.02h.75l.09-2.06h-.76Zm36.54-50.08h-1.28c-1.48,0-2.99.01-4.56.01-.29,0-.58,0-.87,0-1.21,0-2.46,0-3.72,0h-.75c-.85,0-1.72,0-2.59,0-.29,0-.59,0-.88,0-.04,0-.09,0-.13,0h-.76c-1.72,0-3.47,0-5.26.01h-2.29c-1.27,0-2.56,0-3.87.01-.25,0-.51,0-.76,0-1.48,0-2.99,0-4.51,0h-2.3c-1.83,0-3.68,0-5.55.01h-.76c-1.61,0-3.23,0-4.87,0l-1.02,1.14c1.95,0,3.9-.02,5.85-.02.25,0,.5,0,.75,0,1.85,0,3.7-.02,5.56-.02.49,0,.97,0,1.46,0,1.78-.01,3.56-.02,5.34-.02.25,0,.5,0,.75,0,1.04,0,2.08,0,3.12-.01.3,0,.61,0,.92,0,.46,0,.91,0,1.37,0,.25,0,.5,0,.76,0,1.75,0,3.51-.01,5.26-.02.37,0,.74,0,1.11,0,1.09,0,2.17-.01,3.25-.01.25,0,.5,0,.75,0,1.04,0,2.07-.01,3.11-.01.5,0,.99,0,1.49-.01,1.48,0,2.96-.01,4.43-.02.28,0,.56,0,.84,0,2.8,0,5.61-.02,8.41-.03l.05-1.01c-2.66,0-5.28,0-7.85,0Zm-48.69.51l-.03.72c.25,0,.51,0,.76,0l.03-.72h-.76Zm-11.54,49.72l-1.53,2.06h.92s1.52-2.07,1.52-2.07h-.91Zm248.11-50.7c-8.01.03-16.55.06-25.48.09-.59,0-1.17,0-1.76,0-37.3.14-81.06.28-120.05.35-5.83.01-11.54.02-17.12.03-3.56,0-7.06,0-10.49.01l-.05.99c3.92-.02,7.84-.03,11.75-.04,5.22-.02,10.42-.04,15.62-.06,41.32-.14,82.23-.25,121.58-.29h.21c8.51-.01,16.94-.02,25.29-.02.01.02,1.08,1.4,2.6,3.36v-1.91c-1.34-1.61-2.08-2.49-2.09-2.51Zm-224.41,50.57h-.75s-.87.01-.87.01l-3.94.02h-.75l-4.36.03h-.88s-1.84.02-1.84.02h-.76s-7.34.04-7.34.04h-.76s-.54.01-.54.01l-1.52,2.06h1.98s.76-.02.76-.02l7.34-.04h.76s.55,0,.55,0h.88s5.66-.04,5.66-.04h.75s2.73-.02,2.73-.02h.87s1.96-.02,1.96-.02h.75l.09-2.06h-.76Zm36.54-50.08h-1.28c-1.48,0-2.99.01-4.56.01-.29,0-.58,0-.87,0-1.21,0-2.46,0-3.72,0h-.75c-.85,0-1.72,0-2.59,0-.29,0-.59,0-.88,0-.04,0-.09,0-.13,0h-.76c-1.72,0-3.47,0-5.26.01h-2.29c-1.27,0-2.56,0-3.87.01-.25,0-.51,0-.76,0-1.48,0-2.99,0-4.51,0h-2.3c-1.83,0-3.68,0-5.55.01h-.76c-1.61,0-3.23,0-4.87,0l-1.02,1.14c1.95,0,3.9-.02,5.85-.02.25,0,.5,0,.75,0,1.85,0,3.7-.02,5.56-.02.49,0,.97,0,1.46,0,1.78-.01,3.56-.02,5.34-.02.25,0,.5,0,.75,0,1.04,0,2.08,0,3.12-.01.3,0,.61,0,.92,0,.46,0,.91,0,1.37,0,.25,0,.5,0,.76,0,1.75,0,3.51-.01,5.26-.02.37,0,.74,0,1.11,0,1.09,0,2.17-.01,3.25-.01.25,0,.5,0,.75,0,1.04,0,2.07-.01,3.11-.01.5,0,.99,0,1.49-.01,1.48,0,2.96-.01,4.43-.02.28,0,.56,0,.84,0,2.8,0,5.61-.02,8.41-.03l.05-1.01c-2.66,0-5.28,0-7.85,0Zm-48.69.51l-.03.72c.25,0,.51,0,.76,0l.03-.72h-.76Zm-11.54,49.72l-1.53,2.06h.92s1.52-2.07,1.52-2.07h-.91Zm248.11-50.7c-8.01.03-16.55.06-25.48.09-.59,0-1.17,0-1.76,0-37.3.14-81.06.28-120.05.35-5.83.01-11.54.02-17.12.03-3.56,0-7.06,0-10.49.01l-.05.99c3.92-.02,7.84-.03,11.75-.04,5.22-.02,10.42-.04,15.62-.06,41.32-.14,82.23-.25,121.58-.29h.21c8.51-.01,16.94-.02,25.29-.02.01.02,1.08,1.4,2.6,3.36v-1.91c-1.34-1.61-2.08-2.49-2.09-2.51Zm-224.41,50.57h-.75s-.87.01-.87.01l-3.94.02h-.75l-4.36.03h-.88s-1.84.02-1.84.02h-.76s-7.34.04-7.34.04h-.76s-.54.01-.54.01l-1.52,2.06h1.98s.76-.02.76-.02l7.34-.04h.76s.55,0,.55,0h.88s5.66-.04,5.66-.04h.75s2.73-.02,2.73-.02h.87s1.96-.02,1.96-.02h.75l.09-2.06h-.76Zm36.54-50.08h-1.28c-1.48,0-2.99.01-4.56.01-.29,0-.58,0-.87,0-1.21,0-2.46,0-3.72,0h-.75c-.85,0-1.72,0-2.59,0-.29,0-.59,0-.88,0-.04,0-.09,0-.13,0h-.76c-1.72,0-3.47,0-5.26.01h-2.29c-1.27,0-2.56,0-3.87.01-.25,0-.51,0-.76,0-1.48,0-2.99,0-4.51,0h-2.3c-1.83,0-3.68,0-5.55.01h-.76c-1.61,0-3.23,0-4.87,0l-1.02,1.14c1.95,0,3.9-.02,5.85-.02.25,0,.5,0,.75,0,1.85,0,3.7-.02,5.56-.02.49,0,.97,0,1.46,0,1.78-.01,3.56-.02,5.34-.02.25,0,.5,0,.75,0,1.04,0,2.08,0,3.12-.01.3,0,.61,0,.92,0,.46,0,.91,0,1.37,0,.25,0,.5,0,.76,0,1.75,0,3.51-.01,5.26-.02.37,0,.74,0,1.11,0,1.09,0,2.17-.01,3.25-.01.25,0,.5,0,.75,0,1.04,0,2.07-.01,3.11-.01.5,0,.99,0,1.49-.01,1.48,0,2.96-.01,4.43-.02.28,0,.56,0,.84,0,2.8,0,5.61-.02,8.41-.03l.05-1.01c-2.66,0-5.28,0-7.85,0Zm-48.69.51l-.03.72c.25,0,.51,0,.76,0l.03-.72h-.76Zm-11.54,49.72l-1.53,2.06h.92s1.52-2.07,1.52-2.07h-.91Zm248.11-50.7c-8.01.03-16.55.06-25.48.09-.59,0-1.17,0-1.76,0-37.3.14-81.06.28-120.05.35-5.83.01-11.54.02-17.12.03-3.56,0-7.06,0-10.49.01l-.05.99c3.92-.02,7.84-.03,11.75-.04,5.22-.02,10.42-.04,15.62-.06,41.32-.14,82.23-.25,121.58-.29h.21c8.51-.01,16.94-.02,25.29-.02.01.02,1.08,1.4,2.6,3.36v-1.91c-1.34-1.61-2.08-2.49-2.09-2.51Zm-187.87.49h-1.28c-1.48,0-2.99.01-4.56.01-.29,0-.58,0-.87,0-1.21,0-2.46,0-3.72,0h-.75c-.85,0-1.72,0-2.59,0-.29,0-.59,0-.88,0-.04,0-.09,0-.13,0h-.76c-1.72,0-3.47,0-5.26.01h-2.29c-1.27,0-2.56,0-3.87.01-.25,0-.51,0-.76,0-1.48,0-2.99,0-4.51,0h-2.3c-1.83,0-3.68,0-5.55.01h-.76l-.04,1.12c.25,0,.5,0,.75,0,1.85,0,3.7-.02,5.56-.02.49,0,.97,0,1.46,0,1.78-.01,3.56-.02,5.34-.02.25,0,.5,0,.75,0,1.04,0,2.08,0,3.12-.01.3,0,.61,0,.92,0,.46,0,.91,0,1.37,0,.25,0,.5,0,.76,0,1.75,0,3.51-.01,5.26-.02.37,0,.74,0,1.11,0,1.09,0,2.17-.01,3.25-.01.25,0,.5,0,.75,0,1.04,0,2.07-.01,3.11-.01.5,0,.99,0,1.49-.01,1.48,0,2.96-.01,4.43-.02.28,0,.56,0,.84,0,2.8,0,5.61-.02,8.41-.03l.05-1.01c-2.66,0-5.28,0-7.85,0Zm-36.54,50.08h-.75s-.87.01-.87.01l-3.94.02h-.75l-4.36.03h-.88s-1.84.02-1.84.02h-.76s-7.34.04-7.34.04h-.76s-.54.01-.54.01l-1.52,2.06h1.98s.76-.02.76-.02l7.34-.04h.76s.55,0,.55,0h.88s5.66-.04,5.66-.04h.75s2.73-.02,2.73-.02h.87s1.96-.02,1.96-.02h.75l.09-2.06h-.76Zm36.54-50.08h-1.28c-1.48,0-2.99.01-4.56.01-.29,0-.58,0-.87,0-1.21,0-2.46,0-3.72,0h-.75c-.85,0-1.72,0-2.59,0-.29,0-.59,0-.88,0-.04,0-.09,0-.13,0h-.76c-1.72,0-3.47,0-5.26.01h-2.29c-1.27,0-2.56,0-3.87.01-.25,0-.51,0-.76,0-1.48,0-2.99,0-4.51,0h-2.3c-1.83,0-3.68,0-5.55.01h-.76l-.04,1.12c.25,0,.5,0,.75,0,1.85,0,3.7-.02,5.56-.02.49,0,.97,0,1.46,0,1.78-.01,3.56-.02,5.34-.02.25,0,.5,0,.75,0,1.04,0,2.08,0,3.12-.01.3,0,.61,0,.92,0,.46,0,.91,0,1.37,0,.25,0,.5,0,.76,0,1.75,0,3.51-.01,5.26-.02.37,0,.74,0,1.11,0,1.09,0,2.17-.01,3.25-.01.25,0,.5,0,.75,0,1.04,0,2.07-.01,3.11-.01.5,0,.99,0,1.49-.01,1.48,0,2.96-.01,4.43-.02.28,0,.56,0,.84,0,2.8,0,5.61-.02,8.41-.03l.05-1.01c-2.66,0-5.28,0-7.85,0Zm0,0h-1.28c-1.48,0-2.99.01-4.56.01-.29,0-.58,0-.87,0-1.21,0-2.46,0-3.72,0h-.75c-.85,0-1.72,0-2.59,0-.29,0-.59,0-.88,0-.04,0-.09,0-.13,0h-.76c-1.72,0-3.47,0-5.26.01h-2.29c-1.27,0-2.56,0-3.87.01-.25,0-.51,0-.76,0-1.48,0-2.99,0-4.51,0h-2.3c-1.83,0-3.68,0-5.55.01h-.76l-.04,1.12c.25,0,.5,0,.75,0,1.85,0,3.7-.02,5.56-.02.49,0,.97,0,1.46,0,1.78-.01,3.56-.02,5.34-.02.25,0,.5,0,.75,0,1.04,0,2.08,0,3.12-.01.3,0,.61,0,.92,0,.46,0,.91,0,1.37,0,.25,0,.5,0,.76,0,1.75,0,3.51-.01,5.26-.02.37,0,.74,0,1.11,0,1.09,0,2.17-.01,3.25-.01.25,0,.5,0,.75,0,1.04,0,2.07-.01,3.11-.01.5,0,.99,0,1.49-.01,1.48,0,2.96-.01,4.43-.02.28,0,.56,0,.84,0,2.8,0,5.61-.02,8.41-.03l.05-1.01c-2.66,0-5.28,0-7.85,0Zm0,0h-1.28c-1.48,0-2.99.01-4.56.01-.29,0-.58,0-.87,0-1.21,0-2.46,0-3.72,0h-.75c-.85,0-1.72,0-2.59,0-.29,0-.59,0-.88,0-.04,0-.09,0-.13,0h-.76c-1.72,0-3.47,0-5.26.01h-2.29c-1.27,0-2.56,0-3.87.01-.25,0-.51,0-.76,0-1.48,0-2.99,0-4.51,0h-2.3c-1.83,0-3.68,0-5.55.01h-.76l-.04,1.12c.25,0,.5,0,.75,0,1.85,0,3.7-.02,5.56-.02.49,0,.97,0,1.46,0,1.78-.01,3.56-.02,5.34-.02.25,0,.5,0,.75,0,1.04,0,2.08,0,3.12-.01.3,0,.61,0,.92,0,.46,0,.91,0,1.37,0,.25,0,.5,0,.76,0,1.75,0,3.51-.01,5.26-.02.37,0,.74,0,1.11,0,1.09,0,2.17-.01,3.25-.01.25,0,.5,0,.75,0,1.04,0,2.07-.01,3.11-.01.5,0,.99,0,1.49-.01,1.48,0,2.96-.01,4.43-.02.28,0,.56,0,.84,0,2.8,0,5.61-.02,8.41-.03l.05-1.01c-2.66,0-5.28,0-7.85,0Zm0,0h-1.28c-1.48,0-2.99.01-4.56.01-.29,0-.58,0-.87,0-1.21,0-2.46,0-3.72,0h-.75c-.85,0-1.72,0-2.59,0-.29,0-.59,0-.88,0-.04,0-.09,0-.13,0h-.76c-1.72,0-3.47,0-5.26.01h-2.29c-1.27,0-2.56,0-3.87.01-.25,0-.51,0-.76,0-1.48,0-2.99,0-4.51,0h-2.3c-1.83,0-3.68,0-5.55.01h-.76l-.04,1.12c.25,0,.5,0,.75,0,1.85,0,3.7-.02,5.56-.02.49,0,.97,0,1.46,0,1.78-.01,3.56-.02,5.34-.02.25,0,.5,0,.75,0,1.04,0,2.08,0,3.12-.01.3,0,.61,0,.92,0,.46,0,.91,0,1.37,0,.25,0,.5,0,.76,0,1.75,0,3.51-.01,5.26-.02.37,0,.74,0,1.11,0,1.09,0,2.17-.01,3.25-.01.25,0,.5,0,.75,0,1.04,0,2.07-.01,3.11-.01.5,0,.99,0,1.49-.01,1.48,0,2.96-.01,4.43-.02.28,0,.56,0,.84,0,2.8,0,5.61-.02,8.41-.03l.05-1.01c-2.66,0-5.28,0-7.85,0Zm0,0h-1.28c-1.48,0-2.99.01-4.56.01-.29,0-.58,0-.87,0-1.21,0-2.46,0-3.72,0h-.75c-.85,0-1.72,0-2.59,0-.29,0-.59,0-.88,0-.04,0-.09,0-.13,0h-.76c-1.72,0-3.47,0-5.26.01h-2.29c-1.27,0-2.56,0-3.87.01-.25,0-.51,0-.76,0-1.48,0-2.99,0-4.51,0h-2.3c-1.83,0-3.68,0-5.55.01h-.76l-.04,1.12c.25,0,.5,0,.75,0,1.85,0,3.7-.02,5.56-.02.49,0,.97,0,1.46,0,1.78-.01,3.56-.02,5.34-.02.25,0,.5,0,.75,0,1.04,0,2.08,0,3.12-.01.3,0,.61,0,.92,0,.46,0,.91,0,1.37,0,.25,0,.5,0,.76,0,1.75,0,3.51-.01,5.26-.02.37,0,.74,0,1.11,0,1.09,0,2.17-.01,3.25-.01.25,0,.5,0,.75,0,1.04,0,2.07-.01,3.11-.01.5,0,.99,0,1.49-.01,1.48,0,2.96-.01,4.43-.02.28,0,.56,0,.84,0,2.8,0,5.61-.02,8.41-.03l.05-1.01c-2.66,0-5.28,0-7.85,0Zm0,0h-1.28c-1.48,0-2.99.01-4.56.01-.29,0-.58,0-.87,0-1.21,0-2.46,0-3.72,0h-.75c-.85,0-1.72,0-2.59,0-.29,0-.59,0-.88,0-.04,0-.09,0-.13,0h-.76c-1.72,0-3.47,0-5.26.01h-2.29c-1.27,0-2.56,0-3.87.01-.25,0-.51,0-.76,0-1.48,0-2.99,0-4.51,0h-2.3c-1.83,0-3.68,0-5.55.01h-.76l-.04,1.12c.25,0,.5,0,.75,0,1.85,0,3.7-.02,5.56-.02.49,0,.97,0,1.46,0,1.78-.01,3.56-.02,5.34-.02.25,0,.5,0,.75,0,1.04,0,2.08,0,3.12-.01.3,0,.61,0,.92,0,.46,0,.91,0,1.37,0,.25,0,.5,0,.76,0,1.75,0,3.51-.01,5.26-.02.37,0,.74,0,1.11,0,1.09,0,2.17-.01,3.25-.01.25,0,.5,0,.75,0,1.04,0,2.07-.01,3.11-.01.5,0,.99,0,1.49-.01,1.48,0,2.96-.01,4.43-.02.28,0,.56,0,.84,0,2.8,0,5.61-.02,8.41-.03l.05-1.01c-2.66,0-5.28,0-7.85,0Zm0,0h-1.28c-1.48,0-2.99.01-4.56.01-.29,0-.58,0-.87,0-1.21,0-2.46,0-3.72,0h-.75c-.85,0-1.72,0-2.59,0-.29,0-.59,0-.88,0-.04,0-.09,0-.13,0h-.76c-1.72,0-3.47,0-5.26.01h-2.29c-1.27,0-2.56,0-3.87.01-.25,0-.51,0-.76,0-1.48,0-2.99,0-4.51,0h-2.3c-1.83,0-3.68,0-5.55.01h-.76l-.04,1.12c.25,0,.5,0,.75,0,1.85,0,3.7-.02,5.56-.02.49,0,.97,0,1.46,0,1.78-.01,3.56-.02,5.34-.02.25,0,.5,0,.75,0,1.04,0,2.08,0,3.12-.01.3,0,.61,0,.92,0,.46,0,.91,0,1.37,0,.25,0,.5,0,.76,0,1.75,0,3.51-.01,5.26-.02.37,0,.74,0,1.11,0,1.09,0,2.17-.01,3.25-.01.25,0,.5,0,.75,0,1.04,0,2.07-.01,3.11-.01.5,0,.99,0,1.49-.01,1.48,0,2.96-.01,4.43-.02.28,0,.56,0,.84,0,2.8,0,5.61-.02,8.41-.03l.05-1.01c-2.66,0-5.28,0-7.85,0Zm0,0h-1.28c-1.48,0-2.99.01-4.56.01-.29,0-.58,0-.87,0-1.21,0-2.46,0-3.72,0h-.75c-.85,0-1.72,0-2.59,0-.29,0-.59,0-.88,0-.04,0-.09,0-.13,0h-.76c-1.72,0-3.47,0-5.26.01h-2.29c-1.27,0-2.56,0-3.87.01-.25,0-.51,0-.76,0-1.48,0-2.99,0-4.51,0h-2.3c-1.83,0-3.68,0-5.55.01h-.76l-.04,1.12c.25,0,.5,0,.75,0,1.85,0,3.7-.02,5.56-.02.49,0,.97,0,1.46,0,1.78-.01,3.56-.02,5.34-.02.25,0,.5,0,.75,0,1.04,0,2.08,0,3.12-.01.3,0,.61,0,.92,0,.46,0,.91,0,1.37,0,.25,0,.5,0,.76,0,1.75,0,3.51-.01,5.26-.02.37,0,.74,0,1.11,0,1.09,0,2.17-.01,3.25-.01.25,0,.5,0,.75,0,1.04,0,2.07-.01,3.11-.01.5,0,.99,0,1.49-.01,1.48,0,2.96-.01,4.43-.02.28,0,.56,0,.84,0,2.8,0,5.61-.02,8.41-.03l.05-1.01c-2.66,0-5.28,0-7.85,0Zm0,0h-1.28c-1.48,0-2.99.01-4.56.01-.29,0-.58,0-.87,0-1.21,0-2.46,0-3.72,0h-.75c-.85,0-1.72,0-2.59,0-.29,0-.59,0-.88,0-.04,0-.09,0-.13,0h-.76c-1.72,0-3.47,0-5.26.01h-2.29c-1.27,0-2.56,0-3.87.01-.25,0-.51,0-.76,0-1.48,0-2.99,0-4.51,0h-2.3c-1.83,0-3.68,0-5.55.01h-.76l-.04,1.12c.25,0,.5,0,.75,0,1.85,0,3.7-.02,5.56-.02.49,0,.97,0,1.46,0,1.78-.01,3.56-.02,5.34-.02.25,0,.5,0,.75,0,1.04,0,2.08,0,3.12-.01.3,0,.61,0,.92,0,.46,0,.91,0,1.37,0,.25,0,.5,0,.76,0,1.75,0,3.51-.01,5.26-.02.37,0,.74,0,1.11,0,1.09,0,2.17-.01,3.25-.01.25,0,.5,0,.75,0,1.04,0,2.07-.01,3.11-.01.5,0,.99,0,1.49-.01,1.48,0,2.96-.01,4.43-.02.28,0,.56,0,.84,0,2.8,0,5.61-.02,8.41-.03l.05-1.01c-2.66,0-5.28,0-7.85,0Zm0,0h-1.28c-1.48,0-2.99.01-4.56.01-.29,0-.58,0-.87,0-1.21,0-2.46,0-3.72,0h-.75c-.85,0-1.72,0-2.59,0-.29,0-.59,0-.88,0-.04,0-.09,0-.13,0h-.76c-1.72,0-3.47,0-5.26.01h-2.29c-1.27,0-2.56,0-3.87.01-.25,0-.51,0-.76,0-1.48,0-2.99,0-4.51,0h-2.3c-1.83,0-3.68,0-5.55.01h-.76l-.04,1.12c.25,0,.5,0,.75,0,1.85,0,3.7-.02,5.56-.02.49,0,.97,0,1.46,0,1.78-.01,3.56-.02,5.34-.02.25,0,.5,0,.75,0,1.04,0,2.08,0,3.12-.01.3,0,.61,0,.92,0,.46,0,.91,0,1.37,0,.25,0,.5,0,.76,0,1.75,0,3.51-.01,5.26-.02.37,0,.74,0,1.11,0,1.09,0,2.17-.01,3.25-.01.25,0,.5,0,.75,0,1.04,0,2.07-.01,3.11-.01.5,0,.99,0,1.49-.01,1.48,0,2.96-.01,4.43-.02.28,0,.56,0,.84,0,2.8,0,5.61-.02,8.41-.03l.05-1.01c-2.66,0-5.28,0-7.85,0Zm2.4,17.48l7.91-12.75,2.32-3.75h.29c3.92-.02,7.84-.03,11.75-.04,5.22-.02,10.42-.04,15.62-.06,41.32-.14,82.23-.25,121.58-.29h.21c8.51-.01,16.94-.02,25.29-.02.01.02,1.08,1.4,2.6,3.36,3.03,3.9,7.83,10.08,9.44,12.16l.41.53.7.9c3.88,4.99,9.23,11.88,16.2,20.86.17-1.27.32-2.55.45-3.82-5.56-6.65-10.66-12.75-15-17.93-5.54-6.63-9.82-11.75-12.2-14.59-1.34-1.61-2.08-2.49-2.09-2.51-8.01.03-16.55.06-25.48.09-.59,0-1.17,0-1.76,0-37.3.14-81.06.28-120.05.35-5.83.01-11.54.02-17.12.03-3.56,0-7.06,0-10.49.01h-5.12c-2.66,0-5.28,0-7.85,0h-1.28c-1.48,0-2.99.01-4.56.01-.29,0-.58,0-.87,0-1.21,0-2.46,0-3.72,0h-.75c-.85,0-1.72,0-2.59,0-.29,0-.59,0-.88,0-.04,0-.09,0-.13,0h-.76c-1.72,0-3.47,0-5.26.01h-2.29c-1.27,0-2.56,0-3.87.01-.25,0-.51,0-.76,0-1.48,0-2.99,0-4.51,0h-2.3c-1.83,0-3.68,0-5.55.01h-.76c-1.61,0-3.23,0-4.87,0-3.55,0-7.18,0-10.85.01-46.29.05-100.83.06-133.1.08-1.68,1.05-3.37,2.09-5.07,3.12-3.05,1.88-6.12,3.73-9.18,5.57-4.36,2.59-8.74,5.18-13.12,7.75-19.14,11.27-38.4,22.42-57.69,33.56.16,1.35.33,2.7.52,4.05.41-.26.82-.52,1.23-.77l195.03-1.08,8.59-.05,7.59-.04h.92s1.98-.02,1.98-.02h.76s7.34-.05,7.34-.05h.76s.55,0,.55,0h.88s5.66-.04,5.66-.04h.75s2.73-.02,2.73-.02h.87s1.96-.02,1.96-.02h.75l4.01-.03h.78l6.41-.04-4.58,6.49-19.88,28.15-3.04,4.3-13.71,19.43-4.53,6.42-2.21,3.12v.02s-3.43,4.85-3.43,4.85h1l.44.24.14-.24h10.32l20.97-33.83,2.67-4.3,17.52-28.26,3.98-6.42,233.47-1.3c.17-.68.32-1.36.46-2.05l-232.66,1.29,19.25-31.06.89-1.44Zm-3.69,1.46l-21.93,31.07-6.63.04h-.78s-5.15.03-5.15.03h-.76s-.75.01-.75.01h-.87s-3.94.03-3.94.03h-.75l-4.36.03h-.88s-1.84.02-1.84.02h-.76s-7.34.04-7.34.04h-.76s-.54.01-.54.01h-.91s-9.01.05-9.01.05l-3.03.02h-.2l-5.37.03-191.84,1.07c16.59-10.42,33.12-20.77,49.55-30.88l2.35-1.45c1.33-.82,2.65-1.62,3.97-2.44,6.38-3.9,12.74-7.77,19.08-11.59,1.77-1.07,3.54-2.13,5.31-3.19,42.29-.18,86.7-.38,131.72-.58,2.99-.02,5.98-.03,8.98-.04.25,0,.51,0,.76,0,.41,0,.83,0,1.24,0,1.95,0,3.9-.02,5.85-.02.25,0,.5,0,.75,0,1.85,0,3.7-.02,5.56-.02.49,0,.97,0,1.46,0,1.78-.01,3.56-.02,5.34-.02.25,0,.5,0,.75,0,1.04,0,2.08,0,3.12-.01.3,0,.61,0,.92,0,.46,0,.91,0,1.37,0,.25,0,.5,0,.76,0,1.75,0,3.51-.01,5.26-.02.37,0,.74,0,1.11,0,1.09,0,2.17-.01,3.25-.01.25,0,.5,0,.75,0,1.04,0,2.07-.01,3.11-.01.5,0,.99,0,1.49-.01,1.48,0,2.96-.01,4.43-.02.28,0,.56,0,.84,0,2.8,0,5.61-.02,8.41-.03,1.19,0,2.39-.01,3.59-.02l-2.45,3.47-9.21,13.05-1.02,1.44Zm1.29-18.94h-1.28c-1.48,0-2.99.01-4.56.01-.29,0-.58,0-.87,0-1.21,0-2.46,0-3.72,0h-.75c-.85,0-1.72,0-2.59,0-.29,0-.59,0-.88,0-.04,0-.09,0-.13,0h-.76c-1.72,0-3.47,0-5.26.01h-2.29c-1.27,0-2.56,0-3.87.01-.25,0-.51,0-.76,0-1.48,0-2.99,0-4.51,0h-2.3c-1.83,0-3.68,0-5.55.01h-.76l-.04,1.12c.25,0,.5,0,.75,0,1.85,0,3.7-.02,5.56-.02.49,0,.97,0,1.46,0,1.78-.01,3.56-.02,5.34-.02.25,0,.5,0,.75,0,1.04,0,2.08,0,3.12-.01.3,0,.61,0,.92,0,.46,0,.91,0,1.37,0,.25,0,.5,0,.76,0,1.75,0,3.51-.01,5.26-.02.37,0,.74,0,1.11,0,1.09,0,2.17-.01,3.25-.01.25,0,.5,0,.75,0,1.04,0,2.07-.01,3.11-.01.5,0,.99,0,1.49-.01,1.48,0,2.96-.01,4.43-.02.28,0,.56,0,.84,0,2.8,0,5.61-.02,8.41-.03l.05-1.01c-2.66,0-5.28,0-7.85,0Zm0,0h-1.28c-1.48,0-2.99.01-4.56.01-.29,0-.58,0-.87,0-1.21,0-2.46,0-3.72,0h-.75c-.85,0-1.72,0-2.59,0-.29,0-.59,0-.88,0-.04,0-.09,0-.13,0h-.76c-1.72,0-3.47,0-5.26.01h-2.29c-1.27,0-2.56,0-3.87.01-.25,0-.51,0-.76,0-1.48,0-2.99,0-4.51,0h-2.3c-1.83,0-3.68,0-5.55.01h-.76l-.04,1.12c.25,0,.5,0,.75,0,1.85,0,3.7-.02,5.56-.02.49,0,.97,0,1.46,0,1.78-.01,3.56-.02,5.34-.02.25,0,.5,0,.75,0,1.04,0,2.08,0,3.12-.01.3,0,.61,0,.92,0,.46,0,.91,0,1.37,0,.25,0,.5,0,.76,0,1.75,0,3.51-.01,5.26-.02.37,0,.74,0,1.11,0,1.09,0,2.17-.01,3.25-.01.25,0,.5,0,.75,0,1.04,0,2.07-.01,3.11-.01.5,0,.99,0,1.49-.01,1.48,0,2.96-.01,4.43-.02.28,0,.56,0,.84,0,2.8,0,5.61-.02,8.41-.03l.05-1.01c-2.66,0-5.28,0-7.85,0Zm0,0h-1.28c-1.48,0-2.99.01-4.56.01-.29,0-.58,0-.87,0-1.21,0-2.46,0-3.72,0h-.75c-.85,0-1.72,0-2.59,0-.29,0-.59,0-.88,0-.04,0-.09,0-.13,0h-.76c-1.72,0-3.47,0-5.26.01h-2.29c-1.27,0-2.56,0-3.87.01-.25,0-.51,0-.76,0-1.48,0-2.99,0-4.51,0h-2.3c-1.83,0-3.68,0-5.55.01h-.76l-.04,1.12c.25,0,.5,0,.75,0,1.85,0,3.7-.02,5.56-.02.49,0,.97,0,1.46,0,1.78-.01,3.56-.02,5.34-.02.25,0,.5,0,.75,0,1.04,0,2.08,0,3.12-.01.3,0,.61,0,.92,0,.46,0,.91,0,1.37,0,.25,0,.5,0,.76,0,1.75,0,3.51-.01,5.26-.02.37,0,.74,0,1.11,0,1.09,0,2.17-.01,3.25-.01.25,0,.5,0,.75,0,1.04,0,2.07-.01,3.11-.01.5,0,.99,0,1.49-.01,1.48,0,2.96-.01,4.43-.02.28,0,.56,0,.84,0,2.8,0,5.61-.02,8.41-.03l.05-1.01c-2.66,0-5.28,0-7.85,0Zm0,0h-1.28c-1.48,0-2.99.01-4.56.01-.29,0-.58,0-.87,0-1.21,0-2.46,0-3.72,0h-.75c-.85,0-1.72,0-2.59,0-.29,0-.59,0-.88,0-.04,0-.09,0-.13,0h-.76c-1.72,0-3.47,0-5.26.01h-2.29c-1.27,0-2.56,0-3.87.01-.25,0-.51,0-.76,0-1.48,0-2.99,0-4.51,0h-2.3c-1.83,0-3.68,0-5.55.01h-.76l-.04,1.12c.25,0,.5,0,.75,0,1.85,0,3.7-.02,5.56-.02.49,0,.97,0,1.46,0,1.78-.01,3.56-.02,5.34-.02.25,0,.5,0,.75,0,1.04,0,2.08,0,3.12-.01.3,0,.61,0,.92,0,.46,0,.91,0,1.37,0,.25,0,.5,0,.76,0,1.75,0,3.51-.01,5.26-.02.37,0,.74,0,1.11,0,1.09,0,2.17-.01,3.25-.01.25,0,.5,0,.75,0,1.04,0,2.07-.01,3.11-.01.5,0,.99,0,1.49-.01,1.48,0,2.96-.01,4.43-.02.28,0,.56,0,.84,0,2.8,0,5.61-.02,8.41-.03l.05-1.01c-2.66,0-5.28,0-7.85,0Zm0,0h-1.28c-1.48,0-2.99.01-4.56.01-.29,0-.58,0-.87,0-1.21,0-2.46,0-3.72,0h-.75c-.85,0-1.72,0-2.59,0-.29,0-.59,0-.88,0-.04,0-.09,0-.13,0h-.76c-1.72,0-3.47,0-5.26.01h-2.29c-1.27,0-2.56,0-3.87.01-.25,0-.51,0-.76,0-1.48,0-2.99,0-4.51,0h-2.3c-1.83,0-3.68,0-5.55.01h-.76l-.04,1.12c.25,0,.5,0,.75,0,1.85,0,3.7-.02,5.56-.02.49,0,.97,0,1.46,0,1.78-.01,3.56-.02,5.34-.02.25,0,.5,0,.75,0,1.04,0,2.08,0,3.12-.01.3,0,.61,0,.92,0,.46,0,.91,0,1.37,0,.25,0,.5,0,.76,0,1.75,0,3.51-.01,5.26-.02.37,0,.74,0,1.11,0,1.09,0,2.17-.01,3.25-.01.25,0,.5,0,.75,0,1.04,0,2.07-.01,3.11-.01.5,0,.99,0,1.49-.01,1.48,0,2.96-.01,4.43-.02.28,0,.56,0,.84,0,2.8,0,5.61-.02,8.41-.03l.05-1.01c-2.66,0-5.28,0-7.85,0Zm0,0h-1.28c-1.48,0-2.99.01-4.56.01-.29,0-.58,0-.87,0-1.21,0-2.46,0-3.72,0h-.75c-.85,0-1.72,0-2.59,0-.29,0-.59,0-.88,0-.04,0-.09,0-.13,0h-.76c-1.72,0-3.47,0-5.26.01h-2.29c-1.27,0-2.56,0-3.87.01-.25,0-.51,0-.76,0-1.48,0-2.99,0-4.51,0h-2.3c-1.83,0-3.68,0-5.55.01h-.76l-.04,1.12c.25,0,.5,0,.75,0,1.85,0,3.7-.02,5.56-.02.49,0,.97,0,1.46,0,1.78-.01,3.56-.02,5.34-.02.25,0,.5,0,.75,0,1.04,0,2.08,0,3.12-.01.3,0,.61,0,.92,0,.46,0,.91,0,1.37,0,.25,0,.5,0,.76,0,1.75,0,3.51-.01,5.26-.02.37,0,.74,0,1.11,0,1.09,0,2.17-.01,3.25-.01.25,0,.5,0,.75,0,1.04,0,2.07-.01,3.11-.01.5,0,.99,0,1.49-.01,1.48,0,2.96-.01,4.43-.02.28,0,.56,0,.84,0,2.8,0,5.61-.02,8.41-.03l.05-1.01c-2.66,0-5.28,0-7.85,0Zm0,0h-1.28c-1.48,0-2.99.01-4.56.01-.29,0-.58,0-.87,0-1.21,0-2.46,0-3.72,0h-.75c-.85,0-1.72,0-2.59,0-.29,0-.59,0-.88,0-.04,0-.09,0-.13,0h-.76c-1.72,0-3.47,0-5.26.01h-2.29c-1.27,0-2.56,0-3.87.01-.25,0-.51,0-.76,0-1.48,0-2.99,0-4.51,0h-2.3c-1.83,0-3.68,0-5.55.01h-.76l-.04,1.12c.25,0,.5,0,.75,0,1.85,0,3.7-.02,5.56-.02.49,0,.97,0,1.46,0,1.78-.01,3.56-.02,5.34-.02.25,0,.5,0,.75,0,1.04,0,2.08,0,3.12-.01.3,0,.61,0,.92,0,.46,0,.91,0,1.37,0,.25,0,.5,0,.76,0,1.75,0,3.51-.01,5.26-.02.37,0,.74,0,1.11,0,1.09,0,2.17-.01,3.25-.01.25,0,.5,0,.75,0,1.04,0,2.07-.01,3.11-.01.5,0,.99,0,1.49-.01,1.48,0,2.96-.01,4.43-.02.28,0,.56,0,.84,0,2.8,0,5.61-.02,8.41-.03l.05-1.01c-2.66,0-5.28,0-7.85,0Zm0,0h-1.28c-1.48,0-2.99.01-4.56.01-.29,0-.58,0-.87,0-1.21,0-2.46,0-3.72,0h-.75c-.85,0-1.72,0-2.59,0-.29,0-.59,0-.88,0-.04,0-.09,0-.13,0h-.76c-1.72,0-3.47,0-5.26.01h-2.29c-1.27,0-2.56,0-3.87.01-.25,0-.51,0-.76,0-1.48,0-2.99,0-4.51,0h-2.3c-1.83,0-3.68,0-5.55.01h-.76l-.04,1.12c.25,0,.5,0,.75,0,1.85,0,3.7-.02,5.56-.02.49,0,.97,0,1.46,0,1.78-.01,3.56-.02,5.34-.02.25,0,.5,0,.75,0,1.04,0,2.08,0,3.12-.01.3,0,.61,0,.92,0,.46,0,.91,0,1.37,0,.25,0,.5,0,.76,0,1.75,0,3.51-.01,5.26-.02.37,0,.74,0,1.11,0,1.09,0,2.17-.01,3.25-.01.25,0,.5,0,.75,0,1.04,0,2.07-.01,3.11-.01.5,0,.99,0,1.49-.01,1.48,0,2.96-.01,4.43-.02.28,0,.56,0,.84,0,2.8,0,5.61-.02,8.41-.03l.05-1.01c-2.66,0-5.28,0-7.85,0Zm0,0h-1.28c-1.48,0-2.99.01-4.56.01-.29,0-.58,0-.87,0-1.21,0-2.46,0-3.72,0h-.75c-.85,0-1.72,0-2.59,0-.29,0-.59,0-.88,0-.04,0-.09,0-.13,0h-.76c-1.72,0-3.47,0-5.26.01h-2.29c-1.27,0-2.56,0-3.87.01-.25,0-.51,0-.76,0-1.48,0-2.99,0-4.51,0h-2.3c-1.83,0-3.68,0-5.55.01h-.76l-.04,1.12c.25,0,.5,0,.75,0,1.85,0,3.7-.02,5.56-.02.49,0,.97,0,1.46,0,1.78-.01,3.56-.02,5.34-.02.25,0,.5,0,.75,0,1.04,0,2.08,0,3.12-.01.3,0,.61,0,.92,0,.46,0,.91,0,1.37,0,.25,0,.5,0,.76,0,1.75,0,3.51-.01,5.26-.02.37,0,.74,0,1.11,0,1.09,0,2.17-.01,3.25-.01.25,0,.5,0,.75,0,1.04,0,2.07-.01,3.11-.01.5,0,.99,0,1.49-.01,1.48,0,2.96-.01,4.43-.02.28,0,.56,0,.84,0,2.8,0,5.61-.02,8.41-.03l.05-1.01c-2.66,0-5.28,0-7.85,0Zm-36.54,50.08h-.75s-.87.01-.87.01l-3.94.02h-.75l-4.36.03h-.88s-1.84.02-1.84.02h-.76s-7.34.04-7.34.04h-.76s-.54.01-.54.01l-1.52,2.06h1.98s.76-.02.76-.02l7.34-.04h.76s.55,0,.55,0h.88s5.66-.04,5.66-.04h.75s2.73-.02,2.73-.02h.87s1.96-.02,1.96-.02h.75l.09-2.06h-.76Zm36.54-50.08h-1.28c-1.48,0-2.99.01-4.56.01-.29,0-.58,0-.87,0-1.21,0-2.46,0-3.72,0h-.75c-.85,0-1.72,0-2.59,0-.29,0-.59,0-.88,0-.04,0-.09,0-.13,0h-.76c-1.72,0-3.47,0-5.26.01h-2.29c-1.27,0-2.56,0-3.87.01-.25,0-.51,0-.76,0-1.48,0-2.99,0-4.51,0h-2.3c-1.83,0-3.68,0-5.55.01h-.76l-.04,1.12c.25,0,.5,0,.75,0,1.85,0,3.7-.02,5.56-.02.49,0,.97,0,1.46,0,1.78-.01,3.56-.02,5.34-.02.25,0,.5,0,.75,0,1.04,0,2.08,0,3.12-.01.3,0,.61,0,.92,0,.46,0,.91,0,1.37,0,.25,0,.5,0,.76,0,1.75,0,3.51-.01,5.26-.02.37,0,.74,0,1.11,0,1.09,0,2.17-.01,3.25-.01.25,0,.5,0,.75,0,1.04,0,2.07-.01,3.11-.01.5,0,.99,0,1.49-.01,1.48,0,2.96-.01,4.43-.02.28,0,.56,0,.84,0,2.8,0,5.61-.02,8.41-.03l.05-1.01c-2.66,0-5.28,0-7.85,0Zm-48.69.51l-.03.72c.25,0,.51,0,.76,0l.03-.72h-.76Zm10.54,49.59l-3.94.02h-.75l-4.36.03h-.88s-1.84.02-1.84.02h-.76s-7.34.04-7.34.04h-.76s-.54.01-.54.01h-.91s-1.53,2.07-1.53,2.07h.92s1.98-.02,1.98-.02h.76s7.34-.05,7.34-.05h.76s.55,0,.55,0h.88s5.66-.04,5.66-.04h.75s2.73-.02,2.73-.02h.87s1.29-2.06,1.29-2.06h-.87Zm38.15-50.09h-1.28c-1.48,0-2.99.01-4.56.01-.29,0-.58,0-.87,0-1.21,0-2.46,0-3.72,0h-.75c-.85,0-1.72,0-2.59,0-.29,0-.59,0-.88,0-.04,0-.09,0-.13,0h-.76c-1.72,0-3.47,0-5.26.01h-2.29c-1.27,0-2.56,0-3.87.01-.25,0-.51,0-.76,0-1.48,0-2.99,0-4.51,0h-2.3c-1.83,0-3.68,0-5.55.01h-.76c-1.61,0-3.23,0-4.87,0l-1.02,1.14c1.95,0,3.9-.02,5.85-.02.25,0,.5,0,.75,0,1.85,0,3.7-.02,5.56-.02.49,0,.97,0,1.46,0,1.78-.01,3.56-.02,5.34-.02.25,0,.5,0,.75,0,1.04,0,2.08,0,3.12-.01.3,0,.61,0,.92,0,.46,0,.91,0,1.37,0,.25,0,.5,0,.76,0,1.75,0,3.51-.01,5.26-.02.37,0,.74,0,1.11,0,1.09,0,2.17-.01,3.25-.01.25,0,.5,0,.75,0,1.04,0,2.07-.01,3.11-.01.5,0,.99,0,1.49-.01,1.48,0,2.96-.01,4.43-.02.28,0,.56,0,.84,0,2.8,0,5.61-.02,8.41-.03l.05-1.01c-2.66,0-5.28,0-7.85,0Zm187.87-.49c-8.01.03-16.55.06-25.48.09-.59,0-1.17,0-1.76,0-37.3.14-81.06.28-120.05.35-5.83.01-11.54.02-17.12.03-3.56,0-7.06,0-10.49.01l-.05.99c3.92-.02,7.84-.03,11.75-.04,5.22-.02,10.42-.04,15.62-.06,41.32-.14,82.23-.25,121.58-.29h.21c8.51-.01,16.94-.02,25.29-.02.01.02,1.08,1.4,2.6,3.36v-1.91c-1.34-1.61-2.08-2.49-2.09-2.51Zm0,0c-8.01.03-16.55.06-25.48.09-.59,0-1.17,0-1.76,0-37.3.14-81.06.28-120.05.35-5.83.01-11.54.02-17.12.03-3.56,0-7.06,0-10.49.01l-.05.99c3.92-.02,7.84-.03,11.75-.04,5.22-.02,10.42-.04,15.62-.06,41.32-.14,82.23-.25,121.58-.29h.21c8.51-.01,16.94-.02,25.29-.02.01.02,1.08,1.4,2.6,3.36v-1.91c-1.34-1.61-2.08-2.49-2.09-2.51Zm-248.11,50.71l-1.53,2.06h.92s1.52-2.07,1.52-2.07h-.91Zm11.54-49.71l-.03.72c.25,0,.51,0,.76,0l.03-.72h-.76Zm48.69-.5h-1.28c-1.48,0-2.99.01-4.56.01-.29,0-.58,0-.87,0-1.21,0-2.46,0-3.72,0h-.75c-.85,0-1.72,0-2.59,0-.29,0-.59,0-.88,0-.04,0-.09,0-.13,0h-.76c-1.72,0-3.47,0-5.26.01h-2.29c-1.27,0-2.56,0-3.87.01-.25,0-.51,0-.76,0-1.48,0-2.99,0-4.51,0h-2.3c-1.83,0-3.68,0-5.55.01h-.76c-1.61,0-3.23,0-4.87,0l-1.02,1.14c1.95,0,3.9-.02,5.85-.02.25,0,.5,0,.75,0,1.85,0,3.7-.02,5.56-.02.49,0,.97,0,1.46,0,1.78-.01,3.56-.02,5.34-.02.25,0,.5,0,.75,0,1.04,0,2.08,0,3.12-.01.3,0,.61,0,.92,0,.46,0,.91,0,1.37,0,.25,0,.5,0,.76,0,1.75,0,3.51-.01,5.26-.02.37,0,.74,0,1.11,0,1.09,0,2.17-.01,3.25-.01.25,0,.5,0,.75,0,1.04,0,2.07-.01,3.11-.01.5,0,.99,0,1.49-.01,1.48,0,2.96-.01,4.43-.02.28,0,.56,0,.84,0,2.8,0,5.61-.02,8.41-.03l.05-1.01c-2.66,0-5.28,0-7.85,0Zm-36.54,50.08h-.75s-.87.01-.87.01l-3.94.02h-.75l-4.36.03h-.88s-1.84.02-1.84.02h-.76s-7.34.04-7.34.04h-.76s-.54.01-.54.01l-1.52,2.06h1.98s.76-.02.76-.02l7.34-.04h.76s.55,0,.55,0h.88s5.66-.04,5.66-.04h.75s2.73-.02,2.73-.02h.87s1.96-.02,1.96-.02h.75l.09-2.06h-.76Zm224.41-50.57c-8.01.03-16.55.06-25.48.09-.59,0-1.17,0-1.76,0-37.3.14-81.06.28-120.05.35-5.83.01-11.54.02-17.12.03-3.56,0-7.06,0-10.49.01l-.05.99c3.92-.02,7.84-.03,11.75-.04,5.22-.02,10.42-.04,15.62-.06,41.32-.14,82.23-.25,121.58-.29h.21c8.51-.01,16.94-.02,25.29-.02.01.02,1.08,1.4,2.6,3.36v-1.91c-1.34-1.61-2.08-2.49-2.09-2.51Zm-248.11,50.71l-1.53,2.06h.92s1.52-2.07,1.52-2.07h-.91Zm11.54-49.71l-.03.72c.25,0,.51,0,.76,0l.03-.72h-.76Zm48.69-.5h-1.28c-1.48,0-2.99.01-4.56.01-.29,0-.58,0-.87,0-1.21,0-2.46,0-3.72,0h-.75c-.85,0-1.72,0-2.59,0-.29,0-.59,0-.88,0-.04,0-.09,0-.13,0h-.76c-1.72,0-3.47,0-5.26.01h-2.29c-1.27,0-2.56,0-3.87.01-.25,0-.51,0-.76,0-1.48,0-2.99,0-4.51,0h-2.3c-1.83,0-3.68,0-5.55.01h-.76c-1.61,0-3.23,0-4.87,0l-1.02,1.14c1.95,0,3.9-.02,5.85-.02.25,0,.5,0,.75,0,1.85,0,3.7-.02,5.56-.02.49,0,.97,0,1.46,0,1.78-.01,3.56-.02,5.34-.02.25,0,.5,0,.75,0,1.04,0,2.08,0,3.12-.01.3,0,.61,0,.92,0,.46,0,.91,0,1.37,0,.25,0,.5,0,.76,0,1.75,0,3.51-.01,5.26-.02.37,0,.74,0,1.11,0,1.09,0,2.17-.01,3.25-.01.25,0,.5,0,.75,0,1.04,0,2.07-.01,3.11-.01.5,0,.99,0,1.49-.01,1.48,0,2.96-.01,4.43-.02.28,0,.56,0,.84,0,2.8,0,5.61-.02,8.41-.03l.05-1.01c-2.66,0-5.28,0-7.85,0Zm-36.54,50.08h-.75s-.87.01-.87.01l-3.94.02h-.75l-4.36.03h-.88s-1.84.02-1.84.02h-.76s-7.34.04-7.34.04h-.76s-.54.01-.54.01l-1.52,2.06h1.98s.76-.02.76-.02l7.34-.04h.76s.55,0,.55,0h.88s5.66-.04,5.66-.04h.75s2.73-.02,2.73-.02h.87s1.96-.02,1.96-.02h.75l.09-2.06h-.76Zm224.41-50.57c-8.01.03-16.55.06-25.48.09-.59,0-1.17,0-1.76,0-37.3.14-81.06.28-120.05.35-5.83.01-11.54.02-17.12.03-3.56,0-7.06,0-10.49.01l-.05.99c3.92-.02,7.84-.03,11.75-.04,5.22-.02,10.42-.04,15.62-.06,41.32-.14,82.23-.25,121.58-.29h.21c8.51-.01,16.94-.02,25.29-.02.01.02,1.08,1.4,2.6,3.36v-1.91c-1.34-1.61-2.08-2.49-2.09-2.51Zm-248.11,50.71l-1.53,2.06h.92s1.52-2.07,1.52-2.07h-.91Zm11.54-49.71l-.03.72c.25,0,.51,0,.76,0l.03-.72h-.76Zm48.69-.5h-1.28c-1.48,0-2.99.01-4.56.01-.29,0-.58,0-.87,0-1.21,0-2.46,0-3.72,0h-.75c-.85,0-1.72,0-2.59,0-.29,0-.59,0-.88,0-.04,0-.09,0-.13,0h-.76c-1.72,0-3.47,0-5.26.01h-2.29c-1.27,0-2.56,0-3.87.01-.25,0-.51,0-.76,0-1.48,0-2.99,0-4.51,0h-2.3c-1.83,0-3.68,0-5.55.01h-.76c-1.61,0-3.23,0-4.87,0l-1.02,1.14c1.95,0,3.9-.02,5.85-.02.25,0,.5,0,.75,0,1.85,0,3.7-.02,5.56-.02.49,0,.97,0,1.46,0,1.78-.01,3.56-.02,5.34-.02.25,0,.5,0,.75,0,1.04,0,2.08,0,3.12-.01.3,0,.61,0,.92,0,.46,0,.91,0,1.37,0,.25,0,.5,0,.76,0,1.75,0,3.51-.01,5.26-.02.37,0,.74,0,1.11,0,1.09,0,2.17-.01,3.25-.01.25,0,.5,0,.75,0,1.04,0,2.07-.01,3.11-.01.5,0,.99,0,1.49-.01,1.48,0,2.96-.01,4.43-.02.28,0,.56,0,.84,0,2.8,0,5.61-.02,8.41-.03l.05-1.01c-2.66,0-5.28,0-7.85,0Zm-36.54,50.08h-.75s-.87.01-.87.01l-3.94.02h-.75l-4.36.03h-.88s-1.84.02-1.84.02h-.76s-7.34.04-7.34.04h-.76s-.54.01-.54.01l-1.52,2.06h1.98s.76-.02.76-.02l7.34-.04h.76s.55,0,.55,0h.88s5.66-.04,5.66-.04h.75s2.73-.02,2.73-.02h.87s1.96-.02,1.96-.02h.75l.09-2.06h-.76Z"/>
    <g>
      <path fill="#21426b" d="m293.08,300.66c-1.41,0-2.51-.98-2.46-2.18l3.82-78.82c.06-1.2,1.25-2.17,2.67-2.17s2.51.98,2.46,2.18l-3.82,78.82c-.06,1.2-1.25,2.17-2.67,2.17Z"/>
      <polygon fill="#fff" points="211.03 311.81 296.84 223.27 296.51 229.95 210.35 325.91 211.03 311.81"/>
      <path fill="#fff" d="m277.12,294.45v-.25s.45-10.9.45-10.9l4.44-6.64-.58-.46-3.8,5.7.26-6.42h-.75l-.31,7.62-4.08,6.12.4-10.03,2.74-3.71h-.91l-1.78,2.4.1-2.4.22-5.53-.73-.58-.25,6.11-.14,3.48-3.81,5.16.35-8.64.1-2.53,3.2-4.02-.57-.45-2.58,3.23.12-3.05c-.26.02-.51.04-.76.07l-.16,3.98-2.21,2.76-3.33,4.19.17-4.19h-.76l-.21,5.18-5.69,7.14.5-12.32h-.76l-.52,12.91-.02.4-2.19,2.75.81.15,1.33-1.67-.07,1.91.75.14.12-3.04.03-.03,5.66-7.11-.48,11.88-.31.43-1.31,1.76h.91l.66-.88-.04.88h.76l.07-1.76v-.2s5.58-7.52,5.58-7.52l-.31,7.72-.07,1.75h.76l.07-1.75.35-8.79,3.81-5.15-.4,10.16-2.53,3.79-1.17,1.75c.3,0,.59,0,.88,0l1.17-1.75,1.59-2.38-.1,2.38-.07,1.74h.75l.07-1.74.14-3.58,4.08-6.12-.39,9.7-.06,1.53-.13.2c.29,0,.59,0,.87,0h0s1.08-1.73,1.08-1.73h-.87l-.15.25Zm-14.89-1.75l.47-11.8,4.32-5.42,1.22-1.53-.06,1.53-.39,9.71-5.56,7.52Zm10.61-24.47l-.05,1.13.73.58.08-1.9c-.25.07-.51.13-.76.19Zm4.29,26.22v-.25s.45-10.9.45-10.9l4.44-6.64-.58-.46-3.8,5.7.26-6.42h-.75l-.31,7.62-4.08,6.12.4-10.03,2.74-3.71h-.91l-1.78,2.4.1-2.4.22-5.53-.73-.58-.25,6.11-.14,3.48-3.81,5.16.35-8.64.1-2.53,3.2-4.02-.57-.45-2.58,3.23.12-3.05c-.26.02-.51.04-.76.07l-.16,3.98-2.21,2.76-3.33,4.19.17-4.19h-.76l-.21,5.18-5.69,7.14.5-12.32h-.76l-.52,12.91-.02.4-2.19,2.75.81.15,1.33-1.67-.07,1.91.75.14.12-3.04.03-.03,5.66-7.11-.48,11.88-.31.43-1.31,1.76h.91l.66-.88-.04.88h.76l.07-1.76v-.2s5.58-7.52,5.58-7.52l-.31,7.72-.07,1.75h.76l.07-1.75.35-8.79,3.81-5.15-.4,10.16-2.53,3.79-1.17,1.75c.3,0,.59,0,.88,0l1.17-1.75,1.59-2.38-.1,2.38-.07,1.74h.75l.07-1.74.14-3.58,4.08-6.12-.39,9.7-.06,1.53-.13.2c.29,0,.59,0,.87,0h0s1.08-1.73,1.08-1.73h-.87l-.15.25Zm-14.89-1.75l.47-11.8,4.32-5.42,1.22-1.53-.06,1.53-.39,9.71-5.56,7.52Zm-6.88-.77l-.1,2.27-.07,1.77c.25,0,.51,0,.76,0l.07-1.77.09-2.14-.75-.14Zm17.48-23.7l-.05,1.13.73.58.08-1.9c-.25.07-.51.13-.76.19Zm4.29,26.22v-.25s.45-10.9.45-10.9l4.44-6.64-.58-.46-3.8,5.7.26-6.42h-.75l-.31,7.62-4.08,6.12.4-10.03,2.74-3.71h-.91l-1.78,2.4.1-2.4.22-5.53-.73-.58-.25,6.11-.14,3.48-3.81,5.16.35-8.64.1-2.53,3.2-4.02-.57-.45-2.58,3.23.12-3.05c-.26.02-.51.04-.76.07l-.16,3.98-2.21,2.76-3.33,4.19.17-4.19h-.76l-.21,5.18-5.69,7.14.5-12.32h-.76l-.52,12.91-.02.4-2.19,2.75.81.15,1.33-1.67-.07,1.91.75.14.12-3.04.03-.03,5.66-7.11-.48,11.88-.31.43-1.31,1.76h.91l.66-.88-.04.88h.76l.07-1.76v-.2s5.58-7.52,5.58-7.52l-.31,7.72-.07,1.75h.76l.07-1.75.35-8.79,3.81-5.15-.4,10.16-2.53,3.79-1.17,1.75c.3,0,.59,0,.88,0l1.17-1.75,1.59-2.38-.1,2.38-.07,1.74h.75l.07-1.74.14-3.58,4.08-6.12-.39,9.7-.06,1.53-.13.2c.29,0,.59,0,.87,0h0s1.08-1.73,1.08-1.73h-.87l-.15.25Zm-14.89-1.75l.47-11.8,4.32-5.42,1.22-1.53-.06,1.53-.39,9.71-5.56,7.52Zm-6.88-.77l-.1,2.27-.07,1.77c.25,0,.51,0,.76,0l.07-1.77.09-2.14-.75-.14Zm17.48-23.7l-.05,1.13.73.58.08-1.9c-.25.07-.51.13-.76.19Zm4.44,25.97l-.15.25v-.25s-.75,0-.75,0l-.06,1.53-.13.2c.29,0,.59,0,.87,0h0s1.08-1.73,1.08-1.73h-.87Zm-21.93-2.27l-.1,2.27-.07,1.77c.25,0,.51,0,.76,0l.07-1.77.09-2.14-.75-.14Zm17.48-23.7l-.05,1.13.73.58.08-1.9c-.25.07-.51.13-.76.19Zm4.44,25.97l-.15.25v-.25s-.75,0-.75,0l-.06,1.53-.13.2c.29,0,.59,0,.87,0h0s1.08-1.73,1.08-1.73h-.87Zm-21.93-2.27l-.1,2.27-.07,1.77c.25,0,.51,0,.76,0l.07-1.77.09-2.14-.75-.14Zm17.48-23.7l-.05,1.13.73.58.08-1.9c-.25.07-.51.13-.76.19Zm4.44,25.97l-.15.25v-.25s-.75,0-.75,0l-.06,1.53-.13.2c.29,0,.59,0,.87,0h0s1.08-1.73,1.08-1.73h-.87Zm-21.93-2.27l-.1,2.27-.07,1.77c.25,0,.51,0,.76,0l.07-1.77.09-2.14-.75-.14Zm17.48-23.7l-.05,1.13.73.58.08-1.9c-.25.07-.51.13-.76.19Zm4.44,25.97l-.15.25v-.25s-.75,0-.75,0l-.06,1.53-.13.2c.29,0,.59,0,.87,0h0s1.08-1.73,1.08-1.73h-.87Zm-21.93-2.27l-.1,2.27-.07,1.77c.25,0,.51,0,.76,0l.07-1.77.09-2.14-.75-.14Zm17.48-23.7l-.05,1.13.73.58.08-1.9c-.25.07-.51.13-.76.19Zm4.44,25.97l-.15.25v-.25s-.75,0-.75,0l-.06,1.53-.13.2c.29,0,.59,0,.87,0h0s1.08-1.73,1.08-1.73h-.87Zm-21.93-2.27l-.1,2.27-.07,1.77c.25,0,.51,0,.76,0l.07-1.77.09-2.14-.75-.14Zm17.48-23.7l-.05,1.13.73.58.08-1.9c-.25.07-.51.13-.76.19Zm-17.48,23.7l-.1,2.27-.07,1.77c.25,0,.51,0,.76,0l.07-1.77.09-2.14-.75-.14Zm17.48-23.7l-.05,1.13.73.58.08-1.9c-.25.07-.51.13-.76.19Zm-17.48,23.7l-.1,2.27-.07,1.77c.25,0,.51,0,.76,0l.07-1.77.09-2.14-.75-.14Zm17.48-23.7l-.05,1.13.73.58.08-1.9c-.25.07-.51.13-.76.19Zm-17.48,23.7l-.1,2.27-.07,1.77c.25,0,.51,0,.76,0l.07-1.77.09-2.14-.75-.14Zm17.48-23.7l-.05,1.13.73.58.08-1.9c-.25.07-.51.13-.76.19Zm-17.48,23.7l-.1,2.27-.07,1.77c.25,0,.51,0,.76,0l.07-1.77.09-2.14-.75-.14Zm17.48-23.7l-.05,1.13.73.58.08-1.9c-.25.07-.51.13-.76.19Zm-17.48,23.7l-.1,2.27-.07,1.77c.25,0,.51,0,.76,0l.07-1.77.09-2.14-.75-.14Zm17.48-23.7l-.05,1.13.73.58.08-1.9c-.25.07-.51.13-.76.19Zm-17.48,23.7l-.1,2.27-.07,1.77c.25,0,.51,0,.76,0l.07-1.77.09-2.14-.75-.14Zm17.48-23.7l-.05,1.13.73.58.08-1.9c-.25.07-.51.13-.76.19Zm20.51-25.78l2.72-3.41.06-1.25-2.73,3.42-1.94,2.43.42-8.53.07-1.48h-.91l-.12,2.55-.42,8.68-3.01,3.77.37-9.03.1-2.42h-.76s-.13,3.3-.13,3.3l-.37,9.15-2.59,3.25.38-9.54.08-1.94h-.76s-.11,2.82-.11,2.82l-.39,9.65-4.8,6.02.42-10.36.02-.38h-.76s-.05,1.26-.05,1.26l-.42,10.47-.24.3-.06.08-3.74,4.69.19-4.77.25-6.3h0s.11-2.74.11-2.74h-.76s-.14,3.61-.14,3.61h0s-.22,5.42-.22,5.42l-.23,5.76-1.17,1.47-.05.06-2.58,3.23.12-3.05.08-2.06.22-5.42.05-1.21.05-1.28h-.76s-.09,2.16-.09,2.16l-.02.34-.19,4.84-.11,2.71-.16,3.98-2.21,2.76-3.33,4.19.17-4.19.26-6.29.09-2.21.13-3.11h-.76s-.16,3.99-.16,3.99l-.06,1.4-.25,6.22-.21,5.18-5.69,7.14.5-12.32.05-1.32.14-3.61h-.76s-.18,4.49-.18,4.49h0s-.02.44-.02.44l-.52,12.91-.02.4-2.19,2.75-2.13,2.66-1.42,1.78-.63.79.03-.79.07-1.78.14-3.41.29-7.2.06-1.5h0s.21-5.15.21-5.15h-.75s-.24,6.01-.24,6.01h0s0,.04,0,.04l-.3,7.66-.14,3.55-.07,1.78-.04,1.11-.03.68-5.85,7.34.32-8,.05-1.12.07-1.79.18-4.59v-.17s.01,0,.01,0l.1-2.55h-.75s-.1,2.59-.1,2.59l-.04.84-.15,3.89-.07,1.79-.04,1.12-.36,8.99-7.47,9.37.68-16.89.06-1.44.03-.72h-.76s-.03.72-.03.72l-.1,2.31h0s-.68,17-.68,17l-7.73,9.7.74-18.15.18-4.36h-.76s-.21,5.24-.21,5.24h0s-.74,18.26-.74,18.26l-10.97,13.76-3.94,4.94.46.35.12.1.07-.1,3.22-4.02v-.02s10.98-13.78,10.98-13.78l-.63,15.67-1.53,2.08-1.53,2.06-5.11,6.91-3,4.05-3.15,4.26.6.42,2.49-3.36,3.98-5.39,5.11-6.9,1.52-2.06.57-.77-.03.77-.08,2.06-.28,6.8-.32,8.13-11.43,17.13-1.73,2.59.63.39,1.03-1.54,11.44-17.16-.67,16.6-11.65,18.55-.96,1.54.63.37.26-.4h0s11.66-18.59,11.66-18.59l-.56,14.07-9.6,16.12-2.24,3.77v.02s-2.48,4.15-2.48,4.15l.09.05.44.24.14-.24,1.75-2.94,6.84-11.46,30.89-51.79,3.9-6.55,1.23-2.06,29.24-49.02.61-1.03,1.03-1.72,6.49-10.89,1.02-1.7h0s.52-.89.52-.89h0s2.26-3.8,2.26-3.8l.07-1.45v-.11s-.06.11-.06.11l-2.72,4.57-1.68,2.81-.31.52.04-.74.35-7.16v-.03l1.98-3.15,2.78-4.42.07-1.5-2.78,4.42-1.98,3.15.48-10,1.84-2.76.12-.18,2.76-4.14.07-1.43-2.76,4.14-1.08,1.61-.89,1.34.06-1.34.29-5.99,1.96-2.64,2.74-3.7.06-1.32-2.74,3.7-1.96,2.64.44-8.98,1.94-2.44Zm-2.9,3.65l-.44,9.07-2.93,3.96.37-9.27,3-3.76Zm-4.54,23.39l-2.62,3.93.34-8.38,2.6-3.51-.32,7.97Zm.75-18.63l-.38,9.36-.72.97-1.88,2.54.1-2.54.29-7.08,2.59-3.25Zm-8.19,10.28l4.81-6.03-.25,6.08-.14,3.62-4.83,6.52.41-10.14v-.05Zm3.93,15.83l-.39,9.73-4.72,7.52-.15.25v-.25s.45-10.9.45-10.9l4.44-6.64.42-.63-.04.94Zm-6.07,18.78l-.13.2-.66,1.04-3.31,5.28.21-5.27.04-1.05.07-1.74.14-3.58,4.08-6.12-.39,9.7-.06,1.53Zm-8.21.43v-.21s.08-1.75.08-1.75l.35-8.79,3.81-5.15-.4,10.16-2.53,3.79-1.17,1.75-.14.21Zm9.03-20.7l-.31,7.62-4.08,6.12.4-10.03,2.74-3.71,1.31-1.77-.07,1.77Zm4.29.72l-3.8,5.7.26-6.42.08-2.02.03-.83,4.83-6.52-.35,8.51-.58.86-.48.72Zm-3.96-13.81l.2-.26-.42,10.27-.23.32-2.04,2.76-1.78,2.4.1-2.4.22-5.53.08-1.9.03-.85,3.84-4.81Zm-5.23,6.55l.55-.69.05-.06v.05l-.05,1.13-.25,6.11-.14,3.48-3.81,5.16.35-8.64.1-2.53,3.2-4.02Zm-5.22,6.54l1.22-1.53-.06,1.53-.39,9.71-5.56,7.52.47-11.8,4.32-5.42Zm-4.85,18.53l5.57-7.52-.31,7.72-.07,1.75-.04,1.06-.02.36-5.6,8.4.35-8.74.04-1.07.07-1.76v-.2Zm-6.5,8.79l4.26-5.75.79-1.08.66-.88-.04.88-.04,1.07-.39,9.93-5.75,8.62.52-12.79Zm6.24-20.9l-.48,11.88-.31.43-1.31,1.76-.8,1.08-3.29,4.45.18-4.44.05-1.08.07-1.77.09-2.14.12-3.04.03-.03,5.66-7.11Zm-11.23,14.09l1.42-1.78,2-2.51,1.33-1.67-.07,1.91-.1,2.27-.07,1.77-.04,1.09-.22,5.51-6.39,8.64.53-13.2.75-.93.88-1.1Zm-2.21,16.54l6.4-8.65-.52,12.91-6.44,9.65.56-13.92Zm-6.06-6.17l5.84-7.34-.53,13.28-5.87,7.93.56-13.88Zm-.61,15.18l5.87-7.93-.56,14.05-5.91,8.85.6-14.97Zm-2.06,32.47l-.46.72-7.12,11.35.45-11.23.18-4.42,1.53-2.29,1.37-2.06,4.65-6.96-.28,6.94-.08,2.06-.24,5.9Zm.99-5.91l.08-2.05.33-8.13,5.91-8.86-.57,14.22-1.73,2.75-1.29,2.06-2.91,4.64.19-4.62Zm-6.58-31.38l7.47-9.37-.56,13.96-7.5,10.13.59-14.72Zm-.64,16.02l7.5-10.13-.61,15.1-5.58,8.37-1.37,2.06-.59.88.04-.88.08-2.05.53-13.35Zm-7.87-5.34l7.72-9.69-.59,14.8-7.76,10.48.63-15.59Zm-.83,20.79l.08-2.06.07-1.84,7.76-10.48-.5,12.28-.08,2.05-.09,2.07-3.13,4.69-4.68,7.02.28-6.95.28-6.79Zm5.97,33.92l-7.87,13.21.56-13.99,7.84-12.49-.53,13.27Zm-7.24-2.26l.67-16.51,5.63-8.44,2.17-3.26-.13,3.23-.5,12.5-7.84,12.49Zm15.66-11.87l-7.61,12.77.53-13.19,7.58-12.08-.5,12.49Zm6.76-11.36l-5.95,10,.47-11.9.02-.51,3.84-6.13,1.29-2.06.8-1.27-.05,1.27-.08,2.05-.27,6.55-.08,1.99Zm7.3-12.26l-.97,1.63-1.23,2.06-3.9,6.56-.39.66.03-.65.26-6.54.09-2.06.1-2.54,6.47-10.3-.45,11.18Zm-5.96-2.36l.57-14.14,6.44-9.65-.54,13.49-6.47,10.3Zm12.56-8.73l-5.8,9.73.45-11.11,5.77-9.19-.43,10.57Zm-5.28-2.86l.54-13.41,5.75-8.62-.52,12.83-5.77,9.19Zm11.74-7.97l-5.64,9.48.42-10.5,5.63-8.95-.4,9.98Zm-5.16-2.5l.52-12.75,5.6-8.4-.49,12.19-5.63,8.95Zm9.84-5.36l-3.87,6.5.4-9.9,3.85-6.14-.38,9.55Zm.45-11.02l-3.86,6.14.48-12.11.38-.57.71-1.06,1.17-1.75,1.59-2.38-.1,2.38-.07,1.74-.04,1.05-.26,6.55Zm4.47,2.76l-4.11,6.9.38-9.47,4.1-6.53-.37,9.09Zm5.7-9.58l-.14.23-4.76,7.99.32-7.97.04-1.04h0s1.08-1.73,1.08-1.73l3.79-6.04-.25,6.04-.07,1.72-.03.8Zm3.45-5.79l-1.94,3.27-.69,1.17.05-1.17.29-7.32,2.63-4.19-.33,8.25Zm.39-9.72l-2.63,4.19.31-7.87.09-2.06.03-.66,2.62-3.92-.19,4.58-.16,3.94-.07,1.8Zm3.13,3.81l-2.71,4.55.32-8.17.61-.98,2.16-3.43-.24,4.95-.15,3.08Zm.46-9.52l-2.78,4.43.18-4.46.23-5.78,2.86-4.29-.49,10.07v.03Zm.56-11.53l-2.88,4.31.29-7.11.03-.74,2.92-3.95-.23,4.69-.13,2.8Zm-16.74,4.25l-.05,1.13.73.58.08-1.9c-.25.07-.51.13-.76.19Zm-17.48,23.7l-.1,2.27-.07,1.77c.25,0,.51,0,.76,0l.07-1.77.09-2.14-.75-.14Zm17.48-23.7l-.05,1.13.73.58.08-1.9c-.25.07-.51.13-.76.19Zm-17.48,23.7l-.1,2.27-.07,1.77c.25,0,.51,0,.76,0l.07-1.77.09-2.14-.75-.14Zm17.48-23.7l-.05,1.13.73.58.08-1.9c-.25.07-.51.13-.76.19Zm-17.48,23.7l-.1,2.27-.07,1.77c.25,0,.51,0,.76,0l.07-1.77.09-2.14-.75-.14Zm17.48-23.7l-.05,1.13.73.58.08-1.9c-.25.07-.51.13-.76.19Zm-17.48,23.7l-.1,2.27-.07,1.77c.25,0,.51,0,.76,0l.07-1.77.09-2.14-.75-.14Zm17.48-23.7l-.05,1.13.73.58.08-1.9c-.25.07-.51.13-.76.19Zm-17.48,23.7l-.1,2.27-.07,1.77c.25,0,.51,0,.76,0l.07-1.77.09-2.14-.75-.14Zm17.48-23.7l-.05,1.13.73.58.08-1.9c-.25.07-.51.13-.76.19Zm-17.48,23.7l-.1,2.27-.07,1.77c.25,0,.51,0,.76,0l.07-1.77.09-2.14-.75-.14Zm21.93,2.27l-.15.25v-.25s-.75,0-.75,0l-.06,1.53-.13.2c.29,0,.59,0,.87,0h0s1.08-1.73,1.08-1.73h-.87Zm-4.44-25.97l-.05,1.13.73.58.08-1.9c-.25.07-.51.13-.76.19Zm-17.48,23.7l-.1,2.27-.07,1.77c.25,0,.51,0,.76,0l.07-1.77.09-2.14-.75-.14Zm21.93,2.27l-.15.25v-.25s-.75,0-.75,0l-.06,1.53-.13.2c.29,0,.59,0,.87,0h0s1.08-1.73,1.08-1.73h-.87Zm-4.44-25.97l-.05,1.13.73.58.08-1.9c-.25.07-.51.13-.76.19Zm-17.48,23.7l-.1,2.27-.07,1.77c.25,0,.51,0,.76,0l.07-1.77.09-2.14-.75-.14Zm21.93,2.27l-.15.25v-.25s-.75,0-.75,0l-.06,1.53-.13.2c.29,0,.59,0,.87,0h0s1.08-1.73,1.08-1.73h-.87Zm-4.44-25.97l-.05,1.13.73.58.08-1.9c-.25.07-.51.13-.76.19Zm-17.48,23.7l-.1,2.27-.07,1.77c.25,0,.51,0,.76,0l.07-1.77.09-2.14-.75-.14Zm21.93,2.27l-.15.25v-.25s-.75,0-.75,0l-.06,1.53-.13.2c.29,0,.59,0,.87,0h0s1.08-1.73,1.08-1.73h-.87Zm-4.44-25.97l-.05,1.13.73.58.08-1.9c-.25.07-.51.13-.76.19Zm-17.48,23.7l-.1,2.27-.07,1.77c.25,0,.51,0,.76,0l.07-1.77.09-2.14-.75-.14Zm21.93,2.27l-.15.25v-.25s-.75,0-.75,0l-.06,1.53-.13.2c.29,0,.59,0,.87,0h0s1.08-1.73,1.08-1.73h-.87Zm-4.44-25.97l-.05,1.13.73.58.08-1.9c-.25.07-.51.13-.76.19Zm-17.48,23.7l-.1,2.27-.07,1.77c.25,0,.51,0,.76,0l.07-1.77.09-2.14-.75-.14Zm-8.98,54.08l-.08,2.05h.75l.09-2.06h-.76Zm30.75-51.55v-.25s.45-10.9.45-10.9l4.44-6.64-.58-.46-3.8,5.7.26-6.42h-.75l-.31,7.62-4.08,6.12.4-10.03,2.74-3.71h-.91l-1.78,2.4.1-2.4.22-5.53-.73-.58-.25,6.11-.14,3.48-3.81,5.16.35-8.64.1-2.53,3.2-4.02-.57-.45-2.58,3.23.12-3.05c-.26.02-.51.04-.76.07l-.16,3.98-2.21,2.76-3.33,4.19.17-4.19h-.76l-.21,5.18-5.69,7.14.5-12.32h-.76l-.52,12.91-.02.4-2.19,2.75.81.15,1.33-1.67-.07,1.91.75.14.12-3.04.03-.03,5.66-7.11-.48,11.88-.31.43-1.31,1.76h.91l.66-.88-.04.88h.76l.07-1.76v-.2s5.58-7.52,5.58-7.52l-.31,7.72-.07,1.75h.76l.07-1.75.35-8.79,3.81-5.15-.4,10.16-2.53,3.79-1.17,1.75c.3,0,.59,0,.88,0l1.17-1.75,1.59-2.38-.1,2.38-.07,1.74h.75l.07-1.74.14-3.58,4.08-6.12-.39,9.7-.06,1.53-.13.2c.29,0,.59,0,.87,0h0s1.08-1.73,1.08-1.73h-.87l-.15.25Zm-14.89-1.75l.47-11.8,4.32-5.42,1.22-1.53-.06,1.53-.39,9.71-5.56,7.52Zm10.61-24.47l-.05,1.13.73.58.08-1.9c-.25.07-.51.13-.76.19Zm-17.48,23.7l-.1,2.27-.07,1.77c.25,0,.51,0,.76,0l.07-1.77.09-2.14-.75-.14Zm21.77,2.53v-.25s.45-10.9.45-10.9l4.44-6.64-.58-.46-3.8,5.7.26-6.42h-.75l-.31,7.62-4.08,6.12.4-10.03,2.74-3.71h-.91l-1.78,2.4.1-2.4.22-5.53-.73-.58-.25,6.11-.14,3.48-3.81,5.16.35-8.64.1-2.53,3.2-4.02-.57-.45-2.58,3.23.12-3.05c-.26.02-.51.04-.76.07l-.16,3.98-2.21,2.76-3.33,4.19.17-4.19h-.76l-.21,5.18-5.69,7.14.5-12.32h-.76l-.52,12.91-.02.4-2.19,2.75.81.15,1.33-1.67-.07,1.91.75.14.12-3.04.03-.03,5.66-7.11-.48,11.88-.31.43-1.31,1.76h.91l.66-.88-.04.88h.76l.07-1.76v-.2s5.58-7.52,5.58-7.52l-.31,7.72-.07,1.75h.76l.07-1.75.35-8.79,3.81-5.15-.4,10.16-2.53,3.79-1.17,1.75c.3,0,.59,0,.88,0l1.17-1.75,1.59-2.38-.1,2.38-.07,1.74h.75l.07-1.74.14-3.58,4.08-6.12-.39,9.7-.06,1.53-.13.2c.29,0,.59,0,.87,0h0s1.08-1.73,1.08-1.73h-.87l-.15.25Zm-14.89-1.75l.47-11.8,4.32-5.42,1.22-1.53-.06,1.53-.39,9.71-5.56,7.52Zm10.61-24.47l-.05,1.13.73.58.08-1.9c-.25.07-.51.13-.76.19Zm4.29,26.22v-.25s.45-10.9.45-10.9l4.44-6.64-.58-.46-3.8,5.7.26-6.42h-.75l-.31,7.62-4.08,6.12.4-10.03,2.74-3.71h-.91l-1.78,2.4.1-2.4.22-5.53-.73-.58-.25,6.11-.14,3.48-3.81,5.16.35-8.64.1-2.53,3.2-4.02-.57-.45-2.58,3.23.12-3.05c-.26.02-.51.04-.76.07l-.16,3.98-2.21,2.76-3.33,4.19.17-4.19h-.76l-.21,5.18-5.69,7.14.5-12.32h-.76l-.52,12.91-.02.4-2.19,2.75.81.15,1.33-1.67-.07,1.91.75.14.12-3.04.03-.03,5.66-7.11-.48,11.88-.31.43-1.31,1.76h.91l.66-.88-.04.88h.76l.07-1.76v-.2s5.58-7.52,5.58-7.52l-.31,7.72-.07,1.75h.76l.07-1.75.35-8.79,3.81-5.15-.4,10.16-2.53,3.79-1.17,1.75c.3,0,.59,0,.88,0l1.17-1.75,1.59-2.38-.1,2.38-.07,1.74h.75l.07-1.74.14-3.58,4.08-6.12-.39,9.7-.06,1.53-.13.2c.29,0,.59,0,.87,0h0s1.08-1.73,1.08-1.73h-.87l-.15.25Zm-14.89-1.75l.47-11.8,4.32-5.42,1.22-1.53-.06,1.53-.39,9.71-5.56,7.52Zm10.61-24.47l-.05,1.13.73.58.08-1.9c-.25.07-.51.13-.76.19Z"/>
      <path fill="#21426b" d="m215.53,307.73l-.63,13.12-.97,20.07-.06,1.25v.02s-.2,4.01-.2,4.01l-.1,2.05-.34,6.92-.19,4-.06,1.32-.96,19.77-.07,1.44-.87,17.99-.07,1.5h0s-.71,14.73-.71,14.73v.02s-.03.63-.03.63v.02s-.06,1.26-.06,1.26l-.14,2.94h-1.61l-.14.24-.44-.24h-6.4l3.17-65.47.34-7.01.1-2.05,1.87-38.52c.11-2.34,2.13-4.24,4.5-4.23,2.18,0,3.92,1.62,4.08,3.7.02.18.02.36.01.54Z"/>
    </g>
  </g>
  <g>
    <g opacity=".31">
      <ellipse cx="96.94" cy="376.34" fill="#144355" rx="67.96" ry="10.15"/>
    </g>
    <g>
      <path fill="#ffab96" d="m92.18,196.03l-2.23,15.23-.06.4s-7.2-.8-14.92-2.44c-7.91-1.68-16.36-4.25-18.19-7.74-3.62-6.91,20.59-37.59,20.59-37.59l8.55,5.21-10.62,23.31,9.83,2.11.45.1,6.59,1.42Z"/>
      <g opacity=".6">
        <path fill="#eb8366" d="m89.96,211.26l-.06.4s-7.2-.8-14.92-2.44c3.36-4.75,8.82-12.72,10.16-14.7l.45.1,4.36,16.65Z"/>
      </g>
      <path fill="#f49d8c" d="m162.76,241.26s7.88,16.07,4.39,20.22c-3.49,4.15-8.68,4.25-10.48,3.02s-11.51-20.86-11.51-20.86l17.6-2.38Z"/>
      <path fill="#ec773f" d="m165.28,244.23s-4.41,2.22-9.69,3.44c-3.2.74-6.73,1.11-9.79.39l-8.63-17.47,5.93-7.75,7.49-9.79s12.57,20.14,14.69,31.18Z"/>
      <g opacity=".21">
        <path fill="#200e10" d="m155.59,247.67c-3.2.74-6.73,1.11-9.79.39l-8.63-17.47,5.93-7.75h6.56s-4.18,15.95-1.59,18.59c1.86,1.9,5.42,4.85,7.52,6.24Z"/>
      </g>
      <path fill="#200e10" d="m121.96,308.36s17.19.42,24.73-15.93c0,0-20.91-5.52-24.73,15.93Z"/>
      <path fill="#ffab96" d="m81.83,307.51s-2.42,4.5-8.89,11.55c-2.3,2.51-5.12,5.34-8.52,8.41-7.5,6.76-14.64,13.09-20.15,18.34-4.01,3.82-7.15,7.06-8.94,9.48-4.25,5.73-14.65-.85-11.68-8.49,0,0,4.54-5.49,8.27-10.75.22-.31.44-.62.65-.93,3.82-5.52,7.64-17.15,21.23-23.33l2.45-4.72,6.04-11.65,19.53,12.1Z"/>
      <path fill="#eb8366" d="m81.83,307.51s-2.42,4.5-8.89,11.55c-4.91-7.81-12.26-10.84-16.69-12l6.04-11.65,19.53,12.1Z"/>
      <path fill="#ffab96" d="m153.6,307.51c-1.07,5.97-9.51,26.39-13.87,39.87-1.69,5.23-2.77,9.41-2.57,11.31,0,0-12.66,4.46-16.05,0,0,0,2.97-7.22,3.19-10.83.03-.51.08-1.48.17-2.79.49-7.88,2.11-27.98,6.84-33.28l-3.32-4.84-6.88-10.05,19.96-6.87s1.82,1.2,4.08,3.11c4.01,3.4,9.4,9.08,8.45,14.37Z"/>
      <path fill="#eb8366" d="m145.16,293.14s-11.77,6.36-17.17,13.8l-6.88-10.05,19.96-6.87s1.82,1.2,4.08,3.11Z"/>
      <path fill="#f0f6f7" d="m137.17,358.69s-12.66,4.46-16.05,0c0,0,2.97-7.22,3.19-10.83.03-.51.08-1.48.17-2.79,4.22,1.93,10.61,4.1,15.27,2.32-1.69,5.23-2.77,9.41-2.57,11.31Z"/>
      <path fill="#f0f6f7" d="m44.27,345.81c-4.01,3.82-7.15,7.06-8.94,9.48-4.25,5.73-14.65-.85-11.68-8.49,0,0,4.54-5.49,8.27-10.75,2.39,2.62,7.51,7.79,12.35,9.76Z"/>
      <path fill="#21426b" d="m146.7,292.44c-16.04,2.76-24.73,15.93-24.73,15.93l-16.93-16-4.65-4.39-16.22,23.78c-25.48.64-27.82-11.89-27.82-11.89,5.31-12.95,18.9-41.41,18.9-41.41,0,0,45.87,4.88,46.08,7.43.21,2.55,25.37,26.54,25.37,26.54Z"/>
      <g opacity=".21">
        <path fill="#200e10" d="m100.39,287.98l13.2-8.06c-3.84,3.28-6.91,8.95-8.56,12.45l-4.65-4.39Z"/>
      </g>
      <path fill="#21426b" d="m39.62,381.15c-6.27,4.11-15.14.87-19.17-2.27-4.03-3.14-5.06-16.33-4.41-22.39.23-2.17,1.43-4.28,2.87-6.11,2.58-3.26,5.94-5.57,5.94-5.57-.81,3.14.92,8.33.92,8.33,8.32-3.51,11.07.45,11.72,1.72-.06.25-.13.52-.21.82-1.58,6.33-.69,13.03-.69,13.03,2.26,3.39,3.13,6.19,3.38,8.27.33,2.68-.35,4.17-.35,4.17Z"/>
      <path fill="#f0f6f7" d="m34.97,359.84c-.16,0-.31-.07-.42-.2-2.74-3.52-9.57-.52-9.64-.49-.27.12-.58,0-.7-.27-.12-.27,0-.58.27-.7.31-.14,7.66-3.36,10.91.81.18.23.14.56-.09.74-.1.08-.21.11-.33.11Z"/>
      <path fill="#f0f6f7" d="m25.24,363.3c-.2,0-.39-.11-.48-.3-.13-.26-.01-.58.25-.71.27-.13,6.74-3.14,10.32.09.22.2.23.53.04.75-.2.22-.53.23-.75.04-3.05-2.75-9.09.06-9.15.09-.07.03-.15.05-.23.05Z"/>
      <path fill="#f0f6f7" d="m35.51,366.87c-.09,0-.18-.02-.26-.07-3.42-1.91-8.7.01-8.75.03-.27.1-.58-.04-.68-.31-.1-.27.04-.58.31-.68.23-.09,5.79-2.12,9.64.03.26.14.35.47.2.72-.1.17-.28.27-.46.27Z"/>
      <path fill="#f0f6f7" d="m39.62,381.15c-6.27,4.11-15.14.87-19.17-2.27-4.03-3.14-5.06-16.33-4.41-22.39.23-2.17,1.43-4.28,2.87-6.11,0,0,0,0,0,0,0,0-1.37,20.82,2.96,24.06,4.19,3.15,9.5,7.3,18.09,2.54.33,2.68-.35,4.17-.35,4.17Z"/>
      <path fill="#21426b" d="m160.68,376.17c-.16.56-.4,1.13-.71,1.71-1.93,3.63-7.05,3.95-11.86,3.74-5.96-.27-11.74-1.83-17.14-4.38-3.98-1.88-8.87-.42-12.66-2.71-2.1-1.27-2.28-2.67-2.03-4.66.03-.22.06-.46.09-.7.3-2.01.95-3.96,1.67-5.85.96-2.52,2.68-4.61,3.97-6.98-.08,5.31,7.2,4.22,7.2,4.22,6.1-6.75,8.86-3.19,9.71-2.76.85.43,2.57,3.42,5.13,5.77,2.56,2.35,4.7,3.1,10.9,5.24,5.21,1.81,6.57,4.42,5.73,7.36Z"/>
      <path fill="#f0f6f7" d="m132.32,365.29c-.15,0-.3-.07-.39-.21-.14-.21-.08-.5.13-.64.22-.15,5.53-3.66,9.73-3.76.25,0,.47.2.47.45,0,.26-.2.47-.45.47-3.93.09-9.18,3.57-9.24,3.6-.08.05-.17.08-.26.08Z"/>
      <path fill="#f0f6f7" d="m138.93,368.78c-.09,0-.18-.02-.27-.07-.25-.15-.33-.47-.19-.72.08-.14,2.09-3.47,6.8-3.9.29-.03.54.19.57.47.03.29-.19.54-.47.57-4.16.38-5.92,3.27-6,3.39-.1.16-.27.26-.45.26Z"/>
      <path fill="#f0f6f7" d="m144.27,371.24c-.12,0-.24-.04-.34-.12-.22-.19-.25-.52-.06-.74.13-.15,3.13-3.67,6.56-3.67.03,0,.07,0,.1,0,.29,0,.52.25.51.53,0,.29-.24.51-.52.51,0,0,0,0-.01,0-.03,0-.05,0-.08,0-2.94,0-5.73,3.27-5.75,3.3-.1.12-.25.19-.4.19Z"/>
      <path fill="#f0f6f7" d="m160.68,376.17c-.16.56-.4,1.13-.71,1.71-1.93,3.63-7.05,3.95-11.86,3.74-5.96-.27-11.74-1.83-17.14-4.38-3.98-1.88-8.87-.42-12.66-2.71-2.1-1.27-2.28-2.67-2.03-4.66,3.18.5,11.18,1.89,16.88,4.07,7.26,2.78,14.63,4.38,19.87,4.27,2.35-.05,5.21-1,7.65-2.03Z"/>
      <path fill="#ec773f" d="m150.68,223c.05,5.31-4.09,13.17-14.5,21.87-10.41,8.7-12.09,23.78-12.09,23.78-24.84,14.65-50.96-8.07-50.96-8.07,1.91-6.74,7.5-17.5,12.77-26.88,4.69-8.35,9.14-15.61,10.54-18.01,1.49-2.57,4.76-7.58,8.28-11.91,3.48-4.28,7.21-7.87,9.75-7.75,3.19.15,9.16,1.97,13.18,3.3,2.39.8,4.09,1.42,4.09,1.42l7.22,3.7,5.98,4.17,4.74,3.3c.72.5,1.14,1.33,1.11,2.2-.06,1.84-.14,5.28-.1,8.87Z"/>
      <path fill="#f0f6f7" d="m144.94,208.63c-.28,3.9-5.65,9.67-13.59,4.11-6.64-4.65-4.82-10.89-3.71-13.4,2.39.8,4.09,1.42,4.09,1.42l7.22,3.7,5.98,4.17Z"/>
      <g opacity=".21">
        <path fill="#200e10" d="m108.69,212.73s-14.03,12.24-22.79,20.97c4.69-8.35,9.14-15.61,10.54-18.01,1.49-2.57,4.76-7.58,8.28-11.91l3.98,8.95Z"/>
      </g>
      <path fill="#ec773f" d="m114.46,196.03l-29.01-1.97c-2.38,1.52-5.95,16.06-4.9,19.81,0,0,21.97,4.87,23.8,4.87s13.5-10.15,10.1-22.71Z"/>
      <g opacity=".21">
        <path fill="#200e10" d="m117.08,277.79l-3.49,2.13c1.11-.95,2.27-1.69,3.49-2.13Z"/>
      </g>
      <path fill="#ffab96" d="m136.57,240.15s23.03,9.32,24.63,10.51c1.6,1.19,7.75,6.39,6.52,9.78-1.23,3.4-7.55,8.81-17.93.75-8.58-6.66-15.79-9.84-15.79-9.84l2.58-11.2Z"/>
      <g>
        <path fill="#ffab96" d="m137.56,240.15s-2.61-10.3-7.61-11.02c-5-.73-12.62.69-12.83,2.65s1.74,1.62,1.74,1.62c0,0-3.7,3.93.65,4.58,0,0-3.15,2.34,1.31,3.45,0,0-2.39,2.64.87,3.07s4.35-.65,5,.44.06,5.55,6.88,6.42c0,0,9.58-1.04,3.99-11.2Z"/>
        <path fill="#eb8366" d="m118.91,233.55l-.11-.31c5.78-1.98,8.38-.06,8.49.03l-.2.26s-2.58-1.89-8.18.02Z"/>
        <path fill="#eb8366" d="m119.62,238.1l-.22-.24c2.01-1.82,6.38-1.1,7.81-.87.22.04.41.07.46.07v.33c-.07,0-.21-.02-.51-.07-1.4-.23-5.64-.92-7.54.79Z"/>
        <path fill="#eb8366" d="m120.88,241.58l-.13-.3c2.51-1.12,6.29-.87,6.45-.86l-.02.33s-3.86-.26-6.3.83Z"/>
      </g>
      <g>
        <path fill="#ffab96" d="m74.23,161.34s2.22,8.22,6.74,8.07,12.38-10.54,12.38-10.54c0,0-4.09-7.64-4.4-7.23s-14.73,9.7-14.73,9.7Z"/>
        <g>
          <path fill="#21426b" d="m137.52,114.42c-7.63-8.92-19.01-11.65-27.93-4.02-5.26,4.5-8.82,11.91-9.3,19.07l-3.84,16.37-.06.23-.58,2.46c-.11.48.01.99.33,1.37s.81.58,1.3.54l2.52-.19.24-.02,16.77-1.25c7.14.64,15.02-1.73,20.28-6.22,8.92-7.63,7.88-19.42.25-28.35Zm-6.65,24.35c-.43.36-1.07.31-1.44-.11s-.31-1.07.11-1.43,1.07-.31,1.43.11.32,1.07-.11,1.44Zm.48-4.21c-.43.36-1.07.31-1.43-.11s-.32-1.07.11-1.44,1.07-.32,1.44.11.31,1.07-.11,1.44Zm-5.51-.1c-.36-.43-.31-1.07.11-1.43s1.07-.31,1.43.11.31,1.07-.11,1.43-1.07.32-1.43-.11Zm-3.42,4.26c-.43.36-1.07.32-1.43-.11s-.31-1.07.11-1.43,1.07-.31,1.43.11.31,1.07-.11,1.43Zm8.01-8.19c-.36-.43-.31-1.07.11-1.43s1.07-.31,1.43.11.31,1.07-.11,1.43-1.07.32-1.43-.11Zm-7.46,2.75c.36.43.31,1.07-.11,1.43s-1.07.31-1.43-.11-.32-1.07.11-1.44,1.07-.31,1.44.11Zm3.55-4.38c.43-.37,1.07-.32,1.44.11s.31,1.07-.11,1.44-1.07.31-1.43-.11-.32-1.07.11-1.44Zm-8.13,8.47c.36.43.31,1.07-.11,1.43s-1.07.32-1.44-.11-.31-1.07.11-1.44,1.07-.32,1.43.11Zm12.77-10.92c-.37-.43-.31-1.07.11-1.44s1.07-.32,1.43.11.31,1.07-.11,1.43-1.07.32-1.44-.11Zm-12.04,6.84c.37.43.32,1.07-.11,1.44s-1.07.31-1.44-.11-.31-1.07.11-1.43,1.07-.31,1.43.11Zm3.24-4.47c.43-.36,1.07-.31,1.43.11s.31,1.07-.11,1.43-1.07.31-1.43-.11-.31-1.07.11-1.43Zm4.65-2.28c-.36-.43-.31-1.07.11-1.43s1.07-.31,1.43.11.32,1.07-.11,1.44-1.07.31-1.44-.11Zm2.36-3.74c-.43.37-1.07.32-1.44-.11s-.32-1.07.11-1.44,1.07-.31,1.44.11.31,1.07-.11,1.43Zm-9.82,6.49c.36.43.31,1.07-.11,1.43s-1.07.31-1.43-.11-.32-1.07.11-1.44,1.07-.31,1.44.11Zm3.55-4.38c.43-.37,1.07-.32,1.44.11s.31,1.07-.11,1.44-1.07.31-1.43-.11-.32-1.07.11-1.44Zm-7.93,8.7c.36.43.31,1.07-.11,1.43s-1.07.32-1.44-.11-.32-1.07.11-1.44,1.07-.31,1.44.11Zm6.15-12.34c.37.43.32,1.07-.11,1.44s-1.07.31-1.44-.11-.31-1.07.11-1.43,1.07-.32,1.44.11Zm3.52-3.77c.43-.36,1.07-.31,1.43.11s.31,1.07-.11,1.43-1.07.32-1.44-.11-.31-1.07.11-1.44Zm-8.5,8.03c.37.43.32,1.07-.11,1.44s-1.07.31-1.44-.11-.32-1.07.11-1.43,1.07-.31,1.43.11Zm-4.38,4.32c.37.43.31,1.07-.11,1.43s-1.07.32-1.44-.11-.31-1.07.11-1.44,1.07-.31,1.43.11Zm6.99-5.02c.43-.36,1.07-.31,1.43.11s.31,1.07-.11,1.43-1.07.31-1.43-.11-.31-1.07.11-1.43Zm-3.05,4.7c.36.43.31,1.07-.11,1.43s-1.07.31-1.43-.11-.31-1.07.11-1.43,1.07-.31,1.43.11Zm7.9-6.75c-.36-.43-.31-1.07.11-1.43s1.07-.31,1.43.11.31,1.07-.11,1.43-1.07.31-1.43-.11Zm-11.11,2.99c.36.43.31,1.07-.11,1.43s-1.07.31-1.43-.11-.31-1.07.11-1.43,1.07-.31,1.43.11Zm3.05-4.7c.43-.36,1.07-.31,1.43.11s.31,1.07-.11,1.43-1.07.31-1.43-.11-.31-1.07.11-1.43Zm4.85-2.05c-.36-.43-.31-1.07.11-1.43s1.07-.31,1.43.11.31,1.07-.11,1.43-1.07.31-1.43-.11Zm-2.59-.08c-.43.36-1.07.32-1.43-.11s-.31-1.07.11-1.43,1.07-.32,1.44.11.31,1.07-.11,1.44Zm-4.04-1.51c.36.43.31,1.07-.11,1.43s-1.07.31-1.43-.11-.32-1.07.11-1.44,1.07-.31,1.44.11Zm-.83,4.34c.37.43.31,1.07-.11,1.43s-1.07.32-1.43-.11-.32-1.07.11-1.43,1.07-.31,1.43.11Zm11.79,16.92c-.37-.43-.32-1.07.11-1.44s1.07-.31,1.44.11.31,1.07-.11,1.43-1.07.31-1.43-.11Zm-25.12,8.43l-.48.04.11-.47,2-8.53c.65,1.74,1.58,3.36,2.8,4.8s2.69,2.6,4.3,3.51l-8.74.65Z"/>
          <rect width="28.81" height="5.79" x="74.28" y="153.39" fill="#21426b" transform="rotate(-40.53 88.695 156.3)"/>
          <rect width="18.93" height="7.75" x="73.4" y="157.38" fill="#d23838" rx="3.38" ry="3.38" transform="rotate(-40.53 82.878 161.262)"/>
          <rect width="5.89" height="9.9" x="74.97" y="160.55" fill="#d23838" rx="2.94" ry="2.94" transform="rotate(-40.53 77.924 165.51)"/>
          <rect width="3.22" height="7.75" x="95.41" y="145.28" fill="#d23838" rx="1.61" ry="1.61" transform="rotate(-40.53 97.02 149.172)"/>
          <g opacity=".21">
            <path fill="#200e10" d="m135.48,116.16c-6.68-7.81-16.34-10.41-24.16-3.72-7.81,6.68-11.72,20.99-5.04,28.8s21.42,6.18,29.23-.5c7.81-6.68,6.64-16.76-.04-24.57Zm-10.93,8.88c.36.43.31,1.07-.11,1.44s-1.07.31-1.43-.11-.32-1.07.11-1.44,1.07-.32,1.44.11Zm1.74-7.42c.37.43.31,1.07-.11,1.43s-1.07.32-1.44-.11-.31-1.07.11-1.44,1.07-.31,1.43.11Zm-4.95,3.66c.37.43.32,1.07-.11,1.44s-1.07.31-1.44-.11-.31-1.07.11-1.43,1.07-.32,1.44.11Zm-8.91-2.51c-.37-.43-.32-1.07.11-1.44s1.07-.31,1.44.11.31,1.07-.11,1.43-1.07.31-1.43-.11Zm-.83,4.34c-.36-.43-.32-1.07.11-1.43s1.07-.31,1.43.11.31,1.07-.11,1.43-1.07.32-1.43-.11Zm4.98-4.26c-.36-.43-.31-1.07.11-1.43s1.07-.32,1.44.11.31,1.07-.11,1.44-1.07.32-1.43-.11Zm-.83,2.24c.43-.36,1.07-.31,1.43.11s.31,1.07-.11,1.43-1.07.31-1.43-.11-.31-1.07.11-1.43Zm-4.59,6.02c-.36-.43-.31-1.07.11-1.43s1.07-.31,1.43.11.31,1.07-.11,1.43-1.07.31-1.43-.11Zm9.44-8.07c-.36-.43-.31-1.07.11-1.43s1.07-.31,1.43.11.31,1.07-.11,1.43-1.07.31-1.43-.11Zm-5.68,6.39c.43-.36,1.07-.31,1.43.11s.32,1.07-.11,1.44-1.07.31-1.44-.11-.32-1.07.11-1.43Zm-4.5,5.76c-.36-.43-.31-1.07.11-1.44s1.07-.31,1.43.11.31,1.07-.11,1.43-1.07.32-1.44-.11Zm8.54-6.34c.43-.36,1.07-.31,1.43.11s.31,1.07-.11,1.43-1.07.31-1.43-.11-.31-1.07.11-1.43Zm-4.59,6.02c-.36-.43-.31-1.07.11-1.43s1.07-.31,1.43.11.31,1.07-.11,1.43-1.07.31-1.43-.11Zm9.44-8.07c-.36-.43-.31-1.07.11-1.43s1.07-.31,1.43.11.31,1.07-.11,1.43-1.07.31-1.43-.11Zm-5.68,6.39c.43-.36,1.07-.31,1.44.11s.31,1.07-.11,1.43-1.07.31-1.43-.11-.32-1.07.11-1.44Zm-4.49,5.76c-.37-.43-.32-1.07.11-1.44s1.07-.31,1.44.11.31,1.07-.11,1.43-1.07.32-1.44-.11Zm14.32-12.24c-.37-.43-.32-1.07.11-1.44s1.07-.31,1.44.11.31,1.07-.11,1.43-1.07.32-1.44-.11Zm-10.37,11.92c-.36-.43-.31-1.07.11-1.43s1.07-.31,1.43.11.32,1.07-.11,1.44-1.07.31-1.44-.11Zm4.79-5.79c.43-.36,1.07-.31,1.43.11s.31,1.07-.11,1.43-1.07.31-1.43-.11-.31-1.07.11-1.43Zm4.65-2.28c-.36-.43-.31-1.07.11-1.43s1.07-.31,1.43.11.32,1.07-.11,1.44-1.07.31-1.44-.11Zm-4.05,6.73c.36.43.31,1.07-.11,1.43s-1.07.31-1.43-.11-.32-1.07.11-1.44,1.07-.31,1.44.11Zm3.55-4.38c.43-.37,1.07-.32,1.44.11s.31,1.07-.11,1.44-1.07.31-1.43-.11-.32-1.07.11-1.44Zm-9.67,9.79c-.37-.43-.31-1.07.11-1.44s1.07-.32,1.43.11.31,1.07-.11,1.43-1.07.32-1.44-.11Zm14.32-12.24c-.37-.43-.31-1.07.11-1.44s1.07-.32,1.43.11.31,1.07-.11,1.43-1.07.32-1.44-.11Zm-10.18,12.15c-.36-.43-.31-1.07.11-1.43s1.07-.31,1.43.11.31,1.07-.11,1.43-1.07.32-1.43-.11Zm4.85-4.15c-.36-.43-.31-1.07.11-1.43s1.07-.31,1.43.11.31,1.07-.11,1.43-1.07.32-1.43-.11Zm4.59-3.92c-.36-.43-.31-1.07.11-1.43s1.07-.31,1.43.11.31,1.07-.11,1.43-1.07.32-1.43-.11Zm-5.5,8.17c-.37-.43-.32-1.07.11-1.44s1.07-.31,1.44.11.31,1.07-.11,1.43-1.07.31-1.43-.11Zm4.98-4.26c-.37-.43-.32-1.07.11-1.44s1.07-.32,1.44.11.31,1.07-.11,1.44-1.07.31-1.43-.11Zm-.49,4.21c-.36-.43-.31-1.07.11-1.43s1.07-.31,1.43.11.32,1.07-.11,1.44-1.07.31-1.44-.11Z"/>
          </g>
        </g>
        <path fill="#ffab96" d="m84.81,170.53s11.84-9.67,11.12-13.67c-.73-4-4.24-2.91-7.51-1.7-3.27,1.21-6.3,1.58-4.48,3.64s5.21,2.18,5.21,2.18l-6.46,6.08c-.16,2.6-.04,3.45,2.14,3.46Z"/>
        <path fill="#ffab96" d="m74.23,161.34s3.03-.05,3.76,1.01,1.06,5.22,2.97,4.45,2-2.42,2-2.42c0,0,4.61-.25,4.12-3.03,0,0,3.39.36,3.03-2.18-.22-1.56.74-3.68,1.06-5.19.54-2.52-.87-4.47-3.44-4.96-1.04-.2-2.88-.17-3.7.63-.14.14-.86,1.95-.71,2,0,0-3.27-1.13-4.12,2.4,0,0-2.06-.58-1.82,2.69,0,0-4.48,2.06-3.15,4.61Z"/>
        <path fill="#eb8366" d="m82.8,164.41c-1.42-6.6-5.41-7.51-5.45-7.51l.07-.32c.17.04,4.24.95,5.7,7.76l-.32.07Z"/>
        <path fill="#eb8366" d="m83.97,156.79c-.31-1.03-3.58-2.21-4.82-2.58l.09-.31c.47.14,4.61,1.42,5.03,2.8l-.31.1Z"/>
        <path fill="#eb8366" d="m88.26,155.22c-1.04-2.9-4.92-3.4-4.96-3.41l.04-.32c.17.02,4.12.53,5.23,3.62l-.31.11Z"/>
        <path fill="#eb8366" d="m87.08,161.51c-1.95,0-2.9-.74-3.35-1.35-.67-.91-.65-2.07-.43-2.78.42-1.37,7-3.05,7.75-3.23l.08.32c-2.87.71-7.24,2.1-7.52,3.01-.2.64-.22,1.68.38,2.49.59.8,1.63,1.21,3.09,1.22v.33Z"/>
      </g>
      <g>
        <path fill="#200e10" d="m137.24,176.44h0c-2.54,1.7-3.77,4.87-3.75,7.97,0,.71.09,1.47.13,2.21.15,1.25.43,2.51.74,3.72.34,1.54.76,3.25,1.14,5.24,2.75-.55,5.42-1.07,8.17-1.62,1.75-.35,3.71-1.28,5.54-1.39,2.5-.11,5.37.51,7.86.07,1.36-.25,2.66-.86,3.65-2.09.66-.78.86-1.95.28-2.81-.37-.54-.97-.88-1.23-1.48-.16-.42-.12-.84-.12-1.3-.01-.33,0-.71-.06-1.07h0s-.02-.08,0-.13c.04-.43-.01-.91-.12-1.42-.38-2.03-1.25-4.01-2.92-5.43-1.88-1.53-4.31-2.35-6.73-2.59-2.43-.24-4.83.06-7.21.43-1.86.29-3.82.64-5.37,1.68h0Z"/>
        <g>
          <path fill="#ffab96" d="m132.45,199.72c-.66.88-1.66,1.06-2.31,1.79-.79.88-.89,2.71-.74,3.81.38,2.78,3.28,5.16,5.65,6.4,1.15.6,2.66.67,3.9.37,1.8-.43,3.56-1.51,3.47-3.54-.04-.96.07-1.41.3-2.38l-.05-.02.65-1.13.97-1.49,1.97-3.27.48-.84.63-1.08,1.08-1.81-5.13-3.5-4.35-2.92-.55-.38-.43.68-.65,1.13-1.63,2.68-.33.59-.71,1.11c-.6,1-1.3,2.6-2.2,3.8Z"/>
          <path fill="#eb8366" d="m146.17,201.26c-2.19-3.63-5.71-8.8-7.87-9.55l-1.74,1.95c-.02.43-.18.91-.04,1.41,2.85,11.44,7.33,9.22,7.33,9.22l2.33-3.03h0Z"/>
        </g>
        <path fill="#200e10" d="m159.27,182.13c-.98.53-2.47,1.23-3.34,1.11,0,0,.16,5.77.47,9.18.16-.04.34,0,.47.01,1.36-.25,2.66-.86,3.65-2.09,1.23-1.47.06-3.16-.54-4.72-.46-1.21-.45-2.27-.7-3.48h0Z"/>
        <path fill="#ffab96" d="m133.62,189.52c.46,1.3,1.49,2.67,2.59,3.68,0,0,.54,8.25,7.5,11.04,4.97,2.02,9.3-2.06,11.34-5.92,2.58-4.91,5.55-11.52,1.89-16.86-1.83-2.67-5.04-4.46-8.31-4.53-3.76-.16-7.16,1.75-10.38,3.57-1.04.63-2.13,1.23-2.92,2.13-.55.59-.92,1.35-1.03,2.12-.12.9-.15,1.07-.44,1.81-.46,1.02-.6,1.85-.24,2.96h0Z"/>
        <path fill="#121136" d="m148.21,191.73c-.38.43-1.08.47-1.53.08-.45-.39-.52-1.08-.14-1.5s1.08-.47,1.53-.08c.45.39.52,1.08.14,1.5Z"/>
        <g>
          <path fill="#071b38" d="m148.21,191.73c-.38.43-1.08.47-1.53.08-.45-.39-.52-1.08-.14-1.5s1.08-.47,1.53-.08c.45.39.52,1.08.14,1.5Z"/>
          <path fill="#fff" d="m147.44,191.09c-.19.21-.48.24-.7.05-.23-.19-.26-.48-.07-.69.19-.21.48-.24.7-.05.23.19.24.52.07.69Z"/>
        </g>
        <g>
          <path fill="#071b38" d="m155.07,195.62c-.38.43-1.08.47-1.53.08-.45-.39-.52-1.08-.14-1.5s1.08-.47,1.53-.08c.45.39.52,1.08.14,1.5Z"/>
          <path fill="#fff" d="m154.29,194.98c-.19.21-.48.24-.7.05-.23-.19-.26-.48-.07-.69.19-.21.48-.24.7-.05.23.19.26.48.07.69Z"/>
        </g>
        <path fill="#200e10" d="m134.95,178.9h0c-1.02,1.64-1.44,3.58-1.45,5.51,0,.71.09,1.47.13,2.21.02.08.02.2.04.28.2-.46.58-.89,1.1-1.3,1.69-1.28,3.19-.49,3.96,1.32.38.86.34,1.62.56,2.52.15.67,1.07,2.23,1.47.72.16-.62.22-1.55.53-2.08.25-.44.64-.53,1-.91,1.44-1.41.54-4.62,3.61-4.43,1.36.08,2.47,1.09,3.5,2.01s2.25,1.85,3.6,1.72c2.05-.2,3.42-4.46,5.46-1.67.49.67.71,1.44,1.07,2.23.31.68.8,1.52,1.58,1.72.84-2.22,1.19-3.89.36-6.29-.61-1.76-1.2-3.03-2.16-4.57-.77-1.23-2.39-2.36-3.78-2.84-1.53-.52-2.81-1.55-4.42-1.95-2.16-.53-4.03.61-6.13.32-.7-.1-1.37-.41-2.07-.53-.97-.17-1.98.04-2.77.58-.65.44-.8,1.1-1.25,1.67-1.16,1.45-2.92,2.13-3.94,3.77h0Z"/>
        <g>
          <path fill="#f9b08e" d="m136.15,187.62h0c.32-.2.66-.33,1.06-.42-.42.02-.81.12-1.15.24-.37.17-.69.38-.92.76-.2.34-.24.77-.13,1.15.11.39.3.76.52,1.08-.14-.34-.33-.71-.39-1.07s0-.71.2-1.05c.17-.29.52-.54.81-.7h0Z"/>
          <path fill="#f9b08e" d="m136.86,188.94h0l.49.54c-.1-.19-.24-.4-.39-.61-.14-.21-.32-.38-.52-.5-.17-.17-.43-.31-.68-.33-.13,0-.29.03-.39.1s-.16.16-.17.29c.05-.1.16-.16.27-.23.11-.07.19-.09.29-.03.18.04.38.15.56.32.17.17.38.28.55.45h0Z"/>
        </g>
        <path fill="#200e10" d="m145.33,188.33q.05.03.1.06c.05.03.13,0,.21-.01.88-.46,1.66-.66,2.41-.42,1.1.31,1.63,1.26,1.68,1.29.07.11.18.17.28.1.03-.05.08-.15.01-.25-.05-.03-.63-1.13-1.91-1.49-.87-.24-1.76-.11-2.69.45-.11.07-.11.19-.09.27h0Z"/>
        <path fill="#200e10" d="m153.64,191.57h0c-.1-.06-.05-.03,0,0s.1.06.18.04c1.14-.45,1.97-.48,2.63-.1h0c.81.47.92,1.43.92,1.43,0,.13.1.18.23.19.13,0,.19-.09.19-.21.03-.05-.16-1.12-1.09-1.72-.76-.44-1.72-.41-2.96.1-.11.07-.16.16-.09.27h0Z"/>
        <g>
          <path fill="#eb8366" d="m151.89,193.14h0c.29-.25.49-.47.75-.67-.26.2-.52.39-.72.62-.2.23-.35.49-.53.79-.25.55-.41,1.21-.42,1.83.01.35.05.65.04.92-.01.27-.05.59-.31.79-.17.18-.51.26-.84.21-.28-.02-.63-.16-.93-.26.27.16.57.26.9.31s.67-.03.98-.19c.26-.2.38-.54.37-.89.04-.32-.05-.65-.04-.92,0-.62.11-1.18.3-1.76.1-.29.25-.55.45-.77h0Z"/>
          <path fill="#eb8366" d="m148.31,197.07c-.02-.22-.2-.39-.34-.54-.22-.13-.38-.22-.63-.16.22.13.38.22.51.36.16.09.29.24.46.33Z"/>
        </g>
        <g>
          <path fill="#eb8366" d="m149.91,200.16c-1.1,0-2.18-.32-3.18-.78-.5-.24-.99-.5-1.43-.83-.46-.31-.87-.68-1.24-1.08.96.54,1.88,1.07,2.85,1.51.48.23.98.43,1.47.63.5.19,1,.38,1.53.54h0Z"/>
          <path fill="#eb8366" d="m147.85,200.74c-.31.08-.59.04-.86-.04-.26-.09-.52-.21-.74-.45.31-.08.59-.04.86.04.26.09.52.21.74.45h0Z"/>
        </g>
      </g>
    </g>
    <g>
      <g>
        <path fill="#fff" d="m146.03,124.33c8.93.7,17.83,2.35,26.31,5.28,1.39.49,2.83,1.06,4.17,1.67,1.36.62,2.7,1.29,3.97,2.08-5.4-2.53-11.15-4.14-16.93-5.53-5.8-1.39-11.65-2.48-17.52-3.49h0Z"/>
        <path fill="#fff" d="m148.63,129.39c9.81.47,20.69,3.36,29.02,8.64,1.23.79,2.4,1.65,3.52,2.57-1.82-1.19-3.68-2.3-5.63-3.27-2.56-1.3-5.26-2.42-7.96-3.38-6.14-2.15-12.51-3.62-18.95-4.56h0Z"/>
        <path fill="#fff" d="m170.1,142.24c2.6.63,5.13,1.48,7.65,2.38,2.51.92,4.99,1.9,7.39,3.08-2.6-.63-5.13-1.48-7.65-2.38-2.51-.92-4.99-1.9-7.39-3.08h0Z"/>
      </g>
      <g>
        <path fill="#fccf3a" d="m196.67,139.41c.44,2.89-.45,5.67-2.21,7.72-.23.27-.48.53-.74.77-1.37,1.28-3.13,2.17-5.12,2.48-2.68.41-5.27-.33-7.27-1.85-.28-.21-.55-.44-.81-.69-1.5-1.42-2.55-3.33-2.89-5.53-.51-3.33.76-6.52,3.08-8.61h0c.26-.24.54-.46.83-.66,1.2-.86,2.61-1.46,4.16-1.69,2.31-.35,4.55.15,6.4,1.26.31.18.6.38.89.6,1.92,1.46,3.29,3.64,3.68,6.21Z"/>
        <path fill="#fabe30" d="m181.54,133.03c-.29.21-.56.43-.83.66,2.37.99,4.19,3.16,4.61,5.89.55,3.6-1.53,7.01-4.8,8.26.26.24.53.47.81.69,3.4-1.54,5.52-5.22,4.93-9.09-.44-2.88-2.28-5.22-4.72-6.41Z"/>
        <path fill="#fabe30" d="m189.87,140.95c-.46-3.06.83-5.99,3.12-7.75-.28-.22-.58-.42-.89-.6-2.41,2-3.75,5.19-3.25,8.51.46,3.02,2.34,5.48,4.86,6.8.26-.24.51-.5.74-.77-2.37-1.14-4.16-3.39-4.59-6.18Z"/>
        <path fill="#f9b928" d="m196.67,139.41c.8,5.26-2.82,10.17-8.08,10.97-3.13.48-6.15-.62-8.24-2.69,1.76.93,3.83,1.33,5.95,1.01,5.26-.8,8.87-5.71,8.07-10.97-.32-2.12-1.32-3.98-2.73-5.38,2.6,1.38,4.54,3.93,5.02,7.07Z"/>
        <g opacity=".45">
          <ellipse cx="179.88" cy="137.61" fill="#fff" rx="3.18" ry=".91" transform="rotate(-70.62 179.885 137.61)"/>
        </g>
        <g opacity=".45">
          <circle cx="179.14" cy="142.08" r=".95" fill="#fff"/>
        </g>
      </g>
    </g>
  </g>
  <g>
    <g opacity=".31">
      <ellipse cx="438.58" cy="371.14" fill="#144355" rx="64.66" ry="9.65"/>
    </g>
    <g>
      <path fill="#ffab96" d="m487.86,357.28s.69,2.48-.52,0c-.51-1.04-4.78-7.27-10.18-15.06-7.46-10.74-17.08-24.43-22.03-31.56-3.67-5.28-6.05-10.44-7.58-14.61-2.02-5.52-2.54-9.3-2.54-9.3l15.83-8.65,6.69-3.65,1.09,6.31.83,4.82,3.14,18.24c6.26,4.12,15.43,24.44,18.62,32.08.5,1.19.85,2.07,1.02,2.53,1.29,3.47,5.85,11.6,5.85,11.6-1.19,3.08-10.22,7.24-10.22,7.24Z"/>
      <path fill="#eb8366" d="m469.44,285.58c-4.26,4.12-16.84,8.73-21.89,10.47-2.02-5.52-2.54-9.3-2.54-9.3l15.83-8.65c3,.7,5.89,1.59,7.78,2.65l.83,4.82Z"/>
    </g>
    <g>
      <path fill="#ffab96" d="m431.52,284.37l-.17.22-7.52,9.85-9.27,12.14c1.25,4.9-1.29,23.68-2.71,33.19-.5,3.38-.86,5.59-.86,5.59v8.63c-1.79,2.38-12.72.97-12.72.97,0,0-.45-7.69-1.03-17.04-.71-11.42-1.61-25.32-2.12-30.72-.73-7.84,7.55-21.66,10.91-26.91.85-1.33,1.39-2.11,1.39-2.11l23.88,6.12.22.06Z"/>
      <path fill="#eb8366" d="m431.35,284.6l-7.52,9.85c-4.21-4.98-15.12-12.37-17.79-14.14.85-1.33,1.39-2.11,1.39-2.11l23.88,6.12c.02.1.04.19.05.28Z"/>
    </g>
    <path fill="#f0f6f7" d="m487.86,357.28s.69,2.48-.52,0c-.51-1.04-4.78-7.27-10.18-15.06,3.53-.8,10.01-2.7,14.04-6.32.5,1.19.85,2.07,1.02,2.53,1.29,3.47,5.85,11.6,5.85,11.6,3.31,9.98-7.09,12.03-10.22,7.24Z"/>
    <path fill="#f0f6f7" d="m411.85,339.79c-.5,3.38-.86,5.59-.86,5.59v8.63c-1.43,11.31-12.39,9.26-12.72.97,0,0-.45-7.69-1.03-17.04,3.81.87,10.54,2.2,14.62,1.85Z"/>
    <path fill="#ffab96" d="m409.2,232.3s-.36,5.1-1.49,10.39c-.65,3.03-1.54,6.12-2.77,8.36-3.37,6.15-34.82,9.04-34.82,9.04l-3.17-7.95,27.57-9.72,1.3-5.07,1.98-7.72,11.41,2.68Z"/>
    <path fill="#eb8366" d="m409.2,232.3s-.36,5.1-1.49,10.39c-3.45-2.3-8.95-4.34-11.89-5.34l1.98-7.72,11.41,2.68Z"/>
    <path fill="#200e10" d="m425.2,166.95c2.41.31,4.62,1.88,5.71,4.06,1.12,2.24,1.1,5,2.61,6.99,2.35,3.11,7.22,2.95,10.15,5.52,2.55,2.24,3.05,6.09,2.48,9.44-.33,1.97-.96,3.86-1.55,5.76-.26.86-.75,4.27-1.58,4.06-.46-.11-1.15-1.26-1.5-1.6-.64-.62-1.34-1.19-2.05-1.73-1.43-1.07-2.98-1.98-4.62-2.69-1.61-.7-3.35-1.26-4.57-2.53-1.31-1.37-1.78-3.34-2.95-4.83-1.02-1.3-2.51-2.15-3.74-3.26-1.89-1.71-3.13-4.04-3.92-6.47-.93-2.87-2.89-9.21.26-11.43,1.5-1.06,3.42-1.54,5.25-1.31Z"/>
    <path fill="#d23838" d="m415.75,215.74l-1.56,6.31-4.01,16.21c-.82.03-1.77-.06-2.79-.24-5.26-.92-12.27-4.13-12.27-4.13.69-13.99,9.82-27.98,9.82-27.98l10.81,9.83Z"/>
    <g opacity=".14">
      <path fill="#144355" d="m414.19,222.05l-4.01,16.21c-.82.03-1.77-.06-2.79-.24.05-.68-.14-1.55-.76-2.74-1.81-3.45-1.56-21.87-1.56-21.87,0,0,5.08,4.81,9.12,8.64Z"/>
    </g>
    <path fill="#21426b" d="m416.74,256.5l-12.45,24.5s18.01,9.62,38.84,9.52c20.83-.1,31.24-9.92,31.24-9.92,0,0-10.51-26.68-18.35-31.14l-39.28,7.04Z"/>
    <g>
      <path fill="#21426b" d="m412.84,368.35c-1.71,3.48-13.49,3.04-17.29,4.13-3.8,1.09-15.85,3.37-19.11-.98-1.48-1.98-.65-3.85,1.1-5.44,0-.01.01-.02.02-.02.3-.27.62-.54.97-.8.02,0,.03-.02.05-.03h0c2.06-1.52,4.8-2.73,6.75-3.48,4.23-1.63,11.05-8.17,11.05-8.17,4.53-1.11,3.39,3.17,7.41,4.69,4.02,1.52,7.17-4.69,7.17-4.69,0,0,1.58,5,2.14,9.37.28,2.21.31,4.25-.27,5.42Z"/>
      <path fill="#f0f6f7" d="m396.52,361.07c-.2,0-.4-.12-.49-.31-.02-.05-1.4-3.02-3.88-2.93-.29,0-.54-.22-.55-.51,0-.29.22-.54.51-.55,3.2-.12,4.82,3.41,4.89,3.56.12.27,0,.58-.27.7-.07.03-.14.05-.22.05Z"/>
      <path fill="#f0f6f7" d="m393.48,363.13c-.18,0-.36-.09-.46-.26-.06-.11-1.49-2.45-4.35-2.45-.29,0-.53-.24-.53-.53s.24-.53.53-.53h0c3.49,0,5.2,2.85,5.27,2.97.15.25.06.58-.19.73-.08.05-.18.07-.27.07Z"/>
      <path fill="#f0f6f7" d="m412.84,368.35c-1.71,3.48-13.49,3.04-17.29,4.13-3.8,1.09-15.85,3.37-19.11-.98-1.48-1.98-.65-3.85,1.1-5.44-1.24,1.21-2.49,3.35,3.24,4.03,7.73.93,26.69-2.45,32.32-7.16.28,2.21.31,4.25-.27,5.42Z"/>
    </g>
    <g>
      <path fill="#21426b" d="m504.53,368.29c-3.34,3.56.64,3.34-4.31,9.38-3.62,4.4-11.2,4.04-15.03,3.53-2.15-.29-3.9-2.01-4.06-4.17-.07-.9.13-1.74.49-2.51h0c1.16-2.54,3.97-4.5,4.46-6.54.84-3.45,0-10.77,0-10.77,1.7-3.56,5.52-1.62,8.86-.11,3.34,1.51,2.8-7.76,2.8-7.76,4.04,2.97,6.61,7.02,7.69,10.72.99,3.42.7,6.54-.9,8.24Z"/>
      <path fill="#f0f6f7" d="m486.42,362.69c-.18,0-.35-.09-.45-.25-.15-.25-.08-.57.17-.73,3.65-2.27,7.06-.75,7.2-.68.27.12.38.44.26.7-.12.27-.44.38-.7.26-.13-.06-3.05-1.34-6.2.62-.09.05-.18.08-.28.08Z"/>
      <path fill="#f0f6f7" d="m486.42,365.94c-.21,0-.41-.12-.49-.33-.11-.27.02-.58.29-.69,3.72-1.5,6.78-1.46,6.91-1.46.29,0,.52.25.52.54s-.26.52-.54.52c-.03,0-2.98-.04-6.49,1.38-.07.03-.13.04-.2.04Z"/>
      <path fill="#f0f6f7" d="m504.53,368.29c-3.34,3.56.64,3.34-4.31,9.38-3.62,4.4-11.2,4.04-15.03,3.53-2.15-.29-3.9-2.01-4.06-4.17-.07-.9.13-1.74.49-2.51,0,.18-.02,5.49,7.39,3.69,7.55-1.83,10.67-4.2,11.42-6.68.75-2.48,2.55-9.59,4.99-11.48h0c.99,3.42.7,6.54-.9,8.24Z"/>
    </g>
    <path fill="#d23838" d="m457.5,249.46c-10.51,15.77-41.85,9.32-41.85,9.32,0,0,.46-4.57.44-8.99,0-2.05-.12-4.07-.44-5.59-.99-4.76-.69-4.56-5.47-9.42-4.77-4.86-6.73-23.31-5.89-27.37.53-2.59,4.5-5.41,7.32-7.13,1.62-.98,2.85-1.6,2.85-1.6l10.86-3.89,3.08.46,13.04,1.94s3.57,9.82,3.67,10.32c.05.26,1.01,5.07,2.03,10.02.95,4.58,1.95,9.28,2.33,10.61.37,1.28,2.1,5.91,3.87,10.53.58,1.52,1.16,3.04,1.7,4.44,1.38,3.57,2.46,6.36,2.46,6.36Z"/>
    <path fill="#f0f6f7" d="m428.4,195.25c-.65,1.98-3.52,9.72-8.69,10.97-5.03,1.22-7.48-4.25-8.1-5.94,1.62-.98,2.85-1.6,2.85-1.6l10.86-3.89,3.08.46Z"/>
    <g opacity=".21">
      <path fill="#200e10" d="m423.29,263.75s11.7,12.5,22.12,14.98"/>
    </g>
    <path fill="#ffab96" d="m467.13,255.64c-.82,3.58-1.56,6.6-1.99,8.33-.05.19-.09.36-.13.52-.17.67-.27,1.04-.27,1.04l-6.35-2.54-2.58-1.03v-.12s.83-8.91.83-8.91l1.65-17.86-2.72-3.21-4.43-5.22,9.97-10.91s3.09,3.38,5.84,7.22c1.62,2.26,3.13,4.68,3.82,6.66,1.17,3.35-1.49,16.59-3.65,26.01Z"/>
    <path fill="#eb8366" d="m466.96,222.96c-3.7,2.4-8.59,6.5-11.38,8.91l-4.43-5.22,9.97-10.91s3.09,3.38,5.84,7.22Z"/>
    <g>
      <path fill="#ffab96" d="m465.51,272.7c-.07,4.39-1.26,6.32-2.83,8.55-1.57,2.23-1.58,0-1.58,0,0,0-.35.67-1.02,2.08-.67,1.41-2.23.67-2.23.67-1.19,1.93-2.16,0-2.16,0,0,0-.3,1.64-1.71,1.61-1.41-.03-.05-5.9-.05-5.9l.3-7.83s-2.18,5.85-3.67,4.86c-1.49-.99.69-5.26.96-8.43.17-2,2.25-4.42,3.77-5.95.19-.19.37-.36.53-.52.64-.6,1.08-.97,1.08-.97l7.79,1.04s.11.8.25,2.03c.02.17.04.36.06.55.25,2.26.55,5.59.5,8.2Z"/>
      <path fill="#eb8366" d="m455.85,284.05l-.31-.08c.66-2.48,1.18-11.04,1.19-11.13l.32.02c-.02.35-.53,8.67-1.2,11.19Z"/>
      <path fill="#eb8366" d="m457.99,284.09l-.28-.16c1.23-2.1,2.05-10.61,2.06-10.7l.32.03c-.03.35-.84,8.67-2.1,10.83Z"/>
      <path fill="#eb8366" d="m461.25,281.32l-.29-.14c1-2.03,1.78-8.29,1.79-8.35l.32.04c-.03.26-.8,6.37-1.82,8.46Z"/>
    </g>
    <g>
      <path fill="#ffab96" d="m367.62,262.84c-1.55.75-3.24,1.52-4.92,1.17-1.52-.31-2.72-1.48-3.63-2.73-1.1-1.51-1.95-3.3-1.95-5.17,0-1.87.97-3.82,2.68-4.59,1.01-.45,2.15-.46,3.25-.46,3.58,0,7.16,0,10.73,0,.3,1.43.59,2.86.89,4.29.19.92,1.07,3.15.45,3.85-.73.82-2.8,1.36-3.81,1.84-.53.26-3.24,1.99-3.69,1.79Z"/>
      <g>
        <path fill="#21426b" d="m331.05,196.83c-9.79,5.21-14.63,15.13-9.42,24.92,3.07,5.77,9.17,10.57,15.67,12.48l14.3,6.89.2.1,2.15,1.04c.42.2.92.19,1.33-.03s.7-.62.77-1.09l.34-2.36.03-.22,2.28-15.71c2.06-6.45,1.49-14.2-1.58-19.97-5.21-9.79-16.29-11.24-26.07-6.04Zm21.08,11.11c.25.47.07,1.05-.4,1.3s-1.05.07-1.3-.4-.07-1.05.4-1.3,1.05-.07,1.3.4Zm-3.78-1.31c.25.47.07,1.05-.4,1.3s-1.05.07-1.3-.4-.07-1.05.4-1.3,1.05-.07,1.3.4Zm-1.22,5.05c-.47.25-1.05.07-1.3-.4s-.07-1.05.4-1.3,1.05-.07,1.3.4.07,1.05-.4,1.3Zm3.23,4.02c.25.47.07,1.05-.4,1.3s-1.05.07-1.3-.4-.07-1.05.4-1.3,1.05-.07,1.3.4Zm-5.9-9.06c-.47.25-1.05.07-1.3-.4s-.07-1.05.4-1.3,1.05-.07,1.3.4.07,1.05-.4,1.3Zm1.01,7.44c.47-.25,1.05-.07,1.3.4s.07,1.05-.4,1.3-1.05.07-1.3-.4-.07-1.05.4-1.3Zm-3.31-4.17c-.25-.47-.07-1.05.4-1.3s1.05-.07,1.3.4.07,1.05-.4,1.3-1.05.07-1.3-.4Zm6.14,9.22c.47-.25,1.05-.07,1.3.4s.07,1.05-.4,1.3-1.05.07-1.3-.4-.07-1.05.4-1.3Zm-7.45-14c-.47.25-1.05.07-1.3-.4s-.07-1.05.4-1.3,1.05-.07,1.3.4.07,1.05-.4,1.3Zm3.84,12.49c.47-.25,1.05-.07,1.3.4s.07,1.05-.4,1.3-1.05.07-1.3-.4-.07-1.05.4-1.3Zm-3.46-3.9c-.25-.47-.07-1.05.4-1.3s1.05-.07,1.3.4.07,1.05-.4,1.3-1.05.07-1.3-.4Zm-1.15-4.76c-.47.25-1.05.07-1.3-.4s-.07-1.05.4-1.3,1.05-.07,1.3.4.07,1.05-.4,1.3Zm-2.96-2.94c.25.47.07,1.05-.4,1.3s-1.05.07-1.3-.4-.07-1.05.4-1.3,1.05-.07,1.3.4Zm3.97,10.38c.47-.25,1.05-.07,1.3.4s.07,1.05-.4,1.3-1.05.07-1.3-.4-.07-1.05.4-1.3Zm-3.31-4.17c-.25-.47-.07-1.05.4-1.3s1.05-.07,1.3.4.07,1.05-.4,1.3-1.05.07-1.3-.4Zm6.39,9.09c.47-.25,1.05-.07,1.3.4s.07,1.05-.4,1.3-1.05.07-1.3-.4-.07-1.05.4-1.3Zm-10.12-8.2c.47-.25,1.05-.07,1.3.4s.07,1.05-.4,1.3-1.05.07-1.3-.4-.07-1.05.4-1.3Zm-2.75-4.01c-.25-.47-.07-1.05.4-1.3s1.05-.07,1.3.4.07,1.05-.4,1.3-1.05.07-1.3-.4Zm5.66,9.48c.47-.25,1.05-.07,1.3.4s.07,1.05-.4,1.3-1.05.07-1.3-.4-.07-1.05.4-1.3Zm3.09,4.92c.47-.25,1.05-.07,1.3.4s.07,1.05-.4,1.3-1.05.07-1.3-.4-.07-1.05.4-1.3Zm-3.19-7.47c-.25-.47-.07-1.05.4-1.3s1.05-.07,1.3.4.07,1.05-.4,1.3-1.05.07-1.3-.4Zm3.71,3.77c.47-.25,1.05-.07,1.3.4s.07,1.05-.4,1.3-1.05.07-1.3-.4-.07-1.05.4-1.3Zm-4.61-8.66c-.47.25-1.05.07-1.3-.4s-.07-1.05.4-1.3,1.05-.07,1.3.4.07,1.05-.4,1.3Zm.48,10.85c.47-.25,1.05-.07,1.3.4s.07,1.05-.4,1.3-1.05.07-1.3-.4-.07-1.05.4-1.3Zm-3.71-3.77c-.25-.47-.07-1.05.4-1.3s1.05-.07,1.3.4.07,1.05-.4,1.3-1.05.07-1.3-.4Zm-.9-4.89c-.47.25-1.05.07-1.3-.4s-.07-1.05.4-1.3,1.05-.07,1.3.4.07,1.05-.4,1.3Zm-.6,2.37c.25.47.07,1.05-.4,1.3s-1.05.07-1.3-.4-.07-1.05.4-1.3,1.05-.07,1.3.4Zm-2.22,3.41c.47-.25,1.05-.07,1.3.4s.07,1.05-.4,1.3-1.05.07-1.3-.4-.07-1.05.4-1.3Zm3.83,1.66c.47-.25,1.05-.07,1.3.4s.07,1.05-.4,1.3-1.05.07-1.3-.4-.07-1.05.4-1.3Zm18.01-7.4c-.47.25-1.05.07-1.3-.4s-.07-1.05.4-1.3,1.05-.07,1.3.4.07,1.05-.4,1.3Zm2.63,24.88l-.07.45-.41-.2-7.45-3.59c1.74-.24,3.42-.76,5-1.6s2.95-1.94,4.12-3.25l-1.19,8.19Z"/>
        <rect width="5.47" height="27.2" x="356.9" y="236.81" fill="#21426b" transform="rotate(-28 359.693 250.437)"/>
        <rect width="7.32" height="17.87" x="359.37" y="247.85" fill="#35b68e" rx="3.19" ry="3.19" transform="rotate(-28 363.086 256.82)"/>
        <rect width="9.35" height="5.56" x="361.24" y="259.45" fill="#21426b" rx="2.78" ry="2.78" transform="rotate(-28 365.992 262.253)"/>
        <rect width="7.32" height="3.04" x="351.12" y="239.75" fill="#35b68e" rx="1.52" ry="1.52" transform="rotate(-28 354.835 241.302)"/>
        <g opacity=".21">
          <path fill="#200e10" d="m332.23,199.06c-8.57,4.56-12.94,12.93-8.38,21.5s16.94,15.1,25.51,10.54c8.57-4.56,10.08-18.47,5.52-27.04-4.56-8.57-14.08-9.55-22.65-5Zm5.95,11.89c.47-.25,1.05-.07,1.3.4s.07,1.05-.4,1.3-1.05.07-1.3-.4-.07-1.05.4-1.3Zm-6.48-3.12c.47-.25,1.05-.07,1.3.4s.07,1.05-.4,1.3-1.05.07-1.3-.4-.07-1.05.4-1.3Zm2.36,5.31c.47-.25,1.05-.07,1.3.4s.07,1.05-.4,1.3-1.05.07-1.3-.4-.07-1.05.4-1.3Zm-4.14,7.7c-.47.25-1.05.07-1.3-.4s-.07-1.05.4-1.3,1.05-.07,1.3.4.07,1.05-.4,1.3Zm3.83,1.66c-.47.25-1.05.07-1.3-.4s-.07-1.05.4-1.3,1.05-.07,1.3.4.07,1.05-.4,1.3Zm-2.91-5.47c-.47.25-1.05.07-1.3-.4s-.07-1.05.4-1.3,1.05-.07,1.3.4.07,1.05-.4,1.3Zm1.9,1.22c-.25-.47-.07-1.05.4-1.3s1.05-.07,1.3.4.07,1.05-.4,1.3-1.05.07-1.3-.4Zm4.61,5.47c-.47.25-1.05.07-1.3-.4s-.07-1.05.4-1.3,1.05-.07,1.3.4.07,1.05-.4,1.3Zm-5.51-10.36c-.47.25-1.05.07-1.3-.4s-.07-1.05.4-1.3,1.05-.07,1.3.4.07,1.05-.4,1.3Zm4.73,6.55c-.25-.47-.07-1.05.4-1.3s1.05-.07,1.3.4.07,1.05-.4,1.3-1.05.07-1.3-.4Zm4.39,5.32c-.47.25-1.05.07-1.3-.4s-.07-1.05.4-1.3,1.05-.07,1.3.4.07,1.05-.4,1.3Zm-4.09-9.17c-.25-.47-.07-1.05.4-1.3s1.05-.07,1.3.4.07,1.05-.4,1.3-1.05.07-1.3-.4Zm4.61,5.47c-.47.25-1.05.07-1.3-.4s-.07-1.05.4-1.3,1.05-.07,1.3.4.07,1.05-.4,1.3Zm-5.51-10.36c-.47.25-1.05.07-1.3-.4s-.07-1.05.4-1.3,1.05-.07,1.3.4.07,1.05-.4,1.3Zm4.73,6.55c-.25-.47-.07-1.05.4-1.3s1.05-.07,1.3.4.07,1.05-.4,1.3-1.05.07-1.3-.4Zm4.39,5.32c-.47.25-1.05.07-1.3-.4s-.07-1.05.4-1.3,1.05-.07,1.3.4.07,1.05-.4,1.3Zm-8.35-15.7c-.47.25-1.05.07-1.3-.4s-.07-1.05.4-1.3,1.05-.07,1.3.4.07,1.05-.4,1.3Zm8.86,12c-.47.25-1.05.07-1.3-.4s-.07-1.05.4-1.3,1.05-.07,1.3.4.07,1.05-.4,1.3Zm-4.36-5.6c-.25-.47-.07-1.05.4-1.3s1.05-.07,1.3.4.07,1.05-.4,1.3-1.05.07-1.3-.4Zm-1.15-4.76c-.47.25-1.05.07-1.3-.4s-.07-1.05.4-1.3,1.05-.07,1.3.4.07,1.05-.4,1.3Zm5.38,5.11c.47-.25,1.05-.07,1.3.4s.07,1.05-.4,1.3-1.05.07-1.3-.4-.07-1.05.4-1.3Zm-3.31-4.17c-.25-.47-.07-1.05.4-1.3s1.05-.07,1.3.4.07,1.05-.4,1.3-1.05.07-1.3-.4Zm7.04,10.92c-.47.25-1.05.07-1.3-.4s-.07-1.05.4-1.3,1.05-.07,1.3.4.07,1.05-.4,1.3Zm-8.35-15.7c-.47.25-1.05.07-1.3-.4s-.07-1.05.4-1.3,1.05-.07,1.3.4.07,1.05-.4,1.3Zm9.11,11.87c-.47.25-1.05.07-1.3-.4s-.07-1.05.4-1.3,1.05-.07,1.3.4.07,1.05-.4,1.3Zm-2.83-5.32c-.47.25-1.05.07-1.3-.4s-.07-1.05.4-1.3,1.05-.07,1.3.4.07,1.05-.4,1.3Zm-2.68-5.03c-.47.25-1.05.07-1.3-.4s-.07-1.05.4-1.3,1.05-.07,1.3.4.07,1.05-.4,1.3Zm6.4,6.74c-.47.25-1.05.07-1.3-.4s-.07-1.05.4-1.3,1.05-.07,1.3.4.07,1.05-.4,1.3Zm-2.91-5.47c-.47.25-1.05.07-1.3-.4s-.07-1.05.4-1.3,1.05-.07,1.3.4.07,1.05-.4,1.3Zm3.78,1.31c-.47.25-1.05.07-1.3-.4s-.07-1.05.4-1.3,1.05-.07,1.3.4.07,1.05-.4,1.3Z"/>
        </g>
      </g>
      <g>
        <path fill="#ffab96" d="m356.94,253.42c.9-.39,1.79-.78,2.69-1.16.59-.26,1.2-.52,1.85-.54s1.34.23,1.66.79.09,1.42-.54,1.59c.52-.07,1.19-.02,1.65.23s.81.72.83,1.24-.32,1.06-.83,1.18c.53.25.86.82.88,1.4s-.32,1.17-.83,1.45c.53.39.79,1.05.71,1.7s-.52,1.24-1.13,1.49c-.45.19-.7.77-1.09,1.07s-.86.5-1.35.46c-.51-.05-.99-.38-1.2-.85s-.16-1.05.14-1.47c-.39.09-.79.12-1.19.04-.48-.1-.95-.34-1.18-.77s-.14-1.05.29-1.28c-.71.04-1.39-.66-1.52-1.35-.11-.63.19-1.25.48-1.82-.54.13-1.1-.31-1.36-.8s-.23-1.1,0-1.61.52-.76,1.03-.98Z"/>
        <g>
          <rect width="5.99" height=".17" x="356.95" y="255.36" fill="#eb8366" transform="rotate(-26.99 359.87 255.412)"/>
          <rect width="6.77" height=".17" x="357.91" y="258.27" fill="#eb8366" transform="rotate(-28.55 361.26 258.344)"/>
          <rect width="4.59" height=".17" x="360.06" y="260.7" fill="#eb8366" transform="rotate(-31.42 362.393 260.802)"/>
        </g>
      </g>
      <path fill="#ffab96" d="m374.79,250.44c-1.45.53-3.07.59-4.56.15-2.95-.87-5.5-2.48-8.57-2.33-.73.04-1.51.14-2.09.59s-.85,1.37-.39,1.94c.65.82,1.95.32,2.98.53.9.18,1.58.93,2,1.74s.66,1.71,1.06,2.53c.93,1.91,4.7,4.31,6.79,4.69,2.37.44,2.89-2.23,5.22-2.83-1.56-1.97-2.55-4.5-2.43-7.01Z"/>
    </g>
    <g>
      <path fill="#200e10" d="m425.47,179.67s1.14,9.68-2.89,12.26c-4.03,2.58-8.44-6.88-8.44-6.88l2.54-4.19,8.78-1.2Z"/>
      <g>
        <path fill="#200e10" d="m403.05,179.73s.29,8.64,3.7,10.83c3.41,2.19,2.4-12.24,2.4-12.24,0,0-1-2.6-1.65-2.88-.65-.27-4.46,4.29-4.46,4.29Z"/>
        <g>
          <g>
            <path fill="#ffab96" d="m423.64,192.51c-.44-.9-.82-1.82-1.08-2.73l-.17-.58-.87-2.66-.33-1.12-.23-.68-.53.21-4.18,1.59-4.95,1.94.56,1.79.33,1.07.25.82c.35,1.1.68,2.2,1.05,3.29s.79,1.98.73,3.17c-.07,1.44-.04,2.71.98,3.87,1.52,1.71,3.85,1.75,5.73.7,1.99-1.11,3.66-3.12,4.26-5.33.25-.91.55-1.71.14-2.59-.46-.98-1.22-1.8-1.7-2.78Z"/>
            <path fill="#eb8366" d="m412.32,193.06l1.38,3.11s3.33,2.87,7.85-6.41c.21-.41.16-.86.23-1.23l-1.09-2.05c-1.95.19-5.86,3.91-8.37,6.58h0s0,0,0,0Z"/>
          </g>
          <path fill="#ffab96" d="m424.99,185.58c.52-.88.55-1.63.36-2.61-.11-.7-.1-.85-.03-1.66.05-.69-.12-1.42-.46-2.05-.49-.95-1.29-1.69-2.04-2.46-2.35-2.26-4.84-4.63-8.01-5.29-2.74-.63-5.77.23-7.8,2.15-4.05,3.83-2.81,10.18-1.57,14.96.98,3.77,3.84,8.22,8.37,7.53,6.34-.92,8.34-7.94,8.34-7.94,1.11-.65,2.22-1.61,2.85-2.64h0s0,0,0,0Z"/>
          <path fill="#100f36" d="m412.79,183.12c.45-.24,1.03-.05,1.27.4.24.45.05,1.03-.4,1.27-.45.24-1.03.05-1.27-.4-.24-.45-.05-1.03.4-1.27Z"/>
          <g>
            <path fill="#080e1c" d="m412.79,183.12c.45-.24,1.03-.05,1.27.4.24.45.05,1.03-.4,1.27-.45.24-1.03.05-1.27-.4-.24-.45-.05-1.03.4-1.27Z"/>
            <path fill="#fff" d="m413.35,183.42c.22-.12.46-.03.58.19.12.22.03.46-.19.58-.22.12-.46.03-.58-.19-.11-.18-.03-.46.19-.58Z"/>
          </g>
          <g>
            <path fill="#080e1c" d="m406.33,185.03c.45-.24,1.03-.05,1.27.4.24.45.05,1.03-.4,1.27-.45.24-1.03.05-1.27-.4-.24-.45-.05-1.03.4-1.27h0Z"/>
            <path fill="#fff" d="m406.89,185.33c.22-.12.46-.03.58.19.12.22.03.46-.19.58-.22.12-.46.03-.58-.19-.12-.22-.03-.46.19-.58Z"/>
          </g>
          <path fill="#200e10" d="m426.06,181.19c-.12.62-.35,1.26-.52,1.88-.04.06-.05.18-.09.24-.08-.44-.32-.89-.67-1.36-.44-.55-.92-.85-1.39-.92-.44-.08-.89.04-1.3.32-1.46.97-1.29,3.06-1.2,4.58.09,1.52.33,4.87-.67,1.73-1.13-3.55-3.6-6.91-7.57-7.41-1.45-.18-2.62-.23-3.85-1.21-1.1-.87-1.87-2.16-2.12-3.55-1.61,1.64-1.97,3.39-2.69,5.45-.92,2.6-1.84-1.73-1.94-2.87-.13-1.58.13-3.04.93-4.41.02-.04.04-.08.07-.12,1.41-2.38,3.58-4.72,6.26-5.5,4.96-1.44,11.6-1.11,13.99,3.98.69,1.5,2.04,2.46,2.59,4.1.55,1.63.53,3.39.18,5.06h0s0,0,0,0Z"/>
          <g>
            <path fill="#ff8389" d="m423.24,183.4c.21.19.46.48.55.77.1.33.09.65-.03.95s-.35.57-.53.84c.24-.23.47-.51.64-.82.17-.31.21-.69.11-1.02-.42-1.39.66.2-.62-.85-.26-.18-.57-.35-.92-.45.31.16.57.35.8.59h0Z"/>
            <path fill="#ff8389" d="m422.4,184.39c.18-.11.37-.16.54-.27.18-.11.37-.16.53-.16.09-.03.42-.07.5.02.07.08-.11.23-.08.33.02-.11,0-.21-.08-.29s-.2-.15-.31-.16c-.22-.04-.46.03-.64.14-.19.06-.37.16-.53.32s-.32.31-.44.44l.52-.36h0Z"/>
          </g>
          <path fill="#200e10" d="m415.44,182.06c.03-.06.05-.17-.02-.25-.68-.68-1.39-.99-2.17-.96-1.14.03-1.82.86-1.87.88-.08.07-.05.17-.04.22.07.08.17.05.25-.02.05-.01.67-.72,1.65-.76.66-.04,1.28.29,1.93.88.06.03.12.07.17.05l.09-.03h0s0,0,0,0Z"/>
          <path fill="#200e10" d="m407.88,183.1c.08-.07.05-.17-.02-.25-.94-.71-1.74-.93-2.46-.71-.89.32-1.25,1.21-1.24,1.26-.02.11,0,.21.12.22.11.02.21,0,.22-.12,0,0,.28-.81,1.04-1.04h0c.62-.19,1.31.02,2.18.64.06.03.11.02.16,0s.09-.03,0,0h0s0,0,0,0Z"/>
          <g>
            <path fill="#eb8366" d="m409.05,184.83c.13.24.21.49.23.76.05.54.04,1.04-.08,1.58-.04.23-.18.5-.21.79-.07.3-.04.62.14.85.23.21.49.35.78.38.29.02.56,0,.81-.08-.27.03-.59.07-.83.03-.28-.03-.55-.17-.66-.36-.18-.22-.15-.51-.11-.74.04-.23.13-.48.21-.79.11-.54.1-1.14,0-1.67-.09-.31-.17-.56-.3-.8-.13-.24-.31-.46-.49-.69.18.22.31.46.5.74h0s0,0,0,0Z"/>
            <path fill="#eb8366" d="m411.75,188.8c.14-.1.29-.14.49-.21-.2-.11-.35-.06-.56,0-.14.1-.32.21-.38.39.15-.05.29-.14.44-.19h0Z"/>
          </g>
          <ellipse cx="415.44" cy="186.79" fill="#eb8366" rx="1.86" ry=".91" transform="rotate(-14.45 415.303 186.738)"/>
          <ellipse cx="407.33" cy="188.5" fill="#eb8366" rx="1.36" ry="1" transform="rotate(-14.45 407.188 188.475)"/>
          <g>
            <path fill="#342f46" d="m409.59,191.77c.12.61,1.26,1.16,2.51.92s2.11-1.17,1.99-1.78-1.17-.67-2.41-.43-2.2.68-2.08,1.29Z"/>
            <path fill="#eb8366" d="m411.79,191.07c.88-.17,1.72.06,2.17.43-.28.51-.98,1.03-1.86,1.19s-1.72-.06-2.17-.43c.28-.51.97-1.03,1.86-1.19Z"/>
            <path fill="#fff" d="m413.78,190.52c-.5.23-1.2.43-1.99.58s-1.51.23-2.06.19c.3-.37,1.05-.65,1.94-.82s1.69-.19,2.11.05Z"/>
          </g>
        </g>
      </g>
    </g>
    <g opacity=".14">
      <path fill="#144355" d="m453.34,238.66c-7.99-7.39-15.27-21.14-15.27-21.14h9.08c.95,4.58,1.95,9.28,2.33,10.61.37,1.28,2.1,5.91,3.87,10.53Z"/>
    </g>
    <path fill="#d23838" d="m441.44,197.19s16.07,8.43,23.9,21.32c0,0-6.84,9.62-13.39,11.11l-13.89-12.1s-1.98-19.84,3.37-20.33Z"/>
    <path fill="#f0f6f7" d="m467.13,255.64c-.82,3.58-1.56,6.6-1.99,8.33-.06,0-.13-.02-.19-.03-1.86-.23-9.28-1.94-9.12-2.1l.82-8.91c3.04,1.07,7.51,2.48,10.48,2.7Z"/>
  </g>
</svg>
