<svg xmlns="http://www.w3.org/2000/svg" id="Layer_1" viewBox="0 0 512 512">
  <g>
    <path fill="#43c2e5" d="m478.92,294.66v23.82l-.22-.02c-.15,4.06-.39,8.12-.72,12.17-.05.63-.1,1.26-.16,1.89,0,.11-.02.22-.03.32-.48,5.53-1.13,11.04-1.93,16.54l-150.51-3.64-10.44-.25-306.7-7.43c-.34-1.73-.63-3.47-.89-5.22-.04-.27-.09-.55-.12-.82-.09-.64-.18-1.28-.26-1.93-.08-.63-.15-1.26-.22-1.89-.34-3.04-.55-6.08-.66-9.14-.09-2.38-.1-4.75-.04-7.12h0c.11-4.58.46-9.14,1.06-13.67,1.26-9.56,3.6-18.99,6.95-28.04.54-1.47,1.11-2.93,1.72-4.38,4.39-10.66,10.23-20.73,17.39-29.78.27-.35.55-.69.83-1.03,1.03-1.28,2.09-2.54,3.16-3.79,10.21-11.83,22.09-22.27,31.4-34.74,1.1-1.48,2.17-2.98,3.19-4.52,3.65-5.5,6.7-11.34,9.6-17.27.6-1.21,1.18-2.42,1.77-3.64h0c.15-.32.3-.63.45-.94.07-.15.15-.3.22-.46l1.53-.14,3.45-.3,5.11-.45,3.7-.33,3.03-.27,3.14-.28,3.43-.3,3-.27,1.89-.17,2.97-.26,2.19-.2,2.41-.21,2.84-.25,1.31-.12,1.18-.1,2.05-.19,11.56-1.02,7.75-.69,5.91-.52,4.33-.38,146.92-13.02c3.72,1.82,7.51,3.46,11.39,4.86h0c2.24.82,4.51,1.55,6.81,2.19h0c1.6.45,3.22.86,4.86,1.22.55.12,1.1.23,1.65.35.4.08.8.15,1.2.23.71.13,1.42.26,2.13.37,8.29,1.32,16.74,1.49,25.2,1.39,14.86-.17,29.81-1.15,44.17,1.85,1.72.36,3.43.78,5.14,1.26,7.48,2.12,14.51,5.47,20.97,9.74,1.07.71,2.13,1.44,3.16,2.2,1.93,1.41,3.8,2.89,5.61,4.46,1.34,1.15,2.64,2.34,3.91,3.58,3.58,3.46,6.89,7.22,9.91,11.2,2.17,2.86,4.19,5.82,6.04,8.86,1.23,2.01,2.39,4.06,3.48,6.15,9.05,17.09,13.92,36.24,16.75,55.43.06.39.11.78.17,1.17,1.33,9.26,2.19,18.58,2.6,27.92h.28Z"/>
    <g>
      <g>
        <ellipse cx="44.96" cy="238.84" fill="#25addb" rx="7.27" ry="10.92"/>
        <path fill="#25addb" d="m33.66,251.86c4.95-6,14.56-8.22,20.85-3.66,5.69,4.13,7.1,11.86,8.06,18.82,1.13,8.14,2.26,16.28,3.39,24.42.54,3.87.92,8.29-1.68,11.2-2.26,2.53-5.99,2.99-9.37,3.29-7.93.69-15.87,1.39-23.8,2.08-.71-10.83-1.74-21.69-2.08-32.54-.26-8.11-.83-16.95,4.63-23.62Z"/>
      </g>
      <g opacity=".58">
        <ellipse cx="420.29" cy="221.66" fill="#25addb" rx="7.27" ry="10.92"/>
        <path fill="#25addb" d="m408.99,234.67c4.95-6,14.56-8.22,20.85-3.66,5.69,4.13,7.1,11.86,8.06,18.82,1.13,8.14,2.26,16.28,3.39,24.42.54,3.87.92,8.29-1.68,11.2-2.26,2.53-5.99,2.99-9.37,3.29-7.93.69-15.87,1.39-23.8,2.08-.71-10.83-1.74-21.69-2.08-32.54-.26-8.11-.83-16.95,4.63-23.62Z"/>
      </g>
      <g opacity=".47">
        <g>
          <ellipse cx="107.25" cy="237.81" fill="#25addb" rx="5.15" ry="7.73"/>
          <path fill="#25addb" d="m99.25,247.03c3.5-4.25,10.31-5.83,14.77-2.59,4.03,2.92,5.03,8.4,5.71,13.33.8,5.77,1.6,11.53,2.4,17.3.38,2.74.65,5.87-1.19,7.93-1.6,1.79-4.24,2.12-6.64,2.33-5.62.49-11.24.98-16.86,1.48-.5-7.67-1.23-15.37-1.48-23.05-.18-5.75-.59-12,3.28-16.73Z"/>
        </g>
        <g>
          <ellipse cx="84.6" cy="247.64" fill="#25addb" rx="5.15" ry="7.73"/>
          <path fill="#25addb" d="m76.6,256.86c3.5-4.25,10.31-5.83,14.77-2.59,4.03,2.92,5.03,8.4,5.71,13.33.8,5.77,1.6,11.53,2.4,17.3.38,2.74.65,5.87-1.19,7.93-1.6,1.79-4.24,2.12-6.64,2.33-5.62.49-11.24.98-16.86,1.48-.5-7.67-1.23-15.37-1.48-23.05-.18-5.75-.59-12,3.28-16.73Z"/>
        </g>
        <g>
          <ellipse cx="125.27" cy="244.13" fill="#25addb" rx="5.15" ry="7.73"/>
          <path fill="#25addb" d="m117.27,253.35c3.5-4.25,10.31-5.83,14.77-2.59,4.03,2.92,5.03,8.4,5.71,13.33.8,5.77,1.6,11.53,2.4,17.3.38,2.74.65,5.87-1.19,7.93-1.6,1.79-4.24,2.12-6.64,2.33-5.62.49-11.24.98-16.86,1.48-.5-7.67-1.23-15.37-1.48-23.05-.18-5.75-.59-12,3.28-16.73Z"/>
        </g>
      </g>
      <g opacity=".58">
        <g>
          <ellipse cx="389.09" cy="233.64" fill="#25addb" rx="5.15" ry="7.73"/>
          <path fill="#25addb" d="m381.09,242.86c3.5-4.25,10.31-5.83,14.77-2.59,4.03,2.92,5.03,8.4,5.71,13.33.8,5.77,1.6,11.53,2.4,17.3.38,2.74.65,5.87-1.19,7.93-1.6,1.79-4.24,2.12-6.64,2.33-5.62.49-11.24.98-16.86,1.48-.5-7.67-1.23-15.37-1.48-23.05-.18-5.75-.59-12,3.28-16.73Z"/>
        </g>
        <g>
          <ellipse cx="373.47" cy="239.07" fill="#25addb" rx="5.15" ry="7.73"/>
          <path fill="#25addb" d="m365.47,248.29c3.5-4.25,10.31-5.83,14.77-2.59,4.03,2.92,5.03,8.4,5.71,13.33.8,5.77,1.6,11.53,2.4,17.3.38,2.74.65,5.87-1.19,7.93-1.6,1.79-4.24,2.12-6.64,2.33-5.62.49-11.24.98-16.86,1.48-.5-7.67-1.23-15.37-1.48-23.05-.18-5.75-.59-12,3.28-16.73Z"/>
        </g>
        <g>
          <ellipse cx="400.87" cy="231.56" fill="#25addb" rx="5.15" ry="7.73"/>
          <path fill="#25addb" d="m392.86,240.78c3.5-4.25,10.31-5.83,14.77-2.59,4.03,2.92,5.03,8.4,5.71,13.33.8,5.77,1.6,11.53,2.4,17.3.38,2.74.65,5.87-1.19,7.93-1.6,1.79-4.24,2.12-6.64,2.33-5.62.49-11.24.98-16.86,1.48-.5-7.67-1.23-15.37-1.48-23.05-.18-5.75-.59-12,3.28-16.73Z"/>
        </g>
      </g>
      <g>
        <g>
          <ellipse cx="276.98" cy="243.72" fill="#25addb" rx="5.15" ry="7.73"/>
          <path fill="#25addb" d="m268.98,252.94c3.5-4.25,10.31-5.83,14.77-2.59,4.03,2.92,5.03,8.4,5.71,13.33.8,5.77,1.6,11.53,2.4,17.3.38,2.74.65,5.87-1.19,7.93-1.6,1.79-4.24,2.12-6.64,2.33-5.62.49-11.24.98-16.86,1.48-.5-7.67-1.23-15.37-1.48-23.05-.18-5.75-.59-12,3.28-16.73Z"/>
        </g>
        <g>
          <ellipse cx="261.36" cy="249.15" fill="#25addb" rx="5.15" ry="7.73"/>
          <path fill="#25addb" d="m253.36,258.37c3.5-4.25,10.31-5.83,14.77-2.59,4.03,2.92,5.03,8.4,5.71,13.33.8,5.77,1.6,11.53,2.4,17.3.38,2.74.65,5.87-1.19,7.93-1.6,1.79-4.24,2.12-6.64,2.33-5.62.49-11.24.98-16.86,1.48-.5-7.67-1.23-15.37-1.48-23.05-.18-5.75-.59-12,3.28-16.73Z"/>
        </g>
        <g>
          <ellipse cx="288.75" cy="241.64" fill="#25addb" rx="5.15" ry="7.73"/>
          <path fill="#25addb" d="m280.75,250.85c3.5-4.25,10.31-5.83,14.77-2.59,4.03,2.92,5.03,8.4,5.71,13.33.8,5.77,1.6,11.53,2.4,17.3.38,2.74.65,5.87-1.19,7.93-1.6,1.79-4.24,2.12-6.64,2.33-5.62.49-11.24.98-16.86,1.48-.5-7.67-1.23-15.37-1.48-23.05-.18-5.75-.59-12,3.28-16.73Z"/>
        </g>
        <g opacity=".58">
          <ellipse cx="319.3" cy="241.43" fill="#25addb" rx="5.15" ry="7.73"/>
          <path fill="#25addb" d="m311.3,250.65c3.5-4.25,10.31-5.83,14.77-2.59,4.03,2.92,5.03,8.4,5.71,13.33.8,5.77,1.6,11.53,2.4,17.3.38,2.74.65,5.87-1.19,7.93-1.6,1.79-4.24,2.12-6.64,2.33-5.62.49-11.24.98-16.86,1.48-.5-7.67-1.23-15.37-1.48-23.05-.18-5.75-.59-12,3.28-16.73Z"/>
        </g>
      </g>
    </g>
    <path fill="#29afda" d="m478.92,294.66v23.82l-.22-.02c-.15,4.06-.39,8.12-.72,12.17-.05.63-.1,1.26-.16,1.89,0,.11-.02.22-.03.32H7.33c-.04-.27-.09-.55-.12-.82-.09-.64-.18-1.28-.26-1.93-.08-.63-.15-1.26-.22-1.89-.34-3.04-.55-6.08-.66-9.14-.09-2.38-.1-4.75-.04-7.12h0c.11-4.58.46-9.14,1.06-13.67,1.26-9.56,3.6-18.99,6.95-28.04l14.85-.26,5.08-.09,3.16-.05,22.66-.39,3.11-.05,10.3-.18,14.04-.25,8.95-.15,1.04-.02h0l15.68-.27,1.01-.02,5.69-.1,1.58-.03,1.26-.02,15.84-.27,77.97-1.34,1.11-.02h258.66c1.33,9.26,2.19,18.58,2.6,27.92h.28Z"/>
    <path fill="#53c8ea" d="m439.68,183.93l-9.52,1.32-.71.1-2.45.34-69.63,9.62-27.98,3.86-2.84.39-31.87,4.4h0l-38.29,5.29h0l-37.89,5.23-2.22.3-1.58.22-37.21-4.7-15.98-2.02-20.95-2.64-18.09-2.29-2.84-.36-17.06-2.15-34.03-4.3c1.1-1.48,2.17-2.98,3.19-4.52,3.65-5.5,6.7-11.34,9.6-17.27.6-1.21,1.18-2.42,1.77-3.64h0c.15-.32.3-.63.45-.94.07-.15.15-.3.22-.46,1.19-2.47,2.38-4.93,3.6-7.38l.02-1.48.54.1s.09.02.12.03c.51-1,1.02-1.99,1.53-2.98.75-1.42,1.52-2.84,2.31-4.23.63-1.11,1.27-2.22,1.94-3.31l-.27-.07.53-.35h0c.71-1.16,1.44-2.29,2.19-3.41,27.45-40.81,84.5-59.23,130.51-41.47,27.61,10.66,50.45,32.27,76.69,45.09,3.72,1.82,7.51,3.46,11.39,4.86h0c2.24.82,4.51,1.55,6.81,2.19h0c1.6.45,3.22.86,4.86,1.22.55.12,1.1.23,1.65.35.4.08.8.15,1.2.23.71.13,1.42.26,2.13.37,8.29,1.32,16.74,1.49,25.2,1.39,14.86-.17,29.81-1.15,44.17,1.85,1.72.36,3.43.78,5.14,1.26,7.48,2.12,14.51,5.47,20.97,9.74,1.07.71,2.13,1.44,3.16,2.2,1.93,1.41,3.8,2.89,5.61,4.46,1.34,1.15,2.64,2.34,3.91,3.58Z"/>
    <path fill="#1790cb" d="m33.97,235.06c1.03-1.28,2.09-2.54,3.16-3.79v88.52h-3.16v-84.74Z"/>
    <path fill="#1790cb" d="m321.69,157.28l-16.71,4.06-85.49,20.78-.29,1.08-.71-.19v120.69h-2.22v-120.81l-1.26.31-.29-1.18-4.58-1.2h0l-11.42-2.98-15.96-4.17-1.09-.29-.25-.06h0l-31.23-8.17-3.87-1.01-23.85-6.23v151.88h-2.84v-152.62l-11.98-3.13-5.89-1.54-3.77-.99-4.15-1.09-.27-.07.53-.35h0c.71-1.16,1.44-2.29,2.19-3.41l2.08.58,13.71,3.78,41.71,11.51,2.79.77,27.89,7.69,16.99,4.69,11.09,3.06,4.7,1.29,96.9-24.7.75-.19h0c2.24.82,4.51,1.55,6.81,2.19Z"/>
    <path fill="#1790cb" d="m329.4,159.08v150.72h-2.84v-151.29c.55.12,1.1.23,1.65.35.4.08.8.15,1.2.23Z"/>
    <path fill="#1790cb" d="m427.01,173.69c1.07.71,2.13,1.44,3.16,2.2v146.51h-3.16v-148.71Z"/>
    <g opacity=".09">
      <path fill="#fff" d="m184.45,170.93l-1.67,1.32-1.1.87-.26.2h0l-1.65,1.3-2.54,2.01h0s-1.47,1.17-1.47,1.17l-.05.03h0s-.83.66-.83.66l-.23.19-.89.71-.38.29h0s-.87.69-.87.69h0s-.75.59-.75.59l-1.93,1.53-2.97,2.35-26.3,20.79-18.09,14.29-2.84,2.25-10.6,8.38-6.76,5.34-12.65,10-8.82,6.97-18.19,14.38-2.81,2.22-22.66,17.91-3.16,2.5-3.95,3.12-6.34,5.01-17.65,13.95c.11-4.57.46-9.13,1.06-13.66,1.26-9.56,3.6-18.99,6.95-28.04.54-1.47,1.11-2.93,1.72-4.38l16.91-12.67h0s0,0,0,0l1.29-.97,3.16-2.37,3.3-2.47,1.01-.76h0s10.77-8.08,10.77-8.08l50.35-37.72,17.06-12.78,2.84-2.13,7.29-5.46,10.15-7.61.35-.26h0s.95-.72.95-.72l3.11-2.33,3.39-2.54,2.47-1.85,2.05-1.53,1.54-1.16,2.79.77,27.89,7.69Z"/>
      <polygon fill="#fff" points="212.53 178.68 210.14 180.83 210.14 180.83 122.47 259.93 119.63 262.49 67.2 309.79 37.14 315.47 33.97 316.07 28.36 317.13 33.97 312.54 37.14 309.95 119.63 242.51 122.47 240.18 198.72 177.85 201.44 175.62 212.53 178.68"/>
      <path fill="#fff" d="m112.07,150.96l-4.42,3.08-3.69,2.56-4.79,3.33h0l-2.08,1.45-3.93,2.73-1.84,1.28-2.79,1.94-3.2,2.22-1.01.7h0l-1.2.83c.15-.31.3-.62.45-.94.07-.15.15-.3.22-.46,1.19-2.47,2.38-4.93,3.6-7.38l.02-1.48.54.1s.09.02.12.03c.51-1,1.02-1.99,1.53-2.98.75-1.42,1.52-2.84,2.31-4.23.63-1.11,1.27-2.22,1.94-3.31l-.27-.07.53-.35h0s4.27-2.83,4.27-2.83l13.71,3.78Z"/>
    </g>
    <g opacity=".08">
      <path fill="#fff" d="m430.16,175.89c1.93,1.41,3.8,2.89,5.61,4.46l-5.61,4.43-.71.56-2.45,1.93-1.91,1.51-3.7,2.92-60.45,47.78-2.84,2.25-26.18,20.7-2.52,2-2.84,2.25-.09.06-12.37,9.78-4.11,3.24-1.19.94-5.24,4.14-4.99,3.94-7.42,5.87-12.84,10.15-10.44,8.25-2.18,1.73-16.24,12.84-4.61-14.59-.62-1.95-2.77-8.79-2.41-7.64-2.73-8.66,11.53-8.64,2.21-1.66.06-.04,11.91-8.92,3.6-2.7,5.78-4.33,7.38-5.53,5.04-3.78,2.55-1.91,2.53-1.89,4.94-3.7,16.15-12.1,4.11-3.08,12.46-9.34,2.84-2.13,27.98-20.96.73-.55,2.84-2.13,39.95-29.93c1.72.36,3.43.78,5.14,1.26,7.48,2.12,14.51,5.47,20.97,9.74,1.07.71,2.13,1.44,3.16,2.2Z"/>
      <path fill="#fff" d="m459.12,210.14l-26.34,23.76-2.61,2.35-3.16,2.86-1.91,1.72-3.7,3.34-8.06,7.27-8.93,8.07-1.78,1.61-6.24,5.63-5.93,5.35-2.39,2.15-8.81,7.95-5.55,5-8.28,7.47-12.23,11.03-16.43,3.11h-.01l-22.67,4.28-4.11.78-7.3,1.37,7.3-5.97,2.59-2.11,1.52-1.25,12.46-10.19,1.29-1.05,1.56-1.27,32.59-26.65.26-.21,15.48-12.65h0s5.6-4.58,5.6-4.58l8.37-6.85h0s3.32-2.71,3.32-2.71l2.62-2.15.56-.46,7.78-6.36h0s7.33-5.99,7.33-5.99l8.08-6.61,3.7-3.03.71-.59,1.19-.97,3.16-2.58,19.43-15.88c2.17,2.86,4.19,5.82,6.04,8.86,1.23,2.01,2.39,4.06,3.48,6.15Z"/>
      <path fill="#fff" d="m356.73,160.83l-27.33,18.99-2.84,1.98-25.21,17.52-4.11,2.86-2.55,1.77h0l-44.64,31.02-2.21,1.54-29.34,20.39-2.22,1.54-.27.19v-22.63l.27-.18,2.22-1.46,29.34-19.44,2.21-1.46,6.34-4.2h0l40.84-27.07,4.11-2.72,25.21-16.71,2.84-1.89,2.13-1.41c8.29,1.32,16.74,1.49,25.2,1.39Z"/>
    </g>
    <path fill="#1790cb" d="m478.92,294.66v23.82l-.22-.02c-.15,4.06-.39,8.12-.72,12.17-.05.63-.1,1.26-.16,1.89,0,.11-.02.22-.03.32-.48,5.53-1.13,11.04-1.93,16.54-.13.93-.27,1.86-.42,2.79-.13.86-.27,1.73-.42,2.59-.33,2.01-.68,4.01-1.06,6.01H14.92c-2.94-7.34-5.2-14.94-6.7-22.7-.34-1.73-.63-3.47-.89-5.22-.04-.27-.09-.55-.12-.82-.09-.64-.18-1.28-.26-1.93-.08-.63-.15-1.26-.22-1.89-.34-3.04-.55-6.08-.66-9.14-.09-2.38-.1-4.75-.04-7.12h0c.11-4.58.46-9.14,1.06-13.67l16.59-.29,6.7-.11,3.59-.06,3.16-.05,15.22-.27,13.96-.24,15.06-.26,38.25-.66,2.84-.05,93.8-1.62,1.11-.02h261.54Z"/>
    <path fill="#35b68e" d="m478.7,318.46c-.15,4.06-.39,8.12-.72,12.17-.05.63-.1,1.26-.16,1.89,0,.11-.02.22-.03.32-.48,5.53-1.13,11.04-1.93,16.54-.13.93-.27,1.86-.42,2.79-.13.86-.27,1.73-.42,2.59-.33,2.01-.68,4.01-1.06,6.01-3.15,16.89-7.8,33.49-13.92,49.54-.4,1.06-.87,2.18-1.37,3.32H54.3c-15.79-12.42-28.47-28.73-36.86-46.98-.56-1.22-1.1-2.45-1.62-3.69-.31-.72-.61-1.45-.89-2.18-2.94-7.34-5.2-14.94-6.7-22.7-.34-1.73-.63-3.47-.89-5.22-.04-.27-.09-.55-.12-.82-.09-.64-.18-1.28-.26-1.93-.08-.63-.15-1.26-.22-1.89-.34-3.04-.55-6.08-.66-9.14l22.28-1.94,5.61-.49,3.16-.27,82.49-7.19,2.84-.25,93.8-8.18,1.11-.09,1.11.07,22.95,1.56,36.86,2.51,34.27,2.33,13.98.95,2.84.19,7.36.5h.01l90.23,6.15,3.16.21,48.54,3.31Z"/>
    <path fill="#fff" d="m475.44,352.16c-.13.86-.27,1.73-.42,2.59l-13.99,6.01-123.01,52.86h-5.61l123.02-52.86,20.01-8.6Z"/>
    <path fill="#fff" d="m477.82,332.52l-58.6-4.9.02.12-26.62,5.1-67.27,12.89-78.41,15.03-128.67,24.66,128.57,28.2h-21.81l-207.58-46.98c-.56-1.22-1.1-2.45-1.62-3.69l96.97,21.27,122.4-23.45,79.73-15.28,65.96-12.64,30.61-5.87-145.81-12.19-20.85-1.75-27.44-2.3L6.95,330.09c-.08-.63-.15-1.26-.22-1.89l210.65-19.37h.09s26.75,2.25,26.75,2.25l23.65,1.97,150.55,12.59.43-.09.02.12,59.12,4.94c-.05.63-.1,1.26-.16,1.89Z"/>
    <g>
      <path fill="#1790cb" d="m192.91,177.75l-.05,4.88-.05,5.27-5.58-.66-20.37-2.41-37.09-4.38-7.29-.86-2.84-.34-38.3-4.52c.6-1.21,1.18-2.42,1.77-3.64h0c.15-.32.3-.63.45-.94.07-.15.15-.3.22-.46,1.19-2.47,2.38-4.93,3.6-7.38l.02-1.48.54.1s.09.02.12.03c.51-1,1.02-1.99,1.53-2.98.75-1.42,1.52-2.84,2.31-4.23l6.05,1.44,3.78.89,2.24.53,15.67,3.72,2.84.68,16.1,3.83,9.15,2.17,32.05,7.62,1.89.45,1.09.26,10.17,2.42Z"/>
      <g opacity=".44">
        <path fill="#f0f6f7" d="m92.28,159.27c-.52-.48-1.41-.92-2.69-1.29-.52.99-1.03,1.99-1.53,2.98,1.21.26,1.81.85,1.8,1.75-.01.84-.56,1.17-1.67.96l-.53-.1-.28-.05v-1.21c-1.21,2.45-2.4,4.92-3.59,7.38-.07.15-.15.3-.22.46l.75.11h0l4.44.63.02-1.64.02-1.88-.27-.04-1.18-.19.02-2.16.85.15c1.32.23,2.35.31,3.1.27.44-.02.79-.1,1.03-.22.37-.19.64-.54.81-1.06.13-.4.2-.89.2-1.48.02-1.57-.34-2.68-1.07-3.37Z"/>
        <path fill="#f0f6f7" d="m104.21,169.87l-.47-1.95-1.78-7.39-2.8-.6h0l-1.57-.33-.52,1.78-2.03,7.01-1.16-.19v.6s-.03,2.82-.03,2.82l4.97.71.03-3.32-1.36-.22.08-.32.33-1.32,2.58.44.12.61.22,1.12-1.23-.2-.03,3.31,5.57.79.03-3.21-.96-.16Zm-5.99-3.94l1.04-3.64.92,3.99-1.96-.35Z"/>
        <path fill="#f0f6f7" d="m115.03,166.92c-.03-1.46-.31-2.47-.84-3.04-.58-.62-1.9-1.16-3.97-1.6l-4.06-.86-.03,3.05,1.08.21-.03,2.93-.03,2.73-1.07-.18-.04,3.19,4.07.58c2.13.31,3.45.22,4.02-.26.57-.47.86-1.71.88-3.72l.03-2.6c0-.15,0-.3,0-.45Zm-2.97.45l-.02,2.33c-.01.64-.09,1.03-.25,1.16-.15.13-.56.14-1.21.04l-.44-.06.04-3.48.02-2.08.4.07c.67.13,1.08.3,1.24.52.14.2.22.63.22,1.32v.19Z"/>
        <path fill="#f0f6f7" d="m122.47,171.25l-.83-.14-.02,1.58-1.81-.29.03-2.14,2.25.39v-1.11s-2.24-.41-2.24-.41l.02-1.97,1.81.35-.02,1.57.81.15,1.27.23.03-3.31v-.97s-1.31-.28-1.31-.28l-2.84-.6-3.31-.71-.03,2.88.94.18v.09l-.06,5.24-.93-.15-.03,3,3.43.49,2.84.41,1.37.2.04-4.42-1.42-.25Z"/>
        <path fill="#f0f6f7" d="m129.77,171.99l-.02,2.01-1.62-.27.05-4.96.88.17.03-2.65-2.07-.44-2.05-.43v.62s-.03,2.1-.03,2.1l.87.17-.06,5.04-.86-.14-.03,2.84,6.9.99.05-4.69-2.02-.36Z"/>
        <path fill="#f0f6f7" d="m144.33,169.55l-5.24-1.12-.05,4.26.87.16.34.06v-.32s0,0,0,0v-1.46s.96.19.96.19v.56s-.05,3.97-.05,3.97l-.77-.13-.03,2.56,3.34.47.03-2.49-.64-.1.05-4.47.87.17-.02,1.73,1.13.21.04-4.08-.84-.18Z"/>
        <path fill="#f0f6f7" d="m150.15,171.39c-.3-.56-.92-.94-1.86-1.15-1.02-.22-1.7-.12-2.05.3-.34.43-.52,1.41-.53,2.96l-.02,2.05c-.02,1.44.14,2.43.47,2.97.34.54.99.87,1.96,1.01.94.13,1.57-.02,1.91-.47.34-.45.51-1.34.53-2.69l.02-1.96c.02-1.46-.13-2.47-.43-3.03Zm-1.39,4.37c-.01.88-.2,1.29-.59,1.23-.4-.07-.6-.54-.59-1.42l.02-1.68c.01-.86.21-1.26.61-1.18.35.06.53.29.55.67v.27s.02.39.02.39l-.02,1.72Z"/>
        <path fill="#f0f6f7" d="m154.18,171.64l-.03,2.19.37.07-.03,2.85c-.01.83-.2,1.21-.58,1.16-.33-.05-.5-.48-.48-1.29l.03-2.92.39.07.02-2.21-2.61-.55-.03,2.25.59.11-.04,4.08v.68c-.02,1.27.64,2.01,1.97,2.19,1.03.15,1.64-.14,1.83-.86l.08-.62v-.66s.04-4.05.04-4.05l.56.11.02-2.16-2.1-.45Z"/>
        <path fill="#f0f6f7" d="m162,178.36l-.35-.06v.13c0,.53-.11.78-.31.75-.14-.02-.22-.15-.23-.38l-.02-.45-.03-.56c-.03-.4-.39-.71-1.07-.93.07,0,.13,0,.18,0,.8,0,1.2-.53,1.21-1.56.01-.85-.12-1.45-.4-1.8-.28-.35-.85-.62-1.71-.8l-2.43-.52-.03,2.15.54.11-.04,4-.54-.09-.02,2.25,2.6.37.02-2.21-.55-.09.02-1.6c.07.01.12.02.14.02.61.11.91.4.9.9l-.02.54v.54c-.03,1.34.34,2.07,1.08,2.17.76.11,1.15-.47,1.16-1.74,0-.32-.02-.71-.07-1.17Zm-3.01-2.06l-.17-.03.02-1.52c.09.01.16.02.2.03.63.12.94.45.94,1,0,.47-.33.65-.99.53Z"/>
        <path fill="#f0f6f7" d="m165.5,174.05l-.02,2,.54.11-.04,3.44-1.36-5.73-2.16-.46-.02,2.06.5.1-.04,3.81-.5-.08-.02,2.15,1.98.28.03-2.11-.55-.09.04-4.14,1.54,6.49,1.43.21.06-5.74.45.09.02-1.96-1.88-.4Z"/>
        <path fill="#f0f6f7" d="m171.4,180.74l-.82-5.61-1.61-.34-.95,5.4-.42-.06-.03,2.05,1.81.26.02-2.01-.5-.08.15-1.01.95.17.12,1.04-.45-.07-.02,2.01.17.02,1.91.28.02-1.81v-.17l-.36-.06Zm-2.22-2.16l.39-2.25.33,2.38-.72-.13Z"/>
        <path fill="#f0f6f7" d="m175.3,176.13l-.42,2.36-.14.81-.09-.62-.4-2.77-2.09-.45-.02,1.88.4.08-.03,2.95h0s0,.55,0,.55l-.4-.07-.02,1.97,1.66.24.02-1.93-.4-.06v-1.37s.01,0,.01,0l.03-2.54.35,2.24.59,3.75.46.06.91-5.36h0s.05-.28.05-.28v.24l-.04,3.63-.33-.05-.02,1.91,1.79.26.02-1.88-.38-.06.03-3.35.38.07.02-1.69v-.1l-1.93-.41Z"/>
        <path fill="#f0f6f7" d="m179.73,181.09v1s-.72-.12-.72-.12l.02-1.34.88.15v-.7s-.88-.17-.88-.17l.02-1.23.71.14v.99s.82.15.82.15l.03-2.71-2.92-.62-.02,1.78.36.07-.03,3.31-.36-.06-.02,1.86,3,.43.03-2.79-.89-.15Z"/>
        <path fill="#f0f6f7" d="m183.21,177.82l-.02,1.68.38.07-.03,2.9-.96-4.79-1.53-.32-.02,1.72.35.07-.03,3.2-.35-.05-.02,1.8,1.4.2.02-1.77-.39-.06.04-3.48,1.09,5.42,1.02.15.05-4.85.32.06.02-1.66-1.34-.28Z"/>
        <path fill="#f0f6f7" d="m184.75,178.14l-.03,2.86.55.1v-1.2s.44.09.44.09l-.03,3.05-.35-.05-.02,1.72,1.52.22.02-1.69-.3-.05.03-3.03.4.08v1.17s.51.1.51.1l.03-2.78-2.78-.59Z"/>
      </g>
      <polygon fill="#1790cb" points="182.74 175.96 181.65 175.71 181.69 171.59 182.78 171.88 182.74 175.96"/>
      <polygon fill="#1790cb" points="101.71 157.22 97.93 156.35 98.01 148.65 101.79 149.68 101.71 157.22"/>
    </g>
  </g>
  <g>
    <g opacity=".31">
      <ellipse cx="190.42" cy="389.63" fill="#144355" rx="142.8" ry="13.75"/>
    </g>
    <g>
      <g>
        <path fill="#21426b" d="m445.71,291.73c-11.4,0-23.79,5.46-32.04,13.9l-22.32,16.36h0s-44.6-.02-44.6-.02v9.53s44.59.02,44.59.02h0s22.31,16.38,22.31,16.38c8.25,8.45,20.64,13.92,32.03,13.93,19.33,0,30.65-15.85,30.66-35.18,0-19.33-11.3-34.92-30.63-34.92Zm-39.92,44.03l-11.63-8.54v-.94s11.64-8.53,11.64-8.53c-1.05,2.87-1.63,5.89-1.63,9,0,3.11.58,6.13,1.62,9Zm20.38.82c-.93,0-1.68-.75-1.68-1.68,0-.93.75-1.67,1.68-1.67.92,0,1.67.75,1.67,1.68,0,.92-.75,1.67-1.68,1.67Zm0-8.14c-.93,0-1.68-.75-1.68-1.68,0-.93.75-1.68,1.68-1.68.92,0,1.67.75,1.67,1.68,0,.92-.75,1.67-1.68,1.67Zm0-8.14c-.93,0-1.68-.75-1.68-1.68,0-.92.75-1.67,1.68-1.67.92,0,1.67.75,1.67,1.68,0,.93-.75,1.67-1.68,1.67Zm5.27,20.59c-.92,0-1.67-.75-1.67-1.68,0-.92.75-1.67,1.68-1.67.92,0,1.67.75,1.67,1.68,0,.93-.75,1.67-1.68,1.67Zm0-8.63c-.92,0-1.67-.75-1.67-1.68,0-.92.75-1.67,1.68-1.67.92,0,1.67.75,1.67,1.68,0,.93-.75,1.68-1.68,1.68Zm0-8.14c-.92,0-1.67-.75-1.67-1.68,0-.92.75-1.67,1.68-1.67.92,0,1.67.75,1.67,1.68,0,.92-.75,1.67-1.68,1.67Zm0-8.14c-.92,0-1.67-.75-1.67-1.68s.75-1.67,1.68-1.67c.92,0,1.67.75,1.67,1.68,0,.92-.75,1.67-1.68,1.67Zm4.81,29.24c-.93,0-1.67-.75-1.67-1.68,0-.93.75-1.68,1.68-1.68.92,0,1.67.75,1.67,1.68,0,.92-.75,1.67-1.68,1.67Zm0-8.88c-.93,0-1.67-.75-1.67-1.68,0-.93.75-1.68,1.68-1.68.92,0,1.67.75,1.67,1.68,0,.92-.75,1.67-1.68,1.67Zm0-8.63c-.93,0-1.67-.75-1.67-1.68,0-.93.75-1.68,1.68-1.68.92,0,1.67.75,1.67,1.68,0,.92-.75,1.67-1.68,1.67Zm0-8.14c-.93,0-1.67-.75-1.67-1.68,0-.92.75-1.67,1.68-1.67.92,0,1.67.75,1.67,1.68,0,.93-.75,1.68-1.68,1.68Zm0-8.14c-.93,0-1.67-.75-1.67-1.68,0-.92.75-1.67,1.68-1.67.92,0,1.67.75,1.67,1.68,0,.93-.75,1.67-1.68,1.67Zm5.67,38.53c-.92,0-1.67-.75-1.67-1.68,0-.92.75-1.67,1.68-1.67.92,0,1.67.75,1.67,1.68,0,.93-.75,1.68-1.68,1.68Zm0-9.08c-.92,0-1.67-.75-1.67-1.68,0-.92.75-1.67,1.68-1.67s1.67.75,1.67,1.68c0,.93-.75,1.67-1.68,1.67Zm0-9.08c-.92,0-1.67-.75-1.67-1.68,0-.92.75-1.67,1.68-1.67s1.67.75,1.67,1.68c0,.92-.75,1.67-1.68,1.67Zm0-8.63c-.92,0-1.67-.75-1.67-1.68,0-.92.75-1.67,1.68-1.67s1.67.75,1.67,1.68c0,.92-.75,1.67-1.68,1.67Zm0-8.14c-.92,0-1.67-.75-1.67-1.68,0-.92.75-1.67,1.68-1.67.92,0,1.67.75,1.67,1.68s-.75,1.67-1.68,1.67Zm0-8.14c-.92,0-1.67-.75-1.67-1.68,0-.93.75-1.68,1.68-1.68s1.67.75,1.67,1.68c0,.92-.75,1.67-1.68,1.67Zm5.09,38.32c-.92,0-1.67-.75-1.67-1.68,0-.93.75-1.68,1.68-1.68.93,0,1.68.75,1.68,1.68,0,.92-.75,1.67-1.68,1.67Zm0-8.88c-.92,0-1.67-.75-1.67-1.68,0-.93.75-1.68,1.68-1.68.93,0,1.68.75,1.68,1.68,0,.92-.75,1.67-1.68,1.67Zm0-8.63c-.92,0-1.67-.75-1.67-1.68,0-.93.75-1.68,1.68-1.68.93,0,1.68.75,1.68,1.68,0,.92-.75,1.67-1.68,1.67Zm0-8.14c-.92,0-1.67-.75-1.67-1.68,0-.92.75-1.67,1.68-1.67.93,0,1.68.75,1.68,1.68,0,.93-.75,1.68-1.68,1.68Zm0-8.14c-.92,0-1.67-.75-1.67-1.68,0-.92.75-1.67,1.68-1.67.93,0,1.68.75,1.68,1.68,0,.93-.75,1.67-1.68,1.67Zm4.81,29.45c-.92,0-1.67-.75-1.67-1.68,0-.92.75-1.67,1.68-1.67.92,0,1.67.75,1.67,1.68,0,.93-.75,1.67-1.68,1.67Zm0-8.63c-.92,0-1.67-.75-1.67-1.68,0-.92.75-1.67,1.68-1.67.92,0,1.67.75,1.67,1.68,0,.93-.75,1.68-1.68,1.68Zm0-8.14c-.92,0-1.67-.75-1.67-1.68,0-.92.75-1.67,1.68-1.67.92,0,1.67.75,1.67,1.68,0,.92-.75,1.67-1.68,1.67Zm0-8.14c-.92,0-1.67-.75-1.67-1.68,0-.92.75-1.67,1.68-1.67.92,0,1.67.75,1.67,1.68s-.75,1.67-1.68,1.67Zm5.27,20.59c-.93,0-1.68-.75-1.68-1.68,0-.93.75-1.67,1.68-1.67.92,0,1.67.75,1.67,1.68,0,.92-.75,1.67-1.68,1.67Zm0-8.14c-.93,0-1.68-.75-1.68-1.68,0-.93.75-1.68,1.68-1.68.92,0,1.67.75,1.67,1.68,0,.92-.75,1.67-1.68,1.67Zm0-8.14c-.93,0-1.68-.75-1.68-1.68,0-.92.75-1.67,1.68-1.67.92,0,1.67.75,1.67,1.68,0,.93-.75,1.67-1.68,1.67Z"/>
        <rect width="36.44" height="12.76" x="343.48" y="320.37" fill="#d23838" rx="6.01" ry="6.01"/>
        <rect width="9.69" height="16.3" x="342.27" y="318.59" fill="#21426b" rx="4.85" ry="4.85"/>
        <rect width="5.3" height="12.76" x="385.85" y="320.38" fill="#d23838" rx="2.65" ry="2.65"/>
        <g opacity=".21">
          <path fill="#200e10" d="m471.93,326.65c0-16.92-9.3-30.51-26.22-30.51-16.92,0-37.12,13.7-37.13,30.63,0,16.92,20.17,30.65,37.1,30.66,16.92,0,26.24-13.85,26.25-30.77Zm-23.17-.59c0,.92-.75,1.67-1.68,1.67s-1.67-.75-1.67-1.68.75-1.68,1.68-1.68,1.68.75,1.68,1.68Zm10.11-7.42c0,.93-.75,1.67-1.68,1.67s-1.68-.75-1.68-1.68.75-1.67,1.68-1.67,1.67.75,1.67,1.68Zm-10.11-.72c0,.93-.75,1.68-1.68,1.68s-1.67-.75-1.67-1.68.75-1.67,1.68-1.67,1.68.75,1.68,1.68Zm-8.46-12.68c0-.93.75-1.68,1.68-1.68s1.67.75,1.67,1.68-.75,1.67-1.68,1.67-1.67-.75-1.67-1.68Zm-5.69,4.54c0-.92.75-1.67,1.68-1.67s1.67.75,1.67,1.68-.75,1.67-1.68,1.67-1.67-.75-1.67-1.68Zm10.8,0c0-.92.75-1.67,1.68-1.67s1.68.75,1.68,1.68-.75,1.67-1.68,1.67-1.67-.75-1.67-1.68Zm-3.44,1.92c.92,0,1.67.75,1.67,1.68s-.75,1.67-1.68,1.67-1.67-.75-1.67-1.68.75-1.67,1.68-1.67Zm-12.19,2.61c0-.92.75-1.67,1.68-1.67s1.67.75,1.67,1.68-.75,1.67-1.68,1.67-1.67-.75-1.67-1.68Zm20.45,0c0-.92.75-1.67,1.68-1.67s1.67.75,1.67,1.68-.75,1.67-1.68,1.67-1.67-.75-1.67-1.68Zm-13.95,1.91c.92,0,1.67.75,1.67,1.68s-.75,1.68-1.68,1.68-1.67-.75-1.67-1.68.75-1.67,1.68-1.67Zm-11.78,2.39c0-.92.75-1.67,1.68-1.67s1.67.75,1.67,1.68-.75,1.67-1.68,1.67-1.68-.75-1.68-1.68Zm17.47,1.21c.92,0,1.67.75,1.67,1.68s-.75,1.67-1.68,1.67-1.67-.75-1.67-1.68.75-1.67,1.68-1.67Zm-12.19,2.61c0-.92.75-1.67,1.68-1.67s1.67.75,1.67,1.68-.75,1.67-1.68,1.67-1.67-.75-1.67-1.68Zm20.45,0c0-.92.75-1.67,1.68-1.67s1.67.75,1.67,1.68-.75,1.67-1.68,1.67-1.67-.75-1.67-1.68Zm-13.95,1.91c.92,0,1.67.75,1.67,1.68s-.75,1.67-1.68,1.67-1.67-.75-1.67-1.68.75-1.68,1.68-1.68Zm-11.78,2.39c0-.93.75-1.68,1.68-1.68s1.67.75,1.67,1.68-.75,1.67-1.68,1.67-1.68-.75-1.68-1.68Zm31.01.01c0-.93.75-1.68,1.68-1.68s1.67.75,1.67,1.68-.75,1.67-1.68,1.67-1.68-.75-1.68-1.68Zm-25.73,3.81c0-.92.75-1.67,1.68-1.67s1.67.75,1.67,1.68-.75,1.68-1.68,1.68-1.67-.75-1.67-1.68Zm12.19-2.12c.92,0,1.67.75,1.67,1.68s-.75,1.67-1.68,1.67-1.67-.75-1.67-1.68.75-1.67,1.68-1.67Zm8.26,2.13c0-.92.75-1.67,1.68-1.67s1.67.75,1.67,1.68-.75,1.68-1.68,1.68-1.67-.75-1.67-1.68Zm-12.28,4.09c0,.92-.75,1.67-1.68,1.67s-1.67-.75-1.67-1.68.75-1.68,1.68-1.68,1.67.75,1.67,1.68Zm9.12-1.67c.93,0,1.68.75,1.68,1.68s-.75,1.67-1.68,1.67-1.67-.75-1.67-1.68.75-1.68,1.68-1.68Zm-22.58,1.89c0-.93.75-1.67,1.68-1.67s1.67.75,1.67,1.68-.75,1.67-1.68,1.67-1.68-.75-1.68-1.68Zm31.01.01c0-.93.75-1.67,1.68-1.67s1.67.75,1.67,1.68-.75,1.67-1.68,1.67-1.68-.75-1.68-1.68Zm-25.73,4.3c0-.92.75-1.67,1.68-1.67s1.67.75,1.67,1.68-.75,1.67-1.68,1.67-1.67-.75-1.67-1.68Zm10.51,0c0-.92.75-1.67,1.68-1.67s1.67.75,1.67,1.68-.75,1.67-1.68,1.67-1.67-.75-1.67-1.68Zm9.94,0c0-.92.75-1.67,1.68-1.67s1.67.75,1.67,1.68-.75,1.67-1.68,1.67-1.67-.75-1.67-1.68Zm-15.63,4.33c0-.93.75-1.68,1.68-1.68s1.67.75,1.67,1.68-.75,1.67-1.68,1.67-1.67-.75-1.67-1.68Zm10.8,0c0-.93.75-1.68,1.68-1.68s1.68.75,1.68,1.68-.75,1.67-1.68,1.67-1.67-.75-1.67-1.68Zm-5.11,4.74c0-.92.75-1.67,1.68-1.67s1.67.75,1.67,1.68-.75,1.68-1.68,1.68-1.67-.75-1.67-1.68Z"/>
        </g>
      </g>
      <path fill="#ffab96" d="m352.57,306.29l-11.63,12.77s-5.63-7.08-13.15-7.73c-5.85-.51-43.66-19.61-43.39-22.7l-7.69-4.59-13.75-8.22,11.74-13.74,3.32-3.89,4.21,2.82,1.57,1.05,14.97,10.04,39.6,25.17,14.21,9.03Z"/>
      <g opacity=".38">
        <path fill="#eb8366" d="m283.8,262.05c-1.65,3.77-6.13,14.54-7.08,21.97l-13.75-8.22,11.74-13.74,7.53-1.07,1.57,1.05Z"/>
      </g>
      <path fill="#ec773f" d="m284.4,260.69s-15.73,11.17-17.56,20.29l-12.41-6.5-19.36-10.14,15.8-15.96,7.06-7.13,26.46,19.43Z"/>
      <g opacity=".14">
        <path fill="#144355" d="m254.44,274.48l-19.36-10.14,15.8-15.96s-.24,16.04,3.55,26.1Z"/>
      </g>
      <path fill="#ffab96" d="m170.64,247.47l-15.1.91-7.47.45-29.97,28.42-10.26-10.18s25.64-32.14,29.29-34.65,24.39-7.23,24.39-7.23l2.18,5.33,6.94,16.95Z"/>
      <g opacity=".38">
        <path fill="#eb8366" d="m170.64,247.47l-15.1.91c1.96-8.85,3.94-22.71,3.94-22.71l4.22,4.85,6.94,16.95Z"/>
      </g>
      <path fill="#200e10" d="m238.86,283.27s-3.55,36.93-24.53,38.45c0,0-13.87-34.03,24.53-38.45Z"/>
      <path fill="#cad6d8" d="m343.78,380.99s-2.91,7.75-14.62,9.58c-11.7,1.82-35.43,4.5-35.43,4.5,0,0,39.36-21.75,50.05-14.08Z"/>
      <path fill="#ffab96" d="m152.78,329.01s-7.13,8.21-12.59,13.7c-1.31,1.31-2.52,2.47-3.52,3.32-5.17,4.41-17.63,7.15-25.08,8.06-3.36.41-11.48,2.64-19.39,4.98-9.62,2.84-18.91,5.81-18.91,5.81h-8.51c-6.23-5.62,5.01-16.26,5.01-16.26l9.12-3.5c2.3-1.95,4.58-3.65,6.83-5.14,17.03-11.31,31.62-10.36,31.62-10.36l3.54-4.85,6.8-9.31,25.08,13.55Z"/>
      <path fill="#eb8366" d="m152.78,329.01s-7.13,8.21-12.59,13.7c-5.35-6.87-14.73-14.44-19.28-17.94l6.8-9.31,25.08,13.55Z"/>
      <path fill="#f0f6f7" d="m92.21,359.07c-9.62,2.84-18.91,5.81-18.91,5.81h-8.51c-6.23-5.62,5.01-16.26,5.01-16.26l9.12-3.5c2.3-1.95,4.58-3.65,6.83-5.14.68,5.44,2.37,14.1,6.46,19.08Z"/>
      <path fill="#ffab96" d="m306.9,369.13s-12.46,10.64-19,7.45l-11.1-14.29s-1.05-1-2.8-2.75c-7.87-7.87-29.79-30.79-32.16-44.09l-9.56.8-23.27,1.96s10.38-33.96,22.21-33.52c0,0,1.31-.1,3.36-.11,5.42-.02,16.01.62,21.09,5.62,4.64,4.57,25.68,37.85,39.31,59.71,6.9,11.08,11.9,19.22,11.9,19.22Z"/>
      <path fill="#eb8366" d="m232.28,316.26l-23.27,1.96s10.38-33.96,22.21-33.52c0,0,1.31-.1,3.36-.11-3.5,6.08-2.98,22.13-2.3,31.68Z"/>
      <path fill="#f0f6f7" d="m306.9,369.13s-12.46,10.64-19,7.45l-11.1-14.29s-1.05-1-2.8-2.75c5.34-.31,14.7-2.02,20.99-9.63,6.9,11.08,11.9,19.22,11.9,19.22Z"/>
      <path fill="#21426b" d="m344.08,380.84c-.49.43-2.72.27-3.42.38-1.23.21-2.44.49-3.64.83-4.75,1.35-9.19,3.56-13.73,5.46-7.42,3.1-15.2,5.33-23.12,6.67-2.91.49-5.85.86-8.79,1.11-1.35.11-2.95.43-4.3.26-.84-.11-1.34-.67-1.87-1.3-.75-.9-1.25-1.99-1.59-3.14-.5-1.69-.67-3.53-.79-5.17-.35-4.94,0-10.03.75-14.92,2.13,5.77,11.01-.21,11.01-.21-2.89-3.04,1.37-8.66,1.37-8.66,7.45-7.45,10.34,3.34,10.94,4.26.61.91,16.87,3.65,27.97,5.17,3.03.41,6.07,1.62,7.86,4.21.18.25.46.73.74,1.3.66,1.32,1.32,3.15.61,3.77Z"/>
      <path fill="#f0f6f7" d="m308.87,377.58c-.2,0-.4-.06-.57-.18-.45-.32-.56-.94-.24-1.39.21-.29,5.11-7.17,10.56-7.92.54-.08,1.05.31,1.12.85.07.54-.31,1.05-.85,1.12-4.6.63-9.16,7.03-9.21,7.1-.19.27-.5.42-.81.42Z"/>
      <path fill="#f0f6f7" d="m305.45,375.75c-.13,0-.26-.03-.39-.08-.5-.21-.74-.8-.53-1.3.12-.28,3-6.92,8.54-7.32.55-.04,1.02.37,1.06.92.04.55-.37,1.02-.92,1.06-4.32.31-6.83,6.05-6.85,6.11-.16.38-.53.6-.92.6Z"/>
      <path fill="#f0f6f7" d="m299.68,374.38c-.13,0-.26-.03-.39-.08-.5-.22-.74-.8-.52-1.3.12-.27,2.9-6.61,8.48-7.32.54-.07,1.04.32,1.11.86.07.54-.32,1.04-.86,1.11-4.44.56-6.88,6.08-6.9,6.13-.16.38-.53.6-.91.6Z"/>
      <path fill="#21426b" d="m70.02,372.55c-5.01,4.26-4.64,11.17-4.64,11.17-.04,2.66-.41,4.58-.93,5.95-1.38,3.64-3.78,3.48-3.78,3.48-1.7.28-3.44.39-5.15.18-3.77-.45-6.89-2.55-8.98-5.68-.92-1.39-1.84-3.04-2.46-4.57-1-2.49-.27-5.83.55-8.24.96-2.83,2.45-5.46,3.69-8.18,1.6-3.54,2.78-7.28,3.5-11.1.49-2.61,2.79-6.3,5.12-7.77.91-.58,2.42-.93,4.18-1.13,5.43-.61,13.24.21,13.24.21-8.26,2.8-8.23,11.33-8.23,11.33,6.46-2.05,9.19,3.34,10.74,5.55,1.54,2.2-1.85,4.56-6.86,8.81Z"/>
      <path fill="#f0f6f7" d="m64.46,389.67c-1.38,3.64-3.78,3.48-3.78,3.48-1.7.28-3.44.39-5.15.18-3.77-.45-6.89-2.55-8.98-5.68-.92-1.39-1.84-3.04-2.46-4.57-1-2.49-.27-5.83.55-8.24.96-2.83,2.45-5.46,3.69-8.18,1.6-3.54,2.78-7.28,3.5-11.1.49-2.61,2.79-6.3,5.12-7.77.91-.58,2.42-.93,4.18-1.13-1.98,1.57-4.69,4.34-5.7,8.35-1.67,6.61-6.08,11.48-7.22,16.72-1.14,5.24-4.71,13.6,5.85,17.56,5.19,1.94,8.43,1.43,10.39.4Z"/>
      <path fill="#f0f6f7" d="m73.01,371.04c-.08,0-.17-.01-.25-.03-6.42-1.67-11.62-9.2-11.84-9.52-.31-.45-.19-1.07.26-1.38.45-.31,1.07-.19,1.38.26.05.07,5.01,7.24,10.7,8.72.53.14.85.68.71,1.21-.12.45-.52.74-.96.74Z"/>
      <path fill="#f0f6f7" d="m69.24,374.28s-.06,0-.1,0c-2.9-.28-9.17-6.54-10.39-7.79-.38-.39-.38-1.02.01-1.41s1.02-.38,1.41.01c2.84,2.9,7.56,7.05,9.16,7.2.55.05.95.54.9,1.08-.05.51-.48.9-.99.9Z"/>
      <path fill="#f0f6f7" d="m67.21,377.04h0c-3.54,0-10.23-5.71-10.98-6.36-.42-.36-.46-.99-.1-1.4.36-.41.99-.46,1.4-.1,2.62,2.27,7.57,5.87,9.68,5.87.55,0,.99.45.99.99s-.45.99-.99.99Z"/>
      <path fill="#f0f6f7" d="m344.08,380.84c-.49.43-2.72.27-3.42.38-1.23.21-2.44.49-3.64.83-4.75,1.35-9.19,3.56-13.73,5.46-7.42,3.1-15.2,5.33-23.12,6.67-2.91.49-5.85.86-8.79,1.11-1.35.11-2.95.43-4.3.26-.84-.11-1.34-.67-1.87-1.3-.75-.9-1.25-1.99-1.59-3.14,6.71-.48,20.77-1.74,26.94-4.21,7.67-3.07,24.56-11.16,32.91-9.82.66,1.32,1.32,3.15.61,3.77Z"/>
      <path fill="#21426b" d="m155.37,275.81s-12.46,17.02-18.24,26.75c-5.78,9.73-14.29,18.24-14.29,18.24,0,0,20.37,19.76,32.53,19.76l48.33-44.99,1.22-19.76h-49.55Z"/>
      <path fill="#21426b" d="m238.86,283.27c-21.89,11.25-24.53,38.45-24.53,38.45l-25.87-4.15-7.16-1.15-8.62-1.39,33.96-39.21,32.21,7.45Z"/>
      <g opacity=".21">
        <polygon fill="#200e10" points="202.38 296.8 188.47 317.56 181.31 316.41 202.38 296.8"/>
      </g>
      <g>
        <path fill="#ffab96" d="m351.07,305.33s12.12,4.53,15.56,7.77c3.45,3.24,5.09,7.42,5.09,7.42l-11.62.45s7.04,10.97,4.2,13-7.4-3.04-8-3.95-3.04-5.17-3.04-5.17c0,0-12.26-2.03-11.65-7.6l-1.42-1.93,10.88-10Z"/>
        <path fill="#ffab96" d="m351.63,334.45s-.09,0-.25,0c-1.49,0-3.11-.06-4.46-.78-.85-.45-1.26-1.06-1.56-1.95-.47-1.36-.97-2.56-.9-4.05.03-.51.11-1.03.38-1.46s.93-.87,1.45-.76c.35.07.75.47,1.04.67,0,0,.66-1.57,2.63-.05,0,0,.52-2.14,2.61-.46s7.3,6.54,7.51,7.9-2.63,2.48-4.96,1.17c0,0-2.08,1-3.5-.23Z"/>
        <path fill="#eb8366" d="m350.89,334.66c-3.5-1.9-3.79-8.26-3.8-8.53l.47-.02c0,.06.29,6.36,3.55,8.13l-.23.42Z"/>
        <path fill="#eb8366" d="m354.65,335.03c-2.28-1.36-4.81-8.57-4.91-8.88l.45-.16c.03.07,2.57,7.36,4.71,8.63l-.24.41Z"/>
        <path fill="#eb8366" d="m359.99,333.73c-1.67-.78-5.34-5.93-5.49-6.15l.39-.27c.04.05,3.75,5.27,5.3,5.99l-.2.43Z"/>
      </g>
      <path fill="#ec773f" d="m257.94,241.25l-11.23,21.49-28.12,22.8c-41.04,14.59-63.23-9.73-63.23-9.73,0,0,6.31-7.78,12.61-14.89,0,0,0,0,0,0,2.76-3.12,5.52-6.11,7.75-8.26,4.37-4.23,8.09-13.09,11.88-20.42,2.53-4.9,5.08-9.1,7.88-10.79,4.8-2.89,18.71-1.53,26.96-.39,2.03.28,3.72.55,4.84.73.96.16,1.51.26,1.51.26l1.1.96,8.96,7.81,3.77,2.06,15.31,8.37Z"/>
      <path fill="#f0f6f7" d="m242.63,232.88c-.96,6.74-4.29,19.58-15.43,12.67-12.39-7.69-6.87-20.52-4.75-24.49,2.03.28,3.72.55,4.84.73l2.61,1.22,8.96,7.81,3.77,2.06Z"/>
      <g opacity=".14">
        <path fill="#144355" d="m198.6,245.22s-18.75,9-30.61,15.7c2.76-3.12,5.52-6.11,7.75-8.26,4.37-4.23,8.09-13.09,11.88-20.42l10.99,12.98Z"/>
      </g>
      <path fill="#ec773f" d="m206.65,219.83s-46.27,3.93-47.87,4.38,3.19,24.62,3.19,24.62c0,0,32.6.46,33.74,0s10.94-29,10.94-29Z"/>
      <g>
        <path fill="#ffab96" d="m108.26,266.89s-11.55,3.75-17.12,7.09-11.45,7.9-11.45,9.63,2.23,2.03,2.23,2.03c0,0-3.85,4.66,1.11,4.56,0,0-2.53,2.54-2.23,3.55s1.52,2.63,5.88-.51c0,0-.71,5.37,3.65,2.63,0,0,7.5-7.8,11.04-9.02s3.65-2.43,3.65-2.43c0,0-5.98,11.38-3.34,12.23s4.66.34,6.59-2.9c1.93-3.24,11.05-18.18,11.3-21.57s-11.3-5.29-11.3-5.29Z"/>
        <rect width="15.14" height=".47" x="80.42" y="280.89" fill="#eb8366" transform="rotate(-36.58 88 281.14)"/>
        <rect width="15.13" height=".47" x="81.39" y="285.26" fill="#eb8366" transform="rotate(-38.41 88.972 285.53)"/>
        <rect width="14.56" height=".48" x="84.86" y="288.19" fill="#eb8366" transform="rotate(-41.4 92.162 288.457)"/>
      </g>
      <path fill="#f0f6f7" d="m352.57,306.29l-11.63,12.77s-6.61-3.96-13.15-7.73c1.51-4.5,4.84-12.11,10.57-14.06l14.21,9.03Z"/>
      <g>
        <path fill="#200e10" d="m231.99,192.43h0c-3.42,2.48-4.95,6.91-4.77,11.19.03.97.2,2.03.3,3.04.27,1.72.73,3.44,1.22,5.09.54,2.11,1.21,4.45,1.84,7.17,3.77-.89,7.42-1.76,11.19-2.66,2.4-.57,5.06-1.96,7.57-2.21,3.44-.28,7.44.43,10.85-.3,1.86-.41,3.62-1.32,4.93-3.08.87-1.11,1.09-2.74.24-3.89-.53-.72-1.39-1.17-1.78-1.99-.25-.57-.2-1.16-.24-1.79-.03-.45-.03-.98-.13-1.47h0c.04-.07-.03-.1,0-.17.04-.59-.06-1.26-.24-1.96-.62-2.78-1.93-5.47-4.31-7.34-2.67-2.02-6.06-3.03-9.43-3.23-3.36-.2-6.66.33-9.92.97-2.55.49-5.23,1.08-7.32,2.6h0Z"/>
        <g>
          <path fill="#ffab96" d="m225.47,223.92c-.25.28-.5.56-.72.87-1.39,1.93-1.85,4.66-1.5,6.97.39,2.55,1.76,4.85,3.41,6.83,1.47,1.76,3.34,3.4,5.62,3.69,1.96.25,4.03-.62,5.22-2.19,1.55-2.05.4-4.43,1.63-6.43.65-1.07,1.51-1.99,2.24-3l3.1-4.26.76-1.09,1-1.41,1.7-2.36-6.64-5.43-5.64-4.53-.7-.59-.67.88-1.03,1.48-2.57,3.49-.53.78-1.1,1.45c-.72.99-1.33,2.05-2.02,3.06-.47.68-1.04,1.23-1.57,1.81Z"/>
          <path fill="#eb8366" d="m244.26,227.77c-2.57-5.26-6.8-12.78-9.68-14.08l-2.63,2.48c-.07.59-.36,1.23-.23,1.94,2.55,16.08,8.98,13.55,8.98,13.55l3.57-3.89h0Z"/>
        </g>
        <path fill="#200e10" d="m262.67,199.15c-1.33.78-3.34,1.82-4.56,1.7,0,0,.51,7.96,1.12,12.64.22-.06.47-.02.65,0,1.86-.41,3.62-1.32,4.93-3.08,1.63-2.09-.08-4.37-.99-6.49-.7-1.64-.73-3.11-1.14-4.77h0Z"/>
        <path fill="#ffab96" d="m227.66,210.67c.7,1.77,2.19,3.6,3.76,4.95,0,0,1.17,11.36,10.91,14.84,6.96,2.54,12.73-3.32,15.35-8.75,3.31-6.9,7.06-16.19,1.75-23.36-2.66-3.59-7.19-5.89-11.7-5.82-5.19-.03-9.79,2.78-14.14,5.46-1.4.92-2.88,1.8-3.92,3.08-.72.84-1.2,1.9-1.31,2.98-.12,1.25-.16,1.49-.52,2.52-.58,1.44-.73,2.58-.17,4.1h0Z"/>
        <path fill="#121136" d="m247.9,212.96c-.51.61-1.47.71-2.11.19-.64-.51-.78-1.46-.27-2.06s1.47-.71,2.11-.19c.64.51.78,1.46.27,2.06Z"/>
        <g>
          <path fill="#071b38" d="m247.9,212.96c-.51.61-1.47.71-2.11.19-.64-.51-.78-1.46-.27-2.06s1.47-.71,2.11-.19c.64.51.78,1.46.27,2.06Z"/>
          <path fill="#fff" d="m246.8,212.12c-.25.3-.64.36-.97.1-.32-.26-.39-.64-.14-.95.25-.3.64-.36.97-.1.32.26.35.71.14.95Z"/>
        </g>
        <g>
          <path fill="#071b38" d="m257.57,217.98c-.51.61-1.47.71-2.11.19-.64-.51-.78-1.46-.27-2.06s1.47-.71,2.11-.19c.64.51.78,1.46.27,2.06Z"/>
          <path fill="#fff" d="m256.46,217.13c-.25.3-.64.36-.97.1-.32-.26-.39-.64-.14-.95.25-.3.64-.36.97-.1.32.26.39.64.14.95Z"/>
        </g>
        <path fill="#200e10" d="m228.95,195.94h0c-1.32,2.32-1.8,5.01-1.72,7.68.03.97.2,2.03.3,3.04.04.11.03.28.07.39.26-.65.76-1.25,1.45-1.86,2.27-1.86,4.37-.83,5.53,1.61.56,1.17.56,2.21.91,3.45.24.91,1.59,3.02,2.07.92.19-.86.23-2.15.63-2.9.32-.61.86-.77,1.33-1.3,1.91-2.02.5-6.4,4.76-6.3,1.88.04,3.47,1.38,4.93,2.6s3.2,2.44,5.06,2.19c2.82-.38,4.49-6.32,7.45-2.58.71.9,1.06,1.96,1.59,3.02.46.93,1.18,2.06,2.27,2.29,1.05-3.11,1.44-5.42.17-8.7-.93-2.4-1.81-4.11-3.22-6.2-1.12-1.66-3.41-3.14-5.37-3.72-2.14-.65-3.96-2-6.19-2.47-3.01-.63-5.53,1.05-8.44.76-.98-.1-1.91-.49-2.88-.62-1.34-.18-2.73.16-3.79.94-.87.64-1.04,1.56-1.64,2.37-1.52,2.06-3.93,3.09-5.25,5.41h0Z"/>
        <g>
          <path fill="#f9b08e" d="m231.05,207.91h0c.43-.3.9-.49,1.44-.64-.57.05-1.11.2-1.58.39-.5.26-.93.55-1.22,1.1-.25.48-.29,1.07-.12,1.6.18.53.46,1.03.78,1.46-.21-.46-.5-.96-.6-1.45s-.03-.98.22-1.45c.22-.41.68-.78,1.08-1h0Z"/>
          <path fill="#f9b08e" d="m232.1,209.7h0l.71.72c-.14-.25-.35-.54-.57-.82-.21-.29-.46-.51-.75-.66-.25-.22-.6-.41-.96-.42-.18,0-.4.05-.54.15s-.21.23-.22.41c.07-.14.22-.23.36-.33.14-.1.25-.13.4-.05.25.04.53.19.78.41.25.22.54.37.78.59h0Z"/>
        </g>
        <path fill="#200e10" d="m243.75,208.41q.07.04.14.08c.07.04.18,0,.29-.02,1.19-.69,2.26-.99,3.3-.7,1.54.37,2.31,1.66,2.39,1.7.11.14.25.22.39.12.04-.07.11-.2,0-.35-.07-.04-.92-1.53-2.71-1.95-1.22-.29-2.43-.06-3.69.76-.14.1-.15.27-.11.38h0Z"/>
        <path fill="#200e10" d="m255.38,212.46h0c-.14-.08-.07-.04,0,0s.14.08.25.04c1.54-.67,2.69-.76,3.62-.28h0c1.14.6,1.35,1.93,1.35,1.93,0,.17.14.25.32.26.18,0,.25-.13.25-.3.04-.07-.27-1.54-1.59-2.32-1.07-.56-2.39-.47-4.08.29-.14.1-.21.23-.11.38h0Z"/>
        <g>
          <path fill="#eb8366" d="m253.05,214.72h0c.38-.35.66-.68,1-.96-.34.28-.69.57-.96.89-.27.32-.46.69-.7,1.12-.31.77-.51,1.69-.48,2.55.03.48.11.89.1,1.27,0,.37-.04.82-.39,1.1-.23.25-.69.38-1.15.33-.38-.02-.88-.18-1.3-.31.38.2.8.33,1.26.38s.92-.07,1.34-.32c.34-.28.5-.76.47-1.25.04-.44-.11-.89-.1-1.27-.03-.86.09-1.63.32-2.44.12-.4.31-.77.58-1.09h0Z"/>
          <path fill="#eb8366" d="m248.31,220.33c-.04-.3-.3-.53-.49-.73-.31-.16-.53-.28-.88-.18.31.16.53.28.72.48.23.12.42.31.65.43Z"/>
        </g>
        <g>
          <path fill="#eb8366" d="m250.68,224.51c-1.51.06-3.02-.33-4.43-.91-.7-.31-1.39-.65-2.02-1.07-.65-.4-1.23-.9-1.77-1.42,1.35.69,2.65,1.38,4.02,1.94.68.3,1.37.55,2.07.79.7.24,1.41.47,2.14.67h0Z"/>
          <path fill="#eb8366" d="m247.86,225.41c-.43.13-.82.08-1.19,0-.37-.11-.73-.26-1.05-.59.43-.13.82-.09,1.19,0,.37.11.73.26,1.05.59h0Z"/>
        </g>
      </g>
    </g>
    <g>
      <g>
        <polygon fill="#fff" points="395.88 215.84 438.05 202.05 438.81 204.63 395.88 215.84 395.88 215.84"/>
        <polygon fill="#fff" points="359.88 243.29 430.92 218.81 431.75 221.37 359.88 243.29 359.88 243.29"/>
        <polygon fill="#fff" points="389.61 255.65 438.87 239.24 439.65 241.82 389.61 255.65 389.61 255.65"/>
        <polygon fill="#fff" points="412.31 281.68 458.67 258.09 459.83 260.52 412.31 281.68 412.31 281.68"/>
      </g>
      <g>
        <path fill="#fccf3a" d="m505.51,223.09c1.94,12.74-2,25.02-9.78,34.1-1.02,1.19-2.12,2.33-3.27,3.41-6.05,5.65-13.81,9.6-22.62,10.94-11.84,1.8-23.28-1.47-32.12-8.18-1.25-.94-2.44-1.96-3.58-3.04-6.61-6.28-11.27-14.73-12.75-24.44-2.23-14.7,3.34-28.78,13.62-38.04h0c1.16-1.05,2.38-2.03,3.65-2.94,5.28-3.8,11.52-6.43,18.39-7.47,10.19-1.55,20.09.65,28.28,5.58,1.35.81,2.66,1.7,3.91,2.65,8.46,6.45,14.53,16.07,16.25,27.43Z"/>
        <path fill="#fabe30" d="m438.67,194.9c-1.27.91-2.49,1.89-3.65,2.94,10.48,4.38,18.51,13.97,20.34,26,2.42,15.9-6.77,30.94-21.22,36.48,1.14,1.08,2.33,2.1,3.58,3.04,15.03-6.82,24.38-23.04,21.78-40.14-1.94-12.74-10.05-23.04-20.83-28.31Z"/>
        <path fill="#fabe30" d="m475.47,229.9c-2.05-13.51,3.66-26.43,13.79-34.24-1.25-.96-2.56-1.84-3.91-2.65-10.66,8.85-16.57,22.9-14.34,37.57,2.03,13.34,10.33,24.19,21.46,30.02,1.15-1.08,2.25-2.21,3.27-3.41-10.48-5.02-18.39-14.96-20.26-27.29Z"/>
        <path fill="#f9b928" d="m505.51,223.09c3.53,23.22-12.44,44.91-35.66,48.44-13.84,2.1-27.15-2.72-36.38-11.88,7.78,4.13,16.91,5.88,26.29,4.45,23.22-3.53,39.19-25.22,35.66-48.45-1.43-9.38-5.81-17.58-12.07-23.78,11.49,6.09,20.06,17.36,22.16,31.21Z"/>
        <g opacity=".45">
          <ellipse cx="431.33" cy="215.15" fill="#fff" rx="14.03" ry="4" transform="rotate(-70.62 431.356 215.149)"/>
        </g>
        <g opacity=".45">
          <circle cx="428.09" cy="234.86" r="4.21" fill="#fff"/>
        </g>
      </g>
    </g>
  </g>
</svg>
